<?xml version="1.0" encoding="utf-8"?>
<!-- Generator: Adobe Illustrator 21.1.0, SVG Export Plug-In . SVG Version: 6.00 Build 0)  -->
<svg version="1.1" id="Ebene_1" xmlns="http://www.w3.org/2000/svg" xmlns:xlink="http://www.w3.org/1999/xlink" x="0px" y="0px"
	 viewBox="0 0 700.6 332.4" style="enable-background:new 0 0 700.6 332.4;" xml:space="preserve">
<style type="text/css">
	.st0{fill:none;}
	.st1{fill:#DADADA;stroke:#878787;stroke-width:0.5;stroke-miterlimit:10;}
	.st2{fill:#3C3C3B;}
	.st3{fill:none;stroke:#3C3C3B;stroke-miterlimit:10;}
	.st4{fill:#3C3C3B;stroke:#DADADA;stroke-width:0.5;stroke-miterlimit:10;}
	.st5{fill:#FFFFFF;}
	.st6{fill:none;stroke:#FFFFFF;stroke-miterlimit:10;}
</style>
<rect class="st0" width="700.6" height="332.4"/>
<g>
	<path class="st1" d="M71.8,93.5V96v36.1V152v0h19.9v0h31.9l-7,0h7.5l19.4-20.4v-3.5V92V72.1v0H94.2L71.8,93.5z M123.7,92v31.3
		l-6.9,8.7H88.8v-31.5l8.8-8.6H123.7z"/>
	<rect x="154.6" y="101.7" class="st1" width="39.5" height="19.9"/>
	<polygon class="st1" points="610,71.8 610,116.7 550.1,56.9 550.1,71.8 470.4,71.8 470.4,91.8 550.1,91.8 550.1,101.7 470.4,101.7 
		470.4,121.7 550.1,121.7 550.1,131.6 470.4,131.6 470.4,151.6 550.1,151.6 556.4,151.6 570.1,151.6 570.1,106.7 629.9,166.5 
		629.9,71.8 	"/>
	<polygon class="st1" points="278.9,91.8 298.8,71.8 224.1,71.8 204.1,91.8 204.1,121.7 263.9,121.7 254,131.6 209.1,131.6 
		189.2,151.6 263.9,151.6 283.9,131.6 283.9,101.7 224.1,101.7 234,91.8 	"/>
	<polygon class="st1" points="403.5,71.8 383.6,71.8 303.8,71.8 303.8,91.8 383.6,91.8 383.6,101.7 303.8,101.7 303.8,121.7 
		383.6,121.7 383.6,131.6 303.8,131.6 303.8,151.6 383.6,151.6 383.6,181.5 463.3,101.7 463.3,71.8 403.5,131.6 	"/>
</g>
<line class="st3" x1="71.8" y1="199.1" x2="629.9" y2="199.1"/>
</svg>
