<svg id="Ebene_1" data-name="Ebene 1" xmlns="http://www.w3.org/2000/svg" viewBox="0 0 700.56 332.44"><defs><style>.cls-1{fill:#fff;}.cls-2{fill:#3c3c3b;stroke:#7f8388;stroke-miterlimit:10;}.cls-3{fill:#7f8388;}.cls-4{fill:#ff662b;}.cls-5{fill:#20242a;}</style></defs><title>logo-oseven</title><rect class="cls-1" width="700.56" height="332.44"/><line class="cls-2" x1="71.82" y1="199.12" x2="629.9" y2="199.12"/><path class="cls-3" d="M94.11,240l-10.8,27.3c-1.9,4.8-5.6,8.05-9.9,7.7v-2.35c3.35.3,5.9-2.2,7.45-5.85l.55-1.35L69.91,240h2.7l10.1,22.25L91.41,240Z"/><path class="cls-3" d="M105.41,252.47a13.13,13.13,0,1,1,13.16,13A13,13,0,0,1,105.41,252.47Zm23.71,0a10.58,10.58,0,1,0-10.55,10.65A10.48,10.48,0,0,0,129.12,252.47Z"/><path class="cls-3" d="M167.66,240v25h-2.5v-4.75a9.42,9.42,0,0,1-8.95,5.3c-6,0-9.7-3.95-9.7-10V240h2.55v15.55c0,4.6,2.65,7.6,7.35,7.6,4.9,0,8.75-3.2,8.75-10V240Z"/><path class="cls-3" d="M195.71,239.62V242c-4.3,0-8.35,2.65-8.35,9V265h-2.5V240h2.5v4.9C189.06,240.92,192.31,239.62,195.71,239.62Z"/><path class="cls-3" d="M257.66,230v35h-2.5v-5.8a11.85,11.85,0,0,1-10.75,6.35,13.05,13.05,0,0,1,0-26.1,11.85,11.85,0,0,1,10.75,6.35V230Zm-2.5,22.5a10.6,10.6,0,1,0-10.6,10.65A10.52,10.52,0,0,0,255.16,252.47Z"/><path class="cls-3" d="M274.11,231.92a2,2,0,1,1,2,2A2,2,0,0,1,274.11,231.92Zm.75,8.05h2.5v25h-2.5Z"/><path class="cls-3" d="M319.26,240v23.8c0,7.5-5.55,11.75-12.45,11.75-5.85,0-10-2.35-11.8-6l2.2-1.25c1.3,2.65,4.1,4.85,9.6,4.85,6.25,0,9.95-3.65,9.95-9.35v-4.6A11.85,11.85,0,0,1,306,265.52a13.05,13.05,0,0,1,0-26.1,11.85,11.85,0,0,1,10.75,6.35V240Zm-2.5,12.5a10.6,10.6,0,1,0-10.6,10.65A10.52,10.52,0,0,0,316.76,252.47Z"/><path class="cls-3" d="M335.71,231.92a2,2,0,1,1,2,2A2,2,0,0,1,335.71,231.92Zm.75,8.05H339v25h-2.5Z"/><path class="cls-3" d="M361.51,242.42v16.25c0,4.4,2.35,4.5,7.45,4.05V265c-6.55,1-10-.6-10-6.3V242.42h-5.5V240H359v-6.25l2.55-.75v7H369v2.45Z"/><path class="cls-3" d="M407.51,240v25H405v-5.65a12,12,0,0,1-10.75,6.2,13.05,13.05,0,0,1,0-26.1,12,12,0,0,1,10.75,6.2V240ZM405,252.47a10.58,10.58,0,1,0-10.55,10.65A10.48,10.48,0,0,0,405,252.47Z"/><path class="cls-3" d="M424.71,228.47h2.5V265h-2.5Z"/><path class="cls-3" d="M488.41,249.42V265h-2.55V249.42c0-4.6-2.65-7.6-7.35-7.6-4.9,0-8.75,3.2-8.75,10V265h-2.5V230h2.5v14.75a9.42,9.42,0,0,1,8.95-5.3C484.66,239.42,488.41,243.37,488.41,249.42Z"/><path class="cls-3" d="M503.26,252.47a13.13,13.13,0,1,1,13.15,13A13,13,0,0,1,503.26,252.47Zm23.7,0a10.58,10.58,0,1,0-10.55,10.65A10.48,10.48,0,0,0,527,252.47Z"/><path class="cls-3" d="M580.81,249.12V265h-2.5V249.12c0-4.75-2.75-7.3-6.65-7.3-4.2,0-7.5,2.8-7.5,9.2v14h-2.5V249.12c0-4.75-2.55-7.3-6.4-7.3-4.1,0-7.75,2.8-7.75,9.2v14H545V240h2.5v4.3a8.73,8.73,0,0,1,8-4.85,7.91,7.91,0,0,1,7.8,5.1,9.11,9.11,0,0,1,8.35-5.1C577,239.42,580.81,242.87,580.81,249.12Z"/><path class="cls-3" d="M621,252.57c0,.4-.05.8-.05,1.2H598.26c.6,5.65,4.9,9.35,10.6,9.35,4.1,0,7.2-1.9,8.65-4.55l2.2,1.3c-2.05,3.4-6,5.65-10.9,5.65-7.7,0-13.15-5.5-13.15-13,0-7.35,5.3-13.05,13-13.05S621,245.72,621,252.57Zm-22.7-1.25h20.1c-.55-6.1-4.85-9.5-9.75-9.5A10.08,10.08,0,0,0,598.26,251.32Z"/><path class="cls-3" d="M327.41,132.76A24.33,24.33,0,1,1,351.78,157,24,24,0,0,1,327.41,132.76Zm43.92,0a19.6,19.6,0,1,0-19.55,19.74A19.42,19.42,0,0,0,371.33,132.76Z"/><path class="cls-3" d="M417.49,143.79c0,7.6-6.68,13.16-16.59,13.16-9.27,0-15.39-4.36-17.61-10.29l4-2.32c1.66,5,6.67,8.16,13.62,8.16,6.48,0,12-2.87,12-8.71,0-12.6-28.08-5.38-28.08-22.06,0-7.32,6.3-13.15,15.76-13.15,7.5,0,13.25,3.61,15.75,9.26l-3.89,2.23c-1.95-4.82-6.77-7-11.86-7-6,0-11.12,3.15-11.12,8.71C389.41,134.15,417.49,126.83,417.49,143.79Z"/><path class="cls-3" d="M471.05,133c0,.74-.1,1.48-.1,2.22H429c1.11,10.47,9.08,17.33,19.64,17.33,7.6,0,13.35-3.52,16-8.43l4.08,2.41c-3.8,6.3-11,10.47-20.2,10.47-14.27,0-24.37-10.2-24.37-24.19,0-13.62,9.82-24.18,24-24.18S471.05,120.25,471.05,133ZM429,130.63h37.25c-1-11.31-9-17.61-18.07-17.61C437.59,113,429.9,120.34,429,130.63Z"/><path class="cls-3" d="M519,109.59l-19.55,46.34h-5.66l-19.64-46.34h5l17.42,41.52,17.52-41.52Z"/><path class="cls-3" d="M569.28,133c0,.74-.09,1.48-.09,2.22h-42c1.11,10.47,9.08,17.33,19.64,17.33,7.6,0,13.35-3.52,16-8.43l4.08,2.41c-3.8,6.3-11,10.47-20.2,10.47-14.27,0-24.37-10.2-24.37-24.19,0-13.62,9.82-24.18,24-24.18S569.28,120.25,569.28,133Zm-42.07-2.32h37.25c-1-11.31-9-17.61-18.07-17.61C535.82,113,528.13,120.34,527.21,130.63Z"/><path class="cls-3" d="M619.32,127.11v28.82h-4.73V127.11c0-8.53-4.91-14.09-13.62-14.09-9.08,0-16.22,5.93-16.22,18.44v24.47h-4.63V109.59h4.63v8.81c3.53-6.86,9.46-9.82,16.59-9.82C612.37,108.58,619.32,115.9,619.32,127.11Z"/><path class="cls-4" d="M244.64,73.88a49.33,49.33,0,0,0-10,1,61.37,61.37,0,0,1,3,5.55,43,43,0,1,1,7.06,85.44H200.33a62.12,62.12,0,0,1-19.09,3h-3v3h66.4a49,49,0,0,0,0-98Z"/><path class="cls-5" d="M181.24,41.59A65.22,65.22,0,0,0,123.19,77.2a46.31,46.31,0,0,1,6.17,1.14,59.16,59.16,0,1,1,51.88,87.57H134.18a45.89,45.89,0,0,1-16.34,3c-.59,0-1.18,0-1.76,0v3h65.16a65.16,65.16,0,0,0,0-130.32Z"/><path class="cls-3" d="M117.84,171.91a49,49,0,1,1,49-49A49.07,49.07,0,0,1,117.84,171.91Zm0-92a43,43,0,1,0,43,43A43.07,43.07,0,0,0,117.84,79.88Z"/></svg>