
<svg
   xmlns:dc="http://purl.org/dc/elements/1.1/"
   xmlns:cc="http://creativecommons.org/ns#"
   xmlns:rdf="http://www.w3.org/1999/02/22-rdf-syntax-ns#"
   xmlns:svg="http://www.w3.org/2000/svg"
   xmlns="http://www.w3.org/2000/svg"
   xmlns:sodipodi="http://sodipodi.sourceforge.net/DTD/sodipodi-0.dtd"
   xmlns:inkscape="http://www.inkscape.org/namespaces/inkscape"
   version="1.1"
   id="Ebene_1"
   x="0px"
   y="0px"
   viewBox="0 0 700.6 200.4"
   xml:space="preserve"
   sodipodi:docname="logo-o-seven-black-small.svg"
   width="700.59998"
   height="200.39999"
   inkscape:version="0.92.3 (3ce5693, 2018-03-11)"><metadata
   id="metadata59"><rdf:RDF><cc:Work
       rdf:about=""><dc:format>image/svg+xml</dc:format><dc:type
         rdf:resource="http://purl.org/dc/dcmitype/StillImage" /><dc:title></dc:title></cc:Work></rdf:RDF></metadata><defs
   id="defs57" /><sodipodi:namedview
   pagecolor="#ffffff"
   bordercolor="#666666"
   borderopacity="1"
   objecttolerance="10"
   gridtolerance="10"
   guidetolerance="10"
   inkscape:pageopacity="0"
   inkscape:pageshadow="2"
   inkscape:window-width="1920"
   inkscape:window-height="1025"
   id="namedview55"
   showgrid="false"
   inkscape:zoom="0.67941767"
   inkscape:cx="73.592434"
   inkscape:cy="166.2"
   inkscape:window-x="0"
   inkscape:window-y="27"
   inkscape:window-maximized="1"
   inkscape:current-layer="Ebene_1" />
<style
   type="text/css"
   id="style2">
	.st0{fill:none;}
	.st1{fill:#DADADA;}
	.st2{fill:#3C3C3B;}
	.st3{fill:none;stroke:#3C3C3B;stroke-miterlimit:10;}
	.st4{fill:#FFFFFF;}
	.st5{fill:none;stroke:#FFFFFF;stroke-miterlimit:10;}
</style>
<rect
   class="st0"
   width="700.59998"
   height="332.39999"
   id="rect4"
   x="0"
   y="-132.00069"
   style="fill:none" />
<g
   id="g16"
   transform="translate(3.2,-18.500512)">
	<path
   class="st2"
   d="m 72.4,94.7 v 2.5 36.1 19.9 0 h 19.9 v 0 h 31.9 -7 7.5 l 19.4,-20.4 v -3.5 -36.1 -19.9 0 H 94.8 Z m 51.9,-1.5 v 31.3 l -6.9,8.7 H 89.3 v -31.5 l 8.8,-8.6 h 26.2 z"
   id="path6"
   inkscape:connector-curvature="0"
   style="fill:#3c3c3b" />
	<rect
   x="155.2"
   y="102.9"
   class="st2"
   width="39.5"
   height="19.9"
   id="rect8"
   style="fill:#3c3c3b" />
	<polygon
   class="st2"
   points="550.7,132.8 471,132.8 471,152.8 550.7,152.8 557,152.8 570.7,152.8 570.7,107.9 630.5,167.7 630.5,73 610.5,73 610.5,117.9 550.7,58.1 550.7,73 471,73 471,93 550.7,93 550.7,102.9 471,102.9 471,122.9 550.7,122.9 "
   id="polygon10"
   style="fill:#3c3c3b" />
	<polygon
   class="st2"
   points="264.5,152.8 284.5,132.8 284.5,102.9 224.6,102.9 234.6,93 279.5,93 299.4,73 224.6,73 204.7,93 204.7,122.9 264.5,122.9 254.6,132.8 209.7,132.8 189.7,152.8 "
   id="polygon12"
   style="fill:#3c3c3b" />
	<polygon
   class="st2"
   points="384.2,122.9 384.2,132.8 304.4,132.8 304.4,152.8 384.2,152.8 384.2,182.7 463.9,102.9 463.9,73 404.1,132.8 404.1,73 384.2,73 304.4,73 304.4,93 384.2,93 384.2,102.9 304.4,102.9 304.4,122.9 "
   id="polygon14"
   style="fill:#3c3c3b" />
</g>


</svg>