<?xml version="1.0" encoding="utf-8"?>
<!-- Generator: Adobe Illustrator 21.1.0, SVG Export Plug-In . SVG Version: 6.00 Build 0)  -->
<svg version="1.1" id="Ebene_1" xmlns="http://www.w3.org/2000/svg" xmlns:xlink="http://www.w3.org/1999/xlink" x="0px" y="0px"
	 viewBox="0 0 700.6 332.4" style="enable-background:new 0 0 700.6 332.4;" xml:space="preserve">
<style type="text/css">
	.st0{fill:none;}
	.st1{fill:#DADADA;}
	.st2{fill:#3C3C3B;}
	.st3{fill:none;stroke:#3C3C3B;stroke-miterlimit:10;}
	.st4{fill:#FFFFFF;}
	.st5{fill:none;stroke:#FFFFFF;stroke-miterlimit:10;}
</style>
<rect class="st0" width="700.6" height="332.4"/>
<g>
	<path class="st1" d="M72.4,94.7v2.5v36.1v19.9v0h19.9v0h31.9l-7,0h7.5l19.4-20.4v-3.5V93.2V73.3v0H94.8L72.4,94.7z M124.3,93.2
		v31.3l-6.9,8.7H89.3v-31.5l8.8-8.6H124.3z"/>
	<rect x="155.2" y="102.9" class="st1" width="39.5" height="19.9"/>
	<polygon class="st1" points="610.5,73 610.5,117.9 550.7,58.1 550.7,73 471,73 471,93 550.7,93 550.7,102.9 471,102.9 471,122.9 
		550.7,122.9 550.7,132.8 471,132.8 471,152.8 550.7,152.8 557,152.8 570.7,152.8 570.7,107.9 630.5,167.7 630.5,73 	"/>
	<polygon class="st1" points="279.5,93 299.4,73 224.6,73 204.7,93 204.7,122.9 264.5,122.9 254.6,132.8 209.7,132.8 189.7,152.8 
		264.5,152.8 284.5,132.8 284.5,102.9 224.6,102.9 234.6,93 	"/>
	<polygon class="st1" points="404.1,73 384.2,73 304.4,73 304.4,93 384.2,93 384.2,102.9 304.4,102.9 304.4,122.9 384.2,122.9 
		384.2,132.8 304.4,132.8 304.4,152.8 384.2,152.8 384.2,182.7 463.9,102.9 463.9,73 404.1,132.8 	"/>
</g>
<line class="st5" x1="72.4" y1="200.3" x2="630.5" y2="200.3"/>
<g>
	<path class="st4" d="M89.6,256c-3.3,0-6.2-0.9-8.8-2.8c-0.8-0.6-1.7-1.4-2.6-2.4c-2.4-2.7-3.6-5.9-3.8-9.4v-15.8h1.4l0,15.3
		c0,1.9,0.3,3.6,1,5.1c1,2.6,2.7,4.7,5.1,6.3s5,2.4,7.9,2.4c2.7,0,5.4-0.8,7.9-2.5c2.5-1.6,4.2-3.7,5-6.3c0.3-1,0.6-3.2,0.7-6.6
		c0.2-3.4,0.2-6.5,0.2-9.4v-4.4h1.3v26c-0.2,3.6-1.4,6.8-3.8,9.5c-0.7,0.8-1.5,1.6-2.6,2.4c-2.6,1.9-5.6,2.8-8.9,2.8
		c-3.3,0-6.2-0.9-8.8-2.8c-0.8-0.6-1.7-1.4-2.6-2.4c-1.4-1.6-2.4-3.2-3-5h1.5c1,2.6,2.7,4.7,5.1,6.4s5,2.5,7.9,2.5
		c2.7,0,5.3-0.8,7.7-2.5c2.5-1.7,4.2-3.7,5.2-6.3c0.1-0.2,0.2-0.4,0.4-0.8c0.1-0.4,0.3-1.3,0.5-2.9c0.2-1.6,0.2-3.4,0.1-5.4
		c-0.5,1.2-1.3,2.5-2.5,3.8c-0.6,0.7-1.5,1.5-2.6,2.3C95.8,255,92.9,256,89.6,256z"/>
	<path class="st4" d="M127.2,256c-4.2,0-7.8-1.5-10.8-4.5c-3-3-4.5-6.6-4.5-10.8s1.5-7.8,4.5-10.8c3-3,6.6-4.5,10.8-4.5
		c4.2,0,7.9,1.5,10.8,4.5c2.9,2.9,4.4,6.5,4.4,10.8c0,4.2-1.5,7.8-4.4,10.8C135.1,254.5,131.5,256,127.2,256z M137.1,250.5
		c2.7-2.7,4.1-6,4.1-9.8c0-3.8-1.4-7.1-4.1-9.8c-2.7-2.7-6-4.1-9.8-4.1c-3.8,0-7.1,1.4-9.8,4.1c-2.7,2.7-4.1,6-4.1,9.9
		c0,3.8,1.4,7.1,4.1,9.8c2.7,2.7,6,4.1,9.8,4.1C131.1,254.6,134.4,253.2,137.1,250.5z"/>
	<path class="st4" d="M164.2,256L164.2,256h-0.3h-0.1c-3.3,0-6.2-0.9-8.8-2.8c-0.8-0.6-1.7-1.4-2.6-2.4c-2.4-2.7-3.6-5.9-3.8-9.4
		v-1.1v-14.7h1.4v7.5v1.4v5.3v1.1c0,1.7,0.3,3.4,0.9,5.1v0.1c1,2.6,2.7,4.7,5.1,6.3s5,2.4,7.9,2.4c2.9,0,5.5-0.9,7.8-2.5
		s4-3.7,5.1-6.3v0l0,0c0.6-1.7,0.9-3.4,0.9-5.1v-1.1v-5.3V233v-7.5h1.4v14.7l0,1.1c-0.2,3.7-1.4,6.8-3.8,9.5
		c-0.6,0.7-1.5,1.5-2.6,2.3C170.2,255,167.4,255.9,164.2,256z"/>
	<path class="st4" d="M202.5,225.5c1.1,0,2.3,0.1,3.4,0.4c1.1,0.2,2.4,0.7,3.9,1.3c1.4,0.6,2.8,1.7,4.1,3.1c1.3,1.4,2.3,3.2,3.1,5.3
		h-1.4c-1-2.7-2.6-4.9-5-6.5c-2.4-1.6-5-2.4-8-2.4c-3.8,0-7.1,1.4-9.8,4.1s-4.1,6-4.1,9.9v1v5.4v1.3v7.6h-1.4v-14.7l0-1.2h0v-14.6
		h1.4v9c0.7-1.7,1.8-3.3,3.1-4.6C194.7,226.9,198.3,225.5,202.5,225.5z"/>
	<path class="st4" d="M271.4,216h1.3V256h-1.3v-9.1c-0.7,1.7-1.8,3.3-3.2,4.7c-3,3-6.6,4.5-10.8,4.5c-4.2,0-7.8-1.5-10.8-4.5
		c-3-3-4.5-6.6-4.5-10.8s1.5-7.8,4.5-10.8c3-3,6.6-4.5,10.8-4.5c4.2,0,7.9,1.5,10.8,4.5c1.4,1.4,2.4,2.9,3.2,4.7V216z M257.4,254.6
		c3.9,0,7.1-1.4,9.9-4.1s4.1-6,4.1-9.8c0-3.8-1.4-7.1-4.1-9.8s-6-4.1-9.8-4.1c-3.8,0-7.1,1.4-9.8,4.1s-4.1,6-4.1,9.9
		c0,3.8,1.4,7.1,4.1,9.8S253.6,254.6,257.4,254.6z"/>
	<path class="st4" d="M282.9,219.3c0-0.5,0.2-0.7,0.6-0.7c0.5,0,0.7,0.2,0.7,0.7c0,0.5-0.2,0.7-0.7,0.7
		C283.1,220,282.9,219.8,282.9,219.3z M284.2,237.8V255v1h-1.4v-30.5h1.4V237.8z"/>
	<path class="st4" d="M330.5,225.5v26c-0.2,4-1.6,7.4-4.4,10.2c-3,3-6.6,4.5-10.8,4.5c-3.3,0-6.2-0.9-8.8-2.8
		c-2.6-1.8-4.4-4.3-5.5-7.4h1.5c1,2.7,2.7,4.9,5,6.5c2.3,1.6,5,2.4,7.9,2.4c3.9,0,7.1-1.4,9.9-4.1c2.7-2.7,4.1-6,4.1-9.8v-4
		c-0.7,1.7-1.8,3.2-3.1,4.6c-3,3-6.6,4.5-10.8,4.5c-4.2,0-7.8-1.5-10.8-4.5c-3-3-4.5-6.6-4.5-10.8s1.5-7.8,4.5-10.8
		c3-3,6.6-4.5,10.8-4.5c4.2,0,7.9,1.5,10.8,4.5c1.3,1.4,2.4,2.9,3.1,4.6v-9H330.5z M315.3,254.6c3.9,0,7.1-1.4,9.9-4.1
		c2.7-2.7,4.1-6,4.1-9.8c0-3.8-1.4-7.1-4.1-9.8c-2.7-2.7-6-4.1-9.8-4.1c-3.8,0-7.1,1.4-9.8,4.1c-2.7,2.7-4.1,6-4.1,9.9
		c0,3.8,1.4,7.1,4.1,9.8C308.2,253.2,311.5,254.6,315.3,254.6z"/>
	<path class="st4" d="M339.7,219.3c0-0.5,0.2-0.7,0.6-0.7c0.5,0,0.7,0.2,0.7,0.7c0,0.5-0.2,0.7-0.7,0.7
		C339.9,220,339.7,219.8,339.7,219.3z M341.1,237.8V255v1h-1.4v-30.5h1.4V237.8z"/>
	<path class="st4" d="M373.1,254.6c2.9,0,5.6-0.8,8-2.4c2.4-1.6,4-3.7,5-6.5h1.4c-1.2,3.1-3,5.6-5.5,7.4c-2.6,1.9-5.6,2.8-8.8,2.8
		c-4.2,0-7.8-1.5-10.8-4.5c-2.8-2.8-4.3-6.2-4.5-10.2v-1.2V216h1.4v8.7h19.1v1.4h-19.1v6.8v1.3v5.3v1.1c0,3.8,1.4,7.1,4.1,9.8
		S369.3,254.6,373.1,254.6z"/>
	<path class="st4" d="M419.6,256v-9c-0.7,1.7-1.7,3.2-3.1,4.5c-3,3-6.6,4.5-10.8,4.5c-4.2,0-7.8-1.5-10.8-4.5c-3-3-4.5-6.6-4.5-10.8
		s1.5-7.8,4.5-10.8c3-3,6.6-4.5,10.8-4.5c4.2,0,7.9,1.5,10.8,4.5c1.3,1.4,2.4,2.9,3.1,4.6v-9h1.3v15.2v0.1v0.1V256H419.6z
		 M419.6,240.8v-0.1c0-3.9-1.4-7.1-4.1-9.8c-2.7-2.7-6-4.1-9.8-4.1s-7.1,1.4-9.8,4.1s-4.1,6-4.1,9.9c0,3.8,1.4,7.1,4.1,9.8
		s6,4.1,9.8,4.1c3.9,0,7.1-1.3,9.8-4S419.5,244.6,419.6,240.8z"/>
	<path class="st4" d="M431.4,254.6v1.4h-1.4V216h1.2h0.1v16V254.6z"/>
	<path class="st4" d="M491.6,236.9v19h-1.3v-19c0-2.8-1.2-5.1-3.5-7.1c-2.3-2-5.2-2.9-8.5-2.9c-3.1,0-5.7,0.9-7.9,2.7
		c-2.2,1.8-3.3,4.1-3.5,6.8v18.1v1.4h-1.4V216h1.4v15.8c0.6-1.1,1.4-2.1,2.3-2.9c2.5-2.2,5.5-3.3,9.1-3.3c3.6,0,6.7,1.1,9.3,3.3
		C490.3,231.2,491.6,233.9,491.6,236.9z"/>
	<path class="st4" d="M516.5,256c-4.2,0-7.8-1.5-10.8-4.5c-3-3-4.5-6.6-4.5-10.8s1.5-7.8,4.5-10.8c3-3,6.6-4.5,10.8-4.5
		c4.2,0,7.9,1.5,10.8,4.5c2.9,2.9,4.4,6.5,4.4,10.8c0,4.2-1.5,7.8-4.4,10.8C524.3,254.5,520.7,256,516.5,256z M526.3,250.5
		c2.7-2.7,4.1-6,4.1-9.8c0-3.8-1.4-7.1-4.1-9.8s-6-4.1-9.8-4.1s-7.1,1.4-9.8,4.1s-4.1,6-4.1,9.9c0,3.8,1.4,7.1,4.1,9.8
		s6,4.1,9.8,4.1C520.3,254.6,523.6,253.2,526.3,250.5z"/>
	<path class="st4" d="M562.6,256v-19c0-2.8-1.2-5.1-3.5-7.1c-2.3-2-5.2-2.9-8.5-2.9c-3.1,0-5.8,0.9-7.9,2.7
		c-2.2,1.8-3.4,4.1-3.5,6.8l0,1.3V255v1h-1.4v-30.5h1.4v6.4c0.6-1.1,1.4-2.1,2.3-2.9c2.5-2.2,5.5-3.3,9.1-3.3c3.6,0,6.7,1.1,9.3,3.3
		c1.5,1.3,2.6,2.8,3.3,4.5c0.5-1.7,1.5-3.2,3.1-4.5c2.5-2.2,5.5-3.3,9.1-3.3c3.6,0,6.7,1.1,9.3,3.3c2.6,2.2,3.9,4.9,3.9,8v19h-1.3
		v-19c0-2.8-1.2-5.1-3.5-7.1c-2.3-2-5.1-2.9-8.5-2.9c-3.1,0-5.8,0.9-8,2.8s-3.4,4.1-3.4,6.8v0.3v19H562.6z"/>
	<path class="st4" d="M626.6,239.6h-28.8c0,0.2,0,0.6,0,1.1c0,3.8,1.4,7.1,4.1,9.8s6,4.1,9.8,4.1c2.5,0,4.9-0.7,7.2-2
		c2.3-1.3,4-3.1,5.2-5.3h1.4c-1.4,2.5-3.3,4.6-5.9,6.2c-2.6,1.6-5.2,2.5-7.9,2.5c-4.2,0-7.8-1.5-10.8-4.5c-3-3-4.5-6.6-4.5-10.8
		s1.5-7.8,4.5-10.8c3-3,6.6-4.5,10.8-4.5c4,0,7.5,1.4,10.4,4.1c2.9,2.7,4.5,6.1,4.8,10.1H626.6z M611.6,226.8c-3.4,0-6.4,1.1-9,3.3
		c-2.6,2.2-4.2,4.9-4.7,8.2h27.4c-0.6-3.3-2.2-6-4.8-8.2S615,226.8,611.6,226.8z"/>
</g>
</svg>
