<svg id="Ebene_1" data-name="Ebene 1" xmlns="http://www.w3.org/2000/svg" viewBox="0 0 550.62 130.32"><defs><style>.cls-1{fill:#fff;}.cls-2{fill:#7f8388;}.cls-3{fill:#ff662b;}.cls-4{fill:#20242a;}</style></defs><title>logo-oseven</title><rect class="cls-1" width="550.62" height="130.32"/><path class="cls-2" d="M258.59,91.17A24.33,24.33,0,1,1,283,115.36,24,24,0,0,1,258.59,91.17Zm43.92,0A19.6,19.6,0,1,0,283,110.91,19.42,19.42,0,0,0,302.51,91.17Z"/><path class="cls-2" d="M348.66,102.2c0,7.6-6.67,13.16-16.59,13.16-9.26,0-15.38-4.36-17.6-10.29l4-2.31c1.67,5,6.67,8.15,13.62,8.15,6.49,0,12-2.87,12-8.71,0-12.6-28.08-5.37-28.08-22C316,72.83,322.25,67,331.7,67c7.51,0,13.25,3.61,15.76,9.26l-3.9,2.23c-1.94-4.82-6.76-7-11.86-7-6,0-11.12,3.15-11.12,8.71C320.58,92.56,348.66,85.24,348.66,102.2Z"/><path class="cls-2" d="M402.22,91.36c0,.74-.09,1.48-.09,2.22h-42c1.11,10.47,9.08,17.33,19.65,17.33,7.6,0,13.34-3.52,16-8.43l4.08,2.41c-3.8,6.3-11,10.47-20.2,10.47-14.28,0-24.38-10.19-24.38-24.19,0-13.62,9.83-24.18,24-24.18S402.22,78.66,402.22,91.36ZM360.15,89H397.4c-1-11.3-9-17.6-18.07-17.6C368.77,71.44,361.08,78.76,360.15,89Z"/><path class="cls-2" d="M450.13,68l-19.55,46.33h-5.65L405.28,68h5l17.42,41.51L445.22,68Z"/><path class="cls-2" d="M500.45,91.36c0,.74-.09,1.48-.09,2.22h-42c1.11,10.47,9.08,17.33,19.65,17.33,7.6,0,13.34-3.52,16-8.43l4.08,2.41c-3.8,6.3-11,10.47-20.2,10.47-14.28,0-24.38-10.19-24.38-24.19,0-13.62,9.83-24.18,24-24.18S500.45,78.66,500.45,91.36ZM458.38,89h37.25c-1-11.3-9-17.6-18.07-17.6C467,71.44,459.31,78.76,458.38,89Z"/><path class="cls-2" d="M550.49,85.52v28.82h-4.72V85.52c0-8.53-4.91-14.08-13.62-14.08-9.09,0-16.22,5.93-16.22,18.44v24.46H511.3V68h4.63v8.8C519.45,70,525.38,67,532.52,67,543.54,67,550.49,74.31,550.49,85.52Z"/><path class="cls-3" d="M175.82,32.3a49.26,49.26,0,0,0-10,1,62.67,62.67,0,0,1,2.94,5.56,42.25,42.25,0,0,1,7.07-.59,43,43,0,1,1,0,86H131.51a62.12,62.12,0,0,1-19.09,3h-3v3h66.4a49,49,0,1,0,0-98Z"/><path class="cls-4" d="M112.42,0a65.21,65.21,0,0,0-58,35.62,45,45,0,0,1,6.17,1.13,59.16,59.16,0,1,1,51.88,87.57H65.36a45.94,45.94,0,0,1-16.35,3c-.59,0-1.17,0-1.75,0v3h65.16A65.16,65.16,0,1,0,112.42,0Z"/><path class="cls-2" d="M49,130.32a49,49,0,1,1,49-49A49.07,49.07,0,0,1,49,130.32Zm0-92a43,43,0,1,0,43,43A43.06,43.06,0,0,0,49,38.3Z"/></svg>