<?xml version="1.0" encoding="UTF-8" standalone="no"?>
<!-- Generator: Adobe Illustrator 21.1.0, SVG Export Plug-In . SVG Version: 6.00 Build 0)  -->

<svg
   xmlns:dc="http://purl.org/dc/elements/1.1/"
   xmlns:cc="http://creativecommons.org/ns#"
   xmlns:rdf="http://www.w3.org/1999/02/22-rdf-syntax-ns#"
   xmlns:svg="http://www.w3.org/2000/svg"
   xmlns="http://www.w3.org/2000/svg"
   xmlns:sodipodi="http://sodipodi.sourceforge.net/DTD/sodipodi-0.dtd"
   xmlns:inkscape="http://www.inkscape.org/namespaces/inkscape"
   version="1.1"
   id="Ebene_1"
   x="0px"
   y="0px"
   viewBox="0 0 700.6 332.4"
   style="enable-background:new 0 0 700.6 332.4;"
   xml:space="preserve"
   sodipodi:docname="logo-o-seven-07.svg"
   inkscape:version="0.92.3 (d244b95, 2018-08-02)"><metadata
   id="metadata6406"><rdf:RDF><cc:Work
       rdf:about=""><dc:format>image/svg+xml</dc:format><dc:type
         rdf:resource="http://purl.org/dc/dcmitype/StillImage" /><dc:title></dc:title></cc:Work></rdf:RDF></metadata><defs
   id="defs6404" /><sodipodi:namedview
   pagecolor="#ffffff"
   bordercolor="#666666"
   borderopacity="1"
   objecttolerance="10"
   gridtolerance="10"
   guidetolerance="10"
   inkscape:pageopacity="0"
   inkscape:pageshadow="2"
   inkscape:window-width="1920"
   inkscape:window-height="1025"
   id="namedview6402"
   showgrid="false"
   inkscape:zoom="0.67941767"
   inkscape:cx="471.7275"
   inkscape:cy="166.2"
   inkscape:window-x="0"
   inkscape:window-y="25"
   inkscape:window-maximized="1"
   inkscape:current-layer="Ebene_1" />
<style
   type="text/css"
   id="style6355">
	.st0{fill:none;}
	.st1{fill:#DADADA;}
	.st2{fill:#3C3C3B;}
	.st3{fill:none;stroke:#3C3C3B;stroke-miterlimit:10;}
	.st4{fill:#FFFFFF;}
	.st5{fill:none;stroke:#FFFFFF;stroke-miterlimit:10;}
</style>
<rect
   class="st0"
   width="700.6"
   height="332.4"
   id="rect6357" />
<path
   class="st1"
   d="M71.8,93.5V96v36.1V152v0h19.9v0h31.9l-7,0h7.5l19.4-20.4v-3.5V92V72.1v0H94.2L71.8,93.5z M123.7,92v31.3  l-6.9,8.7H88.8v-31.5l8.8-8.6H123.7z"
   id="path6359"
   style="fill:#3c3c3b;fill-opacity:1" />
<rect
   x="154.6"
   y="101.7"
   class="st1"
   width="39.5"
   height="19.9"
   id="rect6361"
   style="fill:#3c3c3b;fill-opacity:1" />
<polygon
   class="st1"
   points="610,71.8 610,116.7 550.1,56.9 550.1,71.8 470.4,71.8 470.4,91.8 550.1,91.8 550.1,101.7 470.4,101.7   470.4,121.7 550.1,121.7 550.1,131.6 470.4,131.6 470.4,151.6 550.1,151.6 556.4,151.6 570.1,151.6 570.1,106.7 629.9,166.5   629.9,71.8 "
   id="polygon6363"
   style="fill:#3c3c3b;fill-opacity:1" />
<polygon
   class="st1"
   points="278.9,91.8 298.8,71.8 224.1,71.8 204.1,91.8 204.1,121.7 263.9,121.7 254,131.6 209.1,131.6   189.2,151.6 263.9,151.6 283.9,131.6 283.9,101.7 224.1,101.7 234,91.8 "
   id="polygon6365"
   style="fill:#3c3c3b;fill-opacity:1" />
<polygon
   class="st1"
   points="403.5,71.8 383.6,71.8 303.8,71.8 303.8,91.8 383.6,91.8 383.6,101.7 303.8,101.7 303.8,121.7   383.6,121.7 383.6,131.6 303.8,131.6 303.8,151.6 383.6,151.6 383.6,181.5 463.3,101.7 463.3,71.8 403.5,131.6 "
   id="polygon6367"
   style="fill:#3c3c3b;fill-opacity:1" />
<line
   class="st3"
   x1="71.8"
   y1="199.1"
   x2="629.9"
   y2="199.1"
   id="line6369" />
<path
   class="st2"
   d="M89.6,254.8c-3.3,0-6.2-0.9-8.8-2.8c-0.8-0.6-1.7-1.4-2.6-2.4c-2.4-2.7-3.6-5.9-3.8-9.4v-15.8h1.4l0,15.3  c0,1.9,0.3,3.6,1,5.1c1,2.6,2.7,4.7,5.1,6.3s5,2.4,7.9,2.4c2.7,0,5.4-0.8,7.9-2.5c2.5-1.6,4.2-3.7,5-6.3c0.3-1,0.6-3.2,0.7-6.6  c0.2-3.4,0.2-6.5,0.2-9.4v-4.4h1.3v26c-0.2,3.6-1.4,6.8-3.8,9.5c-0.7,0.8-1.5,1.6-2.6,2.4c-2.6,1.9-5.6,2.8-8.9,2.8  c-3.3,0-6.2-0.9-8.8-2.8c-0.8-0.6-1.7-1.4-2.6-2.4c-1.4-1.6-2.4-3.2-3-5h1.5c1,2.6,2.7,4.7,5.1,6.4s5,2.5,7.9,2.5  c2.7,0,5.3-0.8,7.7-2.5c2.5-1.7,4.2-3.7,5.2-6.3c0.1-0.2,0.2-0.4,0.4-0.8c0.1-0.4,0.3-1.3,0.5-2.9c0.2-1.6,0.2-3.4,0.1-5.4  c-0.5,1.2-1.3,2.5-2.5,3.8c-0.6,0.7-1.5,1.5-2.6,2.3C95.8,253.8,92.9,254.8,89.6,254.8z"
   id="path6371" />
<path
   class="st2"
   d="M127.2,254.8c-4.2,0-7.8-1.5-10.8-4.5c-3-3-4.5-6.6-4.5-10.8s1.5-7.8,4.5-10.8c3-3,6.6-4.5,10.8-4.5  c4.2,0,7.9,1.5,10.8,4.5c2.9,2.9,4.4,6.5,4.4,10.8c0,4.2-1.5,7.8-4.4,10.8C135.1,253.3,131.5,254.8,127.2,254.8z M137.1,249.3  c2.7-2.7,4.1-6,4.1-9.8c0-3.8-1.4-7.1-4.1-9.8c-2.7-2.7-6-4.1-9.8-4.1c-3.8,0-7.1,1.4-9.8,4.1c-2.7,2.7-4.1,6-4.1,9.9  c0,3.8,1.4,7.1,4.1,9.8c2.7,2.7,6,4.1,9.8,4.1C131.1,253.4,134.4,252.1,137.1,249.3z"
   id="path6373" />
<path
   class="st2"
   d="M164.2,254.8L164.2,254.8h-0.3h-0.1c-3.3,0-6.2-0.9-8.8-2.8c-0.8-0.6-1.7-1.4-2.6-2.4c-2.4-2.7-3.6-5.9-3.8-9.4  V239v-14.7h1.4v7.5v1.4v5.3v1.1c0,1.7,0.3,3.4,0.9,5.1v0.1c1,2.6,2.7,4.7,5.1,6.3s5,2.4,7.9,2.4c2.9,0,5.5-0.9,7.8-2.5  s4-3.7,5.1-6.3v0l0,0c0.6-1.7,0.9-3.4,0.9-5.1v-1.1v-5.3v-1.4v-7.5h1.4V239l0,1.1c-0.2,3.7-1.4,6.8-3.8,9.5  c-0.6,0.7-1.5,1.5-2.6,2.3C170.2,253.8,167.4,254.7,164.2,254.8z"
   id="path6375" />
<path
   class="st2"
   d="M202.5,224.3c1.1,0,2.3,0.1,3.4,0.4c1.1,0.2,2.4,0.7,3.9,1.3c1.4,0.6,2.8,1.7,4.1,3.1c1.3,1.4,2.3,3.2,3.1,5.3  h-1.4c-1-2.7-2.6-4.9-5-6.5c-2.4-1.6-5-2.4-8-2.4c-3.8,0-7.1,1.4-9.8,4.1s-4.1,6-4.1,9.9v1v5.4v1.3v7.6h-1.4v-14.7l0-1.2h0v-14.6  h1.4v9c0.7-1.7,1.8-3.3,3.1-4.6C194.7,225.7,198.3,224.3,202.5,224.3z"
   id="path6377" />
<path
   class="st2"
   d="M271.4,214.8h1.3v39.9h-1.3v-9.1c-0.7,1.7-1.8,3.3-3.2,4.7c-3,3-6.6,4.5-10.8,4.5c-4.2,0-7.8-1.5-10.8-4.5  c-3-3-4.5-6.6-4.5-10.8s1.5-7.8,4.5-10.8c3-3,6.6-4.5,10.8-4.5c4.2,0,7.9,1.5,10.8,4.5c1.4,1.4,2.4,2.9,3.2,4.7V214.8z M257.4,253.4  c3.9,0,7.1-1.4,9.9-4.1s4.1-6,4.1-9.8c0-3.8-1.4-7.1-4.1-9.8s-6-4.1-9.8-4.1c-3.8,0-7.1,1.4-9.8,4.1s-4.1,6-4.1,9.9  c0,3.8,1.4,7.1,4.1,9.8S253.6,253.4,257.4,253.4z"
   id="path6379" />
<path
   class="st2"
   d="M282.9,218.1c0-0.5,0.2-0.7,0.6-0.7c0.5,0,0.7,0.2,0.7,0.7c0,0.5-0.2,0.7-0.7,0.7  C283.1,218.8,282.9,218.6,282.9,218.1z M284.2,236.6v17.2v1h-1.4v-30.5h1.4V236.6z"
   id="path6381" />
<path
   class="st2"
   d="M330.5,224.3v26c-0.2,4-1.6,7.4-4.4,10.2c-3,3-6.6,4.5-10.8,4.5c-3.3,0-6.2-0.9-8.8-2.8  c-2.6-1.8-4.4-4.3-5.5-7.4h1.5c1,2.7,2.7,4.9,5,6.5c2.3,1.6,5,2.4,7.9,2.4c3.9,0,7.1-1.4,9.9-4.1c2.7-2.7,4.1-6,4.1-9.8v-4  c-0.7,1.7-1.8,3.2-3.1,4.6c-3,3-6.6,4.5-10.8,4.5c-4.2,0-7.8-1.5-10.8-4.5c-3-3-4.5-6.6-4.5-10.8s1.5-7.8,4.5-10.8  c3-3,6.6-4.5,10.8-4.5c4.2,0,7.9,1.5,10.8,4.5c1.3,1.4,2.4,2.9,3.1,4.6v-9H330.5z M315.3,253.4c3.9,0,7.1-1.4,9.9-4.1  c2.7-2.7,4.1-6,4.1-9.8c0-3.8-1.4-7.1-4.1-9.8c-2.7-2.7-6-4.1-9.8-4.1c-3.8,0-7.1,1.4-9.8,4.1c-2.7,2.7-4.1,6-4.1,9.9  c0,3.8,1.4,7.1,4.1,9.8C308.2,252.1,311.5,253.4,315.3,253.4z"
   id="path6383" />
<path
   class="st2"
   d="M339.7,218.1c0-0.5,0.2-0.7,0.6-0.7c0.5,0,0.7,0.2,0.7,0.7c0,0.5-0.2,0.7-0.7,0.7  C339.9,218.8,339.7,218.6,339.7,218.1z M341.1,236.6v17.2v1h-1.4v-30.5h1.4V236.6z"
   id="path6385" />
<path
   class="st2"
   d="M373.1,253.4c2.9,0,5.6-0.8,8-2.4c2.4-1.6,4-3.7,5-6.5h1.4c-1.2,3.1-3,5.6-5.5,7.4c-2.6,1.9-5.6,2.8-8.8,2.8  c-4.2,0-7.8-1.5-10.8-4.5c-2.8-2.8-4.3-6.2-4.5-10.2v-1.2v-24.1h1.4v8.7h19.1v1.4h-19.1v6.8v1.3v5.3v1.1c0,3.8,1.4,7.1,4.1,9.8  S369.3,253.4,373.1,253.4z"
   id="path6387" />
<path
   class="st2"
   d="M419.6,254.8v-9c-0.7,1.7-1.7,3.2-3.1,4.5c-3,3-6.6,4.5-10.8,4.5c-4.2,0-7.8-1.5-10.8-4.5  c-3-3-4.5-6.6-4.5-10.8s1.5-7.8,4.5-10.8c3-3,6.6-4.5,10.8-4.5c4.2,0,7.9,1.5,10.8,4.5c1.3,1.4,2.4,2.9,3.1,4.6v-9h1.3v15.2v0.1v0.1  v15.2H419.6z M419.6,239.6v-0.1c0-3.9-1.4-7.1-4.1-9.8c-2.7-2.7-6-4.1-9.8-4.1s-7.1,1.4-9.8,4.1s-4.1,6-4.1,9.9  c0,3.8,1.4,7.1,4.1,9.8s6,4.1,9.8,4.1c3.9,0,7.1-1.3,9.8-4S419.5,243.4,419.6,239.6z"
   id="path6389" />
<path
   class="st2"
   d="M431.4,253.4v1.4h-1.4v-39.9h1.2h0.1v16V253.4z"
   id="path6391" />
<path
   class="st2"
   d="M491.6,235.7v19h-1.3v-19c0-2.8-1.2-5.1-3.5-7.1c-2.3-2-5.2-2.9-8.5-2.9c-3.1,0-5.7,0.9-7.9,2.7  c-2.2,1.8-3.3,4.1-3.5,6.8v18.1v1.4h-1.4v-39.9h1.4v15.8c0.6-1.1,1.4-2.1,2.3-2.9c2.5-2.2,5.5-3.3,9.1-3.3c3.6,0,6.7,1.1,9.3,3.3  C490.3,230,491.6,232.7,491.6,235.7z"
   id="path6393" />
<path
   class="st2"
   d="M516.5,254.8c-4.2,0-7.8-1.5-10.8-4.5c-3-3-4.5-6.6-4.5-10.8s1.5-7.8,4.5-10.8c3-3,6.6-4.5,10.8-4.5  c4.2,0,7.9,1.5,10.8,4.5c2.9,2.9,4.4,6.5,4.4,10.8c0,4.2-1.5,7.8-4.4,10.8C524.3,253.3,520.7,254.8,516.5,254.8z M526.3,249.3  c2.7-2.7,4.1-6,4.1-9.8c0-3.8-1.4-7.1-4.1-9.8s-6-4.1-9.8-4.1s-7.1,1.4-9.8,4.1s-4.1,6-4.1,9.9c0,3.8,1.4,7.1,4.1,9.8s6,4.1,9.8,4.1  C520.3,253.4,523.6,252.1,526.3,249.3z"
   id="path6395" />
<path
   class="st2"
   d="M562.6,254.8v-19c0-2.8-1.2-5.1-3.5-7.1c-2.3-2-5.2-2.9-8.5-2.9c-3.1,0-5.8,0.9-7.9,2.7  c-2.2,1.8-3.4,4.1-3.5,6.8l0,1.3v17.2v1h-1.4v-30.5h1.4v6.4c0.6-1.1,1.4-2.1,2.3-2.9c2.5-2.2,5.5-3.3,9.1-3.3c3.6,0,6.7,1.1,9.3,3.3  c1.5,1.3,2.6,2.8,3.3,4.5c0.5-1.7,1.5-3.2,3.1-4.5c2.5-2.2,5.5-3.3,9.1-3.3c3.6,0,6.7,1.1,9.3,3.3c2.6,2.2,3.9,4.9,3.9,8v19h-1.3  v-19c0-2.8-1.2-5.1-3.5-7.1c-2.3-2-5.1-2.9-8.5-2.9c-3.1,0-5.8,0.9-8,2.8s-3.4,4.1-3.4,6.8v0.3v19H562.6z"
   id="path6397" />
<path
   class="st2"
   d="M626.6,238.5h-28.8c0,0.2,0,0.6,0,1.1c0,3.8,1.4,7.1,4.1,9.8s6,4.1,9.8,4.1c2.5,0,4.9-0.7,7.2-2  c2.3-1.3,4-3.1,5.2-5.3h1.4c-1.4,2.5-3.3,4.6-5.9,6.2c-2.6,1.6-5.2,2.5-7.9,2.5c-4.2,0-7.8-1.5-10.8-4.5c-3-3-4.5-6.6-4.5-10.8  s1.5-7.8,4.5-10.8c3-3,6.6-4.5,10.8-4.5c4,0,7.5,1.4,10.4,4.1c2.9,2.7,4.5,6.1,4.8,10.1H626.6z M611.6,225.6c-3.4,0-6.4,1.1-9,3.3  c-2.6,2.2-4.2,4.9-4.7,8.2h27.4c-0.6-3.3-2.2-6-4.8-8.2S615,225.6,611.6,225.6z"
   id="path6399" />
</svg>