<?xml version="1.0" encoding="iso-8859-1"?>
<!-- Generator: Adobe Illustrator 19.0.0, SVG Export Plug-In . SVG Version: 6.00 Build 0)  -->
<svg version="1.1" id="Layer_1" xmlns="http://www.w3.org/2000/svg" xmlns:xlink="http://www.w3.org/1999/xlink" x="0px" y="0px"
	 viewBox="0 0 491.52 491.52" style="enable-background:new 0 0 491.52 491.52;" xml:space="preserve">
<g>
	<g>
		<path d="M0,0v491.52h491.52V0H0z M471.04,471.04H20.48v-153.6h450.56V471.04z M471.04,296.96H409.6v-153.6h-20.48v153.6h-40.96
			v-102.4h-20.48v102.4h-40.96V163.84h-20.48v133.12h-40.96v-61.44H204.8v61.44h-40.96V256h-20.48v40.96H102.4v-81.92H81.92v81.92
			H20.48V102.4h450.56V296.96z M471.04,81.92H20.48V20.48h450.56V81.92z"/>
	</g>
</g>
<g>
	<g>
		<rect x="430.08" y="40.96" width="20.48" height="20.48"/>
	</g>
</g>
<g>
	<g>
		<rect x="389.12" y="40.96" width="20.48" height="20.48"/>
	</g>
</g>
<g>
	<g>
		<rect x="348.16" y="40.96" width="20.48" height="20.48"/>
	</g>
</g>
<g>
	<g>
		<rect x="51.2" y="40.96" width="245.76" height="20.48"/>
	</g>
</g>
<g>
	<g>
		<rect x="40.96" y="348.16" width="174.08" height="20.48"/>
	</g>
</g>
<g>
	<g>
		<rect x="40.96" y="389.12" width="174.08" height="20.48"/>
	</g>
</g>
<g>
	<g>
		<rect x="40.96" y="430.08" width="112.64" height="20.48"/>
	</g>
</g>
<g>
	<g>
		<rect x="276.48" y="348.16" width="174.08" height="20.48"/>
	</g>
</g>
<g>
	<g>
		<rect x="276.48" y="389.12" width="174.08" height="20.48"/>
	</g>
</g>
<g>
	<g>
		<rect x="276.48" y="430.08" width="112.64" height="20.48"/>
	</g>
</g>
<g>
</g>
<g>
</g>
<g>
</g>
<g>
</g>
<g>
</g>
<g>
</g>
<g>
</g>
<g>
</g>
<g>
</g>
<g>
</g>
<g>
</g>
<g>
</g>
<g>
</g>
<g>
</g>
<g>
</g>
</svg>
