<svg xmlns="http://www.w3.org/2000/svg" viewBox="0 0 1076.064 755.228">
  <defs>
    <style>
      .cls-1 {
        fill: #2f2e41;
      }

      .cls-2 {
        opacity: 0.1;
      }

      .cls-3 {
        fill: #a0616a;
      }

      .cls-4 {
        fill: #d0cde1;
      }

      .cls-5 {
        fill: #f2f2f2;
      }

      .cls-6 {
        fill: #3f3d56;
      }

      .cls-7 {
        fill: #ff662b;
      }

      .cls-8 {
        fill: #20242a;
      }

      .cls-9 {
        fill: #343d4b;
      }
    </style>
  </defs>
  <g id="Gruppe_8" data-name="Gruppe 8" transform="translate(-49 -51)">
    <g id="developer" transform="translate(49 51)">
      <path id="Pfad_3" data-name="Pfad 3" class="cls-1" d="M206.7,674.194h36.841l90.788-35.526s64.472-26.315,59.209,23.684-14.473,117.1-14.473,117.1-28.947-13.158-44.736-9.21-5.263-80.262-5.263-80.262S200.123,751.825,188.281,743.93s-14.473-63.157-14.473-63.157Z" transform="translate(-61.968 -72.386)"/>
      <path id="Pfad_4" data-name="Pfad 4" class="cls-2" d="M206.7,674.194h36.841l90.788-35.526s64.472-26.315,59.209,23.684-14.473,117.1-14.473,117.1-28.947-13.158-44.736-9.21-5.263-80.262-5.263-80.262S200.123,751.825,188.281,743.93s-14.473-63.157-14.473-63.157Z" transform="translate(-61.968 -72.386)"/>
      <path id="Pfad_5" data-name="Pfad 5" class="cls-3" d="M264.746,558.82l44.586,64.059,103.945,86.84s96.051,22.368,82.893,38.157-93.419-15.789-93.419-15.789-119.735-86.84-123.682-93.419-47.368-68.42-47.368-68.42Z" transform="translate(-61.968 -72.386)"/>
      <path id="Pfad_6" data-name="Pfad 6" class="cls-2" d="M264.746,558.82l44.586,64.059,103.945,86.84s96.051,22.368,82.893,38.157-93.419-15.789-93.419-15.789-119.735-86.84-123.682-93.419-47.368-68.42-47.368-68.42Z" transform="translate(-61.968 -72.386)"/>
      <path id="Pfad_7" data-name="Pfad 7" class="cls-4" d="M238.281,507.092l28.947,56.578s-6.579,27.631-17.1,30.263-55.262-34.21-55.262-34.21Z" transform="translate(-61.968 -72.386)"/>
      <path id="Pfad_8" data-name="Pfad 8" class="cls-2" d="M238.281,507.092l28.947,56.578s-6.579,27.631-17.1,30.263-55.262-34.21-55.262-34.21Z" transform="translate(-61.968 -72.386)"/>
      <path id="Pfad_9" data-name="Pfad 9" class="cls-1" d="M591.419,644.9l8.551,35.272a2.2,2.2,0,0,1-.043,1.19L561.14,802.574a2.2,2.2,0,0,1-4.287-.423l-5.366-47.219a2.2,2.2,0,0,1,.094-.931l35.6-109.264a2.2,2.2,0,0,1,4.236.163Z" transform="translate(-61.968 -72.386)"/>
      <path id="Pfad_10" data-name="Pfad 10" class="cls-5" d="M526.306,575.493l7.894,30.263L499.99,716.28,492.1,682.07Z"/>
      <path id="Pfad_11" data-name="Pfad 11" class="cls-1" d="M415.909,812.35c1.316,3.947,136.84-1.316,138.155-2.632a28.565,28.565,0,0,0,2.895-5.263c1.237-2.632,2.368-5.263,2.368-5.263l-5.263-42.6-134.208-4.763s-3.355,36.1-4.039,52.631C415.646,808.626,415.646,811.56,415.909,812.35Z" transform="translate(-61.968 -72.386)"/>
      <path id="Pfad_12" data-name="Pfad 12" class="cls-2" d="M474.991,689.965l2.631,36.841H418.413V689.965Z"/>
      <path id="Pfad_13" data-name="Pfad 13" class="cls-2" d="M398.677,701.806l.353-.07-1.669,15.86H364.467v-15.79Z"/>
      <path id="Pfad_14" data-name="Pfad 14" class="cls-2" d="M415.909,812.35c1.316,3.947,136.84-1.316,138.155-2.632a28.565,28.565,0,0,0,2.895-5.263H415.817C415.646,808.626,415.646,811.56,415.909,812.35Z" transform="translate(-61.968 -72.386)"/>
      <circle id="Ellipse_1" data-name="Ellipse 1" class="cls-3" cx="59.209" cy="59.209" r="59.209" transform="translate(136.839 297.867)"/>
      <path id="Pfad_15" data-name="Pfad 15" class="cls-3" d="M254.07,482.093s-19.736,34.21-23.684,52.631-59.209-36.841-59.209-36.841L163.94,478.8s51.973-24.342,48.025-44.078S254.07,482.093,254.07,482.093Z" transform="translate(-61.968 -72.386)"/>
      <path id="Pfad_16" data-name="Pfad 16" class="cls-3" d="M264.6,584.722l53.946,71.051,128.945,96.051s93.419,19.736,72.367,34.21-81.577-13.158-81.577-13.158-130.261-69.735-157.892-98.682-78.946-77.63-78.946-77.63Z" transform="translate(-61.968 -72.386)"/>
      <path id="Pfad_17" data-name="Pfad 17" class="cls-1" d="M192.229,695.247l15.789,25L302.249,690.6c20.676-6.5,43.348-4.111,61.687,7.442,16.447,10.362,26.973,26.809,3.289,51.15-47.368,48.683-78.946,22.368-78.946,22.368s-159.207,75-185.523,38.157-27.631-55.262-27.631-55.262S176.44,691.3,192.229,695.247Z" transform="translate(-61.968 -72.386)"/>
      <path id="Pfad_18" data-name="Pfad 18" class="cls-4" d="M389.593,782.087s42.1,27.631-7.895,40.789-86.84-5.263-86.84-5.263-43.42,0-43.42-22.368,14.473-25,14.473-25l44.736,6.579S364.594,762.351,389.593,782.087Z" transform="translate(-61.968 -72.386)"/>
      <path id="Pfad_19" data-name="Pfad 19" class="cls-1" d="M306.589,414.568c4.03,1.8,8.026,3.923,12.408,4.444s9.371-1.008,11.444-4.9c1.12-2.1,1.248-4.578,1.3-6.961.158-7.225-.364-15.036-4.943-20.627-2.914-3.559-7.167-5.8-10.184-9.274-2.161-2.488-3.6-5.5-5.148-8.411-5.866-11.017-14.551-21.606-26.622-24.782-5.04-1.326-10.328-1.262-15.539-1.188l-30.4.429c-4.919.069-9.914.15-14.623,1.574-9.784,2.958-16.908,11.186-23.432,19.054-4.881,5.887-9.775,11.834-13.439,18.547a65.079,65.079,0,0,0-7.714,31.887,29.834,29.834,0,0,0,1.093,8.437,46.821,46.821,0,0,0,3.316,7.284c5.7,11.2,9.085,25.182,2.665,35.983,11.152-4.555,22.186-10.528,29.542-20.068,3.291-4.267,5.872-9.263,10.258-12.395s11.532-3.4,14.346,1.193a12.857,12.857,0,0,1,1.451,6.022c.205,3.45.2,7.033,1.663,10.164s4.947,5.658,8.273,4.721c5.729-1.614,5.18-10.406,9.592-14.4,3.351-3.033,8.521-2.453,12.826-3.83,5.016-1.6,8.779-5.95,10.924-10.759,1.63-3.656,1.606-13.223,4.691-15.2C294.208,409.022,303,412.969,306.589,414.568Z" transform="translate(-61.968 -72.386)"/>
      <path id="Pfad_20" data-name="Pfad 20" class="cls-4" d="M159.24,472.562a15.616,15.616,0,0,1,8.128.021c8.446,2.267,27.38,8.27,31.44,17.4,5.263,11.842,23.684,30.263,23.684,30.263s25,25,19.736,42.1-25,36.841-25,36.841,5.263,81.577-21.052,102.63-36.841,6.579-36.841,26.315-81.577,81.577-97.367,43.42c0,0,7.895-71.051,5.263-96.051C64.638,650.871,68.434,497.145,159.24,472.562Z" transform="translate(-61.968 -72.386)"/>
      <path id="Pfad_21" data-name="Pfad 21" class="cls-4" d="M201.439,505.777s80.262,59.209,65.788,84.209c0,0-48.683,23.684-59.209,22.368s-51.315-47.367-61.841-51.315S130.388,486.04,201.439,505.777Z" transform="translate(-61.968 -72.386)"/>
      <circle id="Ellipse_2" data-name="Ellipse 2" class="cls-5" cx="65" cy="65" r="65" transform="translate(433.064 172.458)"/>
      <path id="Pfad_22" data-name="Pfad 22" class="cls-6" d="M1096.9,225.427H732.649V149.207H1096.9Zm-362.644-1.6h361.039v-73.01H734.254Z" transform="translate(-61.968 -72.386)"/>
      <rect id="Rechteck_1" data-name="Rechteck 1" class="cls-7" width="362.644" height="74.615" transform="translate(645.809 92.065)"/>
      <circle id="Ellipse_3" data-name="Ellipse 3" class="cls-7" cx="5.616" cy="5.616" r="5.616" transform="translate(410.949 9.628)"/>
      <circle id="Ellipse_4" data-name="Ellipse 4" class="cls-7" cx="5.616" cy="5.616" r="5.616" transform="translate(430.204 9.628)"/>
      <circle id="Ellipse_5" data-name="Ellipse 5" class="cls-7" cx="5.616" cy="5.616" r="5.616" transform="translate(449.46 9.628)"/>
      <path id="Pfad_23" data-name="Pfad 23" class="cls-6" d="M1138.032,512.052H462.487V72.386h675.545Zm-673.94-1.6h672.336V73.991H464.092Z" transform="translate(-61.968 -72.386)"/>
      <rect id="Rechteck_2" data-name="Rechteck 2" class="cls-6" width="673.94" height="1.605" transform="translate(401.321 24.338)"/>
      <path id="Pfad_24" data-name="Pfad 24" class="cls-6" d="M480.138,91.641a6.418,6.418,0,1,1,6.418-6.418,6.418,6.418,0,0,1-6.418,6.418Zm0-11.232a4.814,4.814,0,1,0,4.814,4.814,4.814,4.814,0,0,0-4.814-4.814Z" transform="translate(-61.968 -72.386)"/>
      <path id="Pfad_25" data-name="Pfad 25" class="cls-6" d="M499.393,91.641a6.418,6.418,0,1,1,6.419-6.418,6.418,6.418,0,0,1-6.419,6.418Zm0-11.232a4.814,4.814,0,1,0,4.814,4.814,4.814,4.814,0,0,0-4.814-4.814Z" transform="translate(-61.968 -72.386)"/>
      <path id="Pfad_26" data-name="Pfad 26" class="cls-6" d="M518.649,91.641a6.418,6.418,0,1,1,6.418-6.418A6.418,6.418,0,0,1,518.649,91.641Zm0-11.232a4.814,4.814,0,1,0,4.814,4.814,4.814,4.814,0,0,0-4.814-4.814Z" transform="translate(-61.968 -72.386)"/>
      <rect id="Rechteck_3" data-name="Rechteck 3" class="cls-6" width="1.605" height="414.346" transform="translate(612.109 25.14)"/>
      <rect id="Rechteck_4" data-name="Rechteck 4" class="cls-5" width="117.94" height="16.046" transform="translate(688.733 228.859)"/>
      <rect id="Rechteck_5" data-name="Rechteck 5" class="cls-5" width="117.94" height="16.046" transform="translate(874.067 228.859)"/>
      <path id="Pfad_27" data-name="Pfad 27" class="cls-6" d="M875.861,310.07H756.317V292.42H875.861Zm-117.94-1.6H874.257V294.024H757.922Z" transform="translate(-61.968 -72.386)"/>
      <rect id="Rechteck_6" data-name="Rechteck 6" class="cls-5" width="117.94" height="16.046" transform="translate(688.733 353.217)"/>
      <path id="Pfad_28" data-name="Pfad 28" class="cls-6" d="M875.861,434.428H756.317V416.778H875.861Zm-117.94-1.6H874.257V418.382H757.922Z" transform="translate(-61.968 -72.386)"/>
      <rect id="Rechteck_7" data-name="Rechteck 7" class="cls-5" width="303.273" height="16.046" transform="translate(689.134 289.433)"/>
      <path id="Pfad_29" data-name="Pfad 29" class="cls-6" d="M1061.6,372.249H756.718V354.6H1061.6Zm-303.273-1.6h301.668V356.2H758.323Z" transform="translate(-61.968 -72.386)"/>
      <path id="Pfad_30" data-name="Pfad 30" class="cls-6" d="M1061.195,310.07H941.651V292.42h119.544Zm-117.94-1.6H1059.59V294.024H943.255Z" transform="translate(-61.968 -72.386)"/>
      <path id="Pfad_31" data-name="Pfad 31" class="cls-6" d="M571.032,357.844a66,66,0,1,1,66-66A66,66,0,0,1,571.032,357.844Zm0-130a64,64,0,1,0,64,64,64,64,0,0,0-64-64Z" transform="translate(-61.968 -72.386)"/>
    </g>
    <g id="Gruppe_6" data-name="Gruppe 6" transform="translate(422 852)">
      <g id="Gruppe_5" data-name="Gruppe 5" transform="translate(87 -754)">
        <rect id="Rechteck_2-2" data-name="Rechteck 2" class="cls-7" width="30.056" height="13.202" transform="translate(51.404 43.258)"/>
        <circle id="Ellipse_3-2" data-name="Ellipse 3" class="cls-7" cx="21.067" cy="21.067" r="21.067" transform="translate(57.865 14.326)"/>
        <circle id="Ellipse_2-2" data-name="Ellipse 2" class="cls-8" cx="28.23" cy="28.23" r="28.23" transform="translate(21.067 0)"/>
        <rect id="Rechteck_1-2" data-name="Rechteck 1" class="cls-8" width="30.899" height="13.202" transform="translate(21.067 43.258)"/>
        <circle id="Ellipse_1-2" data-name="Ellipse 1" class="cls-9" cx="21.067" cy="21.067" r="21.067" transform="translate(0 14.326)"/>
      </g>
    </g>
    <g id="Gruppe_7" data-name="Gruppe 7" transform="translate(640 1349)">
      <g id="Gruppe_5-2" data-name="Gruppe 5" transform="translate(87 -754)">
        <rect id="Rechteck_2-3" data-name="Rechteck 2" class="cls-7" width="90.169" height="39.607" transform="translate(154.214 129.775)"/>
        <circle id="Ellipse_3-3" data-name="Ellipse 3" class="cls-7" cx="63.202" cy="63.202" r="63.202" transform="translate(173.596 42.978)"/>
        <circle id="Ellipse_2-3" data-name="Ellipse 2" class="cls-8" cx="84.691" cy="84.691" r="84.691" transform="translate(63.202 0)"/>
        <rect id="Rechteck_1-3" data-name="Rechteck 1" class="cls-8" width="92.697" height="39.607" transform="translate(63.202 129.775)"/>
        <circle id="Ellipse_1-3" data-name="Ellipse 1" class="cls-9" cx="63.202" cy="63.202" r="63.202" transform="translate(0 42.978)"/>
      </g>
    </g>
  </g>
</svg>
