<?xml version="1.0" encoding="iso-8859-1"?>
<!-- Generator: Adobe Illustrator 19.0.0, SVG Export Plug-In . SVG Version: 6.00 Build 0)  -->
<svg version="1.1" id="Capa_1" xmlns="http://www.w3.org/2000/svg" xmlns:xlink="http://www.w3.org/1999/xlink" x="0px" y="0px"
	 viewBox="0 0 491.52 491.52" style="enable-background:new 0 0 491.52 491.52;" xml:space="preserve">
<circle style="fill:transparent;" cx="245.76" cy="245.76" r="245.76"/>
<path style="opacity:0.1;enable-background:new    ;" d="M302.131,104.981H147.712c-6.451,0-11.725,5.222-11.725,11.674v258.202
	c0,2.611,0.922,4.915,2.355,6.861l-0.051,0.051l0.154,0.154c0.717,0.922,1.536,1.792,2.509,2.509l0.205,0.154l106.879,106.879
	c119.5-1.09,218.564-87.448,239.386-201.189l-131.89-131.891L302.131,104.981z"/>
<path style="fill:#EBF0F3;" d="M302.115,104.96H147.714c-6.471,0-11.717,5.246-11.717,11.717v258.166
	c0,6.471,5.246,11.717,11.717,11.717h196.093c6.471,0,11.717-5.246,11.717-11.717V158.369L302.115,104.96z"/>
<g>
	<path style="fill:#D5D6DB;" d="M302.115,146.652c0,6.471,5.246,11.717,11.718,11.717h41.691l-53.409-53.409V146.652z"/>
	<rect x="152.893" y="357.222" style="fill:#D5D6DB;" width="180.685" height="9.134"/>
	<rect x="152.893" y="332.047" style="fill:#D5D6DB;" width="180.685" height="9.134"/>
	<rect x="152.893" y="306.883" style="fill:#D5D6DB;" width="180.685" height="9.134"/>
</g>
<rect x="152.893" y="281.702" style="fill:#44C4A1;" width="100.239" height="9.134"/>
<path style="fill:#FCD462;" d="M215.423,130.135c-32.64,0-59.1,26.46-59.1,59.1c0,24.71,15.177,45.852,36.707,54.68l22.392-54.68
	V130.135z"/>
<path style="fill:#44C4A1;" d="M274.876,153.595c-9.753-19.221-29.656-32.422-52.685-32.422v59.1L274.876,153.595z"/>
<path style="fill:#27A2DB;" d="M279.357,160.363l-52.685,26.678l49.015,33.029c6.367-9.43,10.085-20.795,10.085-33.029
	C285.771,177.431,283.428,168.384,279.357,160.363z"/>
<path style="fill:#E56353;" d="M199.798,248.396c6.908,2.833,14.461,4.42,22.392,4.42c20.406,0,38.396-10.342,49.015-26.071
	l-49.015-33.029L199.798,248.396z"/>
<g>
</g>
<g>
</g>
<g>
</g>
<g>
</g>
<g>
</g>
<g>
</g>
<g>
</g>
<g>
</g>
<g>
</g>
<g>
</g>
<g>
</g>
<g>
</g>
<g>
</g>
<g>
</g>
<g>
</g>
</svg>
