<?xml version="1.0" encoding="iso-8859-1"?>
<!-- Generator: Adobe Illustrator 19.0.0, SVG Export Plug-In . SVG Version: 6.00 Build 0)  -->
<svg version="1.1" id="Layer_1" xmlns="http://www.w3.org/2000/svg" xmlns:xlink="http://www.w3.org/1999/xlink" x="0px" y="0px"
	 viewBox="0 0 491.776 491.776" style="enable-background:new 0 0 491.776 491.776;" xml:space="preserve">
<g>
	<g>
		<path d="M371.626,33.048C263.557-29.406,126.053,0.113,53.326,97.397L38.011,21.123l-20.08,4.03l22.155,110.33l111.9-21.785
			l-3.91-20.1l-77.531,15.094c66.809-88.29,192.174-114.924,290.831-57.914c92.96,53.725,133.395,164.825,96.135,264.17l19.18,7.19
			C517.476,213.383,473.286,91.803,371.626,33.048z"/>
	</g>
</g>
<g>
	<g>
		<path d="M451.691,356.293l-111.9,21.785l3.91,20.1l77.532-15.094c-66.808,88.294-192.17,114.92-290.832,57.914
			c-92.96-53.725-133.39-164.825-96.135-264.17l-19.18-7.19c-40.785,108.755,3.405,230.335,105.065,289.09
			c38.5,22.25,80.73,32.825,122.445,32.825c75.402,0,149.006-34.667,195.822-97.338l15.348,76.438l20.08-4.03L451.691,356.293z"/>
	</g>
</g>
<g>
	<g>
		<path d="M354.866,216.728c2.24-8.5,3.11-17.285,2.585-26.235c-2.485-42.515-38.59-77.385-80.49-77.725c-0.21,0-0.42,0-0.635,0
			c-32.27,0-61.195,19.68-74.125,48.77c-11.97-8.445-26.65-12.455-41.585-10.965c-23.56,2.325-44.085,18.8-52.295,41.98
			c-3.35,9.485-4.385,19.205-3.085,29c-20.3,11.045-33.43,32.8-33.43,56.59c0,34.13,24.405,59.33,58.72,61.54
			c9.45,13.615,27.165,18.845,37.35,18.845c16.985,0,27.305-3.4,40.145-14.35c7.385,6.605,20.065,14.285,39.075,14.285
			c21.58,0,35.68-9.425,43.045-16.23c34.175,14.155,58.79,6.45,73.75-2.94c24.455-15.335,35.595-42.445,35.595-61.15
			C399.486,249.288,381.011,224.788,354.866,216.728z M353.011,321.943c-16.6,10.415-37.66,9.975-60.9-1.265l-7.59-3.675
			l-5.06,6.745c-1.095,1.455-11.295,14.235-32.365,14.235c-20.685,0-29.34-13.205-29.63-13.66l-6.725-11.17l-9.26,9.175
			c-14.49,14.365-20.725,15.72-33.605,15.72c-4.4,0-17.765-2.97-21.91-12.52l-2.675-6.165h-7.815
			c-25.835,0-43.19-16.565-43.19-41.22c0-18.295,11.31-34.795,28.14-41.065l8.755-3.255l-2.44-9.015
			c-2.365-8.73-2.075-17.05,0.89-25.42c5.565-15.725,19.305-26.885,35-28.435c1.36-0.135,2.715-0.2,4.065-0.2
			c12.45,0,24.28,5.645,32.25,15.57l13.48,16.775l4.515-21.04c6.09-28.355,31.015-48.81,59.385-48.81c0.155,0,0.315,0,0.47,0
			c31.33,0.255,58.34,26.47,60.21,58.44c0.58,9.94-1.1,19.595-5.005,28.7l-5.52,12.865l13.935,1.36
			c22,2.155,38.59,20.865,38.59,43.53C379.006,291.473,369.896,311.353,353.011,321.943z"/>
	</g>
</g>
<g>
</g>
<g>
</g>
<g>
</g>
<g>
</g>
<g>
</g>
<g>
</g>
<g>
</g>
<g>
</g>
<g>
</g>
<g>
</g>
<g>
</g>
<g>
</g>
<g>
</g>
<g>
</g>
<g>
</g>
</svg>
