<?xml version="1.0" encoding="iso-8859-1"?>
<!-- Generator: Adobe Illustrator 19.0.0, SVG Export Plug-In . SVG Version: 6.00 Build 0)  -->
<svg version="1.1" id="Layer_1" xmlns="http://www.w3.org/2000/svg" xmlns:xlink="http://www.w3.org/1999/xlink" x="0px" y="0px"
	 viewBox="0 0 491.52 491.52" style="enable-background:new 0 0 491.52 491.52;" xml:space="preserve">
<g>
	<g>
		<polygon points="345.16,218.04 330.68,232.52 343.92,245.76 228.53,245.76 228.53,266.24 343.92,266.24 330.68,279.48 
			345.16,293.96 383.12,256 		"/>
	</g>
</g>
<g>
	<g>
		<path d="M471.04,143.36V0H20.48v327.68H0v55.44l46.96,46.96H256v61.44h235.52V143.36H471.04z M256,409.6H55.44l-34.96-34.96
			v-26.48H256V409.6z M471.04,471.04H276.48v-40.96h194.56V471.04z M471.04,409.6H276.48v-92.16H256v10.24h-78.67l7.24-7.24
			l-13.24-13.24h115.39v-20.48H171.33l13.24-13.24L170.09,259l-37.96,37.96l30.72,30.72H40.96V20.48h409.6v122.88H256v81.92h20.48
			V204.8h194.56V409.6z M471.04,184.32H276.48v-20.48h194.56V184.32z"/>
	</g>
</g>
<g>
</g>
<g>
</g>
<g>
</g>
<g>
</g>
<g>
</g>
<g>
</g>
<g>
</g>
<g>
</g>
<g>
</g>
<g>
</g>
<g>
</g>
<g>
</g>
<g>
</g>
<g>
</g>
<g>
</g>
</svg>
