<?xml version="1.0" encoding="iso-8859-1"?>
<!-- Generator: Adobe Illustrator 19.0.0, SVG Export Plug-In . SVG Version: 6.00 Build 0)  -->
<svg version="1.1" id="Layer_1" xmlns="http://www.w3.org/2000/svg" xmlns:xlink="http://www.w3.org/1999/xlink" x="0px" y="0px"
	 viewBox="0 0 491.52 491.52" style="enable-background:new 0 0 491.52 491.52;" xml:space="preserve">
<circle style="fill:transparent;" cx="245.76" cy="245.76" r="245.76"/>
<path style="opacity:0.1;enable-background:new    ;" d="M104.96,104.96v164.301l25.242,25.242
	c-4.608,3.431-7.731,9.626-7.731,16.743c0,5.53,1.894,10.496,4.915,14.08c0.87,1.024,1.331,2.407,1.331,3.789
	c0,2.048-0.973,3.943-2.662,5.018l-16.537,11.008c-2.56,0.563-4.557,2.714-4.557,5.478v35.943l101.858,101.858
	c12.687,2.02,25.687,3.102,38.942,3.102c135.73,0,245.76-110.031,245.76-245.76c0-13.256-1.082-26.255-3.102-38.942L386.56,104.96
	H104.96z"/>
<rect x="104.96" y="104.96" style="fill:#64798A;" width="281.6" height="164.301"/>
<rect x="115.2" y="115.2" style="fill:#EBF0F3;" width="261.12" height="143.821"/>
<path style="fill:#E56353;" d="M198.962,194.525v-5.042c-6.312-0.644-11.978-3.153-16.992-7.526l5.042-6.009
	c3.867,3.361,7.847,5.362,11.95,6.009v-13.4c-5.205-1.242-9.016-2.878-11.433-4.904c-2.417-2.026-3.625-5.031-3.625-9.013
	c0-3.982,1.388-7.24,4.176-9.774c2.788-2.532,6.413-3.912,10.882-4.143v-3.454h4.418v3.521c5.064,0.371,9.853,2.097,14.367,5.182
	l-4.491,6.354c-3.041-2.164-6.329-3.499-9.876-4.008v12.984h0.208c5.295,1.245,9.184,2.926,11.669,5.042
	c2.49,2.119,3.732,5.194,3.732,9.221c0,4.03-1.428,7.313-4.283,9.842c-2.855,2.535-6.627,3.915-11.326,4.145v4.972H198.962z
	 M194.088,149.944c-1.175,1.034-1.759,2.324-1.759,3.867c0,1.543,0.461,2.763,1.383,3.659c0.916,0.899,2.67,1.762,5.25,2.591v-11.95
	C196.887,148.298,195.263,148.907,194.088,149.944z M208.629,180.229c1.287-1.057,1.934-2.392,1.934-4.005
	c0-1.61-0.506-2.889-1.518-3.833c-1.017-0.944-2.906-1.83-5.666-2.659v12.43C205.588,181.935,207.336,181.289,208.629,180.229z"/>
<path style="fill:#27A2DB;" d="M126.043,334.155l-17.161,11.438h59.365l-17.161-11.438c-1.685-1.123-2.697-3.014-2.697-5.039
	c0-1.389,0.462-2.744,1.36-3.803c3.02-3.563,4.903-8.545,4.903-14.073c0-10.833-7.202-19.616-16.087-19.616
	s-16.087,8.782-16.087,19.616c0,5.528,1.883,10.51,4.903,14.073c0.898,1.059,1.36,2.415,1.36,3.803
	C128.74,331.141,127.728,333.032,126.043,334.155z"/>
<path style="fill:#E56353;" d="M166.498,344.94h-55.867c-3.132,0-5.671,2.539-5.671,5.671v35.949h67.208v-35.949
	C172.168,347.479,169.629,344.94,166.498,344.94z"/>
<path style="fill:#44C4A1;" d="M197.507,334.155l-17.161,11.438h59.365l-17.161-11.438c-1.685-1.123-2.697-3.014-2.697-5.039
	c0-1.389,0.462-2.744,1.36-3.803c3.02-3.563,4.903-8.545,4.903-14.073c0-10.833-7.202-19.616-16.087-19.616
	c-8.885,0-16.087,8.782-16.087,19.616c0,5.528,1.883,10.51,4.903,14.073c0.898,1.059,1.36,2.415,1.36,3.803
	C200.204,331.141,199.192,333.032,197.507,334.155z"/>
<path style="fill:#E56353;" d="M237.961,344.94h-55.867c-3.132,0-5.671,2.539-5.671,5.671v35.949h67.208v-35.949
	C243.632,347.479,241.093,344.94,237.961,344.94z"/>
<path style="fill:#64798A;" d="M268.97,334.155l-17.161,11.438h59.365l-17.161-11.438c-1.685-1.123-2.697-3.014-2.697-5.039
	c0-1.389,0.462-2.744,1.36-3.803c3.02-3.563,4.903-8.545,4.903-14.073c0-10.833-7.202-19.616-16.087-19.616
	s-16.087,8.782-16.087,19.616c0,5.528,1.883,10.51,4.903,14.073c0.898,1.059,1.36,2.415,1.36,3.803
	C271.668,331.141,270.656,333.032,268.97,334.155z"/>
<path style="fill:#E56353;" d="M309.425,344.94h-55.867c-3.132,0-5.671,2.539-5.671,5.671v35.949h67.208v-35.949
	C315.096,347.479,312.557,344.94,309.425,344.94z"/>
<path style="fill:#FFFFFF;" d="M340.434,334.155l-17.161,11.438h59.365l-17.161-11.438c-1.685-1.123-2.697-3.014-2.697-5.039
	c0-1.389,0.462-2.744,1.36-3.803c3.02-3.563,4.903-8.545,4.903-14.073c0-10.833-7.202-19.616-16.087-19.616
	c-8.884,0-16.087,8.782-16.087,19.616c0,5.528,1.883,10.51,4.903,14.073c0.898,1.059,1.36,2.415,1.36,3.803
	C343.132,331.141,342.119,333.032,340.434,334.155z"/>
<path style="fill:#E56353;" d="M380.889,344.94h-55.867c-3.132,0-5.671,2.539-5.671,5.671v35.949h67.208v-35.949
	C386.56,347.479,384.021,344.94,380.889,344.94z"/>
<path style="fill:#64798A;" d="M349.334,180.564l-22.054-3.602l-1.395,8.525l12.507,2.042l-40.005,31.914l-47.291-23.072
	c-1.344-0.641-2.907-0.568-4.172,0.211l-39.823,24.691l-43.124-18.908c-1.603-0.7-3.486-0.363-4.746,0.863l-32.766,31.951
	l6.028,6.185l30.686-29.921l42.534,18.652c1.293,0.568,2.795,0.464,4.009-0.284l39.728-24.632l47.606,23.224
	c1.496,0.725,3.284,0.537,4.589-0.506l40.914-32.639l-1.783,10.931l8.525,1.389l3.599-22.057
	C353.282,183.168,351.685,180.949,349.334,180.564z"/>
<circle style="fill:#FCD462;" cx="207.053" cy="225.198" r="9.144"/>
<circle style="fill:#27A2DB;" cx="161.91" cy="206.899" r="9.144"/>
<circle style="fill:#44C4A1;" cx="250.573" cy="201.882" r="9.144"/>
<circle style="fill:#E56353;" cx="298.445" cy="223.365" r="9.144"/>
<g>
</g>
<g>
</g>
<g>
</g>
<g>
</g>
<g>
</g>
<g>
</g>
<g>
</g>
<g>
</g>
<g>
</g>
<g>
</g>
<g>
</g>
<g>
</g>
<g>
</g>
<g>
</g>
<g>
</g>
</svg>
