<?xml version="1.0" encoding="iso-8859-1"?>
<!-- Generator: Adobe Illustrator 19.0.0, SVG Export Plug-In . SVG Version: 6.00 Build 0)  -->
<svg version="1.1" id="Capa_1" xmlns="http://www.w3.org/2000/svg" xmlns:xlink="http://www.w3.org/1999/xlink" x="0px" y="0px"
	 viewBox="0 0 491.52 491.52" style="enable-background:new 0 0 491.52 491.52;" xml:space="preserve">
<circle style="fill:transparent" cx="245.76" cy="245.76" r="245.76"/>
<path style="opacity:0.1;enable-background:new    ;" d="M491.52,245.76c0-1.29-0.077-2.56-0.097-3.845L354.458,104.95H137.062
	v281.6l104.873,104.874c1.278,0.019,2.542,0.096,3.824,0.096C381.49,491.52,491.52,381.489,491.52,245.76z"/>
<rect x="137.083" y="104.96" style="fill:#D5D6DB;" width="217.344" height="281.6"/>
<rect x="137.083" y="104.96" style="fill:#EBF0F3;" width="217.344" height="271.36"/>
<rect x="150.277" y="116.803" style="fill:#E56353;" width="190.976" height="11.592"/>
<g>
	<rect x="223.529" y="139.965" style="fill:#D5D6DB;" width="117.719" height="5.12"/>
	<rect x="223.529" y="161.495" style="fill:#D5D6DB;" width="117.719" height="5.12"/>
	<rect x="223.529" y="183.035" style="fill:#D5D6DB;" width="117.719" height="5.12"/>
	<rect x="223.529" y="204.57" style="fill:#D5D6DB;" width="117.719" height="5.12"/>
	<rect x="150.277" y="226.099" style="fill:#D5D6DB;" width="190.976" height="5.12"/>
	<rect x="150.277" y="247.654" style="fill:#D5D6DB;" width="190.976" height="5.12"/>
	<rect x="150.277" y="269.158" style="fill:#D5D6DB;" width="190.976" height="5.12"/>
	<rect x="150.277" y="290.703" style="fill:#D5D6DB;" width="190.976" height="5.12"/>
	<rect x="150.277" y="312.238" style="fill:#D5D6DB;" width="190.976" height="5.12"/>
	<rect x="150.277" y="333.773" style="fill:#D5D6DB;" width="190.976" height="5.12"/>
	<rect x="150.277" y="355.328" style="fill:#D5D6DB;" width="190.976" height="5.12"/>
</g>
<rect x="150.277" y="139.965" style="fill:#27A2DB;" width="63.647" height="69.724"/>
<g>
	<circle style="fill:#2D93BA;" cx="180.173" cy="159.693" r="12.851"/>
	<path style="fill:#2D93BA;" d="M182.098,178.871c-17.02,0-30.817,13.797-30.817,30.817h61.635
		C212.915,192.668,199.118,178.871,182.098,178.871z"/>
</g>
<g>
</g>
<g>
</g>
<g>
</g>
<g>
</g>
<g>
</g>
<g>
</g>
<g>
</g>
<g>
</g>
<g>
</g>
<g>
</g>
<g>
</g>
<g>
</g>
<g>
</g>
<g>
</g>
<g>
</g>
</svg>
