<?xml version="1.0" encoding="iso-8859-1"?>
<!-- Generator: Adobe Illustrator 19.0.0, SVG Export Plug-In . SVG Version: 6.00 Build 0)  -->
<svg version="1.1" id="Capa_1" xmlns="http://www.w3.org/2000/svg" xmlns:xlink="http://www.w3.org/1999/xlink" x="0px" y="0px"
	 viewBox="0 0 491.52 491.52" style="enable-background:new 0 0 491.52 491.52;" xml:space="preserve">
<circle style="fill:#E05B49;" cx="245.76" cy="245.76" r="245.76"/>
<path style="opacity:0.1;enable-background:new    ;" d="M484.799,302.773L286.976,104.95H158.362c-5.069,0-9.216,4.147-9.216,9.216
	v150.323c-7.424,10.547-11.776,23.398-11.776,37.274c0,0.973,0,1.946,0.051,2.918c-18.534,4.096-32.461,20.634-32.461,40.448
	c0,11.008,4.25,20.992,11.264,28.365l2.304,2.304l115.457,115.425c3.903,0.184,7.826,0.297,11.775,0.297
	C361.854,491.52,459.079,410.997,484.799,302.773z"/>
<path style="fill:#EBF0F3;" d="M286.966,104.96h-128.6c-5.091,0-9.219,4.127-9.219,9.219v233.906c0,5.091,4.128,9.219,9.219,9.219
	h174.789c5.091,0,9.219-4.127,9.219-9.219V160.369L286.966,104.96z"/>
<path style="fill:#D5D6DB;" d="M286.966,104.96v46.19c0,5.091,4.128,9.219,9.219,9.219h46.189L286.966,104.96z"/>
<path style="fill:#27A2DB;" d="M345.106,303.653c-0.092,0-0.179,0.013-0.271,0.013c-2.616-25.437-24.107-45.279-50.236-45.279
	c-13.467,0-25.672,5.304-34.726,13.896c-10.73-20.972-32.536-35.338-57.711-35.338c-35.788,0-64.801,29.013-64.801,64.801
	c0,0.975,0.031,1.944,0.073,2.909c-18.572,4.107-32.474,20.644-32.474,40.451c0,22.894,18.559,41.454,41.454,41.454h198.692
	c22.894,0,41.454-18.56,41.454-41.454C386.56,322.212,368,303.653,345.106,303.653z"/>
<g>
	<path style="fill:#2D93BA;" d="M189.773,247.297c21.439,0,40.831,11.876,50.614,30.996l4.851,9.482l7.729-7.329
		c0.475-0.45,0.986-0.848,1.477-1.274l-1.668-3.261c-9.783-19.12-29.175-30.996-50.614-30.996c-5.937,0-11.659,0.923-17.042,2.618
		C186.658,247.407,188.202,247.297,189.773,247.297z"/>
	<path style="fill:#2D93BA;" d="M345.367,311.621l-0.187,0.015h-7.536l-0.737-7.155c-2.236-21.735-20.425-38.126-42.31-38.126
		c-4.867,0-9.617,0.874-14.11,2.465c0.574-0.024,1.143-0.082,1.721-0.082c21.885,0,40.073,16.391,42.31,38.125l0.737,7.155h7.536
		l0.187-0.016c18.344,0.14,33.222,15.109,33.222,33.487c0,14.105-8.78,26.175-21.153,31.099h0.057
		c18.464,0,33.484-15.021,33.484-33.482C378.589,326.73,363.711,311.761,345.367,311.621z"/>
</g>
<g>
	<rect x="165.632" y="134.042" style="fill:#D5D6DB;" width="103.644" height="10.24"/>
	<rect x="165.632" y="171.576" style="fill:#D5D6DB;" width="160.307" height="10.24"/>
	<rect x="165.632" y="209.116" style="fill:#D5D6DB;" width="160.307" height="10.24"/>
</g>
<g>
</g>
<g>
</g>
<g>
</g>
<g>
</g>
<g>
</g>
<g>
</g>
<g>
</g>
<g>
</g>
<g>
</g>
<g>
</g>
<g>
</g>
<g>
</g>
<g>
</g>
<g>
</g>
<g>
</g>
</svg>
