<?xml version="1.0" encoding="iso-8859-1"?>
<!-- Generator: Adobe Illustrator 19.0.0, SVG Export Plug-In . SVG Version: 6.00 Build 0)  -->
<svg version="1.1" id="Capa_1" xmlns="http://www.w3.org/2000/svg" xmlns:xlink="http://www.w3.org/1999/xlink" x="0px" y="0px"
	 viewBox="0 0 491.52 491.52" style="enable-background:new 0 0 491.52 491.52;" xml:space="preserve">
<circle style="fill:#E05B49;" cx="245.76" cy="245.76" r="245.76"/>
<path style="opacity:0.1;enable-background:new    ;" d="M291.943,128.246c-9.267,0-17.971,2.303-25.651,6.246
	c-12.237-17.817-32.717-29.542-55.962-29.542c-37.427,0-67.738,30.362-67.738,67.789c0,3.43,0.307,6.758,0.819,10.035
	c-21.709,2.97-38.451,21.503-38.451,44.033c0,13.004,5.632,24.78,14.541,32.921l0.307,0.256l32.41,32.41v0.614
	c0,22.272,7.834,42.752,20.838,58.829l0.154,0.154c1.997,2.458,4.147,4.864,6.4,7.116c1.024,1.076,2.15,2.1,3.277,3.124
	c1.331,1.229,2.662,2.406,4.096,3.533l118.454,118.422c89.88-22.426,160.125-94.325,180.215-185.105L334.797,148.265
	C324.557,136.028,309.146,128.246,291.943,128.246z"/>
<path style="fill:#FFFFFF;" d="M347.963,182.762c-0.856-30.241-25.582-54.508-56.03-54.508c-9.254,0-17.961,2.28-25.656,6.247
	c-12.205-17.831-32.697-29.542-55.937-29.542c-37.422,0-67.758,30.336-67.758,67.758c0,3.43,0.337,6.773,0.828,10.067
	c-21.705,2.941-38.45,21.497-38.45,44.01c0,24.557,19.907,44.463,44.462,44.463h192.675c24.557,0,44.463-19.907,44.463-44.463
	C386.56,204.231,369.739,185.639,347.963,182.762z"/>
<g>
	<path style="fill:#E1E6E9;" d="M131.49,203.266l13.816-1.869l-0.718-4.849c-5.795,0.916-11.008,3.453-15.219,7.107
		C130.07,203.509,130.772,203.363,131.49,203.266z"/>
	<path style="fill:#E1E6E9;" d="M196.578,125.567c17.818,0,34.48,8.806,44.576,23.55l6.866,10.034l10.805-5.575
		c0.961-0.496,1.952-0.885,2.934-1.303l-6.84-9.996c-10.097-14.744-26.758-23.55-44.576-23.55c-11.365,0-21.906,3.549-30.615,9.57
		C185.036,126.547,190.69,125.567,196.578,125.567z"/>
	<path style="fill:#E1E6E9;" d="M346.16,196.412l-11.629-1.537l-0.332-11.723c-0.65-23.066-19.221-41.131-42.269-41.131
		c-6.767,0-13.274,1.587-19.342,4.715l-10.121,5.222c5.008-2.024,10.262-3.097,15.698-3.097c23.048,0,41.619,18.064,42.269,41.13
		l0.332,11.723l11.629,1.537c15.183,2.003,26.633,15.067,26.633,30.384c0,9.269-4.148,17.573-10.664,23.205
		c13.929-2.902,24.429-15.267,24.429-30.045C372.793,211.479,361.343,198.416,346.16,196.412z"/>
</g>
<circle style="fill:#FCD462;" cx="245.76" cy="293.018" r="93.563"/>
<path style="fill:#DC8744;" d="M245.76,199.432c-51.592,0-93.564,41.973-93.564,93.564c0,51.592,41.972,93.564,93.564,93.564
	c51.592,0,93.564-41.973,93.564-93.564C339.324,241.404,297.352,199.432,245.76,199.432z M160.41,297.001h30.909
	c0.302,12.846,2.044,24.941,4.965,35.847h-26.167C164.407,322.055,161.011,309.893,160.41,297.001z M249.766,245.132v-37.316
	c14.339,2.268,26.847,16.512,34.505,37.316H249.766z M286.862,253.144c3.102,10.793,4.947,22.956,5.274,35.847h-42.371v-35.847
	H286.862z M241.754,207.816v37.316h-34.505C214.908,224.328,227.415,210.084,241.754,207.816z M241.754,253.144v35.847h-42.371
	c0.327-12.891,2.172-25.053,5.274-35.847H241.754z M191.319,288.99H160.41c0.601-12.891,3.997-25.053,9.706-35.847h26.167
	C193.363,264.049,191.621,276.145,191.319,288.99z M199.384,297.001h42.371v35.847h-37.097
	C201.555,322.055,199.71,309.893,199.384,297.001z M241.754,340.859v37.316c-14.339-2.268-26.847-16.512-34.505-37.316H241.754z
	 M249.766,378.175v-37.316h34.505C276.612,361.663,264.105,375.908,249.766,378.175z M249.766,332.848v-35.847h42.371
	c-0.327,12.891-2.171,25.053-5.274,35.847H249.766z M300.201,297.001h30.909c-0.601,12.891-3.997,25.053-9.707,35.847h-26.167
	C298.157,321.943,299.899,309.847,300.201,297.001z M300.201,288.99c-0.301-12.846-2.044-24.941-4.964-35.847h26.167
	c5.71,10.793,9.106,22.956,9.707,35.847H300.201z M316.634,245.132h-23.826c-4.647-13.648-11.253-24.979-19.207-32.946
	C291.253,218.287,306.339,229.935,316.634,245.132z M217.918,212.186c-7.953,7.967-14.559,19.298-19.207,32.946h-23.826
	C185.181,229.935,200.267,218.287,217.918,212.186z M174.886,340.859h23.826c4.647,13.648,11.253,24.979,19.207,32.946
	C200.267,367.705,185.181,356.057,174.886,340.859z M273.602,373.806c7.953-7.967,14.559-19.298,19.207-32.946h23.826
	C306.339,356.057,291.253,367.705,273.602,373.806z"/>
<g>
</g>
<g>
</g>
<g>
</g>
<g>
</g>
<g>
</g>
<g>
</g>
<g>
</g>
<g>
</g>
<g>
</g>
<g>
</g>
<g>
</g>
<g>
</g>
<g>
</g>
<g>
</g>
<g>
</g>
</svg>
