<?xml version="1.0" encoding="utf-8"?>
<!-- Generator: Adobe Illustrator 21.1.0, SVG Export Plug-In . SVG Version: 6.00 Build 0)  -->
<svg version="1.1" id="GraphQL_Logo" xmlns="http://www.w3.org/2000/svg" xmlns:xlink="http://www.w3.org/1999/xlink" x="0px"
	 y="0px" viewBox="0 0 300 300" style="enable-background:new 0 0 300 300;" xml:space="preserve">
<style type="text/css">
	.st0{fill:#FFFFFF;}
</style>
<g>
	<g>
		<g>
			<rect x="-26" y="112.9" transform="matrix(0.5 -0.866 0.866 0.5 -54.9239 143.305)" class="st0" width="245.4" height="12.7"/>
		</g>
	</g>
	<g>
		<g>
			<rect x="27.3" y="205.3" class="st0" width="245.4" height="12.7"/>
		</g>
	</g>
	<g>
		<g>
			<rect x="90.3" y="171.5" transform="matrix(0.5 -0.866 0.866 0.5 -161.5701 204.91)" class="st0" width="12.7" height="141.7"/>
		</g>
	</g>
	<g>
		<g>
			<rect x="196.9" y="-13.2" transform="matrix(0.5 -0.866 0.866 0.5 51.6817 204.903)" class="st0" width="12.7" height="141.7"/>
		</g>
	</g>
	<g>
		<g>
			<rect x="25.8" y="51.3" transform="matrix(0.866 -0.5 0.5 0.866 -15.8659 56.0788)" class="st0" width="141.7" height="12.7"/>
		</g>
	</g>
	<g>
		<g>
			<rect x="197" y="-3.5" transform="matrix(0.866 -0.5 0.5 0.866 -32.3625 117.6665)" class="st0" width="12.7" height="245.4"/>
		</g>
	</g>
	<g>
		<g>
			<rect x="37" y="79.1" class="st0" width="12.7" height="141.7"/>
		</g>
	</g>
	<g>
		<g>
			<rect x="250.3" y="79.1" class="st0" width="12.7" height="141.7"/>
		</g>
	</g>
	<g>
		<g>
			
				<rect x="141.7" y="236.8" transform="matrix(0.866 -0.5 0.5 0.866 -93.9202 134.1143)" class="st0" width="123.3" height="11.1"/>
		</g>
	</g>
	<path class="st0" d="M279.9,225c-7.4,12.8-23.7,17.2-36.5,9.8c-12.8-7.4-17.2-23.7-9.8-36.5c7.4-12.8,23.7-17.2,36.5-9.8
		C282.9,195.9,287.3,212.2,279.9,225"/>
	<path class="st0" d="M66.4,101.7c-7.4,12.8-23.7,17.2-36.5,9.8c-12.8-7.4-17.2-23.7-9.8-36.5s23.7-17.2,36.5-9.8
		C69.4,72.6,73.8,88.9,66.4,101.7"/>
	<path class="st0" d="M20.1,225c-7.4-12.8-3-29.1,9.8-36.5c12.8-7.4,29.1-3,36.5,9.8c7.4,12.8,3,29.1-9.8,36.5
		C43.8,242.2,27.5,237.8,20.1,225"/>
	<path class="st0" d="M233.6,101.7c-7.4-12.8-3-29.1,9.8-36.5c12.8-7.4,29.1-3,36.5,9.8c7.4,12.8,3,29.1-9.8,36.5
		C257.3,118.9,240.9,114.5,233.6,101.7"/>
	<path class="st0" d="M150,300c-14.8,0-26.7-12-26.7-26.7c0-14.8,12-26.7,26.7-26.7s26.7,12,26.7,26.7C176.7,288,164.8,300,150,300"
		/>
	<path class="st0" d="M150,53.5c-14.8,0-26.7-12-26.7-26.7S135.2,0,150,0s26.7,12,26.7,26.7S164.8,53.5,150,53.5"/>
</g>
</svg>
