<?xml version="1.0" encoding="iso-8859-1"?>
<!-- Generator: Adobe Illustrator 19.0.0, SVG Export Plug-In . SVG Version: 6.00 Build 0)  -->
<svg version="1.1" id="Capa_1" xmlns="http://www.w3.org/2000/svg" xmlns:xlink="http://www.w3.org/1999/xlink" x="0px" y="0px"
	 viewBox="0 0 491.52 491.52" style="enable-background:new 0 0 491.52 491.52;" xml:space="preserve">
<circle style="fill:#E05B49;" cx="245.76" cy="245.76" r="245.76"/>
<path style="opacity:0.1;enable-background:new    ;" d="M491.52,245.76c0-10.247-0.7-20.325-1.919-30.243L382.208,108.124
	c-2.202-1.997-5.12-3.174-8.294-3.174H117.606c-6.963,0-12.646,5.683-12.646,12.646v256.307c0,3.686,1.587,6.963,4.096,9.267
	l0.512,0.512l105.914,105.914c9.929,1.221,20.019,1.923,30.278,1.923C381.49,491.52,491.52,381.49,491.52,245.76z"/>
<path style="fill:#64798A;" d="M373.918,104.96H117.602c-6.982,0-12.642,5.66-12.642,12.642v256.315
	c0,6.982,5.66,12.642,12.642,12.642h256.315c6.981,0,12.642-5.66,12.642-12.642V117.602
	C386.56,110.62,380.899,104.96,373.918,104.96z"/>
<g>
	<rect x="125.44" y="157.302" style="fill:#EBF0F3;" width="240.64" height="208.778"/>
	<rect x="125.44" y="123.136" style="fill:#EBF0F3;" width="172.068" height="14.556"/>
</g>
<rect x="125.44" y="358.385" style="fill:#D5D6DB;" width="240.64" height="7.695"/>
<circle style="fill:#FCD462;" cx="313.395" cy="130.401" r="7.276"/>
<circle style="fill:#44C4A1;" cx="336.128" cy="130.401" r="7.276"/>
<circle style="fill:#E56353;" cx="358.81" cy="130.401" r="7.276"/>
<rect x="145.193" y="169.728" style="fill:#44C4A1;" width="36.413" height="7.398"/>
<rect x="200.09" y="169.728" style="fill:#64798A;" width="36.413" height="7.398"/>
<rect x="255.007" y="169.728" style="fill:#27A2DB;" width="36.413" height="7.398"/>
<rect x="309.914" y="169.728" style="fill:#E56353;" width="36.413" height="7.398"/>
<rect x="279.296" y="199.578" style="fill:#44C4A1;" width="67.072" height="125.097"/>
<rect x="279.296" y="314.726" style="fill:#3EA69B;" width="67.072" height="9.958"/>
<rect x="138.342" y="195.942" style="fill:#E56353;" width="75.817" height="7.916"/>
<g>
	<rect x="138.342" y="220.093" style="fill:#D5D6DB;" width="126.643" height="7.916"/>
	<rect x="138.342" y="244.255" style="fill:#D5D6DB;" width="126.643" height="7.916"/>
	<rect x="138.342" y="268.442" style="fill:#D5D6DB;" width="52.905" height="7.916"/>
	<rect x="138.342" y="292.557" style="fill:#D5D6DB;" width="126.643" height="7.916"/>
	<rect x="138.342" y="316.739" style="fill:#D5D6DB;" width="126.643" height="7.916"/>
	<rect x="138.342" y="340.89" style="fill:#D5D6DB;" width="77.466" height="7.916"/>
</g>
<g>
</g>
<g>
</g>
<g>
</g>
<g>
</g>
<g>
</g>
<g>
</g>
<g>
</g>
<g>
</g>
<g>
</g>
<g>
</g>
<g>
</g>
<g>
</g>
<g>
</g>
<g>
</g>
<g>
</g>
</svg>
