<?xml version="1.0" encoding="iso-8859-1"?>
<!-- Generator: Adobe Illustrator 19.0.0, SVG Export Plug-In . SVG Version: 6.00 Build 0)  -->
<svg version="1.1" id="Capa_1" xmlns="http://www.w3.org/2000/svg" xmlns:xlink="http://www.w3.org/1999/xlink" x="0px" y="0px"
	 viewBox="0 0 409.6 409.6" style="enable-background:new 0 0 409.6 409.6;" xml:space="preserve">
<circle style="fill:#45B39C;" cx="204.8" cy="204.8" r="204.8"/>
<path style="opacity:0.1;enable-background:new    ;" d="M405.203,247.099L255.817,97.714c-5.749-6.274-13.981-10.241-23.156-10.241
	h-57.003c-17.322,0-31.445,14.122-31.445,31.445v42.752h-26.88v125.056c0,9.597,3.832,18.295,10.037,24.676l0.001,0.001
	c0.226,0.232,0.455,0.461,0.687,0.688l96.539,96.539C314.265,400.026,387.031,333.619,405.203,247.099z"/>
<path style="fill:#EFC84A;" d="M256.866,322.133H152.734c-19.552,0-35.401-15.85-35.401-35.401V178.446h174.934v108.286
	C292.267,306.284,276.417,322.133,256.866,322.133z"/>
<path style="fill:#EFC84A;" d="M117.333,178.446v107.996c0,19.712,15.98,35.691,35.691,35.691H204.8V178.446H117.333z"/>
<g>
	<ellipse style="fill:#D5D6DB;" cx="204.8" cy="222.76" rx="15.774" ry="17.924"/>
	<rect x="195.48" y="234.26" style="fill:#D5D6DB;" width="18.641" height="44.809"/>
	<rect x="117.33" y="161.67" style="fill:#D5D6DB;" width="174.93" height="16.777"/>
</g>
<path style="fill:#64798A;" d="M264.127,161.67h-21.508v-42.748c0-5.486-4.463-9.948-9.948-9.948h-56.997
	c-5.484,0-9.948,4.461-9.948,9.948v42.748h-21.508v-42.748c0-17.345,14.111-31.456,31.456-31.456h56.997
	c17.345,0,31.456,14.111,31.456,31.456V161.67z"/>
<g>
</g>
<g>
</g>
<g>
</g>
<g>
</g>
<g>
</g>
<g>
</g>
<g>
</g>
<g>
</g>
<g>
</g>
<g>
</g>
<g>
</g>
<g>
</g>
<g>
</g>
<g>
</g>
<g>
</g>
</svg>
