<?xml version="1.0" encoding="iso-8859-1"?>
<!-- Generator: Adobe Illustrator 19.0.0, SVG Export Plug-In . SVG Version: 6.00 Build 0)  -->
<svg version="1.1" id="Layer_1" xmlns="http://www.w3.org/2000/svg" xmlns:xlink="http://www.w3.org/1999/xlink" x="0px" y="0px"
	 viewBox="0 0 451.296 451.296" style="enable-background:new 0 0 451.296 451.296;" xml:space="preserve">
<circle style="fill:#800080;" cx="225.638" cy="225.648" r="225.638"/>
<path style="opacity:0.1;enable-background:new    ;" d="M451.296,225.648c0-1.536-0.085-3.051-0.116-4.58L349.985,118.301
	L328.36,96.347c0,12.129-9.826,21.955-21.955,21.955H128.277l-35.87,49.41l133.42,183.817l-0.188,3.385l81.255,81.255
	C391.356,403.543,451.296,321.62,451.296,225.648z"/>
<polygon style="fill:#D5D6DB;" points="89.727,167.716 225.638,354.931 153.904,167.716 "/>
<g>
	<polygon style="fill:#EBF0F3;" points="172.841,118.293 125.606,118.293 89.727,167.716 153.904,167.716 	"/>
	<polygon style="fill:#EBF0F3;" points="225.638,354.931 361.55,167.716 297.373,167.716 	"/>
</g>
<g>
	<polygon style="fill:#D5D6DB;" points="278.436,118.293 297.373,167.716 361.55,167.716 325.671,118.293 	"/>
	<polygon style="fill:#D5D6DB;" points="225.638,167.716 225.638,118.293 172.841,118.293 153.904,167.716 	"/>
</g>
<g>
	<polygon style="fill:#EBF0F3;" points="153.904,167.716 225.638,354.931 225.638,167.716 	"/>
	<polygon style="fill:#EBF0F3;" points="297.373,167.716 278.436,118.293 225.638,118.293 225.638,167.716 	"/>
</g>
<polygon style="fill:#D5D6DB;" points="225.638,167.716 225.638,354.931 297.373,167.716 "/>
<g>
	<path style="fill:#FFFFFF;" d="M153.904,145.787c0,12.111-9.818,21.929-21.928,21.929l0,0c12.111,0,21.928,9.817,21.928,21.928
		c0-12.111,9.818-21.928,21.929-21.928l0,0C163.722,167.716,153.904,157.898,153.904,145.787z"/>
	<path style="fill:#FFFFFF;" d="M325.671,96.365c0,12.11-9.818,21.928-21.928,21.928l0,0c12.111,0,21.928,9.818,21.928,21.929
		c0-12.111,9.817-21.929,21.929-21.929l0,0C335.488,118.293,325.671,108.475,325.671,96.365z"/>
</g>
<g>
</g>
<g>
</g>
<g>
</g>
<g>
</g>
<g>
</g>
<g>
</g>
<g>
</g>
<g>
</g>
<g>
</g>
<g>
</g>
<g>
</g>
<g>
</g>
<g>
</g>
<g>
</g>
<g>
</g>
</svg>
