<?xml version="1.0" encoding="iso-8859-1"?>
<!-- Generator: Adobe Illustrator 19.0.0, SVG Export Plug-In . SVG Version: 6.00 Build 0)  -->
<svg version="1.1" id="Capa_1" xmlns="http://www.w3.org/2000/svg" xmlns:xlink="http://www.w3.org/1999/xlink" x="0px" y="0px"
	 viewBox="0 0 409.6 409.6" style="enable-background:new 0 0 409.6 409.6;" xml:space="preserve">
<circle style="fill:#E05B49;" cx="204.8" cy="204.8" r="204.8"/>
<path style="opacity:0.1;enable-background:new    ;" d="M402.254,259.146L288.295,145.188c-0.074-0.075-0.149-0.15-0.224-0.224
	l-0.001-0.001c-4.406-4.359-10.455-7.058-17.137-7.058c-13.482,0-24.405,10.965-24.405,24.448c0,0.636,0.047,1.26,0.095,1.884
	l16.474,21.881l-37.306-37.306c-0.126-0.128-0.253-0.255-0.381-0.382l-0.21-0.211l-0.005,0.015
	c-5.827-5.621-13.746-9.093-22.484-9.093c-14.62,0-26.989,9.727-30.978,23.079l-14.545-14.545c-0.816-0.95-1.701-1.836-2.651-2.651
	l-0.063-0.063l-0.002,0.004c-4.258-3.626-9.77-5.825-15.804-5.825c-13.482,0-24.405,10.923-24.405,24.405
	c0,6.412,2.49,12.227,6.532,16.582l-0.009,0.007l0.17,0.17c0.31,0.327,0.627,0.645,0.955,0.955l7.56,7.56
	c-23.887,4.335-42.002,25.184-42.002,50.289L252.35,403.989C324.969,386.718,382.573,330.804,402.254,259.146z"/>
<circle style="fill:#F6C358;" cx="138.66" cy="163.54" r="24.41"/>
<path style="fill:#FCD462;" d="M189.848,239.128c0-28.272-22.919-51.191-51.191-51.191s-51.191,22.919-51.191,51.191
	L189.848,239.128L189.848,239.128z"/>
<path style="fill:#F6C358;" d="M87.467,239.128c0-28.272,22.919-51.191,51.191-51.191v51.191L87.467,239.128L87.467,239.128z"/>
<path style="fill:#FCD462;" d="M138.657,187.938c13.48,0,24.408-10.928,24.408-24.408c0-13.48-10.928-24.408-24.408-24.408V187.938z
	"/>
<circle style="fill:#44C4A1;" cx="270.93" cy="162.35" r="24.41"/>
<path style="fill:#3EA69B;" d="M322.133,237.931c0-28.272-22.919-51.191-51.191-51.191s-51.191,22.919-51.191,51.191H322.133z"/>
<path style="fill:#44C4A1;" d="M219.752,237.931c0-28.272,22.919-51.191,51.191-51.191v51.191H219.752z"/>
<path style="fill:#3EA69B;" d="M270.943,186.741c13.48,0,24.408-10.928,24.408-24.408c0-13.48-10.928-24.408-24.408-24.408V186.741z
	"/>
<circle style="fill:#3A556A;" cx="202.71" cy="171.48" r="32.35"/>
<path style="fill:#2F4859;" d="M257.508,271.676c7.469,0,13.14-6.871,11.587-14.176c-6.519-30.668-33.756-53.674-66.367-53.674
	s-59.848,23.007-66.367,53.674c-1.553,7.306,4.118,14.176,11.587,14.176H257.508z"/>
<path style="fill:#3A556A;" d="M136.361,257.499c6.519-30.668,33.756-53.674,66.367-53.674v67.85h-54.78
	C140.479,271.676,134.808,264.805,136.361,257.499z"/>
<path style="fill:#2F4859;" d="M202.728,203.825c17.867,0,32.352-14.484,32.352-32.352s-14.484-32.352-32.352-32.352V203.825z"/>
<g>
</g>
<g>
</g>
<g>
</g>
<g>
</g>
<g>
</g>
<g>
</g>
<g>
</g>
<g>
</g>
<g>
</g>
<g>
</g>
<g>
</g>
<g>
</g>
<g>
</g>
<g>
</g>
<g>
</g>
</svg>
