<?xml version="1.0" encoding="utf-8"?>
<!-- Generator: Adobe Illustrator 21.1.0, SVG Export Plug-In . SVG Version: 6.00 Build 0)  -->
<svg version="1.1" id="Ebene_1" xmlns="http://www.w3.org/2000/svg" xmlns:xlink="http://www.w3.org/1999/xlink" x="0px" y="0px"
	 viewBox="0 0 300 300" style="enable-background:new 0 0 300 300;" xml:space="preserve">
<style type="text/css">
	.st0{fill:#FFFFFF;}
</style>
<g>
	<path class="st0" d="M137.5,3c7.4-4.3,17.1-4.3,24.6,0c37.4,21.1,74.8,42.2,112.2,63.4c7,4,11.7,11.8,11.7,19.9v127.1
		c0.1,8.4-5.1,16.5-12.5,20.3c-37.3,21-74.5,42-111.8,63.1c-7.6,4.3-17.5,4-24.8-0.7c-11.2-6.5-22.4-12.9-33.5-19.4
		c-2.3-1.4-4.9-2.4-6.5-4.7c1.4-1.9,4-2.2,6-3c4.7-1.5,8.9-3.9,13.2-6.2c1.1-0.7,2.4-0.5,3.4,0.2c9.6,5.5,19,11.1,28.6,16.5
		c2,1.2,4.1-0.4,5.9-1.4c36.6-20.7,73.2-41.3,109.8-61.9c1.4-0.7,2.1-2.1,2-3.6c0-41.9,0-83.9,0-125.8c0.2-1.7-0.8-3.2-2.3-3.9
		C226.2,62,189.1,41.1,151.9,20.2c-1.3-0.9-3.1-0.9-4.4,0C110.4,41.1,73.3,62.1,36.2,83c-1.5,0.7-2.5,2.2-2.4,3.9
		c0,41.9,0,83.9,0,125.8c-0.1,1.5,0.7,2.9,2,3.5c9.9,5.6,19.8,11.2,29.7,16.8c5.6,3,12.4,4.8,18.6,2.5c5.4-1.9,9.2-7.5,9.1-13.3
		c0.1-41.7,0-83.4,0-125.1c-0.1-1.9,1.6-3.4,3.4-3.2c4.8,0,9.5-0.1,14.3,0c2,0,3.4,1.9,3.1,3.8c0,42,0.1,83.9,0,125.9
		c0,11.2-4.6,23.3-14.9,28.8c-12.7,6.6-28.5,5.2-41.1-1.1c-10.9-5.4-21.3-11.9-32-17.7c-7.4-3.8-12.6-11.9-12.5-20.3V86.2
		c-0.1-8.3,4.8-16.2,12.1-20.1C63,45,100.2,24,137.5,3z"/>
	<path class="st0" d="M170,91c16.3-1,33.6-0.6,48.3,7.4c11.3,6.1,17.6,19,17.8,31.6c-0.3,1.7-2.1,2.6-3.7,2.5c-4.7,0-9.4,0.1-14.1,0
		c-2,0.1-3.2-1.8-3.4-3.5c-1.4-6-4.6-12-10.3-14.9c-8.7-4.4-18.8-4.1-28.3-4c-6.9,0.4-14.4,1-20.2,5c-4.5,3.1-5.9,9.3-4.3,14.3
		c1.5,3.6,5.7,4.8,9.1,5.8c19.6,5.1,40.3,4.6,59.5,11.4c8,2.7,15.7,8.1,18.5,16.4c3.6,11.2,2,24.5-5.9,33.5
		c-6.4,7.4-15.8,11.4-25.2,13.6c-12.4,2.8-25.4,2.8-38,1.6c-11.9-1.4-24.2-4.5-33.4-12.6c-7.8-6.8-11.7-17.4-11.3-27.7
		c0.1-1.7,1.8-2.9,3.5-2.8c4.7,0,9.5-0.1,14.2,0c1.9-0.1,3.3,1.5,3.4,3.3c0.9,5.7,3,11.8,8,15.2c9.7,6.2,21.8,5.8,32.8,6
		c9.2-0.4,19.4-0.5,26.9-6.6c3.9-3.5,5.1-9.2,4-14.2c-1.2-4.2-5.5-6.1-9.3-7.4c-19.3-6.1-40.3-3.9-59.5-10.8
		c-7.8-2.7-15.3-7.9-18.3-15.9c-4.2-11.3-2.3-25.3,6.5-33.9C145.9,95.5,158.2,92.2,170,91L170,91z"/>
</g>
</svg>
