<?xml version="1.0" encoding="utf-8"?>
<!-- Generator: Adobe Illustrator 21.1.0, SVG Export Plug-In . SVG Version: 6.00 Build 0)  -->
<svg version="1.1" id="Layer_2_1_" xmlns="http://www.w3.org/2000/svg" xmlns:xlink="http://www.w3.org/1999/xlink" x="0px" y="0px"
	 viewBox="0 0 300 300" style="enable-background:new 0 0 300 300;" xml:space="preserve">
<style type="text/css">
	.st0{fill:#FFFFFF;}
</style>
<g>
	<path class="st0" d="M301.2,149.2c0-20-25-38.9-63.3-50.6c8.8-39.1,4.9-70.2-12.4-80.1c-4-2.3-8.7-3.4-13.8-3.4v13.7
		c2.8,0,5.1,0.6,7,1.6c8.4,4.8,12,23,9.2,46.5c-0.7,5.8-1.8,11.9-3.1,18.1c-12-2.9-25.2-5.2-39-6.7c-8.3-11.4-16.9-21.7-25.6-30.7
		c20-18.6,38.8-28.8,51.6-28.8V14.9l0,0c-16.9,0-39,12-61.4,32.9C128,27.1,105.9,15.2,89,15.2v13.7c12.7,0,31.6,10.1,51.6,28.6
		c-8.6,9-17.2,19.3-25.4,30.7c-13.9,1.5-27,3.7-39.1,6.8c-1.4-6.1-2.5-12.1-3.2-17.8c-2.9-23.5,0.7-41.7,9-46.6
		c1.8-1.1,4.2-1.6,7.1-1.6V15.3l0,0c-5.2,0-9.8,1.1-13.9,3.4c-17.3,10-21.1,41-12.2,79.9c-38.2,11.8-63.1,30.7-63.1,50.6
		c0,20,25,38.9,63.3,50.6c-8.8,39.1-4.9,70.2,12.4,80.1c4,2.3,8.7,3.4,13.8,3.4c16.9,0,39-12,61.4-32.9
		c22.4,20.8,44.5,32.7,61.4,32.7c5.2,0,9.8-1.1,13.9-3.4c17.3-10,21.1-41,12.2-79.9C276.3,188,301.2,169.1,301.2,149.2z
		 M221.2,108.2c-2.3,7.9-5.1,16.1-8.3,24.3c-2.5-4.9-5.2-9.8-8-14.7c-2.8-4.9-5.8-9.7-8.8-14.4C204.7,104.6,213.1,106.2,221.2,108.2
		z M193,173.6c-4.8,8.3-9.7,16.2-14.8,23.5c-9.2,0.8-18.4,1.2-27.8,1.2c-9.3,0-18.6-0.4-27.6-1.2c-5.1-7.3-10.1-15.1-14.9-23.3
		c-4.7-8-8.9-16.2-12.8-24.5c3.8-8.2,8.1-16.5,12.7-24.5c4.8-8.3,9.7-16.2,14.8-23.5c9.2-0.8,18.4-1.2,27.8-1.2
		c9.3,0,18.6,0.4,27.6,1.2c5.1,7.3,10.1,15.1,14.9,23.3c4.7,8,8.9,16.2,12.8,24.5C201.9,157.4,197.6,165.6,193,173.6z M212.9,165.7
		c3.3,8.2,6.1,16.5,8.5,24.5c-8,2-16.5,3.6-25.3,4.9c3-4.7,6-9.6,8.8-14.6C207.7,175.5,210.4,170.6,212.9,165.7z M150.6,231.2
		c-5.7-5.9-11.4-12.5-17.1-19.7c5.5,0.2,11.2,0.4,16.9,0.4c5.8,0,11.5-0.1,17.1-0.4C161.9,218.7,156.2,225.3,150.6,231.2z
		 M104.9,195c-8.7-1.3-17.1-2.9-25.2-4.9c2.3-7.9,5.1-16.1,8.3-24.3c2.5,4.9,5.2,9.8,8,14.7C98.9,185.6,101.9,190.4,104.9,195z
		 M150.3,67.2c5.7,5.9,11.4,12.5,17.1,19.7c-5.5-0.2-11.2-0.4-16.9-0.4c-5.8,0-11.5,0.1-17.1,0.4C138.9,79.6,144.6,73.1,150.3,67.2z
		 M104.8,103.4c-3,4.7-6,9.6-8.8,14.6c-2.8,4.9-5.5,9.8-8,14.7c-3.3-8.2-6.1-16.5-8.5-24.5C87.5,106.3,96,104.6,104.8,103.4z
		 M49.2,180.3c-21.7-9.3-35.8-21.4-35.8-31.1c0-9.6,14.1-21.9,35.8-31.1c5.3-2.3,11.1-4.3,17-6.2c3.5,12,8.1,24.6,13.8,37.4
		c-5.7,12.8-10.2,25.3-13.6,37.2C60.3,184.6,54.5,182.6,49.2,180.3z M82.3,268.1c-8.4-4.8-12-23-9.2-46.5c0.7-5.8,1.8-11.9,3.1-18.1
		c12,2.9,25.2,5.2,39,6.7c8.3,11.4,16.9,21.7,25.6,30.7c-20,18.6-38.8,28.8-51.6,28.8C86.4,269.7,84.1,269.1,82.3,268.1z M228,221.3
		c2.9,23.5-0.7,41.7-9,46.6c-1.8,1.1-4.2,1.6-7.1,1.6c-12.7,0-31.6-10.1-51.6-28.6c8.6-9,17.2-19.3,25.4-30.7
		c13.9-1.5,27-3.7,39.1-6.8C226.2,209.6,227.3,215.5,228,221.3z M251.6,180.3c-5.3,2.3-11.1,4.3-17,6.2c-3.5-12-8.1-24.6-13.8-37.4
		c5.7-12.8,10.2-25.3,13.6-37.2c6.1,1.9,11.9,4,17.3,6.3c21.7,9.3,35.8,21.4,35.8,31.1C287.5,158.8,273.4,171.1,251.6,180.3z"/>
	<path class="st0" d="M88.9,15.2L88.9,15.2L88.9,15.2z"/>
	<circle class="st0" cx="150.4" cy="149.2" r="28.1"/>
	<path class="st0" d="M211.6,15L211.6,15L211.6,15z"/>
</g>
</svg>
