<?xml version="1.0" encoding="iso-8859-1"?>
<!-- Generator: Adobe Illustrator 19.0.0, SVG Export Plug-In . SVG Version: 6.00 Build 0)  -->
<svg version="1.1" id="Capa_1" xmlns="http://www.w3.org/2000/svg" xmlns:xlink="http://www.w3.org/1999/xlink" x="0px" y="0px"
	 viewBox="0 0 491.52 491.52" style="enable-background:new 0 0 491.52 491.52;" xml:space="preserve">
<circle style="fill:#EFC84A;" cx="245.76" cy="245.76" r="245.76"/>
<path style="opacity:0.1;enable-background:new    ;" d="M378.266,105.564H113.254c-4.557,0-8.294,3.686-8.294,8.294v182.784
	c0,2.918,1.536,5.53,3.891,7.014l53.76,53.76l-6.758,18.176c-0.768,2.048-0.614,4.25,0.358,6.042l-0.051,0.051l0.102,0.102
	c0.717,1.434,1.843,2.611,3.328,3.328l105.603,105.568C391.828,480.767,491.52,374.941,491.52,245.76
	c0-11.016-0.798-21.839-2.202-32.472L383.642,107.612C382.208,106.281,380.314,105.564,378.266,105.564z"/>
<g>
	<path style="fill:#3A556A;" d="M155.865,375.609c-1.485,3.973,0.535,8.397,4.505,9.883c0.89,0.33,1.795,0.487,2.69,0.487
		c3.11,0,6.04-1.908,7.195-4.995l24.586-65.81h-16.397L155.865,375.609z"/>
	<path style="fill:#3A556A;" d="M321.265,380.984c1.155,3.087,4.085,4.995,7.195,4.995c0.895,0,1.8-0.158,2.69-0.487
		c3.97-1.485,5.99-5.91,4.505-9.883l-22.579-60.435h-16.397L321.265,380.984z"/>
</g>
<path style="fill:#64798A;" d="M378.259,105.541H113.26c-4.584,0-8.3,3.716-8.3,8.3v182.794c0,4.584,3.716,8.3,8.3,8.3h264.999
	c4.585,0,8.301-3.716,8.301-8.3V113.841C386.56,109.257,382.844,105.541,378.259,105.541z"/>
<g>
	<polygon style="fill:#2F4859;" points="178.444,315.174 194.841,315.174 198.666,304.935 182.269,304.935 	"/>
	<polygon style="fill:#2F4859;" points="296.679,315.174 313.076,315.174 309.251,304.935 292.854,304.935 	"/>
</g>
<rect x="125.44" y="126.024" style="fill:#E1E6E9;" width="240.64" height="158.433"/>
<rect x="125.44" y="276.347" style="fill:#D5D6DB;" width="240.64" height="8.105"/>
<rect x="138.225" y="229.996" style="fill:#FCD462;" width="31.862" height="35.446"/>
<rect x="138.225" y="265.441" style="fill:#F6C358;" width="31.862" height="7.306"/>
<rect x="184.028" y="265.441" style="fill:#3A556A;" width="31.862" height="7.306"/>
<rect x="184.028" y="187.776" style="fill:#64798A;" width="31.862" height="77.665"/>
<rect x="229.832" y="265.441" style="fill:#2D93BA;" width="31.862" height="7.306"/>
<rect x="229.832" y="211.354" style="fill:#27A2DB;" width="31.862" height="54.093"/>
<rect x="275.63" y="137.728" style="fill:#44C4A1;" width="31.862" height="127.713"/>
<rect x="275.63" y="265.441" style="fill:#3EA69B;" width="31.862" height="7.306"/>
<rect x="321.434" y="175.411" style="fill:#E56353;" width="31.862" height="90.01"/>
<rect x="321.434" y="265.441" style="fill:#D15241;" width="31.862" height="7.306"/>
<path style="fill:#F6C358;" d="M151.926,134.74h-16.06c-1.23,0-2.228,0.998-2.228,2.229v9.761c0,1.23,0.997,2.228,2.228,2.228h16.06
	c1.231,0,2.229-0.998,2.229-2.228v-9.761C154.155,135.738,153.158,134.74,151.926,134.74z"/>
<path style="fill:#E56353;" d="M215.644,134.74h-16.06c-1.23,0-2.228,0.998-2.228,2.229v9.761c0,1.23,0.998,2.228,2.228,2.228h16.06
	c1.231,0,2.229-0.998,2.229-2.228v-9.761C217.872,135.738,216.875,134.74,215.644,134.74z"/>
<g>
	<rect x="160.799" y="139.264" style="fill:#64798A;" width="25.651" height="5.12"/>
	<rect x="225.946" y="139.264" style="fill:#64798A;" width="25.702" height="5.12"/>
</g>
<g>
</g>
<g>
</g>
<g>
</g>
<g>
</g>
<g>
</g>
<g>
</g>
<g>
</g>
<g>
</g>
<g>
</g>
<g>
</g>
<g>
</g>
<g>
</g>
<g>
</g>
<g>
</g>
<g>
</g>
</svg>
