<svg id="Capa_1" enable-background="new 0 0 510 510" height="512" viewBox="0 0 510 510" width="512" xmlns="http://www.w3.org/2000/svg"><path d="m470.96 109.855v241.7h-431.92v-241.7c0-21.22 17.21-38.42 38.43-38.42h355.06c21.22 0 38.43 17.2 38.43 38.42z" fill="#dcf2ea"/><path d="m470.96 109.855v241.7h-215.96v-280.12h177.53c21.22 0 38.43 17.2 38.43 38.42z" fill="#b5e5d3"/><path d="m510 350.535v51.32c0 20.27-16.44 36.71-36.71 36.71h-436.58c-20.27 0-36.71-16.44-36.71-36.71v-51.32c0-5.52 4.48-10 10-10h171.08l73.92 24.51 73.92-24.51h171.08c5.52 0 10 4.48 10 10z" fill="#44446b"/><path d="m510 350.535v51.32c0 20.27-16.44 36.71-36.71 36.71h-218.29v-73.52l73.92-24.51h171.08c5.52 0 10 4.48 10 10z" fill="#35355e"/><path d="m328.92 340.535v28.71c0 11.22-9.09 20.31-20.31 20.31h-107.22c-11.22 0-20.31-9.09-20.31-20.31v-28.71z" fill="#ff712f"/><path d="m328.92 340.535v28.71c0 11.22-9.09 20.31-20.31 20.31h-53.61v-49.02z" fill="#ff4b00"/><path d="m173.124 164.368c-8.217-1.056-15.733 4.748-16.791 12.963l-5.556 43.167-7.551-10.168c-5.99-8.066-18.091-8.073-24.085 0l-7.553 10.169-5.555-43.167c-1.058-8.216-8.578-14.018-16.791-12.963-8.217 1.057-14.021 8.575-12.963 16.792l10.301 80.053c1.715 13.334 18.871 17.868 26.919 7.029l17.684-23.811 17.682 23.811c8.027 10.807 25.202 6.334 26.92-7.028l10.302-80.053c1.058-8.219-4.746-15.737-12.963-16.794z" fill="#44446b"/><path d="m309.9 181.155-10.3 80.06c-1.71 13.34-18.86 17.88-26.92 7.03l-17.68-23.81-17.68 23.81c-8.03 10.81-25.21 6.32-26.92-7.03l-10.3-80.06c-1.06-8.21 4.74-15.73 12.96-16.79 8.21-1.05 15.73 4.75 16.79 12.97l5.56 43.16 7.55-10.17c2.99-4.03 7.51-6.05 12.04-6.05 4.52 0 9.04 2.02 12.04 6.05l7.55 10.17 5.56-43.16c1.06-8.22 8.58-14.02 16.79-12.97 8.22 1.06 14.02 8.58 12.96 16.79z" fill="#44446b"/><g fill="#35355e"><path d="m309.9 181.155-10.3 80.06c-1.71 13.34-18.86 17.88-26.92 7.03l-17.68-23.81v-40.16c4.52 0 9.04 2.02 12.04 6.05l7.55 10.17 5.56-43.16c1.06-8.22 8.58-14.02 16.79-12.97 8.22 1.06 14.02 8.58 12.96 16.79z"/><path d="m420.757 164.368c-8.216-1.056-15.733 4.748-16.791 12.963l-5.555 43.167-7.553-10.169c-5.989-8.066-18.09-8.072-24.085 0l-7.551 10.168-5.556-43.167c-1.058-8.216-8.576-14.018-16.791-12.963-8.217 1.058-14.021 8.576-12.963 16.792l10.302 80.053c1.717 13.352 18.888 17.845 26.92 7.028l17.682-23.811 17.684 23.811c8.059 10.852 25.204 6.309 26.919-7.029l10.301-80.053c1.057-8.215-4.746-15.733-12.963-16.79z"/></g></svg>