<svg id="Ebene_1" data-name="Ebene 1" xmlns="http://www.w3.org/2000/svg" viewBox="70 45 555 135">
    <defs>
        <style>.cls-2{fill:#cccccc;}.cls-3{fill:#ff662b;}.cls-4{fill:#999999;}</style>
    </defs>
    <title>logo-oseven</title>

    <path class="cls-2" d="M330.65,139.66A24.33,24.33,0,1,1,355,163.84,24,24,0,0,1,330.65,139.66Zm43.93,0A19.6,19.6,0,1,0,355,159.39,19.43,19.43,0,0,0,374.58,139.66Z"/>
    <path class="cls-2" d="M420.73,150.68c0,7.6-6.67,13.16-16.59,13.16-9.27,0-15.38-4.35-17.6-10.28l4-2.32c1.67,5,6.67,8.15,13.62,8.15,6.49,0,12-2.87,12-8.71,0-12.6-28.08-5.37-28.08-22.05,0-7.32,6.3-13.16,15.75-13.16,7.51,0,13.25,3.61,15.75,9.27L415.63,127c-1.94-4.82-6.76-7-11.86-7-6,0-11.12,3.15-11.12,8.71C392.65,141.05,420.73,133.73,420.73,150.68Z"/>
    <path class="cls-2" d="M474.29,139.84c0,.74-.09,1.48-.09,2.23h-42c1.11,10.47,9.08,17.32,19.65,17.32,7.59,0,13.34-3.52,16-8.43l4.07,2.41c-3.79,6.3-11,10.47-20.2,10.47-14.27,0-24.37-10.19-24.37-24.18,0-13.63,9.82-24.19,24-24.19S474.29,127.15,474.29,139.84Zm-42.07-2.31h37.25c-1-11.31-9-17.61-18.07-17.61C440.84,119.92,433.15,127.24,432.22,137.53Z"/>
    <path class="cls-2" d="M522.2,116.49l-19.55,46.33H497l-19.65-46.33h5L499.78,158l17.51-41.51Z"/>
    <path class="cls-2" d="M572.52,139.84c0,.74-.09,1.48-.09,2.23h-42c1.11,10.47,9.08,17.32,19.65,17.32,7.6,0,13.34-3.52,16-8.43l4.08,2.41c-3.8,6.3-11,10.47-20.21,10.47-14.27,0-24.37-10.19-24.37-24.18,0-13.63,9.83-24.19,24-24.19S572.52,127.15,572.52,139.84Zm-42.07-2.31H567.7c-1-11.31-9-17.61-18.07-17.61C539.07,119.92,531.38,127.24,530.45,137.53Z"/>
    <path class="cls-2" d="M622.56,134v28.82h-4.72V134c0-8.52-4.91-14.08-13.63-14.08-9.08,0-16.21,5.93-16.21,18.44v24.46h-4.63V116.49H588v8.8c3.52-6.85,9.45-9.82,16.59-9.82C615.61,115.47,622.56,122.79,622.56,134Z"/>
    <path class="cls-3" d="M247.89,80.78a48.56,48.56,0,0,0-10,1,62.49,62.49,0,0,1,2.94,5.55,43,43,0,1,1,7.07,85.43H203.58a62.13,62.13,0,0,1-19.1,3h-3v3h66.41a49,49,0,0,0,0-98Z"/>
    <path class="cls-4" d="M184.48,48.48a65.21,65.21,0,0,0-58,35.62,45,45,0,0,1,6.17,1.14,59.15,59.15,0,1,1,51.87,87.56h-47a45.73,45.73,0,0,1-16.35,3c-.59,0-1.17,0-1.76,0v3h65.16a65.16,65.16,0,0,0,0-130.32Z"/>
    <path class="cls-2" d="M121.08,178.8a49,49,0,1,1,49-49A49.06,49.06,0,0,1,121.08,178.8Zm0-92a43,43,0,1,0,43,43A43.05,43.05,0,0,0,121.08,86.78Z"/>
</svg>