<?xml version="1.0" encoding="iso-8859-1"?>
<!-- Generator: Adobe Illustrator 19.0.0, SVG Export Plug-In . SVG Version: 6.00 Build 0)  -->
<svg version="1.1" id="Capa_1" xmlns="http://www.w3.org/2000/svg" xmlns:xlink="http://www.w3.org/1999/xlink" x="0px" y="0px"
	 viewBox="0 0 491.52 491.52" style="enable-background:new 0 0 491.52 491.52;" xml:space="preserve">
<circle style="fill:#45B39C;" cx="245.76" cy="245.76" r="245.76"/>
<path style="opacity:0.1;enable-background:new    ;" d="M320.614,166.769l-61.85-61.799H115.251
	c-5.683,0-10.291,4.608-10.291,10.291v261.018c0,2.714,1.024,5.171,2.765,6.963l106.151,106.151
	c10.444,1.355,21.071,2.127,31.884,2.127c108.106,0,199.841-69.832,232.73-166.823L320.614,166.82V166.769z"/>
<path style="fill:#EBF0F3;" d="M258.758,104.96h-143.51c-5.681,0-10.288,4.606-10.288,10.288v261.025
	c0,5.682,4.606,10.288,10.288,10.288h195.054c5.681,0,10.288-4.606,10.288-10.288v-209.48L258.758,104.96z"/>
<path style="fill:#D5D6DB;" d="M258.758,104.96v51.545c0,5.682,4.606,10.288,10.288,10.288h51.544L258.758,104.96z"/>
<rect x="129.833" y="263.066" style="fill:#FCD462;" width="24.576" height="35.446"/>
<rect x="129.833" y="298.547" style="fill:#F6C358;" width="24.576" height="7.301"/>
<rect x="165.171" y="298.547" style="fill:#3A556A;" width="24.576" height="7.301"/>
<rect x="165.171" y="220.877" style="fill:#64798A;" width="24.576" height="77.665"/>
<rect x="200.499" y="298.547" style="fill:#2D93BA;" width="24.576" height="7.301"/>
<rect x="200.499" y="244.434" style="fill:#27A2DB;" width="24.576" height="54.093"/>
<rect x="235.827" y="170.803" style="fill:#44C4A1;" width="24.576" height="127.713"/>
<rect x="235.827" y="298.547" style="fill:#3EA69B;" width="24.576" height="7.301"/>
<rect x="271.14" y="208.517" style="fill:#E56353;" width="24.576" height="90.015"/>
<rect x="271.14" y="298.547" style="fill:#D15241;" width="24.576" height="7.301"/>
<g>
	<rect x="129.828" y="326.702" style="fill:#D5D6DB;" width="165.888" height="10.24"/>
	<rect x="129.828" y="353.843" style="fill:#D5D6DB;" width="165.888" height="10.24"/>
</g>
<ellipse style="opacity:0.25;fill:#27A2DB;enable-background:new    ;" cx="265.688" cy="265.687" rx="52.542" ry="52.542"/>
<path style="fill:#3A556A;" d="M307.48,320.243l10.96,10.96l12.763-12.763l-10.96-10.96c20.708-26.972,18.779-65.738-5.915-90.432
	c-26.863-26.863-70.417-26.863-97.28,0.001c-26.863,26.863-26.863,70.416,0,97.279C241.742,339.022,280.508,340.951,307.48,320.243z
	 M228.534,302.841c-20.519-20.519-20.519-53.788,0-74.307s53.788-20.519,74.307,0c20.519,20.519,20.519,53.788,0,74.307
	S249.053,323.361,228.534,302.841z"/>
<path style="fill:#2F4859;" d="M315.07,332.332l17.261-17.261c0.859-0.86,2.253-0.86,3.112-0.001l6.544,6.544l-20.374,20.374
	l-6.544-6.544C314.211,334.584,314.211,333.191,315.07,332.332z"/>
<path style="fill:#27A2DB;" d="M319.319,346.401c-0.585-0.585-0.585-1.532-0.001-2.117l24.966-24.966
	c0.584-0.584,1.532-0.584,2.117,0.001l34.139,34.139l-27.082,27.082L319.319,346.401z"/>
<path style="fill:#2D93BA;" d="M380.54,353.458l5.582,5.581c0.584,0.585,0.584,1.532,0,2.117l-24.966,24.966
	c-0.585,0.584-1.532,0.584-2.117,0l-5.581-5.582L380.54,353.458z"/>
<g>
</g>
<g>
</g>
<g>
</g>
<g>
</g>
<g>
</g>
<g>
</g>
<g>
</g>
<g>
</g>
<g>
</g>
<g>
</g>
<g>
</g>
<g>
</g>
<g>
</g>
<g>
</g>
<g>
</g>
</svg>
