<?xml version="1.0" encoding="utf-8"?>

<svg version="1.2" baseProfile="tiny"  xmlns="http://www.w3.org/2000/svg" xmlns:xlink="http://www.w3.org/1999/xlink"
	 x="0px" y="0px" viewBox="0 0 659.91 214.82" overflow="visible" xml:space="preserve">
<style>
.opacity{
  animation: fadeIn 1s ease-in forwards;
  opacity: 1;
}
.path {
  stroke-dasharray: 1000;
  stroke-dashoffset: 1000;
  animation: dash 2s ease-in forwards;

}
@keyframes dash {
to {stroke-dashoffset: 0;}
}

@keyframes fadeIn {
from {opacity: 0;}
to {sopacity: 1;}
}

</style>
<path class="opacity" fill="#FFFFFF" d="M326.41,132.76c-0.05-13.44,10.8-24.37,24.24-24.42c13.44-0.05,24.37,10.8,24.42,24.24
	s-10.8,24.37-24.24,24.42c-0.02,0-0.03,0-0.05,0c-13.25,0.21-24.16-10.37-24.37-23.63C326.41,133.17,326.41,132.96,326.41,132.76z
	 M370.33,132.76c-0.08-10.82-8.92-19.54-19.74-19.46c-10.82,0.08-19.54,8.92-19.46,19.74c0.08,10.79,8.86,19.49,19.65,19.46
	c10.73,0.07,19.48-8.56,19.55-19.29C370.33,133.06,370.33,132.91,370.33,132.76L370.33,132.76z"/>
<path class="opacity" fill="#FFFFFF" d="M416.49,143.79c0,7.6-6.68,13.16-16.59,13.16c-9.27,0-15.39-4.36-17.61-10.29l4-2.32
	c1.66,5,6.67,8.16,13.62,8.16c6.48,0,12-2.87,12-8.71c0-12.61-28.08-5.38-28.08-22.06c0-7.32,6.3-13.16,15.76-13.16
	c7.5,0,13.25,3.62,15.75,9.27l-3.89,2.22c-1.95-4.81-6.77-7-11.86-7c-6,0-11.12,3.15-11.12,8.71
	C388.41,134.15,416.49,126.83,416.49,143.79z"/>
<path class="opacity" fill="#FFFFFF" d="M470.05,133c0,0.74-0.1,1.48-0.1,2.22H428c1.11,10.47,9.08,17.33,19.64,17.33c7.6,0,13.35-3.52,16-8.43
	l4.08,2.4c-3.8,6.31-11,10.48-20.2,10.48c-14.27,0-24.37-10.2-24.37-24.19c0-13.62,9.82-24.19,24-24.19S470.05,120.25,470.05,133z
	 M428,130.63h37.25c-1-11.31-9-17.61-18.07-17.61C436.59,113,428.9,120.34,428,130.63z"/>
<path class="opacity" fill="#FFFFFF" d="M518,109.59l-19.55,46.34h-5.66l-19.64-46.34h5l17.42,41.52l17.52-41.52H518z"/>
<path class="opacity" fill="#FFFFFF" d="M568.28,133c0,0.74-0.09,1.48-0.09,2.22h-42c1.11,10.47,9.08,17.33,19.64,17.33c7.6,0,13.35-3.52,16-8.43
	l4.08,2.4c-3.8,6.31-11,10.48-20.2,10.48c-14.27,0-24.37-10.2-24.37-24.19c0-13.62,9.82-24.19,24-24.19S568.28,120.25,568.28,133z
	 M526.21,130.68h37.25c-1-11.31-9-17.61-18.07-17.61c-10.57-0.07-18.26,7.27-19.18,17.56V130.68z"/>
<path class="opacity" fill="#FFFFFF" d="M618.32,127.11v28.82h-4.73v-28.82c0-8.53-4.91-14.09-13.62-14.09c-9.08,0-16.22,5.93-16.22,18.44v24.47
	h-4.63v-46.34h4.63v8.81c3.53-6.86,9.46-9.83,16.59-9.83C611.37,108.57,618.32,115.89,618.32,127.11z"/>
<circle  class="path opacity"  fill="none" stroke="#FFFFFF" stroke-width="6" stroke-miterlimit="10" cx="116.73" cy="123.06" r="45.95"/>
<path class="path opacity"  fill="none" stroke="#FFFFFF" stroke-width="6" stroke-miterlimit="10" d="M113.51,168.89c14.88,0.11,54.16,0.11,66.95,0.11
	c34.51,0,62.48-27.97,62.48-62.48c0-34.51-27.97-62.48-62.48-62.48c-24.16,0-45.11,13.73-55.5,33.8"/>
<path class="path opacity" fill="none" stroke="#FFFFFF" stroke-width="6" stroke-miterlimit="10" d="M182.87,169.01c13.19,0,49.74,0,60.68,0
	c25.38,0,45.95-20.57,45.95-45.95s-20.57-45.95-45.95-45.95c-2.61,0-5.16,0.23-7.64,0.64"/>
</svg>
