<?xml version="1.0" encoding="utf-8"?>
<!-- Generator: Adobe Illustrator 24.3.0, SVG Export Plug-In . SVG Version: 6.00 Build 0)  -->
<svg version="1.1" id="Ebene_1" xmlns="http://www.w3.org/2000/svg" xmlns:xlink="http://www.w3.org/1999/xlink" x="0px" y="0px"
	 viewBox="0 0 105.2 35.2" style="enable-background:new 0 0 105.2 35.2;" xml:space="preserve">
<style type="text/css">
	.st3{fill:#EE4C2C;}
	.st4{fill:#252525;}
</style>
<g transform="matrix(1.216601 0 0 1.216601 -17.277149 11.431622)">
	<path class="st3" d="M34.7-0.9l-2.1,2.1c3.5,3.5,3.5,9.2,0,12.7s-9.2,3.5-12.7,0s-3.5-9.2,0-12.7l5.6-5.6l0.7-0.8v-4.2l-8.5,8.5
		c-4.7,4.6-4.7,12.1-0.1,16.8c0,0,0.1,0.1,0.1,0.1c4.6,4.7,12.1,4.7,16.8,0.1c0,0,0.1-0.1,0.1-0.1C39.4,11.3,39.4,3.7,34.7-0.9z"/>
	<circle class="st3" cx="30.5" cy="-3.1" r="1.6"/>
</g>
<path class="st4" d="M40.6,19.6h-2v5.1h-1.5V10.2h3.7c3.9,0,5.7,1.9,5.7,4.6C46.5,18,44.2,19.6,40.6,19.6L40.6,19.6z M40.7,11.5
	h-2.1v6.7l2.1-0.1c2.8-0.1,4.3-1.2,4.3-3.4C44.9,12.7,43.5,11.5,40.7,11.5L40.7,11.5z M53.2,24.7L52.3,27c-1,2.6-2,3.4-3.5,3.4
	c-0.8,0-1.4-0.2-2.1-0.5l0.4-1.3c0.5,0.3,1,0.4,1.7,0.4c0.8,0,1.4-0.4,2.2-2.5l0.7-1.9l-4.1-10.6h1.5l3.4,8.9l3.3-8.9h1.5L53.2,24.7
	z M62.4,11.6v13.2h-1.5V11.6h-5.1v-1.4h11.8v1.4L62.4,11.6L62.4,11.6z M71.7,25.1c-3,0-5.2-2.2-5.2-5.6s2.3-5.7,5.3-5.7
	c3,0,5.1,2.2,5.1,5.6S74.7,25.1,71.7,25.1L71.7,25.1z M71.8,15.1c-2.3,0-3.8,1.8-3.8,4.3c0,2.6,1.6,4.4,3.8,4.4s3.8-1.8,3.8-4.3
	C75.6,16.9,74,15.1,71.8,15.1z M80.7,24.8h-1.4V14.1l1.4-0.3v2.3c0.7-1.4,1.8-2.3,3.2-2.3c0.7,0,1.3,0.2,1.9,0.5l-0.4,1.4
	c-0.4-0.3-1.1-0.4-1.7-0.4c-1.1,0-2.2,0.8-3,2.8L80.7,24.8L80.7,24.8z M91.4,25.1c-3.2,0-5.3-2.3-5.3-5.6c0-3.4,2.2-5.7,5.3-5.7
	c1.3,0,2.4,0.3,3.4,0.9L94.4,16c-0.8-0.6-1.8-0.9-3-0.9c-2.3,0-3.8,1.7-3.8,4.3c0,2.6,1.6,4.3,3.8,4.3c1.1,0,2.1-0.3,3-0.9l0.3,1.3
	C93.8,24.8,92.6,25.1,91.4,25.1L91.4,25.1z M103.7,24.8v-6.9c0-1.9-0.8-2.7-2.3-2.7c-1.2,0-2.4,0.6-3.3,1.6v8.1h-1.4V9.1l1.4-0.3
	v6.7c1.1-1.1,2.5-1.7,3.7-1.7c2.1,0,3.4,1.3,3.4,3.7v7.4L103.7,24.8z"/>
</svg>
