<svg xmlns="http://www.w3.org/2000/svg" width="913.635" height="150" viewBox="0 0 913.635 150">
  <g id="Gruppe_1" data-name="Gruppe 1" transform="translate(-295 -612)">
    <g id="layer1" transform="translate(278.674 427.248)">
      <g id="g3052" transform="translate(16.326 184.752)">
        <path id="path3055" d="M93.086,184.766a10.345,10.345,0,0,0-3.939,1L35.4,211.442a10.209,10.209,0,0,0-5.561,6.915L16.584,276.039a10.124,10.124,0,0,0,1.4,7.815q.272.419.584.811l37.2,46.252a10.309,10.309,0,0,0,8.035,3.835l59.655-.014a10.309,10.309,0,0,0,8.035-3.829l37.186-46.259a10.13,10.13,0,0,0,1.986-8.626l-13.28-57.682a10.209,10.209,0,0,0-5.561-6.915L98.07,185.762A10.349,10.349,0,0,0,93.086,184.766Z" transform="translate(-16.326 -184.752)" fill="#326ce5" stroke="#fff"/>
        <path id="path3059" d="M166.782,274.06a3.41,3.41,0,0,0-3.217,3.574c0,.03.006.059.007.089,0,.268-.016.591-.007.825a26.836,26.836,0,0,0,.44,3.059,30.05,30.05,0,0,1,.357,5.836,3.51,3.51,0,0,1-1.045,1.663l-.076,1.361a41.864,41.864,0,0,0-5.815.894,41.379,41.379,0,0,0-21.019,12.008c-.355-.242-.977-.688-1.162-.825a2.542,2.542,0,0,1-1.911-.186A30.043,30.043,0,0,1,129,298.44a26.809,26.809,0,0,0-2.117-2.248c-.2-.169-.5-.4-.715-.57a3.826,3.826,0,0,0-2.241-.845,3.1,3.1,0,0,0-2.564,1.134,3.409,3.409,0,0,0,.79,4.743c.016.012.032.022.048.034.212.172.472.392.667.536a26.818,26.818,0,0,0,2.667,1.56,30.031,30.031,0,0,1,4.784,3.361,3.578,3.578,0,0,1,.646,1.856l1.031.921a41.626,41.626,0,0,0-6.564,29.02l-1.347.392a4.459,4.459,0,0,1-1.382,1.4,30.037,30.037,0,0,1-5.767.949,26.911,26.911,0,0,0-3.086.247c-.246.047-.59.136-.859.2l-.027.007-.048.014a3.228,3.228,0,1,0,1.43,6.269c.014,0,.034,0,.048-.007s.04-.015.062-.021c.266-.058.6-.123.832-.186a26.886,26.886,0,0,0,2.887-1.107,30.069,30.069,0,0,1,5.609-1.65,3.553,3.553,0,0,1,1.849.653l1.4-.241a41.863,41.863,0,0,0,18.552,23.164l-.584,1.4a3.188,3.188,0,0,1,.286,1.819,31.431,31.431,0,0,1-2.912,5.233,26.946,26.946,0,0,0-1.725,2.571c-.127.241-.289.611-.412.866a3.23,3.23,0,1,0,5.808,2.756s.006,0,.007-.007,0,0,0-.007c.122-.251.3-.582.4-.818a26.841,26.841,0,0,0,.928-2.949c.851-2.138,1.319-4.381,2.49-5.779a2.605,2.605,0,0,1,1.386-.675l.729-1.32a41.633,41.633,0,0,0,29.687.076c.2.363.585,1.061.687,1.237a2.546,2.546,0,0,1,1.643,1,30.018,30.018,0,0,1,2.206,5.409,26.908,26.908,0,0,0,.935,2.949c.1.238.276.573.4.825a3.232,3.232,0,1,0,5.815-2.749c-.123-.255-.292-.625-.419-.866a26.829,26.829,0,0,0-1.725-2.564,30.056,30.056,0,0,1-2.853-5.107,2.523,2.523,0,0,1,.247-1.9,11.056,11.056,0,0,1-.536-1.3,41.861,41.861,0,0,0,18.545-23.329c.416.065,1.14.193,1.375.241a2.541,2.541,0,0,1,1.8-.667,30.069,30.069,0,0,1,5.609,1.65,26.888,26.888,0,0,0,2.887,1.113c.233.062.566.12.832.179.021.005.04.016.062.021s.034,0,.048.007a3.228,3.228,0,1,0,1.43-6.269c-.276-.063-.667-.169-.935-.22a26.918,26.918,0,0,0-3.086-.247,30.033,30.033,0,0,1-5.767-.949,3.608,3.608,0,0,1-1.388-1.4l-1.3-.378a41.788,41.788,0,0,0-6.7-28.951c.333-.3.963-.86,1.141-1.024a2.54,2.54,0,0,1,.6-1.821,30.034,30.034,0,0,1,4.784-3.361,26.894,26.894,0,0,0,2.674-1.56c.207-.153.49-.4.708-.57a3.234,3.234,0,1,0-4.007-5.031c-.22.174-.518.4-.715.571a26.919,26.919,0,0,0-2.124,2.248,30.126,30.126,0,0,1-4.337,3.925,3.582,3.582,0,0,1-1.952.213l-1.223.873a42.159,42.159,0,0,0-26.7-12.9c-.029-.429-.066-1.2-.076-1.437a2.544,2.544,0,0,1-1.052-1.608,30.1,30.1,0,0,1,.364-5.836,26.842,26.842,0,0,0,.44-3.059c.01-.259-.006-.634-.007-.914a3.41,3.41,0,0,0-3.217-3.574Zm-4.028,24.951-.955,16.874-.069.034a2.836,2.836,0,0,1-4.5,2.172l-.027.014L143.364,308.3a33.138,33.138,0,0,1,15.96-8.695A33.893,33.893,0,0,1,162.754,299.01Zm8.063,0A33.417,33.417,0,0,1,190.09,308.3l-13.747,9.747-.048-.021a2.84,2.84,0,0,1-4.509-2.165l-.014-.007ZM138.346,314.6l12.633,11.3-.014.069a2.835,2.835,0,0,1-1.114,4.873l-.014.055-16.194,4.674A33.131,33.131,0,0,1,138.346,314.6Zm56.782.007a33.746,33.746,0,0,1,4.846,20.909L183.7,330.828l-.014-.069a2.837,2.837,0,0,1-1.113-4.873l-.007-.034ZM164.19,326.773h5.176l3.217,4.021-1.155,5.018-4.646,2.234-4.66-2.241-1.155-5.018Zm16.593,13.761a2.822,2.822,0,0,1,.653.048l.027-.034,16.751,2.832a33.173,33.173,0,0,1-13.41,16.847l-6.5-15.706.021-.027a2.847,2.847,0,0,1,2.461-3.959Zm-28.133.069a2.836,2.836,0,0,1,2.564,3.952l.048.062-6.434,15.548a33.309,33.309,0,0,1-13.369-16.73l16.606-2.818.027.034A2.871,2.871,0,0,1,152.65,340.6Zm14.029,6.812a2.86,2.86,0,0,1,2.6,1.492h.062l8.186,14.792a33.939,33.939,0,0,1-3.272.914,33.264,33.264,0,0,1-18.153-.935l8.166-14.764h.014A2.84,2.84,0,0,1,166.679,347.414Z" transform="translate(-89.489 -254.416)" fill="#fff" stroke="#fff" stroke-width="0.25"/>
      </g>
    </g>
    <g id="layer1-2" data-name="layer1" transform="translate(473.895 318.634)">
      <g id="text4373">
        <path id="path2985" d="M36.22,374.766q2.97-3.24,6.075-6.75,3.24-3.51,6.21-6.885,2.97-3.51,5.535-6.615,2.7-3.1,4.59-5.4H82.525q-7.155,8.235-14.04,15.8-6.75,7.425-14.85,15.39a88.52,88.52,0,0,1,8.37,8.775q4.32,5,8.37,10.395t7.425,10.8q3.375,5.4,5.67,9.855H60.385q-2.16-3.51-4.995-7.7-2.7-4.32-5.805-8.505a98.071,98.071,0,0,0-6.615-8.235,51.476,51.476,0,0,0-6.75-6.615v31.05H16.105V318.606l20.115-3.24v59.4" fill="#326de5"/>
        <path id="path2987" d="M153.449,417.7a105.124,105.124,0,0,1-13.23,2.7,103.394,103.394,0,0,1-17.01,1.35,40.931,40.931,0,0,1-15.12-2.43,23.192,23.192,0,0,1-9.45-6.75,27.207,27.207,0,0,1-5-10.53,56.271,56.271,0,0,1-1.485-13.365V349.116h20.115v37.125q0,9.72,2.565,14.04t9.585,4.32q2.16,0,4.59-.135,2.43-.27,4.32-.54v-54.81h20.115V417.7" fill="#326de5"/>
        <path id="path2989" d="M217.958,384.081q0-19.44-14.31-19.44a24.519,24.519,0,0,0-6.21.81,17.552,17.552,0,0,0-4.86,2.025V404.06q1.485.27,3.78.54,2.295.135,4.995.135,8.235,0,12.42-5.67t4.185-14.985m20.52.54a43.817,43.817,0,0,1-2.565,15.39,31.749,31.749,0,0,1-7.155,11.745,32.47,32.47,0,0,1-11.61,7.56,44.648,44.648,0,0,1-15.66,2.565q-3.645,0-7.7-.4-3.915-.27-7.83-.81-3.78-.54-7.29-1.215-3.51-.81-6.21-1.62V318.606l20.115-3.24v35.37a37.693,37.693,0,0,1,7.02-2.3,36.06,36.06,0,0,1,7.83-.81,31.366,31.366,0,0,1,13.365,2.7,25.551,25.551,0,0,1,9.72,7.425,33.593,33.593,0,0,1,5.94,11.745,52.546,52.546,0,0,1,2.025,15.12" fill="#326de5"/>
        <path id="path2991" d="M250.562,385.161a43.818,43.818,0,0,1,2.835-16.47,36.151,36.151,0,0,1,7.7-11.88,31.9,31.9,0,0,1,10.8-7.155,34.551,34.551,0,0,1,12.69-2.43q15.12,0,23.895,9.315,8.775,9.18,8.775,27.135,0,1.755-.135,3.915-.135,2.025-.27,3.645h-45.63a13.367,13.367,0,0,0,5.8,9.855q5.13,3.645,13.77,3.645a61.018,61.018,0,0,0,10.8-.945,43.357,43.357,0,0,0,8.775-2.565l2.7,16.335a27.783,27.783,0,0,1-4.32,1.62,47.177,47.177,0,0,1-6.075,1.35q-3.24.675-7.02,1.08a70.918,70.918,0,0,1-7.56.4,45.286,45.286,0,0,1-16.74-2.835,33.74,33.74,0,0,1-11.745-7.7,32.672,32.672,0,0,1-6.885-11.745,47.586,47.586,0,0,1-2.16-14.58m47.25-7.7a18.861,18.861,0,0,0-.945-4.995,11.136,11.136,0,0,0-2.3-4.32,11.316,11.316,0,0,0-3.915-3.105,12.336,12.336,0,0,0-5.8-1.215,12.852,12.852,0,0,0-5.8,1.215,11.278,11.278,0,0,0-4.05,2.97,14.442,14.442,0,0,0-2.565,4.455,31.107,31.107,0,0,0-1.215,4.995h26.6" fill="#326de5"/>
        <path id="path2993" d="M375.57,366.936q-2.7-.675-6.345-1.35a36.059,36.059,0,0,0-7.83-.81,31.742,31.742,0,0,0-4.59.4,22.8,22.8,0,0,0-3.915.675v54.27H332.775V352.9a113.069,113.069,0,0,1,12.69-3.51,71.679,71.679,0,0,1,16.47-1.755,34.34,34.34,0,0,1,3.915.27,39.9,39.9,0,0,1,4.59.54,40.925,40.925,0,0,1,4.59.81,18.724,18.724,0,0,1,3.915,1.08l-3.375,16.605" fill="#326de5"/>
        <path id="path2995" d="M389.728,351.546a105.145,105.145,0,0,1,13.23-2.7,103.406,103.406,0,0,1,17.01-1.35q9.045,0,14.985,2.43a22.068,22.068,0,0,1,9.585,6.615,26.039,26.039,0,0,1,4.995,10.26,54.6,54.6,0,0,1,1.485,13.23v40.1H430.9V382.461q0-9.72-2.565-13.77t-9.585-4.05a41.7,41.7,0,0,0-4.59.27q-2.43.135-4.32.4v54.81H389.728v-68.58" fill="#326de5"/>
        <path id="path2997" d="M465.982,385.161a43.818,43.818,0,0,1,2.835-16.47,36.151,36.151,0,0,1,7.7-11.88,31.9,31.9,0,0,1,10.8-7.155,34.551,34.551,0,0,1,12.69-2.43q15.12,0,23.895,9.315,8.775,9.18,8.775,27.135,0,1.755-.135,3.915-.135,2.025-.27,3.645h-45.63a13.367,13.367,0,0,0,5.8,9.855q5.13,3.645,13.77,3.645a61.019,61.019,0,0,0,10.8-.945,43.358,43.358,0,0,0,8.775-2.565l2.7,16.335a27.785,27.785,0,0,1-4.32,1.62,47.177,47.177,0,0,1-6.075,1.35q-3.24.675-7.02,1.08a70.918,70.918,0,0,1-7.56.4,45.286,45.286,0,0,1-16.74-2.835,33.74,33.74,0,0,1-11.745-7.7,32.673,32.673,0,0,1-6.885-11.745,47.586,47.586,0,0,1-2.16-14.58m47.25-7.7a18.863,18.863,0,0,0-.945-4.995,11.136,11.136,0,0,0-2.3-4.32,11.316,11.316,0,0,0-3.915-3.105,12.336,12.336,0,0,0-5.8-1.215,12.852,12.852,0,0,0-5.8,1.215,11.278,11.278,0,0,0-4.05,2.97,14.442,14.442,0,0,0-2.565,4.455,31.11,31.11,0,0,0-1.215,4.995h26.6" fill="#326de5"/>
        <path id="path2999" d="M547.52,331.431l20.115-3.24v20.925H591.8v16.74H567.635v24.975q0,6.345,2.16,10.125,2.295,3.78,9.045,3.78a41.832,41.832,0,0,0,6.615-.54,38,38,0,0,0,6.345-1.755l2.835,15.66a57.238,57.238,0,0,1-8.1,2.565,47.2,47.2,0,0,1-10.935,1.08,37.01,37.01,0,0,1-13.635-2.16,22.265,22.265,0,0,1-8.64-6.21,24.342,24.342,0,0,1-4.59-9.72A60.03,60.03,0,0,1,547.52,391.1V331.43" fill="#326de5"/>
        <path id="path3001" d="M602.037,385.161a43.818,43.818,0,0,1,2.835-16.47,36.151,36.151,0,0,1,7.7-11.88,31.9,31.9,0,0,1,10.8-7.155,34.551,34.551,0,0,1,12.69-2.43q15.12,0,23.9,9.315,8.775,9.18,8.775,27.135,0,1.755-.135,3.915-.135,2.025-.27,3.645h-45.63a13.367,13.367,0,0,0,5.8,9.855q5.13,3.645,13.77,3.645a61.018,61.018,0,0,0,10.8-.945,43.358,43.358,0,0,0,8.775-2.565l2.7,16.335a27.785,27.785,0,0,1-4.32,1.62,47.177,47.177,0,0,1-6.075,1.35q-3.24.675-7.02,1.08a70.919,70.919,0,0,1-7.56.4,45.286,45.286,0,0,1-16.74-2.835,33.74,33.74,0,0,1-11.745-7.7,32.673,32.673,0,0,1-6.885-11.745,47.586,47.586,0,0,1-2.16-14.58m47.25-7.7a18.861,18.861,0,0,0-.945-4.995,11.136,11.136,0,0,0-2.295-4.32,11.316,11.316,0,0,0-3.915-3.105,12.336,12.336,0,0,0-5.8-1.215,12.852,12.852,0,0,0-5.8,1.215,11.278,11.278,0,0,0-4.05,2.97,14.441,14.441,0,0,0-2.565,4.455,31.11,31.11,0,0,0-1.215,4.995h26.595" fill="#326de5"/>
        <path id="path3003" d="M704.635,405.681q5.535,0,7.83-1.08t2.295-4.185q0-2.43-2.97-4.185a51.981,51.981,0,0,0-9.045-4.185q-4.725-1.755-8.64-3.645a26.586,26.586,0,0,1-6.48-4.455,19.014,19.014,0,0,1-4.185-6.345,23.241,23.241,0,0,1-1.485-8.775q0-9.99,7.425-15.8t20.385-5.8a61.86,61.86,0,0,1,12.42,1.215,54.3,54.3,0,0,1,9.45,2.43l-3.51,15.66a72.195,72.195,0,0,0-7.7-2.16,40.556,40.556,0,0,0-9.18-.945q-9.45,0-9.45,5.265a5.437,5.437,0,0,0,.405,2.16,5.059,5.059,0,0,0,1.62,1.89q1.215.81,3.24,1.89,2.16.945,5.4,2.16a76.357,76.357,0,0,1,10.935,4.86,22.931,22.931,0,0,1,6.75,5.13,14.358,14.358,0,0,1,3.51,6.075,25.729,25.729,0,0,1,1.08,7.83q0,10.53-7.965,15.93-7.83,5.4-22.275,5.4A65.06,65.06,0,0,1,688.7,420.4a64.117,64.117,0,0,1-8.64-2.7l3.375-16.335a71.2,71.2,0,0,0,10.53,3.24,54.279,54.279,0,0,0,10.665,1.08" fill="#326de5"/>
      </g>
    </g>
  </g>
</svg>
