<?xml version="1.0" encoding="iso-8859-1"?>
<!-- Generator: Adobe Illustrator 19.0.0, SVG Export Plug-In . SVG Version: 6.00 Build 0)  -->
<svg version="1.1" id="Layer_1" xmlns="http://www.w3.org/2000/svg" xmlns:xlink="http://www.w3.org/1999/xlink" x="0px" y="0px"
	 viewBox="0 0 451.277 451.277" style="enable-background:new 0 0 451.277 451.277;" xml:space="preserve">
<circle style="fill:#EFC84A;" cx="225.638" cy="225.638" r="225.638"/>
<path style="opacity:0.1;enable-background:new    ;" d="M232.806,106.31l-0.705-0.847c-1.175-1.363-2.445-2.632-3.667-3.902
	c-0.282-0.282-0.564-0.611-0.893-0.94c-1.551-1.504-3.103-2.915-4.748-4.278c-0.235,0.235-0.423,0.424-0.658,0.611v0.047
	c-6.206,5.594-11.894,12.552-16.877,20.638c-4.983,8.133-9.308,17.394-12.834,27.549c0,0.047,0,0.047,0,0.047l-0.047,0.094
	l-1.833,5.735c-5.5,18.147-8.509,38.738-8.227,60.646c0.141,11.8,1.269,23.224,3.197,34.084
	c-17.206,12.364-28.348,32.438-28.019,54.957c0.141,8.603,1.88,16.783,4.983,24.258l119.252,119.252
	c70.24-17.967,127.23-68.916,153.633-135.349L232.994,106.545C232.947,106.451,232.853,106.404,232.806,106.31z"/>
<path style="fill:#FCD462;" d="M224.74,306.011l0-0.03c-1.053-1.759-2.03-3.953-2.913-6.482l-5.271,0.071
	c-15.392,14.78,7.574,45.748,7.574,45.748c23.3-27.185,9.96-43.264,7.358-45.951l-3.604,0.049c-0.869,2.739-1.855,5.091-2.942,6.945
	C224.874,306.251,224.81,306.125,224.74,306.011z"/>
<g>
	<path style="fill:#E56353;" d="M244.004,299.199l-0.098-7.046c-4.489-0.983-9.128-1.552-13.861-1.753
		c-0.59,3.331-1.318,6.359-2.161,9.018l3.604-0.049c2.602,2.687,15.942,18.766-7.358,45.951c0,0-22.966-30.969-7.574-45.748
		l-5.408,0.073c-3.657,4.053-15.333,21.384,13.197,55.138v0.141c0.02-0.024,0.038-0.047,0.058-0.07
		c0.02,0.023,0.038,0.046,0.058,0.07v-0.141c29.462-34.858,16.051-52.199,12.869-55.492L244.004,299.199z"/>
	<path style="fill:#E56353;" d="M221.826,299.499c-0.915-2.618-1.726-5.605-2.408-8.897c-5.001,0.443-9.845,1.389-14.53,2.696
		l0.089,6.429l6.171-0.083l5.408-0.073L221.826,299.499z"/>
</g>
<g>
	<path style="fill:#64798A;" d="M157.49,300.759c0.12,8.59,1.897,16.771,5.004,24.271c6.369-16.674,19.337-30.185,35.801-37.498
		c-5.648-12.391-10.048-26.454-12.777-41.734C168.289,258.159,157.177,278.211,157.49,300.759z"/>
	<path style="fill:#64798A;" d="M293.077,290.539c0.096,0.681,0.22,1.353,0.295,2.041
		C293.296,291.892,293.174,291.221,293.077,290.539z"/>
	<path style="fill:#64798A;" d="M291.833,284.078c0.189,0.766,0.378,1.531,0.539,2.307
		C292.21,285.608,292.021,284.844,291.833,284.078z"/>
	<path style="fill:#64798A;" d="M290.058,278.067c0.265,0.756,0.507,1.521,0.745,2.289
		C290.565,279.588,290.323,278.823,290.058,278.067z"/>
	<path style="fill:#64798A;" d="M287.781,272.38c0.311,0.677,0.582,1.375,0.87,2.065
		C288.362,273.755,288.092,273.057,287.781,272.38z"/>
	<path style="fill:#64798A;" d="M286.339,316.919c-0.232-0.424-0.461-0.848-0.702-1.267
		C285.878,316.071,286.108,316.496,286.339,316.919z"/>
	<path style="fill:#64798A;" d="M264.59,244.989c-0.118-0.082-0.232-0.17-0.351-0.251l-0.001,0.008
		C264.356,244.825,264.472,244.908,264.59,244.989z"/>
	<path style="fill:#64798A;" d="M271.203,298.211c-0.144-0.124-0.291-0.242-0.436-0.364
		C270.911,297.969,271.06,298.087,271.203,298.211z"/>
	<path style="fill:#64798A;" d="M276.543,303.335c0.163,0.175,0.316,0.358,0.477,0.535
		C276.858,303.692,276.706,303.51,276.543,303.335z"/>
	<path style="fill:#64798A;" d="M257.988,289.291c-0.058-0.03-0.115-0.059-0.173-0.088
		C257.873,289.232,257.93,289.261,257.988,289.291z"/>
	<path style="fill:#64798A;" d="M281.832,309.742c-0.136-0.188-0.285-0.364-0.424-0.551
		C281.547,309.377,281.696,309.554,281.832,309.742z"/>
	<path style="fill:#64798A;" d="M267.57,247.115c0.701,0.538,1.373,1.109,2.051,1.673
		C268.943,248.223,268.272,247.654,267.57,247.115z"/>
	<path style="fill:#64798A;" d="M272.193,251.022c0.654,0.601,1.294,1.217,1.924,1.843
		C273.487,252.239,272.848,251.624,272.193,251.022z"/>
	<path style="fill:#64798A;" d="M280.542,260.276c0.437,0.584,0.898,1.149,1.317,1.748
		C281.441,261.425,280.98,260.861,280.542,260.276z"/>
	<path style="fill:#64798A;" d="M276.495,255.365c0.574,0.633,1.151,1.262,1.7,1.916
		C277.646,256.627,277.07,255.999,276.495,255.365z"/>
	<path style="fill:#64798A;" d="M285.023,266.985c0.237,0.412,0.433,0.848,0.661,1.265
		C285.456,267.832,285.259,267.397,285.023,266.985z"/>
	<path style="fill:#64798A;" d="M257.988,289.291c4.596,2.373,8.875,5.255,12.779,8.556c0.145,0.122,0.292,0.24,0.436,0.364
		c1.873,1.611,3.656,3.322,5.34,5.124c0.163,0.175,0.315,0.358,0.477,0.535c1.552,1.698,3.017,3.473,4.388,5.321
		c0.138,0.187,0.287,0.364,0.424,0.551c1.376,1.894,2.633,3.875,3.806,5.91c0.241,0.419,0.47,0.843,0.702,1.267
		c1.137,2.078,2.203,4.201,3.115,6.405c2.899-7.58,4.45-15.804,4.332-24.396c-0.03-2.145-0.185-4.258-0.415-6.348
		c-0.076-0.688-0.199-1.36-0.295-2.041c-0.198-1.398-0.42-2.787-0.705-4.155c-0.162-0.776-0.351-1.541-0.539-2.307
		c-0.309-1.255-0.65-2.495-1.03-3.722c-0.238-0.768-0.48-1.533-0.745-2.289c-0.43-1.227-0.908-2.429-1.407-3.622
		c-0.289-0.69-0.559-1.388-0.87-2.065c-0.646-1.407-1.357-2.777-2.097-4.13c-0.228-0.417-0.425-0.853-0.661-1.265
		c-0.98-1.703-2.041-3.354-3.163-4.961c-0.418-0.598-0.88-1.164-1.317-1.748c-0.761-1.017-1.53-2.024-2.347-2.996
		c-0.55-0.653-1.127-1.283-1.7-1.916c-0.774-0.851-1.561-1.688-2.378-2.5c-0.629-0.626-1.269-1.242-1.924-1.843
		c-0.836-0.769-1.698-1.507-2.572-2.234c-0.678-0.564-1.351-1.134-2.051-1.673c-0.967-0.743-1.972-1.436-2.98-2.127
		c-0.118-0.081-0.234-0.163-0.352-0.244c-2.308,15.382-6.328,29.587-11.645,42.146c1.765,0.727,3.535,1.446,5.223,2.312
		C257.873,289.232,257.93,289.261,257.988,289.291z"/>
</g>
<g>
	<path style="fill:#EBF0F3;" d="M228.43,101.561c1.246,1.257,2.484,2.534,3.684,3.902
		C230.913,104.098,229.676,102.817,228.43,101.561z"/>
	<path style="fill:#EBF0F3;" d="M232.827,106.328c1.243,1.452,2.474,2.935,3.665,4.503
		C235.3,109.265,234.071,107.779,232.827,106.328z"/>
	<path style="fill:#EBF0F3;" d="M236.907,111.409c1.277,1.706,2.53,3.46,3.741,5.293
		C239.435,114.871,238.185,113.113,236.907,111.409z"/>
	<path style="fill:#EBF0F3;" d="M222.129,97.003V97c-12.412,11.146-22.696,27.884-29.711,48.21
		C199.432,124.888,209.718,108.148,222.129,97.003z"/>
	<path style="fill:#EBF0F3;" d="M254.553,144.407L254.553,144.407l0.004,0.008c-3.827-10.175-8.456-19.416-13.75-27.461
		C246.092,125.004,250.728,134.239,254.553,144.407L254.553,144.407z"/>
	<path style="fill:#EBF0F3;" d="M227.547,100.634c-1.548-1.513-3.127-2.943-4.739-4.279l-0.008,0.007l0.006-0.005
		C224.419,97.691,225.999,99.12,227.547,100.634z"/>
	<path style="fill:#EBF0F3;" d="M264.238,244.745l0.001-0.008c1.634-10.89,2.429-22.344,2.264-34.161
		c-0.301-21.653-3.792-41.996-9.687-59.822c-30.784-4.113-66.263,0.307-66.263,0.307l1.826-5.735
		c-6.695,19.447-10.415,42.137-10.077,66.378c0.165,11.821,1.279,23.251,3.216,34.095c2.729,15.28,7.129,29.343,12.777,41.734
		c1.042,2.286,2.092,4.564,3.219,6.729c1.106-0.36,2.246-0.65,3.374-0.964c4.685-1.306,9.529-2.252,14.53-2.696
		c-1.375-6.633-2.23-14.467-2.347-22.896c-0.233-16.646,2.462-31.096,6.599-38.462l0-0.034c0.068-0.109,0.13-0.241,0.194-0.354
		c4.448,7.132,7.636,21.738,7.871,38.655c0.117,8.393-0.512,16.23-1.691,22.889c4.734,0.201,9.372,0.77,13.861,1.754
		c1.925,0.421,3.826,0.908,5.697,1.463c1.052-2.166,2.023-4.444,2.989-6.725C257.91,274.332,261.93,260.127,264.238,244.745z
		 M224.077,206.241c-10.154-0.001-18.529-8.115-18.67-18.088c-0.068-4.891,1.813-9.519,5.295-13.033
		c3.483-3.514,8.144-5.485,13.125-5.55l0.26-0.002c10.151,0,18.524,8.111,18.664,18.083c0.142,10.11-8.12,18.449-18.415,18.588
		L224.077,206.241z"/>
</g>
<path style="fill:#FCD462;" d="M256.816,150.754c0.208,0.027-2.259-6.339-2.259-6.339l-0.004-0.008h0
	c-4.933-0.258-9.93-0.437-14.978-0.543c-2.962-0.061-5.977-0.038-8.975-0.044c-2.38-0.004-4.731-0.056-7.133-0.024
	c-10.585,0.142-20.949,0.647-31.059,1.442h0h-0.001l-0.028,0.087l-1.826,5.735C190.554,151.061,226.032,146.642,256.816,150.754z"/>
<path style="fill:#3A556A;" d="M221.826,299.499c0.883,2.529,1.859,4.723,2.913,6.482l0,0.03c0.07,0.114,0.135,0.24,0.202,0.351
	c1.087-1.854,2.073-4.206,2.942-6.945c0.843-2.658,1.572-5.687,2.161-9.017c1.179-6.659,1.808-14.496,1.691-22.889
	c-0.235-16.917-3.423-31.523-7.871-38.655c-0.064,0.113-0.127,0.245-0.194,0.354l0,0.034c-4.137,7.366-6.832,21.816-6.599,38.462
	c0.117,8.429,0.972,16.263,2.347,22.896C220.1,293.893,220.911,296.881,221.826,299.499z"/>
<path style="fill:#E56353;" d="M223.468,143.797c2.402-0.032,4.752,0.019,7.133,0.024c2.997,0.006,6.013-0.017,8.975,0.044
	c5.047,0.106,10.045,0.285,14.978,0.543h0c-3.825-10.169-8.461-19.403-13.746-27.453c-0.054-0.082-0.105-0.17-0.159-0.253
	c-1.211-1.833-2.464-3.587-3.741-5.293c-0.141-0.188-0.274-0.391-0.416-0.578c-1.19-1.568-2.421-3.051-3.665-4.503
	c-0.241-0.281-0.47-0.588-0.713-0.864c-1.2-1.368-2.438-2.645-3.684-3.902c-0.298-0.3-0.582-0.633-0.883-0.927
	c-1.548-1.514-3.127-2.943-4.739-4.279l-0.008,0.007c-0.226,0.198-0.447,0.413-0.672,0.615L222.129,97v0.002
	c-12.411,11.146-22.696,27.885-29.711,48.208c-0.004,0.009-0.008,0.018-0.011,0.029h0.001h0
	C202.519,144.444,212.883,143.939,223.468,143.797z"/>
<path style="fill:#FCD462;" d="M242.752,187.651c-0.14-9.972-8.513-18.083-18.664-18.083l-0.26,0.002
	c-4.981,0.065-9.643,2.037-13.125,5.55c-3.482,3.514-5.363,8.142-5.295,13.033c0.141,9.973,8.516,18.087,18.67,18.088l0.26-0.002
	C234.631,206.101,242.894,197.762,242.752,187.651z M224.275,201.785c-7.797,0.105-14.223-6.032-14.332-13.692
	c-0.107-7.654,6.149-13.967,13.945-14.069c7.792-0.106,14.221,6.037,14.328,13.689C238.324,195.372,232.068,201.682,224.275,201.785
	z"/>
<ellipse transform="matrix(-0.0139 -0.9999 0.9999 -0.0139 39.3126 414.5768)" style="fill:#3A556A;" cx="224.079" cy="187.904" rx="13.88" ry="14.136"/>
<g>
</g>
<g>
</g>
<g>
</g>
<g>
</g>
<g>
</g>
<g>
</g>
<g>
</g>
<g>
</g>
<g>
</g>
<g>
</g>
<g>
</g>
<g>
</g>
<g>
</g>
<g>
</g>
<g>
</g>
</svg>
