<?xml version="1.0" encoding="iso-8859-1"?>
<!-- Generator: Adobe Illustrator 19.0.0, SVG Export Plug-In . SVG Version: 6.00 Build 0)  -->
<svg version="1.1" id="Layer_1" xmlns="http://www.w3.org/2000/svg" xmlns:xlink="http://www.w3.org/1999/xlink" x="0px" y="0px"
	 viewBox="0 0 481.966 481.966" style="enable-background:new 0 0 481.966 481.966;" xml:space="preserve">
<polygon style="fill:#E1E6E9;" points="115.77,17.552 0.119,133.203 0.119,481.966 349.483,481.966 349.483,17.552 "/>
<polygon style="fill:#EBF0F3;" points="115.77,0.083 0.119,115.735 0.119,464.497 349.483,464.497 349.483,0.083 "/>
<g>
	<polygon style="fill:#D5D6DB;" points="115.77,115.735 115.77,0.083 0.119,115.735 	"/>
	<rect x="147.093" y="53.693" style="fill:#D5D6DB;" width="171.671" height="9.035"/>
	<rect x="147.093" y="98.869" style="fill:#D5D6DB;" width="171.671" height="9.035"/>
	<rect x="30.839" y="144.046" style="fill:#D5D6DB;" width="287.925" height="9.035"/>
	<rect x="30.839" y="189.825" style="fill:#D5D6DB;" width="287.925" height="9.035"/>
	<rect x="30.839" y="235.001" style="fill:#D5D6DB;" width="287.925" height="9.035"/>
	<rect x="30.839" y="280.78" style="fill:#D5D6DB;" width="287.925" height="9.035"/>
	<rect x="30.839" y="325.956" style="fill:#D5D6DB;" width="287.925" height="9.035"/>
	<rect x="30.839" y="371.133" style="fill:#D5D6DB;" width="287.925" height="9.035"/>
	<rect x="30.839" y="416.912" style="fill:#D5D6DB;" width="287.925" height="9.035"/>
</g>
<rect x="311.527" y="9.015" transform="matrix(-0.7838 -0.621 0.621 -0.7838 472.2859 488.4413)" style="fill:#E56353;" width="19.275" height="305.993"/>
<rect x="326.511" y="21.044" transform="matrix(-0.7838 -0.621 0.621 -0.7838 491.5432 519.2045)" style="fill:#D15241;" width="19.275" height="305.993"/>
<rect x="341.452" y="33.092" transform="matrix(-0.7838 -0.621 0.621 -0.7838 510.714 549.9739)" style="fill:#CE412D;" width="19.275" height="305.993"/>
<rect x="404.756" y="48.522" transform="matrix(-0.7838 -0.621 0.621 -0.7838 741.3913 361.773)" style="fill:#44C4A1;" width="57.825" height="6.626"/>
<path style="fill:#64798A;" d="M444.053,1.288l10.24,8.433L427.789,42.85L412.73,30.803L435.62,1.89
	C437.427-0.519,441.643-0.519,444.053,1.288z"/>
<rect x="427.064" y="22.554" transform="matrix(-0.621 0.7838 -0.7838 -0.621 752.1674 -299.3141)" style="fill:#3A556A;" width="42.767" height="19.275"/>
<path style="fill:#2F4859;" d="M469.352,21.166l10.24,8.433c2.409,1.807,3.012,6.024,1.205,8.433l-22.889,28.913l-15.059-12.047
	L469.352,21.166z"/>
<path style="fill:#FCD462;" d="M263.949,311.5l-33.732,14.456c-0.602-4.216-2.409-7.831-6.024-10.842
	c-3.614-3.012-7.831-3.614-11.445-3.012l6.626-36.141L263.949,311.5z"/>
<path style="fill:#64798A;" d="M224.194,315.716c3.614,3.012,5.421,6.626,6.024,10.842l-16.264,7.228
	c-2.409,1.205-4.819-1.205-4.216-3.012l3.012-17.468C216.363,311.5,220.58,312.705,224.194,315.716z"/>
<g>
</g>
<g>
</g>
<g>
</g>
<g>
</g>
<g>
</g>
<g>
</g>
<g>
</g>
<g>
</g>
<g>
</g>
<g>
</g>
<g>
</g>
<g>
</g>
<g>
</g>
<g>
</g>
<g>
</g>
</svg>
