<svg xmlns="http://www.w3.org/2000/svg" viewBox="0 0 100 125">
  <path d="M84.3 21.6c-.1 0-.1-.3-.2-.3-.3 0-.6-.3-1-.3H16.8c-.3 0-.6.3-1 .3-.1 0-.1.1-.2.1-3.1.6-5.6 3.5-5.6 6.9v43.4c0 3.4 2.5 6.2 5.7 6.7.1 0 .1.3.2.3.3 0 .6.3.9.3h66.4c.3 0 .6-.3.9-.3.1 0 .1-.1.2-.1 3.2-.5 5.7-3.4 5.7-6.8V28.3c0-3.4-2.5-6.2-5.7-6.7zM63.9 50L86 30.3v39.4L63.9 50zm19.3-25c.9 0 1.7.5 2.3 1.1L50 57.8 14.5 26.1V26c.6-.6 1.4-1.1 2.3-1.1h66.4v.1zM14 30.3L36.1 50 14 69.7V30.3zM16.8 75c-.9 0-1.7-.5-2.3-1.1l24-21.4 10.3 9.2c.3.3.8.5 1.2.5s.9-.2 1.2-.5l10.3-9.2 24 21.5c-.6.6-1.4 1.1-2.3 1.1L16.8 75z"/>
</svg>
