<?xml version="1.0" encoding="utf-8"?>
<!-- Generator: Adobe Illustrator 21.1.0, SVG Export Plug-In . SVG Version: 6.00 Build 0)  -->
<svg version="1.1" id="Ebene_1" xmlns="http://www.w3.org/2000/svg" xmlns:xlink="http://www.w3.org/1999/xlink" x="0px" y="0px"
	 viewBox="0 0 300 300" style="enable-background:new 0 0 300 300;" xml:space="preserve">
<style type="text/css">
	.st0{fill:#FFFFFF;}
</style>
<path class="st0" d="M87.5,182.5L60,194.3l25.5,10.9l29.5-10.9L87.5,182.5L87.5,182.5z M46.2,197.2l-0.9,53.1l40.2,17.7v-55.2
	L46.2,197.2L46.2,197.2z M128.8,197.2l-36.3,13.8v52l36.3-14.8V197.2L128.8,197.2z M172.2,31.9l-27.7,11.8l25.6,10.9l29.5-10.9
	L172.2,31.9L172.2,31.9z M133.8,47.6v53.1l34.3,10l1.1-48.3L133.8,47.6L133.8,47.6z M210.6,50.6l-32.5,13.8v52.2l32.5-14.8
	L210.6,50.6L210.6,50.6z M42.2,106.7l-27.5,11.8l25.5,10.9l29.5-10.9L42.2,106.7L42.2,106.7z M0.9,121.5L0,174.6l40.2,17.7v-55.2
	L0.9,121.5z M83.6,121.5l-36.3,13.8v52l36.3-14.8V121.5z M130.8,104.8l-27.5,11.8l25.5,10.9l29.5-10.9L130.8,104.8L130.8,104.8z
	 M89.5,119.5l-0.9,53.1l40.2,17.7v-55.2L89.5,119.5z M172.1,119.5l-36.3,13.8v52l36.3-14.8V119.5L172.1,119.5z M258.7,31.9
	l-27.5,11.8l25.5,10.9l29.5-10.9L258.7,31.9L258.7,31.9z M217.4,46.7l-0.9,53.1l40.2,17.7V62.4C256.6,62.4,217.4,46.7,217.4,46.7z
	 M300,46.7l-36.3,13.8v52L300,97.8C300,97.8,300,46.7,300,46.7z"/>
</svg>
