<?xml version="1.0"?>
<svg xmlns="http://www.w3.org/2000/svg" height="512px" viewBox="-19 -59 597.34031 597" width="512px"><path d="m180.089844 377.429688h199.957031v-79.984376h-199.957031zm139.96875-69.984376h39.992187v19.992188h-39.992187zm-39.988282 0h19.996094v19.992188h-19.996094zm-49.988281 0c16.566407 0 29.992188 13.421876 29.992188 29.992188 0 16.5625-13.425781 29.992188-29.992188 29.992188-16.566406 0-29.996093-13.429688-29.996093-29.992188 0-16.570312 13.429687-29.992188 29.996093-29.992188zm0 0" fill="#7a7a7a"/><path d="m240.078125 337.4375c0 5.519531-4.472656 9.996094-9.996094 9.996094-5.523437 0-10-4.476563-10-9.996094 0-5.523438 4.476563-10 10-10 5.523438 0 9.996094 4.476562 9.996094 10zm0 0" fill="#7a7a7a"/><path d="m380.046875 277.449219v-79.980469h-199.957031v79.980469zm-149.964844-9.996094c-16.566406 0-29.996093-13.429687-29.996093-29.992187 0-16.570313 13.429687-29.996094 29.996093-29.996094 16.566407 0 29.992188 13.425781 29.992188 29.996094 0 16.5625-13.425781 29.992187-29.992188 29.992187zm69.984375-39.992187h-19.996094v-19.996094h19.996094zm59.984375 0h-39.992187v-19.996094h39.992187zm0 0" fill="#7a7a7a"/><path d="m560.007812 237.460938c-.054687 66.234374-53.734374 119.914062-119.972656 119.972656h-39.992187v-59.988282c-.035157-3.523437-1-6.972656-2.796875-9.996093 1.796875-3.03125 2.761718-6.480469 2.796875-10v-79.980469c-.03125-11.035156-8.964844-19.96875-19.996094-19.996094h-199.957031c-11.027344.027344-19.960938 8.960938-19.992188 19.996094v79.980469c.039063 3.519531 1.003906 6.96875 2.800782 10-1.796876 3.023437-2.761719 6.472656-2.800782 9.996093v59.988282h-69.984375c-44.667969.058594-82.621093-32.660156-89.140625-76.847656-6.519531-44.191407 20.363282-86.472657 63.148438-99.316407 3.789062-1.074219 6.582031-4.296875 7.097656-8.195312 7.246094-54.625 53.773438-95.472657 108.871094-95.578125 1.601562 0 3.101562.097656 4.605468.199218l1.996094.097657c3.929688.238281 7.640625-1.832031 9.5-5.296875 27.679688-52.898438 85.894532-82.382813 144.917969-73.402344 59.027344 8.984375 105.832031 54.449219 116.523437 113.191406.738282 3.945313 3.773438 7.058594 7.699219 7.898438 55.128907 12.09375 94.476563 60.832031 94.675781 117.277344zm0 0" fill="#7a7a7a"/><path d="m240.078125 237.460938c0 5.519531-4.472656 9.996093-9.996094 9.996093-5.523437 0-10-4.476562-10-9.996093 0-5.523438 4.476563-10 10-10 5.523438 0 9.996094 4.476562 9.996094 10zm0 0" fill="#7a7a7a"/><path d="m180.089844 477.40625h199.957031v-79.984375h-199.957031zm139.96875-69.984375h39.992187v19.996094h-39.992187zm-39.988282 0h19.996094v19.996094h-19.996094zm-49.988281 0c16.566407 0 29.992188 13.425781 29.992188 29.992187 0 16.5625-13.425781 29.992188-29.992188 29.992188-16.566406 0-29.996093-13.429688-29.996093-29.992188 0-16.566406 13.429687-29.992187 29.996093-29.992187zm0 0" fill="#7a7a7a"/><path d="m240.078125 437.414062c0 5.523438-4.472656 10-9.996094 10-5.523437 0-10-4.476562-10-10 0-5.519531 4.476563-9.996093 10-9.996093 5.523438 0 9.996094 4.476562 9.996094 9.996093zm0 0" fill="#7a7a7a"/></svg>
