<?xml version="1.0" encoding="utf-8"?>
<!-- Generator: Adobe Illustrator 21.1.0, SVG Export Plug-In . SVG Version: 6.00 Build 0)  -->
<svg version="1.1" id="Layer_1" xmlns="http://www.w3.org/2000/svg" xmlns:xlink="http://www.w3.org/1999/xlink" x="0px" y="0px"
	 viewBox="0 0 300 300" style="enable-background:new 0 0 300 300;" xml:space="preserve">
<style type="text/css">
	.st0{fill:#FFFFFF;}
	.st1{clip-path:url(#SVGID_4_);}
</style>
<title>Group 3</title>
<path id="SVGID_1_" class="st0" d="M61.2,216c-8.5,0-16.3-7-16.3-15.5s7-15.5,16.3-15.5s16.3,7,16.3,15.5S69.8,216,61.2,216
	L61.2,216z M261.4,131.4c-1.6-12.4-9.3-22.5-19.4-30.3l-3.9-3.1l-3.1,3.9c-6.2,7-8.5,19.4-7.8,28.7c0.8,7,3.1,14,7,19.4
	c-3.1,1.6-7,3.1-10.1,4.7c-7,2.3-14,3.1-21,3.1H2.2l-0.8,4.7c-1.6,14.7,0.8,30.3,7,44.2l3.1,5.4v0.8c18.6,31,52,45,88.5,45
	c69.8,0,127.3-30.3,154.4-95.4c17.8,0.8,35.7-3.9,44.2-21l2.3-3.9l-3.9-2.3C287,129,273.1,128.3,261.4,131.4L261.4,131.4z
	 M161.3,119h-30.3v30.3h30.3V119z M161.3,80.9h-30.3v30.3h30.3V80.9z M161.3,42.1h-30.3v30.3h30.3C161.3,72.4,161.3,42.1,161.3,42.1
	z M198.6,119h-30.3v30.3h30.3V119z M86,119H55.8v30.3H86L86,119L86,119z M124.1,119H93.8v30.3h30.3V119z M48.8,119H18.5v30.3h30.3
	L48.8,119L48.8,119z M124.1,80.9H93.8v30.3h30.3V80.9z M86,80.9H55.8v30.3H86L86,80.9L86,80.9z"/>
<g>
	<defs>
		<path id="SVGID_2_" d="M61.2,216c-8.5,0-16.3-7-16.3-15.5s7-15.5,16.3-15.5s16.3,7,16.3,15.5S69.8,216,61.2,216L61.2,216z
			 M261.4,131.4c-1.6-12.4-9.3-22.5-19.4-30.3l-3.9-3.1l-3.1,3.9c-6.2,7-8.5,19.4-7.8,28.7c0.8,7,3.1,14,7,19.4
			c-3.1,1.6-7,3.1-10.1,4.7c-7,2.3-14,3.1-21,3.1H2.2l-0.8,4.7c-1.6,14.7,0.8,30.3,7,44.2l3.1,5.4v0.8c18.6,31,52,45,88.5,45
			c69.8,0,127.3-30.3,154.4-95.4c17.8,0.8,35.7-3.9,44.2-21l2.3-3.9l-3.9-2.3C287,129,273.1,128.3,261.4,131.4L261.4,131.4z
			 M161.3,119h-30.3v30.3h30.3V119z M161.3,80.9h-30.3v30.3h30.3V80.9z M161.3,42.1h-30.3v30.3h30.3
			C161.3,72.4,161.3,42.1,161.3,42.1z M198.6,119h-30.3v30.3h30.3V119z M86,119H55.8v30.3H86L86,119L86,119z M124.1,119H93.8v30.3
			h30.3V119z M48.8,119H18.5v30.3h30.3L48.8,119L48.8,119z M124.1,80.9H93.8v30.3h30.3V80.9z M86,80.9H55.8v30.3H86L86,80.9L86,80.9
			z"/>
	</defs>
	<use xlink:href="#SVGID_2_"  style="overflow:visible;fill:#FFFFFF;"/>
	<clipPath id="SVGID_4_">
		<use xlink:href="#SVGID_2_"  style="overflow:visible;"/>
	</clipPath>
	<g class="st1">
		<path id="SVGID_3_" class="st0" d="M-385-133.2h9892.4v1174.9H-385V-133.2z"/>
	</g>
</g>
</svg>
