<?xml version="1.0" encoding="utf-8"?>
<!-- Generator: Adobe Illustrator 21.1.0, SVG Export Plug-In . SVG Version: 6.00 Build 0)  -->
<svg version="1.1" id="Ebene_1" xmlns="http://www.w3.org/2000/svg" xmlns:xlink="http://www.w3.org/1999/xlink" x="0px" y="0px"
	 viewBox="0 0 300 300" style="enable-background:new 0 0 300 300;" xml:space="preserve">
<style type="text/css">
	.st0{fill:#FFFFFF;}
</style>
<path class="st0" d="M280.1,120h-94.3c-4.7,0-8.6-3.8-8.6-8.6V13.2c0-7.3-5.9-13.2-13.2-13.2h-33.7c-7.3,0-13.2,5.9-13.2,13.2v97.7
	c0,5.1-4.1,9.2-9.2,9.2l-30.9,0.1c-5.1,0-9.3-4.1-9.3-9.2l0.2-97.8C68.2,5.9,62.3,0,55,0H21.4C14.1,0,8.2,5.9,8.2,13.2v275.1
	c0,6.5,5.2,11.7,11.7,11.7h260.2c6.5,0,11.7-5.2,11.7-11.7V131.7C291.8,125.2,286.6,120,280.1,120z M235.9,223.3
	c0,8.5-6.9,15.3-15.3,15.3H194c-8.5,0-15.3-6.9-15.3-15.3v-26.6c0-8.5,6.9-15.3,15.3-15.3h26.6c8.5,0,15.3,6.9,15.3,15.3
	L235.9,223.3L235.9,223.3z"/>
</svg>
