<?xml version="1.0" encoding="iso-8859-1"?>
<!-- Generator: Adobe Illustrator 19.0.0, SVG Export Plug-In . SVG Version: 6.00 Build 0)  -->
<svg version="1.1" id="Capa_1" xmlns="http://www.w3.org/2000/svg" xmlns:xlink="http://www.w3.org/1999/xlink" x="0px" y="0px"
	 viewBox="0 0 491.52 491.52" style="enable-background:new 0 0 491.52 491.52;" xml:space="preserve">
<circle style="fill:transparent;" cx="245.76" cy="245.76" r="245.76"/>
<path style="opacity:0.1;enable-background:new    ;" d="M279.091,121.795c-6.656,0-12.954,1.638-18.534,4.505
	c-8.806-12.902-23.603-21.35-40.397-21.35c-27.034,0-48.947,21.914-48.947,48.947c0,2.509,0.256,4.915,0.614,7.27
	c-15.667,2.15-27.802,15.565-27.802,31.795c0,8.909,3.584,16.896,9.421,22.732l71.066,71.066l-35.686,35.686h-0.051
	c-3.942,0-7.68,0.921-10.957,2.611l-2.714-2.662l-1.075-1.075c-5.53-5.786-13.261-9.318-21.811-9.318
	c-16.794,0-30.413,13.619-30.413,30.362c0,1.535,0.154,3.072,0.41,4.506c-9.728,1.331-17.254,9.676-17.254,19.763
	c0,4.966,1.792,9.472,4.813,12.953l110.637,110.637c8.334,0.854,16.791,1.297,25.351,1.297
	c113.694,0,209.312-77.222,237.377-182.065L310.733,137.052C303.36,127.734,291.942,121.795,279.091,121.795z"/>
<polygon style="fill:#64798A;" points="250.878,270.591 250.878,179.166 240.638,179.166 240.638,270.591 156.398,354.831 
	163.638,362.071 245.758,279.951 327.883,362.071 335.123,354.831 "/>
<path style="fill:#FFFFFF;" d="M319.589,161.163c-0.618-21.846-18.48-39.375-40.475-39.375c-6.685,0-12.975,1.647-18.533,4.513
	c-8.817-12.88-23.62-21.34-40.408-21.34c-27.033,0-48.947,21.914-48.947,48.947c0,2.478,0.244,4.893,0.599,7.272
	c-15.68,2.125-27.776,15.529-27.776,31.792c0,17.739,14.38,32.119,32.119,32.119h139.184c17.739,0,32.119-14.38,32.119-32.119
	C347.471,176.671,335.32,163.241,319.589,161.163z"/>
<g>
	<path style="fill:#E1E6E9;" d="M163.214,175.974l9.98-1.35l-0.519-3.503c-4.187,0.662-7.952,2.495-10.994,5.133
		C162.188,176.15,162.695,176.045,163.214,175.974z"/>
	<path style="fill:#E1E6E9;" d="M210.232,119.846c12.871,0,24.908,6.362,32.201,17.012l4.959,7.248l7.805-4.027
		c0.694-0.358,1.41-0.639,2.119-0.942l-4.941-7.221c-7.293-10.651-19.33-17.012-32.201-17.012c-8.209,0-15.824,2.564-22.115,6.914
		C201.894,120.554,205.979,119.846,210.232,119.846z"/>
	<path style="fill:#E1E6E9;" d="M318.287,171.023l-8.401-1.111l-0.239-8.468c-0.47-16.663-13.885-29.712-30.534-29.712
		c-4.888,0-9.589,1.146-13.972,3.406l-7.311,3.772c3.618-1.462,7.413-2.237,11.34-2.237c16.649,0,30.064,13.049,30.534,29.712
		l0.24,8.468l8.401,1.111c10.968,1.447,19.239,10.884,19.239,21.948c0,6.696-2.996,12.695-7.703,16.763
		c10.062-2.096,17.646-11.029,17.646-21.704C337.526,181.907,329.255,172.47,318.287,171.023z"/>
</g>
<path style="fill:#FFFFFF;" d="M213.908,346.884c-0.384-13.558-11.47-24.438-25.121-24.438c-4.149,0-8.053,1.022-11.503,2.801
	c-5.472-7.994-14.66-13.244-25.079-13.244c-16.778,0-30.378,13.601-30.378,30.379c0,1.538,0.151,3.037,0.371,4.513
	c-9.732,1.318-17.239,9.638-17.239,19.731c0,11.01,8.925,19.935,19.934,19.935h86.384c11.01,0,19.935-8.925,19.935-19.935
	C231.213,356.509,223.672,348.174,213.908,346.884z"/>
<g>
	<path style="fill:#E1E6E9;" d="M116.854,356.077l6.195-0.838l-0.322-2.174c-2.598,0.411-4.936,1.548-6.823,3.186
		C116.217,356.185,116.533,356.12,116.854,356.077z"/>
	<path style="fill:#E1E6E9;" d="M146.036,321.241c7.988,0,15.459,3.948,19.985,10.558l3.078,4.498l4.844-2.5
		c0.431-0.222,0.875-0.397,1.316-0.584l-3.067-4.482c-4.527-6.61-11.997-10.558-19.985-10.558c-5.095,0-9.822,1.591-13.726,4.291
		C140.861,321.68,143.396,321.241,146.036,321.241z"/>
	<path style="fill:#E1E6E9;" d="M213.1,353.004l-5.214-0.689l-0.148-5.256c-0.291-10.341-8.617-18.441-18.951-18.441
		c-3.034,0-5.951,0.711-8.672,2.114l-4.537,2.341c2.245-0.908,4.601-1.389,7.038-1.389c10.333,0,18.659,8.099,18.951,18.441
		l0.149,5.256l5.214,0.689c6.807,0.899,11.941,6.755,11.941,13.623c0,4.156-1.86,7.879-4.781,10.403
		c6.245-1.301,10.952-6.845,10.952-13.47C225.041,359.759,219.908,353.902,213.1,353.004z"/>
</g>
<path style="fill:#FFFFFF;" d="M369.255,346.884c-0.384-13.558-11.47-24.438-25.121-24.438c-4.149,0-8.053,1.022-11.503,2.801
	c-5.472-7.994-14.66-13.244-25.079-13.244c-16.778,0-30.379,13.601-30.379,30.379c0,1.538,0.151,3.037,0.371,4.513
	c-9.732,1.318-17.239,9.638-17.239,19.731c0,11.01,8.925,19.935,19.934,19.935h86.384c11.01,0,19.935-8.925,19.935-19.935
	C386.56,356.509,379.018,348.174,369.255,346.884z"/>
<g>
	<path style="fill:#E1E6E9;" d="M272.201,356.077l6.195-0.838l-0.322-2.174c-2.598,0.411-4.936,1.548-6.823,3.186
		C271.564,356.185,271.879,356.12,272.201,356.077z"/>
	<path style="fill:#E1E6E9;" d="M301.383,321.241c7.988,0,15.459,3.948,19.985,10.558l3.078,4.498l4.844-2.5
		c0.431-0.222,0.875-0.397,1.315-0.584l-3.066-4.482c-4.527-6.61-11.997-10.558-19.985-10.558c-5.095,0-9.822,1.591-13.726,4.291
		C296.208,321.68,298.743,321.241,301.383,321.241z"/>
	<path style="fill:#E1E6E9;" d="M368.447,353.004l-5.214-0.689l-0.149-5.256c-0.291-10.341-8.617-18.441-18.951-18.441
		c-3.034,0-5.951,0.711-8.672,2.114l-4.538,2.341c2.246-0.908,4.601-1.389,7.038-1.389c10.333,0,18.659,8.099,18.951,18.441
		l0.149,5.256l5.214,0.689c6.807,0.899,11.941,6.755,11.941,13.623c0,4.156-1.86,7.879-4.781,10.403
		c6.245-1.301,10.952-6.845,10.952-13.47C380.388,359.759,375.254,353.902,368.447,353.004z"/>
</g>
<g>
</g>
<g>
</g>
<g>
</g>
<g>
</g>
<g>
</g>
<g>
</g>
<g>
</g>
<g>
</g>
<g>
</g>
<g>
</g>
<g>
</g>
<g>
</g>
<g>
</g>
<g>
</g>
<g>
</g>
</svg>
