<?xml version="1.0" encoding="iso-8859-1"?>
<!-- Generator: Adobe Illustrator 19.0.0, SVG Export Plug-In . SVG Version: 6.00 Build 0)  -->
<svg version="1.1" id="Capa_1" xmlns="http://www.w3.org/2000/svg" xmlns:xlink="http://www.w3.org/1999/xlink" x="0px" y="0px"
	 viewBox="0 0 491.52 491.52" style="enable-background:new 0 0 491.52 491.52;" xml:space="preserve">
<circle style="fill:#334D5C;" cx="245.76" cy="245.76" r="245.76"/>
<path style="opacity:0.1;enable-background:new    ;" d="M169.216,104.95v181.658H124.16c0,20.941,5.53,40.294,14.899,55.757
	l-27.648,23.398c-4.198,1.69-6.451,3.532-6.451,5.478c0,1.638,1.638,3.174,4.659,4.659l114.626,114.627
	c7.095,0.615,14.259,0.994,21.515,0.994c135.73,0,245.76-110.031,245.76-245.76c0-13.26-1.083-26.264-3.104-38.954L386.56,104.95
	H169.216z"/>
<rect x="169.216" y="104.96" style="fill:#D5D6DB;" width="217.344" height="281.6"/>
<rect x="169.216" y="104.96" style="fill:#EBF0F3;" width="217.344" height="271.36"/>
<rect x="182.4" y="116.803" style="fill:#E56353;" width="190.976" height="11.592"/>
<g>
	<rect x="182.4" y="226.099" style="fill:#D5D6DB;" width="190.976" height="5.12"/>
	<rect x="182.4" y="204.57" style="fill:#D5D6DB;" width="190.976" height="5.12"/>
	<rect x="182.4" y="183.035" style="fill:#D5D6DB;" width="190.976" height="5.12"/>
	<rect x="182.4" y="161.495" style="fill:#D5D6DB;" width="190.976" height="5.12"/>
	<rect x="182.4" y="139.965" style="fill:#D5D6DB;" width="190.976" height="5.12"/>
	<rect x="182.4" y="247.654" style="fill:#D5D6DB;" width="190.976" height="5.12"/>
	<rect x="182.4" y="269.158" style="fill:#D5D6DB;" width="190.976" height="5.12"/>
	<rect x="182.4" y="290.703" style="fill:#D5D6DB;" width="190.976" height="5.12"/>
	<rect x="182.4" y="312.238" style="fill:#D5D6DB;" width="190.976" height="5.12"/>
	<rect x="182.4" y="333.773" style="fill:#D5D6DB;" width="190.976" height="5.12"/>
	<rect x="182.4" y="355.328" style="fill:#D5D6DB;" width="190.976" height="5.12"/>
</g>
<ellipse style="fill:#DC8744;" cx="202.424" cy="371.251" rx="97.485" ry="15.293"/>
<path style="fill:#FCD462;" d="M270.855,293.945c-0.085,0-0.168,0.013-0.254,0.014c0.153-2.432,0.253-4.884,0.253-7.366H124.156
	c0,38.212,18.45,71.001,44.752,85.028h57.116c10.211-5.438,19.252-13.679,26.483-23.991c4.96,4.485,11.359,7.202,18.348,7.202
	c15.698,0,28.469-13.657,28.469-30.443C299.323,307.601,286.553,293.945,270.855,293.945z M270.855,344.479
	c-5.013,0-9.562-2.122-12.935-5.556c5.599-10.218,9.603-21.922,11.561-34.551c0.455-0.036,0.91-0.075,1.374-0.075
	c10.36,0,18.788,9.012,18.788,20.091C289.642,335.467,281.214,344.479,270.855,344.479z"/>
<g>
</g>
<g>
</g>
<g>
</g>
<g>
</g>
<g>
</g>
<g>
</g>
<g>
</g>
<g>
</g>
<g>
</g>
<g>
</g>
<g>
</g>
<g>
</g>
<g>
</g>
<g>
</g>
<g>
</g>
</svg>
