<?xml version="1.0" encoding="iso-8859-1"?>
<!-- Generator: Adobe Illustrator 19.0.0, SVG Export Plug-In . SVG Version: 6.00 Build 0)  -->
<svg version="1.1" id="Capa_1" xmlns="http://www.w3.org/2000/svg" xmlns:xlink="http://www.w3.org/1999/xlink" x="0px" y="0px"
	 viewBox="0 0 491.52 491.52" style="enable-background:new 0 0 491.52 491.52;" xml:space="preserve">
<circle style="fill:#E05B49;" cx="245.76" cy="245.76" r="245.76"/>
<path style="opacity:0.1;enable-background:new    ;" d="M490.927,262.002L363.52,134.595c-1.28-1.741-3.226-2.868-5.478-2.868
	H133.478c-3.789,0-6.861,3.226-6.861,7.167v181.811c0,1.741,0.614,3.329,1.638,4.557l162.138,162.138
	C399.614,467.351,483.536,375.149,490.927,262.002z"/>
<path style="fill:#64798A;" d="M364.898,138.898c0-3.952-3.069-7.156-6.856-7.156H133.478c-3.786,0-6.856,3.204-6.856,7.156V294.33
	h238.276V138.898z"/>
<rect x="140.216" y="145.93" style="fill:#EBF0F3;" width="211.098" height="134.195"/>
<rect x="140.216" y="273.715" style="fill:#E1E6E9;" width="211.098" height="6.41"/>
<path style="fill:#EBF0F3;" d="M126.622,294.33v26.372c0,3.952,3.07,7.156,6.856,7.156h224.563c3.787,0,6.856-3.204,6.856-7.156
	V294.33H126.622z"/>
<ellipse style="fill:#64798A;" cx="245.76" cy="311.096" rx="9.308" ry="9.713"/>
<rect x="211.763" y="327.834" style="fill:#E1E6E9;" width="67.968" height="20.393"/>
<polygon style="fill:#D5D6DB;" points="279.745,348.249 211.775,327.858 279.745,327.858 "/>
<polygon style="fill:#EBF0F3;" points="279.745,348.249 211.775,348.249 203.056,359.778 288.464,359.778 "/>
<path style="fill:#E56353;" d="M303.245,242.251c22.292,0,40.363-18.071,40.363-40.363h-40.363V242.251z"/>
<path style="fill:#44C4A1;" d="M327.987,161.525l-25.903,30.947h40.363C342.446,180.042,336.823,168.929,327.987,161.525z"/>
<path style="fill:#FCD462;" d="M292.667,150.947c-22.291,0-40.363,18.071-40.363,40.362c0,22.292,18.071,40.363,40.363,40.363
	V191.31l25.903-30.947C311.56,154.488,302.529,150.947,292.667,150.947z"/>
<rect x="252.314" y="256.666" style="fill:#D5D6DB;" width="90.143" height="7.68"/>
<rect x="147.543" y="159.027" style="fill:#27A2DB;" width="17.439" height="8.586"/>
<rect x="176.609" y="159.027" style="fill:#E56353;" width="17.439" height="8.586"/>
<rect x="208.435" y="159.027" style="fill:#44C4A1;" width="37.325" height="8.586"/>
<rect x="147.543" y="231.424" style="fill:#27A2DB;" width="17.439" height="8.586"/>
<rect x="176.609" y="231.424" style="fill:#E56353;" width="17.439" height="8.586"/>
<rect x="208.435" y="231.424" style="fill:#44C4A1;" width="37.325" height="8.586"/>
<rect x="147.543" y="207.288" style="fill:#FCD462;" width="29.066" height="8.586"/>
<rect x="185.498" y="207.288" style="fill:#27A2DB;" width="17.439" height="8.586"/>
<rect x="211.814" y="207.288" style="fill:#D5D6DB;" width="33.961" height="8.586"/>
<g>
	<rect x="147.543" y="183.168" style="fill:#64798A;" width="17.439" height="8.586"/>
	<rect x="176.609" y="183.168" style="fill:#64798A;" width="37.939" height="8.586"/>
</g>
<rect x="225.26" y="183.168" style="fill:#E56353;" width="20.48" height="8.586"/>
<rect x="147.543" y="255.529" style="fill:#44C4A1;" width="17.439" height="8.586"/>
<rect x="176.609" y="255.529" style="fill:#64798A;" width="37.939" height="8.586"/>
<rect x="225.26" y="255.529" style="fill:#E56353;" width="20.48" height="8.586"/>
<g>
</g>
<g>
</g>
<g>
</g>
<g>
</g>
<g>
</g>
<g>
</g>
<g>
</g>
<g>
</g>
<g>
</g>
<g>
</g>
<g>
</g>
<g>
</g>
<g>
</g>
<g>
</g>
<g>
</g>
</svg>
