<?xml version="1.0" encoding="iso-8859-1"?>
<!-- Generator: Adobe Illustrator 19.0.0, SVG Export Plug-In . SVG Version: 6.00 Build 0)  -->
<svg version="1.1" id="Capa_1" xmlns="http://www.w3.org/2000/svg" xmlns:xlink="http://www.w3.org/1999/xlink" x="0px" y="0px"
	 viewBox="0 0 491.52 491.52" style="enable-background:new 0 0 491.52 491.52;" xml:space="preserve">
<circle style="fill:#334D5C;" cx="245.76" cy="245.76" r="245.76"/>
<path style="opacity:0.1;enable-background:new    ;" d="M233.216,131.267c-32.256,32.256-34.816,82.893-7.731,118.118l-6.963,7.014
	l-6.605-6.605h-42.598v37.018l-17.766,17.818l-3.994-3.994H104.96v85.914l101.87,101.87c12.683,2.019,25.679,3.1,38.93,3.1
	c130.282,0,236.824-101.394,245.171-229.566L360.243,131.267C325.171,96.195,268.288,96.195,233.216,131.267z"/>
<rect x="104.96" y="300.616" style="fill:#E56353;" width="42.609" height="74.281"/>
<rect x="104.96" y="374.886" style="fill:#D15241;" width="42.609" height="11.663"/>
<rect x="169.318" y="374.886" style="fill:#F6C358;" width="42.609" height="11.663"/>
<rect x="169.318" y="249.805" style="fill:#FCD462;" width="42.609" height="125.092"/>
<rect x="233.682" y="193.807" style="fill:#27A2DB;" width="42.609" height="181.094"/>
<rect x="233.682" y="374.886" style="fill:#2D93BA;" width="42.609" height="11.663"/>
<rect x="298.035" y="129.889" style="fill:#44C4A1;" width="42.609" height="245.007"/>
<rect x="298.035" y="374.886" style="fill:#3EA69B;" width="42.609" height="11.663"/>
<g>
	<ellipse style="opacity:0.25;fill:#FFFFFF;enable-background:new    ;" cx="296.732" cy="194.795" rx="68.623" ry="68.623"/>
	<path style="fill:#FFFFFF;" d="M225.468,249.383l-14.314,14.314l16.669,16.669l14.314-14.314
		c35.227,27.045,85.857,24.526,118.11-7.726c35.084-35.085,35.084-91.969-0.001-127.053c-35.085-35.084-91.967-35.084-127.052,0.001
		C200.942,163.526,198.422,214.156,225.468,249.383z M248.195,146.275c26.8-26.799,70.25-26.799,97.049,0
		c26.8,26.8,26.8,70.25,0,97.049c-26.799,26.8-70.249,26.8-97.049,0C221.396,216.525,221.396,173.074,248.195,146.275z"/>
</g>
<path style="fill:#2F4859;" d="M209.68,259.296l22.544,22.544c1.123,1.123,1.123,2.942,0.001,4.065l-8.547,8.547l-26.609-26.609
	l8.547-8.547C206.737,258.173,208.557,258.174,209.68,259.296z"/>
<path style="fill:#DC8744;" d="M191.304,264.845c0.764-0.764,2.002-0.763,2.765,0l32.607,32.607c0.763,0.763,0.763,2.001,0,2.765
	l-57.177,57.177l-35.371-35.372L191.304,264.845z"/>
<path style="fill:#64798A;" d="M169.499,357.393l-7.29,7.29c-0.763,0.763-2.001,0.763-2.765,0.001l-32.607-32.607
	c-0.763-0.763-0.763-2.001,0.001-2.765l7.29-7.29L169.499,357.393z"/>
<g>
</g>
<g>
</g>
<g>
</g>
<g>
</g>
<g>
</g>
<g>
</g>
<g>
</g>
<g>
</g>
<g>
</g>
<g>
</g>
<g>
</g>
<g>
</g>
<g>
</g>
<g>
</g>
<g>
</g>
</svg>
