<?xml version="1.0" encoding="iso-8859-1"?>
<!-- Generator: Adobe Illustrator 19.0.0, SVG Export Plug-In . SVG Version: 6.00 Build 0)  -->
<svg version="1.1" id="Capa_1" xmlns="http://www.w3.org/2000/svg" xmlns:xlink="http://www.w3.org/1999/xlink" x="0px" y="0px"
	 viewBox="0 0 491.52 491.52" style="enable-background:new 0 0 491.52 491.52;" xml:space="preserve">
<circle style="fill:#334D5C;" cx="245.76" cy="245.76" r="245.76"/>
<path style="opacity:0.1;enable-background:new    ;" d="M338.432,134.882h-28.57l-11.315-11.315
	c-1.638-1.331-3.686-2.099-5.888-2.099h-23.603l-10.547-10.496l-1.075-1.126c-2.918-3.021-7.117-4.864-11.674-4.864
	c-9.114,0-16.538,7.373-16.538,16.486h-30.362c-4.301,0-8.038,2.97-9.011,7.168l-1.434,6.246h-35.328
	c-4.915,0-8.858,3.994-8.858,8.858v233.984c0,2.355,0.922,4.454,2.458,6.042l-0.051,0.051l107.492,107.492
	c119.736-4.015,217.751-93.621,234.749-209.616L344.781,137.595C343.194,135.906,340.941,134.882,338.432,134.882z"/>
<path style="fill:#DC8744;" d="M338.439,140.101H153.081c-4.889,0-8.852,3.963-8.852,8.852v228.754c0,4.89,3.963,8.853,8.852,8.853
	h185.357c4.889,0,8.852-3.963,8.852-8.853V148.953C347.291,144.064,343.327,140.101,338.439,140.101z"/>
<path style="fill:#F6C358;" d="M338.439,134.902H153.081c-4.889,0-8.852,3.964-8.852,8.853v228.754c0,4.89,3.963,8.853,8.852,8.853
	h185.357c4.889,0,8.852-3.963,8.852-8.853V143.755C347.291,138.866,343.327,134.902,338.439,134.902z"/>
<rect x="160.722" y="150.63" style="fill:#EBF0F3;" width="170.086" height="215.962"/>
<rect x="160.722" y="145.51" style="fill:#FFFFFF;" width="170.086" height="215.962"/>
<path style="fill:#DC8744;" d="M301.673,128.657c-0.972-4.201-4.714-7.176-9.026-7.176h-30.367c0-9.124-7.397-16.521-16.522-16.521
	c-9.124,0-16.521,7.397-16.521,16.521h-30.367c-4.311,0-8.053,2.975-9.025,7.176l-6.227,26.932h124.282L301.673,128.657z
	 M245.759,129.422c-4.385,0-7.94-3.555-7.94-7.941c0-4.386,3.555-7.941,7.94-7.941c4.386,0,7.941,3.555,7.941,7.941
	C253.701,125.867,250.146,129.422,245.759,129.422z"/>
<path style="fill:#64798A;" d="M215.61,213.257h-42v-42.002h42V213.257z M181.29,205.577h26.64v-26.642h-26.64V205.577z"/>
<g>
	<rect x="225.638" y="175.718" style="fill:#E1E6E9;" width="46.735" height="7.316"/>
	<rect x="225.638" y="201.472" style="fill:#E1E6E9;" width="93.466" height="7.316"/>
</g>
<path style="fill:#64798A;" d="M215.61,274.5h-42v-42.002h42V274.5z M181.29,266.82h26.64v-26.642h-26.64V266.82z"/>
<g>
	<rect x="225.638" y="236.954" style="fill:#E1E6E9;" width="46.735" height="7.316"/>
	<rect x="225.638" y="262.707" style="fill:#E1E6E9;" width="93.466" height="7.316"/>
</g>
<path style="fill:#64798A;" d="M215.61,335.742h-42V293.74h42V335.742z M181.29,328.062h26.64v-26.642h-26.64V328.062z"/>
<g>
	<rect x="225.638" y="298.189" style="fill:#E1E6E9;" width="46.735" height="7.316"/>
	<rect x="225.638" y="323.994" style="fill:#E1E6E9;" width="93.466" height="7.316"/>
</g>
<g>
	<polygon style="fill:#E56353;" points="192.115,203.288 181.67,190.992 185.57,187.677 192.885,196.287 217.995,177.325 
		221.085,181.41 	"/>
	<polygon style="fill:#E56353;" points="192.115,262.117 181.67,249.825 185.57,246.51 192.885,255.117 217.995,236.157 
		221.085,240.242 	"/>
</g>
<g>
</g>
<g>
</g>
<g>
</g>
<g>
</g>
<g>
</g>
<g>
</g>
<g>
</g>
<g>
</g>
<g>
</g>
<g>
</g>
<g>
</g>
<g>
</g>
<g>
</g>
<g>
</g>
<g>
</g>
</svg>
