<?xml version="1.0" encoding="iso-8859-1"?>
<!-- Generator: Adobe Illustrator 19.0.0, SVG Export Plug-In . SVG Version: 6.00 Build 0)  -->
<svg version="1.1" id="Capa_1" xmlns="http://www.w3.org/2000/svg" xmlns:xlink="http://www.w3.org/1999/xlink" x="0px" y="0px"
	 viewBox="0 0 491.52 491.52" style="enable-background:new 0 0 491.52 491.52;" xml:space="preserve">
<circle style="fill:#E05B49;" cx="245.76" cy="245.76" r="245.76"/>
<path style="opacity:0.1;enable-background:new    ;" d="M248.934,117.084L236.8,104.95h-45.107v87.04l-13.619,25.088
	L104.96,341.545v45.005l101.87,101.87c12.683,2.019,25.679,3.1,38.93,3.1c105.716,0,195.823-66.759,230.513-160.41L262.246,117.084
	H248.934z"/>
<polygon style="fill:#F6C358;" points="262.23,154.327 221.364,154.327 221.364,117.104 262.23,117.104 252.014,135.715 "/>
<rect x="195.942" y="104.96" style="fill:#FCD462;" width="40.863" height="32.102"/>
<polygon style="fill:#DC8744;" points="236.785,137.062 221.364,154.327 221.364,137.062 "/>
<rect x="191.677" y="104.96" style="fill:#64798A;" width="4.239" height="90.752"/>
<path style="fill:#EBF0F3;" d="M199.157,227.953c1.696,2.585,2.751,5.614,4.864,7.872c2.769,2.96,6.927,4.159,10.139,6.632
	c2.413,1.858,4.215,4.373,6.054,6.798c2.74,3.614,5.694,7.058,8.741,10.418l-34.668-72.494l-16.217,29.882
	c2.374,0.301,4.731,0.7,7.033,1.365C190.658,220.028,195.985,223.12,199.157,227.953z"/>
<path style="fill:#64798A;" d="M228.955,259.673c-3.047-3.36-6.001-6.803-8.741-10.418c-1.839-2.425-3.641-4.941-6.054-6.798
	c-3.211-2.472-7.37-3.672-10.139-6.632c-2.113-2.258-3.168-5.286-4.864-7.872c-3.172-4.833-8.5-7.925-14.053-9.528
	c-2.301-0.664-4.659-1.064-7.033-1.365L104.96,341.538v45.022h189.57L228.955,259.673z"/>
<path style="fill:#EBF0F3;" d="M317.959,230.195c4.046,1.854,7.349,5.338,11.69,6.324c3.911,0.889,7.937-0.412,11.856-1.26
	c3.92-0.847,8.419-1.117,11.539,1.403c1.741,1.406,2.781,3.48,4.184,5.223c2.483,3.089,5.905,4.969,9.688,6.194l-61.179-57.488
	l-24.198,37.918c0.116,0.049,0.224,0.12,0.34,0.166C293.22,233.163,306.87,225.114,317.959,230.195z"/>
<path style="fill:#3A556A;" d="M386.56,266.539l-19.645-18.459c-3.783-1.225-7.205-3.105-9.688-6.194
	c-1.402-1.743-2.443-3.817-4.184-5.223c-3.12-2.52-7.619-2.25-11.539-1.403c-3.92,0.848-7.945,2.148-11.856,1.26
	c-4.341-0.986-7.644-4.47-11.69-6.324c-11.089-5.081-24.739,2.968-36.08-1.519c-0.116-0.046-0.224-0.117-0.34-0.166l-31.196,50.247
	L306.06,386.56h80.5V266.539z"/>
<polygon style="fill:#2F4859;" points="244.052,288.887 294.53,386.56 306.06,386.56 250.342,278.757 "/>
<g>
</g>
<g>
</g>
<g>
</g>
<g>
</g>
<g>
</g>
<g>
</g>
<g>
</g>
<g>
</g>
<g>
</g>
<g>
</g>
<g>
</g>
<g>
</g>
<g>
</g>
<g>
</g>
<g>
</g>
</svg>
