<?xml version="1.0" encoding="iso-8859-1"?>
<!-- Generator: Adobe Illustrator 19.0.0, SVG Export Plug-In . SVG Version: 6.00 Build 0)  -->
<svg version="1.1" id="Capa_1" xmlns="http://www.w3.org/2000/svg" xmlns:xlink="http://www.w3.org/1999/xlink" x="0px" y="0px"
	 viewBox="0 0 491.52 491.52" style="enable-background:new 0 0 491.52 491.52;" xml:space="preserve">
<circle style="fill:#ddd;" cx="245.76" cy="245.76" r="245.76"/>
<path style="opacity:0.1;enable-background:new    ;" d="M384.717,106.455c-0.973-0.922-2.355-1.485-3.84-1.485H254.669
	c-0.614,0-1.178,0.102-1.69,0.307c-2.406-0.205-4.813-0.307-7.219-0.307c-53.299,0-96.512,43.212-96.512,96.512
	c0,7.117,1.741,15.667,4.762,25.139h-43.366c-3.123,0-5.683,2.56-5.683,5.683v68.813c0,1.587,0.666,3.021,1.741,3.994l-0.051,0.051
	l182.496,182.462C404.171,467.123,491.52,366.676,491.52,245.759c0-11.886-0.891-23.559-2.523-34.994L384.87,106.609
	L384.717,106.455z"/>
<path style="fill:#E56353;" d="M149.228,201.493c0,53.313,96.532,185.067,96.532,185.067v-281.6
	C192.446,104.96,149.228,148.179,149.228,201.493z"/>
<path style="fill:#D15241;" d="M245.76,104.96v281.6c0,0,96.532-131.754,96.532-185.067
	C342.292,148.179,299.074,104.96,245.76,104.96z"/>
<circle style="fill:#FFFFFF;" cx="245.76" cy="201.472" r="59.244"/>
<path style="fill:#FCD462;" d="M380.892,104.96H254.664c-3.13,0-5.667,2.537-5.667,5.668v68.829c0,3.13,2.537,5.668,5.667,5.668
	h10.96v24.724c0,2.776,3.357,4.166,5.32,2.203l26.928-26.928h83.02c3.131,0,5.669-2.538,5.669-5.669v-68.827
	C386.56,107.497,384.022,104.96,380.892,104.96z"/>
<g>
	<rect x="260.403" y="117.407" style="fill:#DC8744;" width="114.744" height="7.311"/>
	<rect x="260.403" y="140.754" style="fill:#DC8744;" width="114.744" height="7.311"/>
	<rect x="260.403" y="164.096" style="fill:#DC8744;" width="114.744" height="7.311"/>
</g>
<path style="fill:#27A2DB;" d="M110.628,306.793h126.228c3.13,0,5.667-2.537,5.667-5.667v-68.829c0-3.13-2.537-5.668-5.667-5.668
	h-10.96v-24.724c0-2.776-3.357-4.167-5.32-2.204l-26.928,26.928h-83.02c-3.131,0-5.669,2.538-5.669,5.669v68.827
	C104.96,304.255,107.497,306.793,110.628,306.793z"/>
<g>
	<rect x="116.367" y="287.027" style="fill:#1C75A1;" width="114.744" height="7.311"/>
	<rect x="116.367" y="263.68" style="fill:#1C75A1;" width="114.744" height="7.311"/>
	<rect x="116.367" y="240.333" style="fill:#1C75A1;" width="114.744" height="7.311"/>
</g>
<g>
</g>
<g>
</g>
<g>
</g>
<g>
</g>
<g>
</g>
<g>
</g>
<g>
</g>
<g>
</g>
<g>
</g>
<g>
</g>
<g>
</g>
<g>
</g>
<g>
</g>
<g>
</g>
<g>
</g>
</svg>
