<?xml version="1.0" encoding="iso-8859-1"?>
<!-- Generator: Adobe Illustrator 19.0.0, SVG Export Plug-In . SVG Version: 6.00 Build 0)  -->
<svg version="1.1" id="Layer_1" xmlns="http://www.w3.org/2000/svg" xmlns:xlink="http://www.w3.org/1999/xlink" x="0px" y="0px"
	 viewBox="0 0 491.53 491.53" style="enable-background:new 0 0 491.53 491.53;" xml:space="preserve">
<polygon style="fill:#EBF0F3;" points="151.73,278.183 155.566,265.653 177.933,202.044 179.227,186.268 170.129,172.963 
	122.706,172.963 110.836,190.464 127.312,278.183 "/>
<rect x="122.639" y="155.412" style="fill:#F6C358;" width="47.555" height="41.216"/>
<polygon style="fill:#E56353;" points="138.009,196.606 131.828,205.989 138.009,215.372 154.824,215.372 161.006,205.989 
	154.824,196.606 "/>
<g>
	<polygon style="fill:#E1E6E9;" points="113.606,186.268 122.706,172.964 141.336,196.546 126.311,222.873 	"/>
	<polygon style="fill:#E1E6E9;" points="181.756,185.286 170.127,172.964 151.497,196.546 164.711,219.698 	"/>
</g>
<polygon style="fill:#D15241;" points="162.829,278.183 154.825,215.372 138.01,215.372 130.002,278.183 "/>
<path style="fill:#3A556A;" d="M245.103,233.215c0,0-3.476-22.794-26.654-28.589l-8.917-2.062
	c-7.296-1.689-14.06-5.17-19.677-10.129l-8.098-7.149l-0.27,0.855l-31.141,92.042h103.425L245.103,233.215z"/>
<path style="fill:#2F4859;" d="M155.98,278.183c10.903-19.779,25.425-42.647,39.071-52.919c0,0-4.602-5.282-12.336-8.814
	c0,0,11.628-2.902,15.697-6.387c0,0-7.619-17.104-16.655-24.776c0,0-27.583,50.12-38.662,92.896H155.98z"/>
<path style="fill:#3A556A;" d="M114.538,186.141l-0.27-0.855l-8.098,7.149c-5.617,4.959-12.381,8.44-19.681,10.129l-8.913,2.062
	c-23.178,5.795-26.654,28.589-26.654,28.589l-8.668,44.967h103.425L114.538,186.141z"/>
<path style="fill:#2F4859;" d="M140.043,278.183c-10.903-19.779-25.425-42.647-39.071-52.919c0,0,4.602-5.282,12.336-8.814
	c0,0-11.628-2.902-15.697-6.387c0,0,7.619-17.104,16.655-24.776c0,0,27.583,50.12,38.662,92.896H140.043z"/>
<g>
	
		<ellipse transform="matrix(-0.9555 -0.2951 0.2951 -0.9555 323.9706 298.8171)" style="fill:#FCD462;" cx="184.532" cy="124.964" rx="8.607" ry="13.829"/>
	
		<ellipse transform="matrix(-0.2951 -0.9555 0.9555 -0.2951 20.8432 265.3235)" style="fill:#FCD462;" cx="108.295" cy="124.973" rx="13.829" ry="8.607"/>
	<path style="fill:#FCD462;" d="M186.218,100.026V72.85h-77.148v27.565h0.27c-0.659,3.251-1.043,6.793-1.043,10.72
		c0,27.972,17.697,63.01,39.526,63.01s39.526-35.038,39.526-63.01C187.351,107.048,186.932,103.381,186.218,100.026z"/>
</g>
<path style="fill:#64798A;" d="M190.246,78.403c0,0-7.611-22.262-43.829-19.894c-36.218-2.368-43.829,19.894-43.829,19.894
	c-1.895,10.894,5.92,40.971,5.92,40.971h1.564V90.397c0-3.449,0.922-6.905,2.99-9.665c5.238-6.991,11.291-2.329,11.291-2.329
	c10.163,10.42,22.063,9.236,22.063,9.236s11.901,1.184,22.063-9.236c0,0,6.053-4.663,11.291,2.329
	c2.068,2.761,2.99,6.216,2.99,9.665v28.978h1.564C184.326,119.375,192.141,89.298,190.246,78.403z"/>
<rect x="20.792" y="273.971" style="fill:#FCD462;" width="449.894" height="217.559"/>
<g>
	<rect x="64.384" y="319.329" style="fill:#F6C358;" width="362.783" height="154.317"/>
	<rect x="0.005" y="273.971" style="fill:#F6C358;" width="491.52" height="20.797"/>
</g>
<g>
	<path style="fill:#DC8744;" d="M201.772,459.389H76.754V334.371h125.018V459.389z M85.69,450.453h107.145V343.308H85.69V450.453z"
		/>
	<circle style="fill:#DC8744;" cx="98.104" cy="359.987" r="4.347"/>
	<circle style="fill:#DC8744;" cx="125.553" cy="359.987" r="4.347"/>
	<circle style="fill:#DC8744;" cx="152.975" cy="359.987" r="4.347"/>
	<circle style="fill:#DC8744;" cx="180.383" cy="359.987" r="4.347"/>
	<circle style="fill:#DC8744;" cx="111.841" cy="384.563" r="4.347"/>
	<circle style="fill:#DC8744;" cx="139.269" cy="384.563" r="4.347"/>
	<circle style="fill:#DC8744;" cx="166.687" cy="384.563" r="4.347"/>
	<circle style="fill:#DC8744;" cx="98.104" cy="409.175" r="4.347"/>
	<circle style="fill:#DC8744;" cx="125.553" cy="409.175" r="4.347"/>
	<circle style="fill:#DC8744;" cx="152.975" cy="409.175" r="4.347"/>
	<circle style="fill:#DC8744;" cx="180.383" cy="409.175" r="4.347"/>
	<circle style="fill:#DC8744;" cx="111.841" cy="433.766" r="4.347"/>
	<circle style="fill:#DC8744;" cx="139.269" cy="433.766" r="4.347"/>
	<circle style="fill:#DC8744;" cx="166.687" cy="433.766" r="4.347"/>
	<path style="fill:#DC8744;" d="M414.777,459.389H289.758V334.371h125.018V459.389z M298.695,450.453H405.84V343.308H298.695
		V450.453z"/>
	<circle style="fill:#DC8744;" cx="311.132" cy="359.987" r="4.347"/>
	<circle style="fill:#DC8744;" cx="338.54" cy="359.987" r="4.347"/>
	<circle style="fill:#DC8744;" cx="365.983" cy="359.987" r="4.347"/>
	<circle style="fill:#DC8744;" cx="393.426" cy="359.987" r="4.347"/>
	<circle style="fill:#DC8744;" cx="324.869" cy="384.563" r="4.347"/>
	<circle style="fill:#DC8744;" cx="352.266" cy="384.563" r="4.347"/>
	<circle style="fill:#DC8744;" cx="379.704" cy="384.563" r="4.347"/>
	<circle style="fill:#DC8744;" cx="311.132" cy="409.175" r="4.347"/>
	<circle style="fill:#DC8744;" cx="338.54" cy="409.175" r="4.347"/>
	<circle style="fill:#DC8744;" cx="365.983" cy="409.175" r="4.347"/>
	<circle style="fill:#DC8744;" cx="393.426" cy="409.175" r="4.347"/>
	<circle style="fill:#DC8744;" cx="324.869" cy="433.766" r="4.347"/>
	<circle style="fill:#DC8744;" cx="352.266" cy="433.766" r="4.347"/>
	<circle style="fill:#DC8744;" cx="379.704" cy="433.766" r="4.347"/>
</g>
<circle style="fill:#3A556A;" cx="342.902" cy="71.731" r="71.731"/>
<path style="fill:#FFFFFF;" d="M342.904,132.999c-33.792,0-61.284-27.492-61.284-61.284s27.492-61.284,61.284-61.284
	s61.284,27.492,61.284,61.284S376.696,132.999,342.904,132.999z"/>
<g>
	<rect x="341.151" y="14.71" style="fill:#E1E6E9;" width="3.456" height="8.735"/>
	<rect x="341.151" y="119.982" style="fill:#E1E6E9;" width="3.456" height="8.735"/>
	<rect x="391.194" y="69.965" style="fill:#E1E6E9;" width="8.735" height="3.456"/>
	<rect x="285.926" y="69.965" style="fill:#E1E6E9;" width="8.735" height="3.456"/>
	
		<rect x="369.159" y="22.76" transform="matrix(-0.8471 -0.5315 0.5315 -0.8471 670.6397 247.2209)" style="fill:#E1E6E9;" width="3.456" height="8.735"/>
	
		<rect x="313.196" y="111.933" transform="matrix(-0.8471 -0.5315 0.5315 -0.8471 519.8797 382.1882)" style="fill:#E1E6E9;" width="3.456" height="8.735"/>
	
		<rect x="385.754" y="95.308" transform="matrix(0.5315 -0.8471 0.8471 0.5315 97.1146 374.9285)" style="fill:#E1E6E9;" width="3.456" height="8.735"/>
	
		<rect x="296.573" y="39.371" transform="matrix(0.5315 -0.8471 0.8471 0.5315 102.7135 273.1775)" style="fill:#E1E6E9;" width="3.456" height="8.735"/>
	
		<rect x="388.112" y="43.538" transform="matrix(-0.4525 -0.8917 0.8917 -0.4525 523.539 417.221)" style="fill:#E1E6E9;" width="3.456" height="8.735"/>
	
		<rect x="294.228" y="91.181" transform="matrix(-0.4525 -0.8917 0.8917 -0.4525 344.6833 402.7042)" style="fill:#E1E6E9;" width="3.456" height="8.735"/>
	
		<rect x="364.977" y="114.298" transform="matrix(0.8917 -0.4525 0.4525 0.8917 -14.0024 178.7958)" style="fill:#E1E6E9;" width="3.456" height="8.735"/>
	
		<rect x="317.349" y="20.406" transform="matrix(0.8917 -0.4525 0.4525 0.8917 23.3313 147.0777)" style="fill:#E1E6E9;" width="3.456" height="8.735"/>
</g>
<g>
	<path style="fill:#3A556A;" d="M342.904,34.453c-1.345,0-2.436,1.091-2.436,2.436v32.39c0,1.345,1.091,2.436,2.436,2.436
		c1.345,0,2.437-1.091,2.437-2.436v-32.39C345.341,35.544,344.249,34.453,342.904,34.453z"/>
	<path style="fill:#3A556A;" d="M368.809,71.715c0-1.345-1.091-2.436-2.436-2.436h-21.056c-1.345,0-2.436,1.091-2.436,2.436
		c0,1.345,1.091,2.437,2.436,2.437h21.056C367.718,74.151,368.809,73.06,368.809,71.715z"/>
</g>
<polygon style="fill:#E56353;" points="325.637,92.331 336.773,81.194 335.954,80.374 380.943,35.384 379.304,33.744 
	334.314,78.734 333.494,77.914 322.357,89.051 "/>
<circle style="fill:#FCD462;" cx="342.902" cy="71.731" r="4.716"/>
<rect x="290.345" y="266.342" style="fill:#64798A;" width="90.235" height="3.86"/>
<g>
	<polygon style="fill:#D5D6DB;" points="278.291,268.676 278.291,272.072 284.979,273.986 385.949,273.986 392.637,272.072 
		392.637,268.676 	"/>
	<path style="fill:#D5D6DB;" d="M278.124,265.545l-5.253-65.277c-0.1-1.243,1.036-2.349,2.408-2.349h120.37
		c1.372,0,2.508,1.107,2.408,2.349l-5.253,65.277c-0.095,1.185-1.072,2.068-2.29,2.068H280.415
		C279.197,267.612,278.22,266.729,278.124,265.545z"/>
</g>
<g>
	<polygon style="fill:#64798A;" points="385.949,273.986 284.979,273.986 278.29,272.072 392.638,272.072 	"/>
	<circle style="fill:#64798A;" cx="335.467" cy="232.755" r="8.141"/>
</g>
<g>
</g>
<g>
</g>
<g>
</g>
<g>
</g>
<g>
</g>
<g>
</g>
<g>
</g>
<g>
</g>
<g>
</g>
<g>
</g>
<g>
</g>
<g>
</g>
<g>
</g>
<g>
</g>
<g>
</g>
</svg>
