<?xml version="1.0" encoding="iso-8859-1"?>
<!-- Generator: Adobe Illustrator 19.0.0, SVG Export Plug-In . SVG Version: 6.00 Build 0)  -->
<svg version="1.1" id="Layer_1" xmlns="http://www.w3.org/2000/svg" xmlns:xlink="http://www.w3.org/1999/xlink" x="0px" y="0px"
	 viewBox="0 0 481.882 481.882" style="enable-background:new 0 0 481.882 481.882;" xml:space="preserve">
<g>
	<defs>
		<filter id="Adobe_OpacityMaskFilter" filterUnits="userSpaceOnUse" x="254.795" y="240.941" width="177.694" height="136.132">
			<feColorMatrix  type="matrix" values="1 0 0 0 0  0 1 0 0 0  0 0 1 0 0  0 0 0 1 0"/>
		</filter>
	</defs>
	<mask maskUnits="userSpaceOnUse" x="254.795" y="240.941" width="177.694" height="136.132" id="SVGID_4_">
	</mask>
	
		<linearGradient id="SVGID_2_" gradientUnits="userSpaceOnUse" x1="-1.7613" y1="560.4022" x2="14.2687" y2="576.4322" gradientTransform="matrix(6.0235 0 0 -6.0235 321.8014 3688.5986)">
		<stop  offset="0" style="stop-color:#FFFFFF"/>
		<stop  offset="1" style="stop-color:#000000"/>
	</linearGradient>
	<path style="mask:url(#SVGID_4_);fill:url(#SVGID_2_);" d="M432.489,240.941H254.795l3.012,18.673l117.459,117.459
		C375.266,377.073,432.489,329.487,432.489,240.941z"/>
</g>
<circle style="fill:#2F4859;" cx="240.941" cy="240.941" r="240.941"/>
<circle style="fill:#EBF0F3;" cx="240.941" cy="240.941" r="200.584"/>
<circle style="fill:#31978C;" cx="240.941" cy="240.941" r="191.548"/>
<path style="fill:#3EA69B;" d="M66.259,263.831c0-106.014,85.534-191.548,191.548-191.548c57.826,0,109.026,25.299,144.565,65.656
	c-34.334-53.007-93.365-88.546-161.431-88.546c-106.014,0-191.548,85.534-191.548,191.548c0,48.188,18.071,92.16,46.984,125.892
	C77.704,336.715,66.259,301.779,66.259,263.831z"/>
<path style="fill:#44C4A1;" d="M432.489,245.158v-9.035h-46.984c-1.205-36.744-15.661-69.873-39.153-94.569l33.732-33.732
	l-6.024-6.024l-33.732,33.732c-24.696-23.492-57.826-37.948-94.569-39.153V49.393h-9.035v46.984
	c-36.744,1.205-69.873,15.661-94.569,39.153l-33.732-33.732l-6.024,6.024l33.732,33.732c-23.492,24.696-37.948,57.826-39.153,94.569
	H49.995v9.035h46.984c1.205,36.744,15.661,69.873,39.153,94.569L102.4,373.459l6.024,6.024l33.732-33.732
	c24.696,23.492,57.826,37.948,94.569,39.153v46.984h9.035v-46.984c36.744-1.205,69.873-15.661,94.569-39.153l33.732,33.732
	l6.024-6.024l-33.732-33.732c23.492-24.696,37.948-57.826,39.153-94.569H432.489z M376.471,236.725h-45.176
	c-1.205-21.685-9.638-40.96-23.492-56.019l31.925-31.925C361.412,171.671,375.266,202.391,376.471,236.725z M255.398,219.859
	c-3.012-2.409-6.626-3.614-10.24-4.216v-56.019c19.275,1.205,36.744,8.433,49.995,20.48L255.398,219.859z M236.725,215.642
	c-3.614,0.602-7.228,1.807-10.24,4.216l-39.755-39.755c13.252-12.047,30.72-19.878,49.995-20.48V215.642z M219.859,226.485
	c-2.409,3.012-3.614,6.626-4.216,10.24h-56.019c1.205-19.275,8.433-36.744,20.48-49.995L219.859,226.485z M215.642,245.158
	c0.602,3.614,1.807,7.228,4.216,10.24l-39.755,39.755c-12.047-13.252-19.878-30.72-20.48-49.995H215.642z M226.485,262.024
	c3.012,2.409,6.626,3.614,10.24,4.216v56.019c-19.275-1.205-36.744-8.433-49.995-20.48L226.485,262.024z M245.158,266.24
	c3.614-0.602,7.228-1.807,10.24-4.216l39.755,39.755c-13.252,12.047-30.72,19.878-49.995,20.48V266.24z M262.024,255.398
	c1.807-3.012,3.614-6.626,4.216-10.24h56.019c-1.205,19.275-8.433,36.744-20.48,49.995L262.024,255.398z M266.24,236.725
	c-0.602-3.614-1.807-7.228-4.216-10.24l39.755-39.755c12.047,13.252,19.878,30.72,20.48,49.995H266.24z M333.704,142.155
	l-31.925,31.925c-15.059-13.854-34.936-22.287-56.019-23.492v-45.176C279.492,106.616,310.212,120.471,333.704,142.155z
	 M236.725,105.412v45.176c-21.685,1.205-40.96,9.638-56.019,23.492l-31.925-31.925C171.671,120.471,202.391,106.616,236.725,105.412
	z M142.155,148.179l31.925,31.925c-13.854,15.059-22.287,34.936-23.492,56.019h-45.176
	C106.616,202.391,120.471,171.671,142.155,148.179z M105.412,245.158h45.176c1.205,21.685,9.638,40.96,23.492,56.019l-31.925,31.925
	C120.471,310.212,106.616,279.492,105.412,245.158z M148.179,339.727l31.925-31.925c15.059,13.854,34.334,22.287,56.019,23.492
	v45.176C202.391,375.266,171.671,361.412,148.179,339.727z M245.158,376.471v-45.176c21.685-1.205,40.96-9.638,56.019-23.492
	l31.925,31.925C310.212,361.412,279.492,375.266,245.158,376.471z M339.727,333.704l-31.925-31.925
	c13.854-15.059,22.287-34.936,23.492-56.019h45.176C375.266,279.492,361.412,310.212,339.727,333.704z"/>
<circle style="fill:#FCD462;" cx="342.739" cy="141.553" r="21.685"/>
<circle style="fill:#E56353;" cx="181.308" cy="177.694" r="21.685"/>
<circle style="fill:#EBF0F3;" cx="141.553" cy="338.522" r="21.685"/>
<linearGradient id="SVGID_3_" gradientUnits="userSpaceOnUse" x1="-1.7613" y1="560.4022" x2="14.2687" y2="576.4322" gradientTransform="matrix(6.0235 0 0 -6.0235 321.8014 3688.5986)">
	<stop  offset="0" style="stop-color:#44C4A1"/>
	<stop  offset="1" style="stop-color:#44C4A1"/>
</linearGradient>
<path style="fill:url(#SVGID_3_);" d="M432.489,240.941H254.795l3.012,18.673l117.459,117.459
	C375.266,377.073,432.489,329.487,432.489,240.941z"/>
<g>
</g>
<g>
</g>
<g>
</g>
<g>
</g>
<g>
</g>
<g>
</g>
<g>
</g>
<g>
</g>
<g>
</g>
<g>
</g>
<g>
</g>
<g>
</g>
<g>
</g>
<g>
</g>
<g>
</g>
</svg>
