<?xml version="1.0" encoding="utf-8"?>
<!-- Generator: Adobe Illustrator 21.1.0, SVG Export Plug-In . SVG Version: 6.00 Build 0)  -->
<svg version="1.1" id="Capa_1" xmlns="http://www.w3.org/2000/svg" xmlns:xlink="http://www.w3.org/1999/xlink" x="0px" y="0px"
	 viewBox="0 0 512 512" style="enable-background:new 0 0 512 512;" xml:space="preserve">
<style type="text/css">
	.st0{opacity:0.1797;fill:#3C3C3B;}
	.st1{opacity:0.1797;fill:#1D1D1B;}
</style>
<g>
	<g>
		<g>
			<g>
				<g>
					<path class="st0" d="M310.4,104.8c-2.8-2.7-5.3-5.2-8.6-7.4c-1.6-1-3.3-2-5-2.9c-5.5-3-11.7-4.7-17.8-5.8c-5.2-1-10.7-1-16-0.7
						c-4.9,0.3-9.9,1.1-14.6,2.5c-8.3,2.4-16.1,6.1-23.1,11.2c-13,9.6-22.7,24.2-23,40.7c-0.1,6.6,1,13.5,3.9,19.5
						c2.2,4.6,5,9.3,8.6,12.9c10.7,10.8,25.3,16.6,40.5,17.3c12.3,0.6,25.1-1.8,36.1-7.3c12.8-6.4,23.9-16.5,29.4-30
						c3.1-7.6,4.4-15.8,3.2-24c-0.5-3.5-1.5-6.9-2.8-10.2c-1.9-5.1-5.2-9.5-8.5-13.7c-0.5-0.4-1.1-0.6-1.8-0.5
						c-0.5,0-0.9,0.3-1.1,0.8c-0.4,0.6-0.7,1.2-0.8,1.9c-0.3,0.8-0.4,1.7-0.3,2.6c2.6,3.8,5.3,7.5,6.8,11.9c1.3,3.6,2,7.1,2.3,10.9
						c0.6,8.5-2.1,17-6.8,24.2c-5.1,7.8-12.6,13.8-20.8,18c-2.4,1.3-4.8,2.4-7.4,3.2c-20.6-4.3-41.3-8.6-61.9-12.9
						c-1.8-2.2-3.3-4.7-4.4-7.3c-1.7-2.6-2.8-5.3-3.5-8.3c-1.7-7.5-1.2-15,1.4-22.3c3-8.6,9.5-16.3,16.8-21.7
						c6.8-5,14.3-8.4,22.5-10.6c4.9-1.3,10.4-1.9,15.5-1.8c2,0.1,3.9,0.2,5.9,0.3c3.8,0.4,7.5,1.1,11.2,2.2
						c-0.3-0.1-0.6-0.2-0.8-0.3c2,0.7,4,1.5,6.1,2.2c-0.3-0.1-0.5-0.2-0.8-0.4c1.9,0.9,3.8,1.8,5.7,2.7c-0.3-0.1-0.5-0.3-0.8-0.4
						c2.4,1.2,4.5,2.7,6.6,4.4c2.1,1.5,4,3.3,5.7,5.3c0.9,0.9,2.5,0.8,3.1-0.4c0.2-1,0.2-2,0-2.9
						C311.1,106.6,310.9,105.7,310.4,104.8z"/>
					<path class="st0" d="M310.7,98.2c-2.7-2.6-5.3-5.1-8.4-7.2c-3.3-2.1-6.9-3.8-10.6-5.2c-6-2.3-12.7-3.3-19.1-3.5
						c-14.1-0.5-28.4,3.4-40.3,10.8c-12.9,8-23.5,20.7-26.8,35.7c-1.6,7-1.6,14.2,0.2,21.2c0.9,3.5,2.1,6.8,3.8,10
						c1.9,3.6,4.2,7.3,7,10.3c22.7,24.2,63.1,23.8,88.4,4.2c10.2-7.9,17.6-18.7,20.6-31.3c1.5-6.4,1.5-13,0.1-19.5
						c-0.8-3.7-1.9-7.1-3.5-10.5c-2.1-4.4-4.8-8-7.8-11.8c-1.5-1.9-3,0.9-3.4,1.9c-0.6,1.7-1,3.3-1.3,5.1c-0.4,1-0.3,2,0.2,2.9
						c1.7,2.4,3.3,4.9,4.8,7.4c1.1,2,2,4.1,2.6,6.3c0.8,2.1,1.3,4.4,1.6,6.6c0.5,3.2,0.6,6.4,0.2,9.6c0-0.3,0.1-0.6,0.1-0.9
						c-0.4,1.7-0.8,3.5-1.2,5.2c0.1-0.3,0.2-0.6,0.2-0.9c-0.5,1.8-1.1,3.7-1.6,5.5c0.1-0.3,0.2-0.6,0.3-0.8c-1.1,3.1-2.6,6-4.3,8.8
						c-1.8,2.8-3.9,5.4-6.2,7.9c-4.9,5-10.8,9.1-17.1,12.1c-16.4,7.7-36.5,8.6-53.1,0.9c-5.9-2.7-11.2-6.5-15.4-11.4
						c-6.2-7.2-9.5-16.4-9.4-25.8c0.1-6.1,1.7-12.2,4.5-17.7c5.2-10.2,13.9-17.2,23.9-22.9c-0.3,0.1-0.6,0.3-0.9,0.4
						c1.8-0.9,3.6-1.7,5.5-2.6c-0.3,0.1-0.6,0.2-0.9,0.4c1.9-0.7,3.8-1.4,5.7-2.1c-0.3,0.1-0.6,0.2-0.9,0.3c2-0.6,3.9-1.1,5.9-1.7
						c-0.3,0.1-0.6,0.2-0.9,0.2c2-0.4,4.1-0.8,6.1-1.2c-0.3,0.1-0.6,0.1-1,0.2c2.1-0.3,4.1-0.5,6.2-0.8c-0.3,0-0.6,0.1-1,0.1
						c2.1-0.1,4.2-0.2,6.3-0.2c-0.3,0-0.6,0-1,0c4,0,7.9,0.3,11.8,1.1c3.7,0.7,7.4,1.8,10.9,3.2c3.3,1.4,6.5,3.1,9.4,5.2
						c2.8,2,5.4,4.3,7.7,7c0.6,0.5,1.2,0.5,1.8,0c0.8-0.9,1.1-1.9,1-3.1c0.2-2,0.2-4,0.1-6.1C311.7,100.2,311.4,99.1,310.7,98.2z"/>
					<path class="st0" d="M314.8,105.1c-1.3-1.2-2.6-2.4-3.9-3.7c-2.3-2-4.8-3.6-7.5-5c-2.5-1.4-4-2.2-6.7-3.3
						c-7.1-3.1-14.8-4.5-22.5-4.6c-5.7-0.1-11.3,0.7-16.9,1.9c-7.3,1.6-14.5,4-21.1,7.5c-14.6,7.9-27.3,21.8-30.2,38.5
						c-1.1,6.5-0.8,13.3,0.8,19.7c0.9,3.7,2.2,7.1,3.9,10.4c2.1,4.1,4.9,8.5,8.1,11.8c22.8,23.4,62.9,26,89.3,7.2
						c5.8-4.1,11-9,14.9-15c4.8-7.2,7.7-15.6,8.3-24.2c0.5-6.8-0.4-13.8-2.7-20.3c-0.6-1.7-1.3-3.4-2.1-5.1c-2.2-4.9-5.5-9-9.1-12.9
						c-0.9-1-1.5-1.3-2.7-0.4c-1.1,0.9-1,1.6-0.3,2.7c4.5,6.9,7.9,14.3,8.4,22.5c0.2,4.3,0,8.5-1,12.6c-1,4-2.3,8-4.3,11.6
						c-2.6,4.6-5.8,8.5-9.3,12.4c0.2-0.2,0.5-0.4,0.7-0.7c-1.6,1.4-3.1,2.8-4.7,4.2c0.3-0.2,0.5-0.4,0.8-0.6
						c-1.7,1.3-3.4,2.6-5.1,3.9c0.3-0.2,0.5-0.4,0.8-0.6c-4.8,3-9.5,5.7-14.8,7.7c-6.4,2.5-13.2,3.8-20,4.2c-6.1,0.4-12,0-18-1.2
						c-2.9-0.5-5.6-1.2-8.3-2.3c-3.5-1.2-6.9-2.8-10-4.8c0.3,0.2,0.5,0.3,0.8,0.5c-2.5-1.4-4.8-3.1-6.9-5c-2-1.5-3.7-3.2-5.1-5.3
						c-2-2.6-3.8-5.2-5.3-8.1c-4.8-9.2-5.3-20.3-2.3-30.1c2.4-8.2,7.1-15.2,13-21.3c3.2-3.3,6.6-6.2,10.4-8.8
						c3.4-1.9,6.8-3.8,10.1-5.8c27.5-9.8,50.2-6.5,67.9,9.8c0.4,0.4,1.7,1.7,2.4,1.4C315.7,106.2,315.2,105.5,314.8,105.1z"/>
					<path class="st0" d="M314.6,103.4c-1.5-1.5-2.9-3-4.5-4.3c-2.3-1.7-4.5-3.2-7-4.6c-7.2-4-15.2-6.2-23.3-6.9
						c-14.5-1.4-29.7,1.7-42.5,8.7c-11.9,6.5-22.1,16.4-27.3,29c-3.2,7.6-4.3,16-3.1,24.2c1.3,8.4,5.1,16,10.3,22.6
						c5.1,6.5,12.4,11.4,19.8,14.8c7.3,3.3,15.2,5.3,23.2,5.9c18.5,1.2,37.2-3.7,51.9-15.2c10.1-8,17.9-19.4,20.1-32.3
						c0.9-5.5,0.7-11.2-0.4-16.7c-0.9-4.4-2.8-8.8-5.1-12.7c-0.9-1.7-1.9-3.2-3.1-4.7c-1.6-2.3-3.4-4.4-5.4-6.4
						c-1.5-1.6-3.6,1-4.5,1.9c-1.3,1.4-2.8,2.8-1.6,4.6c2.6,3.8,5.1,7.5,6.6,11.9c1.6,4.7,2.1,9.2,2.4,14.2c0-0.3,0-0.6,0-1
						c-0.1,2-0.2,4-0.4,6.1c0-0.3,0.1-0.6,0.1-1c-0.4,1.7-0.8,3.4-1.2,5.1c0.1-0.3,0.2-0.6,0.2-0.9c-0.6,1.9-1.2,3.8-1.7,5.7
						c0.1-0.3,0.2-0.6,0.3-0.9c-1.2,3.1-2.7,6.1-4.5,8.9c-1.9,2.8-4,5.5-6.4,7.9c-3.8,3.7-7.9,7-12.5,9.6c-4.8,2.8-10,4.9-15.3,6.4
						c-3.7,1-7.5,1.7-11.3,2.1c-4,0.4-8,0.5-12,0.2c0.3,0,0.6,0,0.9,0.1c-2.3-0.3-4.5-0.5-6.8-0.8c0.3,0,0.6,0.1,0.9,0.1
						c-3.8-0.6-7.5-1.5-11.1-2.9c-3.5-1.2-6.8-2.9-9.9-4.8c-3.2-2-6.2-4.3-8.9-7c-0.9-1.1-1.9-2.3-2.8-3.4
						c-7.6-9.8-10.5-22.2-7.8-34.3c3.5-15.4,15.1-27.6,29.1-34.3c11.2-5.4,24-7.6,36.3-6.2c4,0.5,7.9,1.3,11.7,2.5
						c8.7,2.6,16,7.1,21.8,13.6c1.1,1.1,2.2,1.2,3.2-0.1C313.7,107.3,315.7,104.5,314.6,103.4z"/>
					<path class="st0" d="M307.2,96.4c-2.2-2.1-4.2-4.1-6.6-5.9c-1.9-1.4-3.2-2.3-5.3-3.5c-8.4-4.8-17.7-7.2-27.3-8
						c-15.4-1.2-31.5,3.6-44.1,12.4c-13.6,9.6-23.2,24.1-24.5,40.9c-1.1,14.3,4,28.9,14,39.1c3.1,3.2,6.4,6.4,10.1,8.9
						c1.9,1.1,3.8,2.2,5.7,3.3c2,1.1,4,2.1,6.2,2.8c4.1,1.4,9,2.5,13.3,2.9c12.2,1.1,24.5-0.8,36.1-4.5
						c18.2-5.9,34.3-20.8,39.1-39.7c0.9-3.7,1.5-7.4,1.5-11.2c-0.1-3-0.3-5.9-0.9-8.9c-0.7-3.6-1.9-7.2-3.3-10.6
						c-2.3-5.4-5.8-9.9-9.4-14.4c-0.8-0.9-2.5-0.7-3.1,0.3c-0.2,0.9-0.3,1.8-0.2,2.7c0,0.9,0.3,1.8,0.7,2.6
						c4.1,4.9,7.9,9.8,10.2,15.9c2.8,7.7,3,16,1.1,23.9c-3.6,14.5-14.8,26.4-27.4,33.9c-10.2,6.2-21.4,9.3-33.6,9.2
						c-8.7-0.1-17.2-1.7-25.4-5c-13.4-5.5-22.3-16.3-26.6-32.4c-0.5-3.3-0.8-6.6-0.6-10c0.3-6.5,2.1-12.9,5.2-18.7
						c3.1-5.9,7.4-10.7,12.2-15.3c-0.2,0.2-0.5,0.4-0.7,0.6c1.6-1.3,3.1-2.5,4.7-3.8c-0.3,0.2-0.5,0.4-0.8,0.6
						c1.7-1.2,3.3-2.3,5-3.5c-0.3,0.2-0.5,0.4-0.8,0.5c1.8-1,3.6-2.1,5.3-3.1c-0.3,0.2-0.6,0.3-0.9,0.5c4.8-2.4,9.5-4.5,14.8-5.9
						c5.2-1.4,10.8-2.3,16.2-2.3c6,0,12,0.4,17.8,2.1c1.8,0.6,3.6,1.2,5.4,1.8c3.4,1.3,6.7,3,9.7,5.1c-0.3-0.2-0.6-0.4-0.9-0.7
						c2.9,2,5.5,4.3,7.8,7c1.2,1.2,2.7,0.9,3-0.8c-0.1-1.5-0.3-3-0.8-4.4C308.4,99.2,307.9,97.8,307.2,96.4z"/>
					<path class="st0" d="M311.3,105.2c-1.3-1.2-2.6-2.3-3.9-3.5c-2.2-1.8-4.6-3.3-7.1-4.7c-3.5-2.1-7.2-3.7-11.1-5
						c-9.3-3-19.2-3.9-28.9-2.7c-13.8,1.7-26.7,7.6-37.4,16.3c-6.3,5.2-11.6,11.8-15.3,19.1c-3.8,7.5-5.6,15.5-5.5,23.8
						c0.1,7.8,2.1,16,6,22.8c1.9,3.3,4.2,6.7,6.8,9.5c3.6,3.9,7.9,7.1,12.5,9.7c29.8,17,72,6,90.4-22.8c5.8-9,8.8-19.2,8.5-29.9
						c-0.2-5.5-1.4-10.5-3.4-15.7c-1.8-4.8-5-9.1-7.9-13.2c-0.4-0.6-1.9-1.6-2.6-1.7c-0.5,0-0.9,0.3-0.5,0.7
						c3.7,10,7.4,20.1,11.2,30.1c-0.6,3.3-1.2,6.6-1.8,9.8c-1.1,4.2-3.2,8.1-5.5,11.7c-4.2,6.6-10.1,12.6-16.8,16.8
						c-6.4,4-13.3,7.1-20.6,8.9c-4.8,1.2-9.8,1.8-14.7,1.9c-2,0.1-4.1,0.1-6.1-0.1c-3-0.1-6.1-0.4-9.1-1.1c0.3,0.1,0.6,0.1,0.9,0.2
						c-2.2-0.5-4.4-1.1-6.7-1.6c0.3,0.1,0.6,0.2,0.9,0.3c-2.1-0.7-4.2-1.5-6.4-2.2c0.3,0.1,0.6,0.2,0.9,0.3c-2-0.9-4-1.8-6-2.7
						c0.3,0.1,0.6,0.3,0.9,0.4c-3.3-1.9-6.5-3.9-9.5-6.3c-1.4-1.3-2.8-2.6-4.2-3.9c-1.4-1.8-2.7-3.6-3.9-5.5
						c-1.8-2.7-3.2-5.5-4.3-8.5c-1.4-3.8-1.9-7.5-2.4-11.6c0,0.3,0,0.6,0,0.9c0-1.9,0-3.8,0-5.8c0,0.3,0,0.6,0,0.9
						c0.6-4.7,1.3-9.2,3.2-13.6c1.6-3.6,3.6-7,5.9-10.2c2.5-3.3,5.2-6.2,8.3-9c3.1-2.9,6.6-5.2,10.5-6.9c3.6-2.5,7.5-4.4,11.6-5.7
						c9.4-3.1,19-4.2,28.8-3.3c5.6,0.5,11.8,1.9,16.9,4.3c1.7,0.8,3.3,1.7,5,2.5c3.1,1.6,5.9,3.7,8.4,6.2c0.5,0.4,2.2,0.2,2.8,0.1
						C310.3,105.6,311.8,105.6,311.3,105.2z"/>
					<path class="st0" d="M307.6,103.2c-3.6-3.5-4.3-4.2-8.3-7.1c-2.6-1.9-5.5-3.3-8.5-4.5c-10.7-4.6-22.9-6.1-34.5-4.6
						c-9.4,1.2-18.3,3.9-26.7,8.2c-9.2,4.7-18,11.5-24,20.1c-5.3,7.5-8.7,16-9.4,25.2c-0.6,8.7,1.6,17.5,6,25
						c9.8,16.5,28.3,25.6,46.9,27.3c23.5,2.1,47.7-6.1,63.1-24.5c2.8-3.4,5-7.5,7-11.5c1.4-2.9,2.5-6.4,3.2-9.5
						c0.9-4.3,1.5-7,1.4-11.4c-0.1-5.4-0.9-11.4-3.1-16.4c-2.3-5.3-5.6-9.8-9.2-14.3c-0.8-1-4.9,0.3-3.4,1.8
						c2.4,2.2,4.5,4.7,6.3,7.4c1.5,2.1,2.7,4.2,3.7,6.5c2,3.8,3.3,7.9,3.9,12.3c0.6,4.4,0.5,8.9-0.2,13.3c0.1-0.8,0.2-1.6,0.3-2.5
						c-11,13.1-22,26.2-33,39.3c-2.8,1.2-5.6,2.1-8.5,2.8c-3.9,1-7.9,1.7-11.9,2.1c-10.2,0.9-20.6-0.4-30.1-4.2
						c-3.6-1.4-6.9-3.2-10.2-5.3c-4-2.7-8-5.9-11-9.8c-1.9-2.4-3.5-5.1-4.9-7.7c-2.3-4.4-3.3-9-4.1-13.8c0,0.3,0.1,0.6,0.1,1
						c-0.1-1.9-0.2-3.9-0.4-5.8c0,0.3,0,0.7,0,1c0.1-2,0.2-3.9,0.3-5.9c0,0.3,0,0.7-0.1,1c0.8-4.8,1.8-9.1,3.8-13.5
						c2-4.2,4.8-8.4,7.9-11.9c3.3-3.7,7-7.1,11.2-9.8c4.4-2.9,8.9-5.1,13.7-7.1c-0.3,0.1-0.6,0.2-0.9,0.3c8.7-3,17.7-5,27-4.4
						c3.9,0.2,7.8,0.8,11.6,1.7c8.7,2,16,6.5,22.5,12.8c0.9,0.9,2.2,0.5,3-0.4C309,105.4,308.4,103.9,307.6,103.2z"/>
				</g>
				<g>
					<path class="st0" d="M287.6,143.4c-0.3,1-0.5,2-0.8,3c0.1-0.4,0.2-0.7,0.3-1.1c-0.8,1.9-1.9,3.5-3.3,4.9
						c0.4-0.4,0.9-0.9,1.3-1.3c-1.2,1.1-2.4,2.2-3.7,3.3c0.5-0.4,0.9-0.8,1.4-1.2c-1.3,1-2.7,2-4,3c0.5-0.3,1-0.7,1.5-1
						c-1.5,0.9-3,1.7-4.4,2.6c0.5-0.3,1-0.6,1.6-0.9c-11.9,5.3-23.5,6.3-36.8-2.2c1.1,0.8,2.1,1.6,3.2,2.4c-2.7-4.3-5.3-8.6-8-12.9
						c0.1,0.9,0.2,1.9,0.3,2.8c0.1-1.3,0.1-2.6,0.2-3.9c-0.1,0.4-0.2,0.8-0.3,1.1c2.4-4.3,4.8-8.5,7.2-12.8c-0.7,0.7-1.4,1.3-2.1,2
						c4.5-4.1,9.6-7,15.4-8.7c-0.3,0.1-0.7,0.2-1,0.4c1.6-0.4,3.2-0.8,4.8-1.2c-0.4,0.1-0.7,0.1-1.1,0.2c1.7-0.2,3.3-0.5,5-0.7
						c-0.4,0-0.8,0-1.2,0.1c5-0.2,9.6-0.2,14.5,1.3c4,1.2,7.2,3,10.4,5.5c-0.3-0.3-0.6-0.6-1-1c1,1.1,2.1,2.1,3.1,3.2
						c-0.3-0.4-0.6-0.7-0.9-1.1c0.8,1.2,1.7,2.4,2.5,3.5c-0.5-1-1-2.1-1.6-3.1c0.7,1.6,1.4,3.2,1.9,4.8c0.8,2.6,0.6,5.3-0.4,8
						c-0.2,0.8-0.5,1.9,0,2.6c0.5,0.7,1.4,0.8,2.2,0.4c0.9-0.5,1.4-1.8,1.8-2.7c0.6-1.5,1.5-3.3,1.5-4.9c0.1-1.8,0-3.5-0.5-5.2
						c-0.9-2.8-2.3-5.3-4.3-7.4c-3.1-3.5-7.4-5.9-11.9-7.3c-9.6-3.1-20-2.1-29.2,1.9c-10.7,4.6-24.4,16.9-17.8,29.6
						c5.7,10.9,19.8,14.7,31.3,13.5c5.9-0.6,11.7-2.2,16.9-5c4.4-2.4,8.3-5.7,11.3-9.8c1.2-1.8,2.3-3.7,3.1-5.7
						c0.4-1.3,0.7-2.6,1.1-4c-0.1-0.7-0.4-1.2-1.1-1.4c-1-0.1-1.9,0.2-2.7,0.9C291.2,139,288.2,140.9,287.6,143.4z"/>
					<path class="st0" d="M289.9,139.1c-2.6,9.8-13.1,14.6-22.3,15.9c-5.2,0.8-10.6,0.6-15.7-0.8c-4.6-1.3-8.3-3.5-11.9-6.5
						c0.4,0.5,0.8,0.9,1.2,1.4c-1.1-1.2-2.2-2.5-3.2-3.7c0.4,0.5,0.8,1,1.2,1.5c-0.9-1.3-1.7-2.7-2.6-4c0.7,1.4,1.5,2.8,2.2,4.1
						c-0.8-1.8-1.7-3.5-2.5-5.3c0.5,1.8,1.1,3.5,1.6,5.3c-0.7-2.7-1.4-5.4-2.1-8.2c0.3,1.8,0.7,3.6,1,5.4c0-2.8,0.1-5.6,0.1-8.4
						c-0.3,1.5-0.5,3-0.8,4.5c0.4-1.5,0.8-3,1.2-4.5c-0.2,0.6-0.5,1.1-0.7,1.7c0.6-1.4,1.3-2.8,1.9-4.2c-0.3,0.5-0.6,1-0.9,1.5
						c0.9-1.3,1.8-2.6,2.7-4c-0.3,0.4-0.7,0.9-1,1.3c1.1-1.2,2.1-2.4,3.2-3.6c-0.4,0.4-0.8,0.7-1.1,1.1c1.3-1.1,2.5-2.1,3.8-3.2
						c-0.4,0.3-0.8,0.6-1.2,0.9c1.4-0.9,2.7-1.9,4.1-2.8c-0.4,0.2-0.8,0.5-1.3,0.7c3.2-1.7,6.3-3.3,9.8-4.4
						c6.3-2.3,12.6-0.7,18.9,4.8c13.7-1.5,19.5,3,17.3,13.5c-0.2,1.2,1,2,2.1,2.1c1.3,0.1,2-1.5,2.1-2.6c0.4-3.6,0.1-6.7-1.3-10.1
						c-1.7-4.1-5.4-7.2-9.3-9.4c-8-4.4-17.3-5.3-26.2-3.7c-7.7,1.4-15.2,4.3-21.3,9.3c-3,2.5-5.5,5.6-6.5,9.5
						c-0.8,3.5-0.4,7.2,0.6,10.6c2.2,7.4,8.3,12.5,15.5,14.9c10.3,3.5,22.2,2.2,31.9-2.7c4.4-2.2,8.4-5.4,11.4-9.3
						c2.2-2.8,3.2-5.6,4-8.9c0.4-1.5-1.1-2.3-2.3-2.2C292.2,137,290.3,137.6,289.9,139.1z"/>
					<path class="st0" d="M291.8,144.3c-3.7,14.6-22.8,18.9-35.5,15.6c-6.2-1.6-13.1-5.2-16.1-11.2c-1.9-3.8-1.1-9.1,1.5-12.4
						c3.5-4.5,8.9-7.3,14.2-9.1c5.1-1.7,10.5-2.5,15.9-2.4c5.6,0.1,10.5,1.3,15.7,3.3c-0.6-0.3-1.2-0.6-1.9-0.9
						c1.7,0.9,3.4,1.7,5,2.6c-0.6-0.4-1.2-0.7-1.8-1.1c1.5,1,3.1,2,4.6,3c-0.6-0.4-1.2-0.8-1.8-1.2c1.5,1.4,2.9,2.9,4.4,4.3
						c-1.3-1.5-2.6-3-3.8-4.5c1.2,1.5,2.3,3.1,3.5,4.6c-0.8-1.4-1.7-2.8-2.5-4.2c0.5,1.1,1.1,2.2,1.6,3.3c-0.2-0.6-0.5-1.2-0.7-1.8
						c0.4,1.1,0.9,2.3,1.3,3.4c-0.2-0.6-0.4-1.2-0.6-1.7c0.3,1.2,0.7,2.4,1,3.6c-0.1-0.6-0.2-1.1-0.4-1.7c0.2,1.2,0.4,2.4,0.6,3.7
						c-0.1-0.5-0.1-1.1-0.2-1.6c0,1.3,0.1,2.5,0.1,3.8c0-0.5,0-1,0-1.5c-0.2,1.3-0.3,2.5-0.5,3.8c-0.2,1.3,0,4.3,1.2,5.2
						c0.9,0.6,2.2,0.5,2.8-0.6c1.3-2.8,2.1-5.2,2.1-8.3c0-0.8-0.1-1.7-0.1-2.5c0.1-1-0.3-1.8-1-2.6c-3.5-6.3-9.3-11.4-15.9-14
						c-15.4-6.1-34.6-0.9-45.1,11.8c-3.7,4.5-5.4,10.6-3.3,16.2c3.1,8.5,12.3,13.3,20.7,14.9c8.1,1.5,17.3,0.7,24.8-2.6
						c3.3-1.5,6.7-3.6,9.1-6.3c1.5-1.6,2.7-3.3,3.5-5.4c0.6-1.2,1-2.6,1.2-4c0.3-1.4,0.4-2.3-1.2-2.8
						C293,142.2,292.2,142.9,291.8,144.3z"/>
					<path class="st0" d="M291.9,141.8c-1,4.8-3.8,8.5-8.3,11c-1.9,1.2-3.9,2.2-6.1,2.9c-5.9,2.1-12.3,2.8-18.5,2
						c-2.2-0.3-4.4-0.8-6.5-1.5c-7.8-2.3-12-8.7-12.4-19.2c2.3-5.7,8-8.8,13-11.7c-0.5,0.3-1,0.5-1.4,0.8c1.7-0.7,3.3-1.5,5-2.2
						c-0.5,0.2-1.1,0.5-1.6,0.7c1.8-0.6,3.5-1.2,5.3-1.9c-0.6,0.2-1.2,0.4-1.7,0.6c1.9-0.5,3.7-0.9,5.6-1.4
						c-0.6,0.1-1.2,0.3-1.8,0.4c1.9-0.3,3.8-0.7,5.8-1c-0.6,0.1-1.3,0.2-1.9,0.3c2-0.2,3.9-0.3,5.9-0.5c-0.7,0-1.3,0.1-2,0.1
						c2,0,3.9,0,5.9,0c-0.7,0-1.3,0-2,0c4.7,1.2,9.3,2.4,14,3.6c-1.6-0.7-3.2-1.5-4.7-2.2c3.9,2.9,7.8,5.9,11.7,8.8
						c-0.8-1-1.6-2-2.4-2.9c0.5,0.9,1.1,1.8,1.6,2.7c-0.2-0.4-0.5-0.9-0.7-1.3c0.4,1,0.9,1.9,1.3,2.9c-0.2-0.4-0.3-0.8-0.5-1.3
						c0.3,1,0.7,2,1,3.1c-0.1-0.4-0.2-0.8-0.3-1.2c0.2,1.1,0.4,2.1,0.6,3.2c-0.1-0.4-0.1-0.8-0.2-1.2c-0.1,1.9-0.1,3.7-0.2,5.6
						c-0.1,1.1,0.1,3.1,1.2,3.6c0.7,0.4,2.4,0.3,2.7-0.6c1.1-3.1,1.6-5.8,1.3-9c-0.1-1.2-0.3-2.3-0.4-3.5c-0.7-1.4-1.6-2.7-2.6-3.8
						c-4.1-4.8-10.1-8-16.2-9.7c-7.3-2-15.2-1.9-22.4,0c-9.2,2.5-19.4,8.2-23.1,17.5c-1.2,3-1.6,6.3-0.8,9.5c1,3.9,3.5,7.1,6.6,9.7
						c4.6,3.9,10.8,6,16.7,6.8c9.3,1.3,19.8-0.3,27.8-5.6c2.1-1.4,3.8-2.9,5.6-4.7c2.5-2.6,3.5-5.7,4.4-9c0.3-1.1-1.3-1.8-2.1-2
						C292.7,139.9,292.1,140.8,291.9,141.8z"/>
					<path class="st0" d="M285.4,138.2c-0.5,2.8-1.8,5.1-3.8,7c-1.6,1.5-3.3,2.7-5.2,3.7c-3.3,1.7-6.7,2.8-10.3,3.4
						c-3.9,0.7-8.1,0.8-12.1,0.4c-5.2-0.5-9.8-2.2-14.4-4.6c0.6,0.4,1.2,0.8,1.8,1.2c-1.5-1-3-2-4.5-3.1c0.6,0.4,1.2,0.9,1.7,1.3
						c-1.3-1.1-2.7-2.3-4-3.4c1.3,1.2,2.5,2.4,3.8,3.6c-1.3-1.5-2.7-2.9-4-4.4c1.2,1.6,2.5,3.2,3.7,4.8c-1.7-2.4-3.4-4.7-5.1-7.1
						c1.1,1.7,2.2,3.3,3.3,5c-0.9-1.8-1.9-3.5-2.8-5.3c0.6,1.5,1.3,2.9,1.9,4.4c-0.5-1.6-1-3.2-1.5-4.7c0.1,0.6,0.3,1.2,0.4,1.8
						c-0.4-2.1-0.4-4.2,0.1-6.3c0.4-1,0.7-2.1,1.1-3.1c1.4-3.3,4-6,6.7-8.2c4.4-3.7,10.3-5.9,15.9-7c2.7-0.4,5.4-0.6,8-0.5
						c2.6,0.1,5.1,0.5,7.5,1.3c2.4,0.4,4.7,1.2,6.8,2.4c1.4,0.7,2.7,1.6,3.9,2.5c2.2,1.7,3.9,3.6,5.4,5.9c2,2.9,0.7,7.8-0.7,10.7
						c-0.5,1,2.2,4.1,3,2.4c1.2-2.7,2.2-5.5,2.4-8.5c0.1-1.4,0-2.8-0.1-4.1c-0.6-1.1-1.2-2.2-1.8-3.4c-4.9-8.1-15.1-11.5-24-12.4
						c-8.5-0.9-17.2,1-24.8,4.7c-5.9,2.8-12.5,7.1-15,13.5c-0.8,2-1.3,4.1-0.8,6.3c0.7,3.1,2.4,6.1,4.2,8.7c2,2.7,4.2,5.2,6.9,7.1
						c3.4,2.5,7.3,3.9,11.4,4.8c9,2,18.8,0.7,27-3.6c3.5-1.8,6.9-4.2,9.3-7.4c0.8-1,1.5-2.1,2.1-3.2c1-1.6,1.6-3.3,1.8-5.2
						c0.3-1.3-0.2-2.5-1.6-2.6C288,136.7,285.8,136.8,285.4,138.2z"/>
					<path class="st0" d="M287.3,147.8c-0.2,1-0.5,1.9-0.7,2.9c0.3-0.6,0.5-1.1,0.8-1.7c-2,3.2-4.7,5.7-8,7.4
						c0.4-0.2,0.8-0.4,1.2-0.6c-2.6,1.4-5.4,2.6-8.2,3.5c0.4-0.1,0.7-0.2,1.1-0.3c-5.8,1.4-11.4,2.5-17.4,1.8
						c-3.7-0.4-7.3-1.4-10.7-3c-4.7-2.2-9-6.1-10.2-11.5c-0.6-2-0.5-4,0.5-5.9c0.9-1.9,2.1-3.6,3.7-5c7.7-7.3,17.9-10.9,28.4-10.7
						c4.5,0.1,9,0.9,13.1,2.8c2.2,0.9,4.2,2.1,6.1,3.6c1.8,1.3,3.3,2.9,4.6,4.8c-0.3-0.5-0.6-1-0.9-1.5c0.8,1.4,1.6,2.8,2.4,4.2
						c-0.5-1.4-1.1-2.7-1.6-4.1c0.5,3.2,1.1,6.5,1.6,9.7c0.1-1.9,0.2-3.8,0.2-5.7c-0.2,2.6-0.5,5.1-0.7,7.7c0.2-1.9,0.5-3.7,0.7-5.6
						c-0.4,1.6-0.7,3.3-1.1,4.9c-0.2,1.1-1.3,4.6-0.2,5.8c0.7,0.8,2.1,0.7,2.6-0.4c1.9-4,2.7-7.9,2.4-12.3c-0.1-2.2-0.7-4.2-1.7-6.1
						c-0.3-1.2-0.9-2.3-1.7-3.3c-5.5-7.7-16.5-10.4-25.5-10c-8.7,0.4-17.1,3.6-24.5,8.1c-3,1.8-6.2,3.9-8.4,6.7
						c-2.2,2.8-3.7,6.8-3.7,10.4c0,7.7,5.7,13.5,12.1,16.8c7,3.6,15.2,4.6,23,3.6c6-0.7,11.9-2.5,16.9-5.8c2.9-1.9,5.2-4.5,7.2-7.4
						c1.1-1.5,2.1-3.1,2.8-4.9c0.8-1.5,1.3-3,1.5-4.7c0.4-1.7-1.2-2.5-2.6-1.8c-1.1,1-2,2.1-2.8,3.4
						C288.6,145.1,287.9,146.4,287.3,147.8z"/>
					<path class="st0" d="M281.9,144.4c-0.3,1-0.5,2-0.8,3c0.2-0.4,0.4-0.7,0.6-1.1c-0.7,1.2-1.4,2.5-2.1,3.7
						c0.2-0.4,0.4-0.7,0.6-1.1c-0.9,1.3-2,2.4-3.2,3.3c-1.2,1.1-2.5,1.9-4,2.7c0.7-0.3,1.3-0.7,2-1c-1.7,0.8-3.3,1.6-5,2.4
						c0.7-0.3,1.3-0.6,2-0.9c-1.8,0.7-3.5,1.3-5.3,2c0.7-0.2,1.4-0.5,2-0.7c-5.9,1.9-12.1,2.4-18.5,1.5c1.8,0.2,3.5,0.4,5.3,0.6
						c-6.1-0.3-11.5-2.2-16.1-5.7c0.4,0.3,0.7,0.6,1.1,0.9c-1.1-1-2.2-2-3.4-2.9c0.3,0.3,0.6,0.6,0.9,0.9c-0.9-1-1.8-2-2.8-3
						c0.2,0.3,0.5,0.6,0.7,1c-2.2-2.9-3.2-6.1-3-9.6c0.2-4.8,2.5-8.7,6.8-11.8c3.8-3,8.5-4.3,13.1-5.2c4.6-1,9.2-1.7,13.9-1.4
						c2.4,0.2,4.7,0.5,7.1,1c8,1.8,13.2,7.6,15.6,17.4c0.1-0.4,0.1-0.7,0.2-1.1c-0.3,1.1-0.5,2.2-0.8,3.3c0.1-0.4,0.2-0.8,0.4-1.2
						c-0.5,1.2-1,2.3-1.5,3.5c-0.6,1.3,1.5,2.3,2.5,1.9c0.9-0.6,1.7-1.4,2.3-2.3c0.7-0.8,1.3-1.8,1.6-2.8c0.5-3,0.6-5.5-0.5-8.4
						c-1.1-2.9-3.1-5.3-5.5-7.2c-6.6-5.3-15.5-7.4-23.8-7.6c-8.5-0.2-17.4,1.9-24.8,6.4c-6.6,4.1-12.4,11.1-11.4,19.3
						c1.7,13.1,17,18.2,28.4,18.6c7.1,0.2,14.4-1.1,20.8-4.1c4.4-2.1,8.5-5.1,11.5-8.9c0.9-1.2,1.7-2.5,2.4-3.8
						c1.1-1.7,1.8-3.5,2.1-5.5c0.1-0.8-0.2-1.3-0.9-1.6c-1.1-0.3-2.2,0-3.2,0.6c-1.8,0.8-3.6,1.8-5.3,2.8
						C283.1,142.5,282.4,143.3,281.9,144.4z"/>
				</g>
			</g>
		</g>
	</g>
</g>
<g>
	<g>
		<g>
			<g>
				<g>
					<path class="st0" d="M297.6,354c-0.7-0.5-1.2-0.9-1.7-1.6c0.2,0.4,0.5,0.7,0.7,1.1c-0.4-0.6-0.8-1.3-1.2-1.9
						c0.2,0.4,0.4,0.7,0.7,1.1c-2.2-5.4-1-12.8-0.5-18.4c0,0.4-0.1,0.8-0.1,1.1c0.8-5.5,1.7-10.8,2.8-16.2c-0.1,0.4-0.2,0.7-0.4,1.1
						c0.8-1.5,1.3-3.2,1.8-4.8c1.5-5.1,2.6-10.3,3.7-15.5c2.1-9.3,4.2-18.6,6.2-28c1.4-6.7,2.4-13.4,2.4-20.2
						c0-14.6-4.8-29.7-14.8-40.6c-5.8-6.4-12.8-11.3-20.8-14.6c-9.1-3.9-19.3-6.1-29.2-5.6c-15.8,0.8-31.4,6-44.3,15.2
						c-5.4,3.8-10.5,8.5-14.2,14c-2.7,4.1-4.7,8.9-4.6,13.9c0.1,3.7,1.6,7.6,3.5,10.7c2,3.2,4.9,5.6,8,7.6c1.7,1.2,3.3,1.9,4.5,3.7
						c-0.2-0.3-0.4-0.6-0.6-0.8c1.3,2.8,1.6,5.8,1.5,8.9c-0.2,6.6-1.7,13.3-3.2,19.8c0.1,2.1-0.4,4-1.5,5.7c-0.3,0.5-0.5,1-0.6,1.5
						c-0.6,1.8-1,3.7-1.5,5.6c-1.6,6.8-3,13.7-4.5,20.6c-1.3,6.5-2.6,13-3.9,19.6c-0.9,4.6-1.9,9.3-2.3,14
						c-0.8,11.9,0.6,23.5,5.8,34.3c3.9,8,9.4,14.8,16.6,20.1c20.2,15,48.3,16.3,71,6.2c8-3.6,15.4-8.2,21.9-14
						c5.5-4.9,10.8-11.5,12.3-18.9c0.7-3.5,0.4-6.8-0.7-10.2c-1.7-5.3-5.5-8.9-9.6-12.2c-0.9-0.7-2.4-0.9-3.1,0.3
						c-0.2,0.9-0.3,1.8-0.1,2.8c0,0.9,0.3,1.8,0.7,2.7c0.8,0.9,1.6,1.7,2.6,2.4c1.1,1,1.9,2.2,2.5,3.6c1.2,1.9,1.7,3.6,1.6,5.9
						c0.1,2.7-0.6,5.1-1.9,7.4c-1.1,2.1-2.5,4.1-4,5.9c-3.7,4.4-8.3,8-13.1,11.1c-5.5,3.5-11.6,6.3-17.8,8.3
						c-3.3,1.1-6.7,1.9-10.1,2.5c-3.8,0.7-7.6,1.1-11.4,1.2c-1.4-0.2-2.7-0.5-4.1-0.6c-3.7-0.4-7.3-1.1-10.8-2.1
						c-10.5-3.1-20.8-9.1-27.6-17.8c-4.4-5.7-7.5-12.6-9.4-19.5c-2.2-8-2.3-16.3-1.5-24.6c0.8-8.6,3-17.1,4.7-25.6
						c1.9-9.7,3.7-19.5,5.8-29.1c-0.1,0.4-0.2,0.7-0.2,1.1c0.9-4.1,1.9-8.2,2.6-12.4c0.8-4.5,1.4-9.2,1.6-13.8
						c0.1-2.7,0.2-5.4-0.4-8c-0.7-3.3-1.8-6.6-3.5-9.5c-0.5-0.8-1-1.6-1.6-2.3c-0.6-0.7-1.3-1.2-2-1.8c-0.2-0.2-0.4-0.5-0.5-0.7
						c-2.5-1.9-4.1-4.2-4.8-7c-0.7-1.3-0.9-2.6-0.6-4.1c0.1-0.7,0.1-1.5,0.2-2.2c0.4-2.4,1.7-4.5,3-6.6c1.8-2.8,4.1-5.2,6.5-7.5
						c6.5-6.1,14.7-10.4,23-13.5c4.1-1.5,8.4-2.8,12.8-3.5c5.5-0.9,10.9-1.1,16.5-0.9c-0.3,0-0.6-0.1-0.9-0.1c2.3,0.4,4.6,0.7,7,1.1
						c-0.3-0.1-0.6-0.1-0.8-0.2c4,1,7.9,2.2,11.7,3.6c2.7,1,5.2,2.3,7.7,3.8c2.5,1.3,4.8,2.9,6.9,4.7c3,2.4,5.7,5.2,8.1,8.3
						c-0.2-0.2-0.3-0.5-0.5-0.7c2,3.1,3.9,6.4,5.5,9.7c1.5,3.5,2.8,7.1,3.7,10.8c-0.1-0.3-0.1-0.5-0.2-0.8c0.4,2.3,0.9,4.5,1.3,6.8
						c0-0.3-0.1-0.5-0.1-0.8c0.3,4,0.6,8,0.4,12.1c-0.2,4.4-0.9,8.8-1.7,13.1c-1.3,6.8-2.7,13.6-4.3,20.3c-1.6,7-3.1,13.9-4.7,20.9
						c-1.1,4.7-2.4,9.5-3.1,14.2c-1.3,8.7-2.6,18.1-0.8,26.9c0.8,3.7,2.4,7.2,5.7,9.3c1.1,0.7,2.6,0.1,2.9-1.2c-0.1-1-0.4-2.1-0.8-3
						C298.8,355.6,298.3,354.8,297.6,354z"/>
					<path class="st0" d="M297.4,347.8c-0.4-0.3-0.8-0.6-1.2-1c0.3,0.3,0.5,0.6,0.8,0.9c-0.4-0.5-0.7-1-0.9-1.6
						c0.2,0.7,0.4,1.4,0.5,2.1c-0.3-1-0.5-2.1-0.8-3.1c0.2,0.7,0.3,1.4,0.5,2.1c-0.2-1.1-0.4-2.3-0.6-3.4c0.1,0.7,0.2,1.4,0.4,2.1
						c-0.3-3.4,0-6.8,0.2-10.3c0,0.7-0.1,1.3-0.1,2c0.2-1.7,0.4-3.4,0.5-5.1c-0.1,0.7-0.2,1.3-0.2,2c0.3-1.9,0.5-3.8,0.8-5.6
						c-0.1,0.6-0.2,1.3-0.3,1.9c1-5.6,2.1-11.2,3.3-16.8c-0.6,1.4-1.1,2.8-1.7,4.1c3.8-7.3,5.3-15.2,7.1-23.1
						c1.6-7,3.2-14.1,4.7-21.1c1.7-7.8,3.7-15.8,3.9-23.9c0.2-13-2.4-26.3-9.7-37.3c-4.2-6.3-9.3-11.6-15.5-15.8
						c-5.7-3.9-11.8-6.6-18.4-8.5c-7.6-2.2-15.4-3.1-23.4-2.6c-14.1,0.9-27.8,6-39.6,13.7c-5.1,3.3-9.7,7.4-13.6,12
						c-3.2,3.8-6,8.1-7.3,13c-1.3,4.9-0.2,10.1,2.2,14.5c2.2,4,5.6,7,9.1,9.9c1.3,1,2.3,2.1,2.9,3.6c0.8,1.9,1.3,4.5,1.6,6.6
						c0.3,2.2,0,4.4-0.2,6.6c-0.5,4.8-1.3,9.6-2.3,14.3c-0.4,2-0.7,4.2-1.5,6c-0.3,0.7-0.5,1.5-0.7,2.2c-1.9,6.9-3.3,14-4.7,21.1
						c-1.7,8.3-3.4,16.6-5,24.8c-2.1,10.5-3.2,21.3-1.3,32c1.3,7.1,4,14,7.7,20.1c1.5,2.5,3.2,5,5.1,7.3c2.2,2.7,5.2,5.3,8,7.5
						c7.5,5.9,16.4,10.1,25.7,12.4c21.8,5.3,45.7-1.5,63.2-15.1c8-6.2,15.8-14.8,17.4-25.2c0.6-4.4-0.6-9.1-2.6-13
						c-2.2-4.4-6-7.4-9.9-10.1c-2-1.4-2.6,1.6-2.8,2.8c-0.3,2.5-0.6,6.1,1,8.2c0.7,0.9,1.4,1.4,2.2,2.1c1.4,1.3,2.3,2.8,3.2,4.4
						c1.5,2.6,1.4,5.3,1.3,8.2c0.1-0.3,0.1-0.6,0.2-0.9c-0.3,1.1-0.5,2.3-0.8,3.4c0.1-0.3,0.2-0.6,0.3-0.9c-1.1,2.7-2.3,5-4.1,7.4
						c-2.1,2.8-4.4,5.2-6.9,7.5c-5.9,5.3-13.1,9.4-20.4,12.5c-4.7,2-9.8,3.5-14.8,4.4c-3.6,0.7-7.5,1.4-11.2,1.3
						c-2.3,0-4.6-0.2-6.8-0.5c-14.6-1.4-28.5-8.4-37.9-19.6c-6.1-7.2-9.4-16.6-11-25.8c-1-6-0.9-12.7-0.3-18.7
						c0.3-2.5,0.6-5.1,1.1-7.6c2.1-10.6,4.2-21.1,6.3-31.6c1.2-6,2.3-12,3.7-17.9c1.3-5.4,2.4-10.8,3.1-16.3
						c0.7-5.6,1.3-11.3,0-16.9c-0.7-2.8-1.7-5.9-3.4-8.3c-0.5-0.7-1.1-1.3-1.8-1.9c-2.7-2.2-5.2-4.7-6.8-8c-0.6-1.2-0.9-2.5-1-3.9
						c-0.5-13.6,17.3-24.2,26.3-29c-0.3,0.1-0.6,0.3-0.9,0.4c1.9-0.8,3.8-1.7,5.6-2.5c-0.3,0.1-0.6,0.2-0.9,0.4
						c2-0.7,3.9-1.4,5.9-2.2c-0.3,0.1-0.6,0.2-0.9,0.3c2-0.6,4.1-1.2,6.1-1.7c-0.3,0.1-0.6,0.2-0.9,0.2c2.1-0.4,4.1-0.9,6.2-1.3
						c-0.3,0.1-0.6,0.1-1,0.2c2.1-0.3,4.2-0.5,6.3-0.8c-0.3,0-0.6,0.1-1,0.1c2.2-0.1,4.5-0.3,6.7-0.4c-0.3,0-0.6,0-1,0
						c4-0.1,8,0.2,11.9,1c3.7,0.9,7.4,1.9,11,3.2c5.4,2.2,10.3,4.9,14.8,8.6c2.4,1.8,4.5,3.8,6.3,6.1c1.9,1.9,3.4,4,4.5,6.5
						c1.9,3.2,3.5,6.5,4.6,10c1.4,3.7,2.3,7.6,2.9,11.5c0-0.4-0.1-0.7-0.1-1.1c0.2,2.3,0.4,4.7,0.5,7c0-0.4,0-0.7-0.1-1.1
						c0.1,4.2-0.1,8.4-0.7,12.6c-0.2,2.3-0.5,4.6-1.1,6.8c-1.3,6.7-2.8,13.5-4.3,20.2c-2.3,10.2-4.3,20.6-7.1,30.8
						c-0.7,2.4-1.1,4.8-1.3,7.3c-0.5,3.4-0.9,6.7-1.1,10.1c-0.3,4.8-0.3,9.8,0.8,14.5c0.8,3.7,2.5,6.9,5.7,9.1
						c0.7,0.3,1.3,0.2,1.8-0.3c0.6-1,0.7-2.1,0.4-3.3c-0.2-2-0.5-4-1-6C298.8,349.5,298.3,348.6,297.4,347.8z"/>
					<path class="st0" d="M302.3,354.5c-0.9-0.8-1.9-1.5-2.3-2.7c-0.3-1.2-0.4-2.5-0.3-3.7c-0.2-1.4-0.2-2.7,0-4.1
						c0.2-2.7,0.6-5.4,0.9-8.1c0.6-4.1,1.4-8.1,2.3-12.1c-0.2-1.4,0.2-2.5,1.1-3.4c0.2-0.4,0.4-0.8,0.6-1.2c2.5-5.7,3.6-12,5-18
						c2.4-10.4,5.1-20.9,7-31.4c1.3-6.8,2-14,1.3-20.9c-0.8-8.3-2.8-16.8-6.9-24.2c-3.2-5.8-7.1-11-11.8-15.7
						c-6.4-6.4-14.6-11.1-23.1-14.1c-2.2-0.7-4.5-1.4-6.7-2.1c-2.3-0.3-4.6-0.6-7-1c-6.5-0.7-13.6-0.6-20,0.7
						c-15.4,3.2-30.6,8.8-42.4,19.6c-5.5,5-10.9,11.4-12.3,18.9c-0.7,3.5-0.5,6.7,0.6,10.1c1.6,5.1,4.8,9.5,9,12.9
						c1.6,1.3,3.3,2.6,5,3.8c1.2,0.8,2.2,1.7,3.1,2.9c-0.3-0.4-0.6-0.9-0.9-1.3c0.3,0.7,0.7,1.5,1,2.2c-0.5-1.4-1-2.8-1.5-4.2
						c1.8,6.5,1.7,12.9-0.3,19.3c-0.4,3.9-1.1,7.7-2.1,11.4c-0.6,2.3-1.4,4.5-2,6.7c-1.2,4.3-2.2,8.6-3.1,12.9
						c-2.5,11.6-4.8,23.2-7.1,34.8c-2.3,12-2.9,25,1,36.8c3.2,9.8,8.4,19.2,16.1,26.1c4.3,3.9,9,7.1,14,10
						c6.6,3.7,14.2,6.3,21.6,7.6c4.8,0.8,9.7,1.4,14.6,1.2c6.4-0.4,12.8-1,19-2.8c8-2.4,15.6-6,22.5-10.8c4.5-3.1,8.6-6.7,12.2-10.8
						c4.6-5.3,8.8-11.8,9.1-19c0.4-10-6.2-19.3-14.6-24.2c-0.5-0.3-1.4-0.7-1.9-0.3c-0.3,0.2-0.7,1.1-0.4,1.4c4,3.8,7.4,8.3,7.7,14
						c0.1,1.9-0.1,4.2-0.6,6.1c-0.8,3.3-2.5,6-4.3,8.8c0.2-0.3,0.4-0.5,0.6-0.8c-1,1.3-2,2.6-3.1,3.9c0.2-0.2,0.4-0.5,0.6-0.7
						c-1.2,1.3-2.3,2.5-3.5,3.8c0.2-0.2,0.5-0.5,0.7-0.7c-1.3,1.2-2.6,2.4-4,3.7c0.2-0.2,0.5-0.4,0.7-0.7
						c-7.8,6.3-16.3,11.4-25.9,14.4c-4.3,1.4-8.6,2.3-13.1,3.1c-3.1,0.6-6.3,1.4-9.4,1.1c-4-0.4-8-0.4-11.9-1.2
						c-3.5-0.7-7-1.6-10.3-2.8c-4-1.5-7.6-3.4-11.3-5.5c0.3,0.2,0.5,0.3,0.8,0.5c-2.6-1.8-5.3-3.6-7.7-5.7c-2.7-2.3-4.9-4.9-6.9-7.8
						c-2.1-3.1-4-6.3-5.5-9.8c-0.7-1.8-1.4-3.7-2-5.5c-0.8-5.7-1.6-11.5-2.4-17.2c0-8.5,1.9-16.7,3.5-25c2.2-10.8,4.2-21.6,6.8-32.3
						c0.4-1.8,0.9-3.6,1.4-5.3c0.3-1,0.7-1.9,1.1-2.9c0.8-2.1,1.2-4.6,1.7-6.8c0.8-3.3,1.5-6.6,2.1-9.9c1.3-7.3,2.4-15.7-1.8-22.3
						c-0.9-1.4-2-2.7-3.4-3.6c-1.8-1.1-3.7-2.2-5.3-3.5c-2.2-1.8-4.2-4.3-5.5-6.8c-1-1.9-1.2-3.4-1.2-5.6c-0.3-1.4-0.2-2.7,0.2-4
						c0.2-1.2,0.6-2.4,1.2-3.4c2.7-5.7,6.9-10.5,11.5-14.7c2.7-2.4,5.5-4.6,8.4-6.6c2.4-1.7,4.9-3.2,7.5-4.4
						c6.1-3.7,12.6-6.2,19.7-7.5c-0.8,0.2-1.6,0.3-2.4,0.5c6.9-1.5,13.9-2,20.8-1.5c2.4,0.3,4.7,0.6,7.1,0.8
						c3.3,0.6,6.5,1.6,9.7,2.8c3.1,1,6,2.2,8.9,3.8c3.6,2,6.7,4.5,9.5,7.5c3.2,2.6,6,5.6,8.2,9.1c3.1,4.7,5.7,9.8,7.2,15.2
						c2.3,7.7,3.4,15.9,2.8,23.9c-0.3,4.5-0.9,8.8-1.7,13.2c-2.1,11.3-4.9,22.6-7.3,33.9c-1.2,5.4-2.3,10.9-3.7,16.2
						c-0.9,3.5-1.3,7.5-1.8,11c-0.5,3.8-0.9,7.6-1,11.4c-0.1,2.1-0.1,4.3,0,6.3c0.1,1.3,0.1,2.6,0.7,3.8c0.7,1.6,2.2,2,3.7,2.5
						c0.4,0.1,1.3,0.6,1.7,0.4C302.1,354.9,302.6,354.8,302.3,354.5z"/>
					<path class="st0" d="M301.5,353c-2.8-1.9-2.2-6-1.9-8.9c0.9-9.2,2.8-18.3,5-27.3c-0.1,0.3-0.2,0.7-0.3,1
						c1.2-1.3,1.8-3.2,2.4-4.8c1.8-5,3-10.3,4.2-15.5c1.9-8.2,3.8-16.3,5.6-24.5c1.5-6.8,2.9-13.4,3-20.5
						c0.2-12.9-3.4-25.8-10.9-36.4c-9.6-13.5-24.6-21.6-40.7-24.5c-13.3-2.4-26.8-1.1-39.5,3.4c-11.7,4.1-23.4,10.6-31.6,19.9
						c-3.7,4.1-6.8,8.9-7.8,14.5c-0.8,4.1-0.2,8.2,1.5,12c1.8,4,4.7,7,8.1,9.7c1.8,1.4,3.8,2.6,5.5,4.1c-0.3-0.3-0.6-0.5-0.8-0.8
						c0.6,1.1,1.3,2.2,1.9,3.3c-0.4-0.9-0.9-1.9-1.3-2.8c2.4,7.2,1.4,13.7,0.1,20.6c-0.8,4.4-1.6,8.8-3,13c-1.2,4-2.3,8.1-3.2,12.2
						c-2.7,11.9-5,23.9-7.4,35.9c-2.1,10.7-3.3,21.7-1.3,32.5c1.7,9.4,5.7,18.1,11.4,25.8c5.4,7.2,12.9,12.8,21,16.8
						c23.1,11.4,52,8.9,73.8-4.4c7.1-4.4,14.2-9.7,19.1-16.6c2.6-3.7,4.8-7.7,5.8-12.1c1.1-4.8-0.4-9.7-3-13.8
						c-3-4.8-7.3-8-12.3-10.7c-1.5-0.8-2.3,0.8-2.9,1.8c-0.5,1-1.9,3.3-0.8,4.4c1.8,1.9,3.7,3.5,5,5.9c1.1,2,1.7,3.8,2,6
						c0-0.3,0-0.6,0-1c0,1.9-0.1,3.7-0.3,5.6c0.1-0.3,0.1-0.6,0.2-1c-0.3,1.2-0.6,2.4-0.9,3.6c0.1-0.3,0.2-0.6,0.3-0.9
						c-2.1,4.5-4.6,8.5-8.2,12c-3.2,3.2-6.8,6-10.6,8.5c-4.1,2.7-8.6,5-13.2,6.9c-6.6,2.7-13.5,4-20.5,5.4c0.4,0,0.7-0.1,1.1-0.1
						c-2.6,0.3-4.5,0.7-6.9,0.5c-1.9-0.2-3.8-0.2-5.7-0.3c-6.7-0.5-13.6-2.3-19.7-5.1c-8.5-3.9-16.6-9.6-21.8-17.4
						c-2.7-4-4.8-8.1-6.4-12.6c-3.5-9.8-3.9-20.1-2.6-30.2c0.6-4.5,1.5-9,2.4-13.5c1.4-6.8,2.7-13.7,4.1-20.5
						c1.4-6.6,2.7-13.2,4.5-19.7c2.3-8.2,4.4-16.4,5.2-24.9c0.6-6.5,0.2-13.3-4.7-18.1c-1.7-1.6-3.8-2.8-5.7-4.2
						c-3.4-2.6-6-6.9-6.7-11.1c-0.5-3,0.4-6,1.5-8.8c1.5-3.8,4.6-7.5,7.4-10.4c4.8-5,10.9-9.1,17.1-12.3c8.4-4.3,18.6-7.3,27.8-7.7
						c13.8-0.6,28.6,2.4,40,10.6c1.5,1.2,3.1,2.4,4.6,3.6c3.1,2.5,5.6,5.4,7.6,8.7c2.4,2.9,4.3,6,5.8,9.5c1.6,3.6,2.8,7.4,3.7,11.2
						c-0.1-0.3-0.2-0.6-0.2-0.9c0.8,4.1,1.5,8,1.6,12.2c0.1,4.2-0.1,8.5-0.7,12.6c-1,8-3,15.9-4.7,23.8c-0.8,3.9-1.9,7.7-2.7,11.6
						c-0.7,3.4-1.4,6.7-2.1,10.1c-0.9,4-1.9,8-2.8,12c-1.5,6.5-2.2,13.3-2.3,19.9c-0.1,2.9-0.1,5.9,0.3,8.8c0.5,3.6,1.5,7,4.6,9
						c1.2,0.7,2.4,0.7,3.1-0.5C301.8,356.1,302.6,353.8,301.5,353z"/>
					<path class="st0" d="M293.5,345.3c-0.7-0.5-1.1-0.9-1.6-1.6c0.8,1.5,1.6,3,2.4,4.5c-0.5-1.2-1.1-2.3-1.6-3.5
						c0.7,1.8,1.4,3.6,2.1,5.4c-1.3-3.9-1.6-7.3-1.4-11.3c0.4-8.2,2.2-16.5,4-24.5c-0.3,0.8-0.5,1.5-0.8,2.3c1-2,1.8-4,2.4-6.1
						c1.5-4.7,2.6-9.5,3.7-14.2c1.9-7.9,3.6-15.7,5.4-23.6c1.5-6.8,3.1-13.5,3.6-20.5c1.1-14.2-2.1-28.4-9.8-40.5
						c-9.3-14.6-25.2-24-41.9-27.6c-16.1-3.5-32.9-1.1-47.7,6c-9.8,4.7-19.4,11.5-25.7,20.5c-3.2,4.5-5.7,9.9-5.6,15.5
						c0,2.6,0.5,5.2,1.3,7.7c2.4,7.3,7.9,14,14.9,17.4c-0.5-0.3-0.9-0.5-1.4-0.8c0.9,0.9,1.9,1.9,2.6,2.9c1.2,1.8,1.1,3.8,0.9,5.8
						c-0.7,6-1.5,11.9-2.7,17.8c-0.5,2.6-1.1,5.1-1.7,7.7c-0.3,0.3-0.5,0.7-0.6,1.2c-0.4,1-0.7,2.1-1,3.1
						c-1.9,6.3-3.1,12.8-4.4,19.3c-1.5,7.3-3,14.7-4.5,22c-0.8,4-1.6,8-2.1,12c-1,8-0.8,15.9,0.6,23.9c0.8,4.3,2.2,9.1,4.1,13.1
						c1.9,3.9,3.4,7.4,6.1,10.9c4.1,5.5,9.1,10.3,14.6,14.3c2.2,1.7,4.5,3.2,7,4.6c2.2,1,4.5,1.9,6.9,2.6c3.6,1.1,7.2,2,10.8,2.7
						c4.2,0.7,8.7,0.8,13,1c1.3,0,2.6,0.1,4,0.2c1.9-0.1,3.7-0.3,5.6-0.4c3.8-0.4,7.6-1.1,11.2-2.1c10-2.8,19.5-7.2,27.8-13.5
						c7.1-5.4,13.6-11.9,17.2-20.2c2.3-5.2,2.3-11.5,0-16.7c-1.2-2.8-2.8-5.6-4.9-7.8c-2.3-2.5-5-4.4-7.6-6.4
						c-1.1-0.8-2.6-0.4-2.9,1c0.1,1.2,0.3,2.3,0.8,3.4c0.3,1.1,0.9,2.1,1.5,3.1c1.3,1,2.4,1.6,3.8,2.5c-0.2-0.2-0.5-0.3-0.7-0.5
						c2.9,2.2,5.7,5,7.3,8.4c0.7,1.4,1,3,0.9,4.6c0.4,1.9,0.2,3.7-0.4,5.5c-1.1,3.3-3,6.4-5.1,9.1c-4.9,6.6-11.3,11.9-18.2,16.3
						c-8.3,5.3-18,9.5-27.9,10.8c-1.8,0.2-4,0.5-5.8,0.6c-11.2,1-20.5,0.8-30.3-3.2c-1.4-0.6-2.7-1.2-4.1-1.8
						c-3.7-1.6-7-3.8-9.8-6.7c-6.9-4.6-11.9-10.8-15-18.8c-0.7-1.9-1.4-3.7-2.1-5.6c-1.1-5.9-2.2-11.8-3.3-17.7
						c-0.2-3.2-0.1-6.4,0.2-9.7c0.2-3.7,0.5-6.4,1.2-10.3c0.8-4.4,1.7-8.8,2.6-13.1c2.3-11.8,4.7-23.5,7-35.3
						c1.9-10,4.3-19.9,4.3-30.2c0-3.6-0.8-7.2-3.5-9.7c-3.9-3.6-7.7-6.6-9.2-11.9c-0.5-1.6-0.7-3.2-0.8-4.9c0-2,0.2-4.4,0.8-6.4
						c1-3.3,2.8-6,4.8-8.9c-0.2,0.2-0.4,0.5-0.6,0.7c1.1-1.3,2.2-2.6,3.3-3.9c-0.2,0.2-0.5,0.5-0.7,0.7c1.3-1.3,2.5-2.5,3.8-3.8
						c-0.2,0.2-0.5,0.4-0.7,0.7c1.4-1.2,2.9-2.4,4.3-3.7c-0.3,0.2-0.5,0.4-0.8,0.6c1.6-1.2,3.1-2.3,4.7-3.5
						c-0.3,0.2-0.5,0.4-0.8,0.6c6-3.8,12.1-7.2,18.9-9.5c6.2-2.2,12.6-3.5,19.1-4.1c2.9-0.4,5.8-0.5,8.7-0.3
						c4.1,0.2,8.2,0.9,12.1,2.1c4,0.9,7.8,2.2,11.5,3.9c3.6,1.6,6.9,3.6,10,6c-0.2-0.2-0.5-0.4-0.7-0.6c3.8,3.1,7.5,6.1,10.3,10.2
						c2.1,3.1,4,6.2,5.6,9.6c1.3,2.6,2.3,5.3,3.1,8.1c0.7,5.7,1.4,11.5,2,17.2c-0.2,2.1-0.3,4.3-0.5,6.4c-0.3,1.9-0.6,3.9-0.8,5.8
						c-2.1,9-3.9,18.1-6,27.1c-1.1,4.7-2.1,9.3-3.3,13.9c-0.7,2.5-1.2,5.1-2.2,7.4c-0.4,0.9-0.9,1.7-1.1,2.6
						c-0.8,3.4-1.6,6.9-2.3,10.4c-0.9,4.7-1.7,9.4-2.3,14.1c-0.3,2.4-0.6,5.2-0.1,7.6c0.5,2.2,1.3,4.4,2.3,6.4
						c0.9,1.8,2,3.3,3.6,4.5c0.5,0.7,1.2,0.9,2,0.6c0.7-0.4,1-1.1,0.9-1.9c-0.4-1.7-1-3.3-1.8-4.9
						C295.3,348.2,294.5,346.7,293.5,345.3z"/>
					<path class="st0" d="M297.7,354.5c-1-0.9-1.6-1.8-1.8-3.2c-0.4-3.8,0.4-7.8,0.9-11.5c0.4-3.4,1.1-6.8,1.6-10.2
						c0.5-2.8,0.8-5.8,1.8-8.5c1.7-4.5,2.8-9.1,3.9-13.8c2.3-9.8,4.5-19.5,6.6-29.3c1.9-8.9,3.7-17.9,3.2-27c-0.3-4.4-0.8-8.7-2-13
						c-1.1-4-2.5-7.7-4.2-11.5c-2.5-5.7-6.3-11.4-10.8-15.6c-6.4-6-13.9-11-22.1-14.2c-8.7-3.3-17.9-5.3-27.2-4.7
						c-16.2,1-31.5,6.9-44.5,16.4c-9.9,7.2-20.2,18.5-18.8,31.6c0.6,5.4,2.7,10.4,6.4,14.3c1.8,2,3.9,3.7,6.1,5.2
						c1.2,0.8,2.4,1.6,3.4,2.7c-0.2-0.3-0.5-0.6-0.7-1c0.8,1.2,1.2,2.1,1.6,3.6c-0.1-0.7-0.2-1.5-0.3-2.2c0.1,1.2,0.3,2.4,0.4,3.6
						c-0.1-0.7-0.1-1.5-0.2-2.2c0.1,1.3,0.1,2.5,0.2,3.8c0-0.7,0-1.4,0-2.2c0,1.4,0,2.7,0,4.1c0-0.7,0.1-1.4,0.1-2.2
						c-0.1,1.5-0.2,2.9-0.3,4.4c0.1-0.7,0.2-1.4,0.3-2.1c-0.2,1.6-0.4,3.2-0.6,4.7c0.1-0.7,0.2-1.4,0.3-2.1
						c-1.3,7.6-2.9,15.1-4.7,22.6c0.6-1.4,1.2-2.8,1.8-4.2c-1.7,3.2-2.9,6.4-3.8,9.9c-0.8,3.1-1.5,6.3-2.2,9.4
						c-1.9,8.8-3.6,17.6-5.4,26.4c-1.2,6.2-2.7,12.4-3.2,18.7c-0.9,12.4,0.5,24.7,5.8,36.1c5.4,11.5,14.4,20.7,25.7,26.4
						c5.7,2.9,11.8,4.9,18.1,5.9c4.1,0.7,8.2,1,12.4,0.9c2.4-0.1,4.9-0.2,7.2-1c-0.3,0.1-0.6,0.2-0.9,0.2c6-0.6,11.7-1.4,17.4-3.2
						c5.3-1.7,10.5-4,15.3-6.7c9.9-5.6,19.7-13.5,25.3-23.5c3.3-5.8,4.9-12.4,2.9-18.9c-0.6-1.9-1.1-3.6-2.1-5.4
						c-2.3-3.9-5.6-6.6-9.4-8.9c-0.2-0.1-0.4-0.1-0.6,0.1c-0.2,0.2,0.6,0.9,0.6,0.9c0.7,0.5,1.3,1,2,1.5c-0.7-0.5-1.3-1-2-1.5
						c2.7,3.1,5.4,6.2,8.1,9.3c-0.4-0.7-0.7-1.5-1.1-2.2c1.8,4.4,2.2,8.8,1.1,13.2c-1.6,4.5-4,8.5-7.3,12c-4,4.5-8.9,8.3-14.1,11.5
						c1.1-0.7-29.5,13.9-41.3,11.9c-2.4-0.4-4.8-0.5-7.1-0.8c-9.1-1.3-18.2-4.6-25.8-9.9c-2.6-1.9-5.1-3.9-7.5-6
						c-2.7-2.3-4.8-5-6.5-8c-2.1-3.1-3.8-6.5-5.2-10c-1.5-3.7-2.7-7.6-3.4-11.5c0,0.4,0.1,0.7,0.1,1.1c-0.3-2.4-0.5-4.7-0.8-7.1
						c0,0.4,0.1,0.7,0.1,1.1c-0.1-6.6,0-13.1,1.1-19.5c0.2-1.1,0.4-2.2,0.6-3.3c1.3-6.5,2.6-12.9,3.9-19.4
						c1.5-7.4,2.9-14.9,4.6-22.3c1.6-6.7,3.4-13.3,4.5-20.2c1-6.6,2.2-13.5,0.3-20c-0.9-2.9-2.2-5.9-4.4-8c-0.8-0.7-1.7-1.1-2.5-1.8
						c-0.2-0.3-0.5-0.6-0.7-0.9c-1-0.6-1.9-1.4-2.7-2.3c-1.5-1.5-2.7-3.4-3.7-5.3c-1.1-2.4-1.2-4.8-1.2-7.4c0,0.3,0,0.6,0,0.8
						c0.1-2,0.7-3.9,1.5-5.6c0.8-1.8,1.8-3.5,3-5c2.6-3.7,5.7-6.8,9.1-9.7c11.5-9.6,26.7-16,41.7-17.4c8.2-0.8,17.7-0.1,25.4,2
						c21.3,6,35.7,23.1,39.1,45.1c1,6.4,0.8,12.8,0.1,19.2c-0.6,5.8-2.1,11.5-3.3,17.2c-2.5,11.3-4.6,22.8-7.7,34
						c-0.5,1.7-0.8,3.6-1.6,5.1c-0.2,0.2-0.3,0.5-0.5,0.8c-0.9,3.6-1.7,7.3-2.5,11c-0.8,3.8-1.6,7.6-2.2,11.4
						c-0.4,2.6-0.9,5.2-1,7.9c-0.1,2.6,0.1,5.8,2.4,7.5C294.9,356.8,298,354.8,297.7,354.5z"/>
					<path class="st0" d="M294.4,352.8c-1.1-0.8-1.4-2.6-1.6-3.9c-0.8-5.4,0.1-10.9,1-16.3c0.7-4.3,1.7-8.5,2.8-12.7
						c0.6-2.3,1.4-4.1,2.2-6.3c2.1-5.8,3.3-12.1,4.7-18.1c1.7-7.3,3.3-14.7,4.9-22c1.2-5.7,2.4-11.3,2.9-17.2
						c0.3-4.4,0.3-8.7-0.2-13.1c-1-9.5-4.4-18.4-9.4-26.5c-3.5-5.6-8.2-10.3-13.4-14.1c-8.2-6.1-17.6-9.7-27.5-11.7
						c-9.7-2-19.7-1.8-29.5,0.2c-13.9,2.8-27.3,9.1-38.3,18.1c-3.3,2.7-6.3,5.8-8.8,9.2c-2.1,2.8-4.3,6-5.2,9.5
						c-0.4,1.4-0.7,3-0.8,4.5c-0.2,2.8,0.4,5.4,1.4,8c1.8,4.3,4.9,8,8.7,10.6c1.6,1.1,3.3,2.1,5,2.9c0.8,0.1,1.4,0.5,2,1
						c0.6,0.4,1.1,0.9,1.4,1.5c-0.1-0.3-0.3-0.5-0.4-0.8c1.5,3.2,1.5,6.9,1,10.4c-1.1,8.6-3.5,17-5.8,25.3c0.1-0.4,0.3-0.7,0.4-1.1
						c-1.1,1.3-1.7,3.2-2.2,4.8c-0.7,2.2-1.3,4.5-1.8,6.8c-1.5,6.1-2.8,12.3-4.1,18.5c-1.3,6.3-2.6,12.7-3.9,19
						c-0.8,4.2-1.6,8.3-1.9,12.6c-0.7,9.1,0.4,17.9,3.2,26.5c3.4,10.6,10.6,19.7,19.5,26.4c11.6,8.7,26.1,13.2,40.5,13.7
						c6,0.2,11.8-0.2,17.7-1.4c5.5-1.1,10.9-2.7,16.1-4.8c11.5-4.6,23.4-12.5,30.4-22.9c3.1-4.7,5.4-9.5,5.6-15.2
						c0.1-2.3-0.3-4.6-0.8-6.8c-0.7-2.8-2.4-5.9-4.4-8c-2.1-2.3-4.7-4-7.2-5.8c-0.9-0.6-2.5,0.2-3,1.1c-0.5,1,0.3,2.1,1.3,2.5
						c2.9,1.5,5,2.8,7.5,5.2c2.3,2.3,3.7,4.6,5.4,7.4c-0.4-0.7-0.8-1.5-1.2-2.2c0.6,1.9,1.1,3.8,1.7,5.7c-0.2-1-0.3-2.1-0.5-3.1
						c0,2.1,0,4.2,0.1,6.3c0.1-0.8,0.2-1.6,0.2-2.5c-1.3,3.9-2.5,7.9-3.8,11.8c0.3-0.5,0.5-0.9,0.8-1.4
						c-5.6,8.6-12.8,15.4-21.8,20.3c-1.6,0.8-3.2,1.7-4.7,2.5c-4.8,2.4-10.2,4.2-15.4,5.5c-7.3,1.7-15.1,2.4-22.6,1.5
						c-9.6-1.2-19.2-4.3-27.3-9.7c-3.3-2.2-6.3-4.6-9.2-7.3c-3.2-2.9-5.9-6.3-8.2-10.1c-2-3.2-3.7-6.7-4.9-10.3
						c0.1,0.3,0.2,0.6,0.3,0.9c-0.7-2.3-1.4-4.5-2.2-6.8c0.1,0.3,0.2,0.6,0.3,0.9c-1.1-4-1.8-8.1-2-12.2c0-2.1-0.1-4.2-0.1-6.3
						c0-4.4,0.5-9.1,1.3-13.5c0.9-5,2-9.9,3-14.9c2.5-12.5,4.6-25.1,7.7-37.5c1.7-6.7,2.6-13.5,3.1-20.4c0.2-3,0.3-5.8-0.4-8.8
						c-0.5-2-1.1-4-2-5.8c-0.6-1.3-1.4-2.6-2.4-3.6c-0.7-0.8-1.6-1.4-2.4-2.1c-1.3-1.2-2.6-2.6-3.7-4.1c-1.5-2-2.5-4.3-3.2-6.7
						c0.1,0.3,0.1,0.6,0.2,1c-0.1-1-0.3-2-0.4-3c0,0.3,0,0.6,0.1,1c0-1.1,0-2.2,0-3.3c0,0.3,0,0.7,0,1c0.1-1.2,0.2-2.3,0.3-3.5
						c0,0.3-0.1,0.6-0.1,1c0.2-0.9,0.5-1.8,0.7-2.7c0.6-1.6,1.4-3.1,2.3-4.5c1.8-2.9,4-5.6,6.5-8c6.1-5.8,13.1-10,20.6-13.7
						c-0.3,0.1-0.6,0.3-0.9,0.4c2-0.8,3.9-1.6,5.9-2.4c-0.3,0.1-0.6,0.2-0.9,0.3c7-2.4,14.2-4.4,21.6-4.9c6.1-0.4,12,0.1,17.9,1.5
						c5.9,1.3,11.5,3.3,16.8,6.1c8.3,4.4,15.5,11.5,20,19.8c5.9,11.1,7.8,23.3,6.6,35.7c-0.6,6.9-2.6,13.8-4.1,20.5
						c-1.3,5.9-2.6,11.8-4,17.6c-1.5,6.5-2.7,13.6-5.9,19.5c-0.1,0.2-0.2,0.4-0.3,0.6c-0.9,3.8-1.8,7.5-2.5,11.4
						c-0.8,4-1.5,7.9-2,12c-0.4,3.7-0.8,7.8,0.1,11.5c0.6,2.5,2.3,4.5,4.4,6.1c1.1,0.8,2.4,0.5,3-0.8
						C297,355.2,295.4,353.5,294.4,352.8z"/>
				</g>
				<g>
					<path class="st0" d="M273.6,269.5c-3.3,14.9-6.4,29.8-9.6,44.6c-0.6,2.6-1.3,5.3-1.7,7.9c-1.8,11.7-3.1,23.7-1.1,35.5
						c0.9,5.3,2.4,10.5,5.1,15.2c2.2,3.9,5.2,7,8.4,10.1c0.6-3,1.3-6.1,1.9-9.1c-1.4,1.7-3.1,3.1-4.9,4.3c0.4-0.3,0.9-0.6,1.3-0.9
						c-2.6,1.8-5.2,3.5-7.9,5.3c1.3-0.8,2.6-1.5,3.9-2.3c-6.1,1.6-12.1,3.2-18.2,4.9c1.4-0.2,2.8-0.3,4.2-0.5
						c-2.9,0.2-5.8,0.3-8.7,0.5c1.4,0,2.8,0,4.3,0c-2.8-0.2-5.6-0.3-8.4-0.5c1.4,0.2,2.8,0.4,4.2,0.5c-4.4-1-8.8-2-13.2-3.1
						c1.3,0.5,2.5,1,3.8,1.4c-2.5-1.1-5-2.2-7.6-3.4c1.2,0.6,2.3,1.2,3.5,1.8c-12.6-10.1-17.4-21.6-14.3-34.4
						c-0.1-2.5,0.4-4.9,1.4-7.1c0.6-1.6,1.1-3.3,1.6-4.9c1.8-6.1,3.2-12.4,4.6-18.6c1.3-6.1,2.6-12.2,3.9-18.3
						c0.7-3.5,1.3-7,2.2-10.4c0.8-3.1,1.3-7.1,1.7-10.5c0.7-5,1.1-9.9,1.1-14.9c0-4.7-0.3-9.5-1.1-14.2c-0.6-3.3-1.5-6.6-2.9-9.7
						c-2-4.5-4.8-8.2-7.9-11.9c-0.3,2-0.7,4-1,6c3.2-2.4,6.6-4.5,9.9-6.7c-0.8,0.5-1.7,0.9-2.5,1.4c4.5-2.3,9.2-3.6,14.2-4
						c2.6-0.4,5.3-0.5,8-0.3c-0.4,0-0.8,0-1.1,0c1.8,0.2,3.6,0.5,5.3,0.7c-0.4-0.1-0.8-0.1-1.2-0.2c2,0.5,4,0.9,6,1.4
						c-0.4-0.1-0.8-0.3-1.1-0.4c1.8,0.7,3.7,1.4,5.5,2.1c-0.4-0.2-0.7-0.4-1.1-0.6c1.6,0.9,3.3,1.8,4.9,2.8c-0.3-0.3-0.7-0.5-1-0.8
						c1.4,1.1,2.9,2.3,4.3,3.4c-0.3-0.3-0.6-0.6-1-0.9c1.2,1.3,2.4,2.6,3.6,3.9c-0.3-0.4-0.6-0.7-0.8-1.1c1,1.5,2,3,2.9,4.5
						c-0.2-0.4-0.5-0.8-0.7-1.2c0.7,1.6,1.5,3.3,2.2,4.9c-0.2-0.5-0.4-0.9-0.5-1.4c0.5,1.8,1,3.6,1.5,5.4c-0.1-0.5-0.2-1-0.3-1.5
						c0.3,1.9,0.5,3.8,0.8,5.8c0-0.5-0.1-1-0.1-1.5c0,2,0.1,4.1,0.1,6.1c0-0.5,0-1.1,0.1-1.6c-0.2,2.1-0.4,4.3-0.6,6.4
						c0.1-0.5,0.2-1.1,0.2-1.6c-0.4,2.2-0.9,4.5-1.3,6.7c0.1-0.5,0.3-1.1,0.4-1.6c-0.7,2.3-1.3,4.6-2,6.9c-0.5,1.6,1.6,2.3,2.7,1.6
						c1-1,1.8-2,2.4-3.2c0.8-1.1,1.3-2.4,1.7-3.6c0.9-5.5,1.8-11.1,1.1-16.7c-0.5-4-1.4-7.9-3.2-11.6c-3.6-7.6-10.4-13.6-18.5-16
						c-4.2-1.2-8.6-1.8-13-1.8c-2.5,0-4.9,0.3-7.4,0.6c-3.3,0.5-6.4,1.6-9.5,2.7c-4.1,1.4-7.9,3.1-12.2,4.2c-1,0.3-1.1,1.6-1.2,2.4
						c-0.1,0.9-0.4,2.8,0.1,3.6c1,1.5,2.1,2.9,3.2,4.3c-0.1-0.2-0.3-0.5-0.4-0.7c0.6,1,1.3,2.1,1.9,3.1c-0.1-0.2-0.3-0.5-0.4-0.7
						c0.6,1.1,1.2,2.3,1.7,3.4c-0.1-0.3-0.2-0.5-0.3-0.8c0.5,1.2,0.9,2.4,1.4,3.6c-0.1-0.3-0.2-0.5-0.3-0.8c0.4,1.3,0.8,2.7,1.1,4
						c-0.1-0.3-0.1-0.5-0.2-0.8c0.3,1.5,0.6,2.9,0.9,4.4c-0.1-0.3-0.1-0.5-0.2-0.8c0.2,1.6,0.4,3.2,0.6,4.8c0-0.3-0.1-0.5-0.1-0.8
						c0.5,7,0.4,14-0.4,20.9c-0.4,4-1.2,10.4-2.3,14.2c-0.5,1.8-0.9,3.6-1.2,5.5c-0.9,4.4-1.8,8.7-2.7,13.1
						c-1.8,8.8-3.8,17.6-5.6,26.4c-0.6,2.8-1.1,5.6-1.8,8.4c-0.3,2-0.5,3.9-0.8,5.9c-0.3,2.6-0.3,5.2-0.3,7.7
						c0.2,7.3,2,15.5,7.2,21.1c3.5,3.9,7.9,6.7,12.8,8.6c5.3,2,11.2,2.8,16.8,2.4c3.8-0.2,7.4-0.8,11.1-1.6
						c4.9-1.1,9.7-2.8,14.6-3.8c1.4-0.3,2.2-3.8,2.4-4.6c0.4-1.5,1.3-3.7,0.4-5.2c-1.9-2.9-4.2-5.4-5.6-8.6
						c-1.4-3.1-2.3-6.3-2.9-9.6c-0.8-4.4-1-8.8-1-13.2c-0.1-8.6,0.8-17.1,2.1-25.6c-0.1,0.4-0.2,0.7-0.3,1.1c1-2.3,1.4-4.9,1.9-7.3
						c1.3-5.7,2.5-11.5,3.6-17.2c1.8-9.4,4-18.7,6.5-28c0-0.7-0.4-1.2-1-1.5c-1-0.2-2,0-2.8,0.7c-1.5,0.9-3,1.8-4.4,2.9
						C274.4,267.7,273.8,268.5,273.6,269.5z"/>
					<path class="st0" d="M276,265.3c-3.2,13.5-5.9,27.2-8.9,40.7c-0.9,3.9-1.8,7.8-2.6,11.7c-1.3,6.5-1.8,13.3-2,19.9
						c-0.2,6.5,0.1,13.4,1.7,19.8c0.9,3.7,2.1,7.4,3.9,10.8c1.9,3.6,4.5,6.6,7.2,9.7c0.3-1.2,0.6-2.5,1-3.7c-2.8,2.2-6,4.1-9.3,5.3
						c-3.6,0.9-7.2,1.7-10.9,2.6c-2.4,0.4-4.8,0.4-7.3,0.3c-3.8-0.2-8-0.9-11.7-2.2c-1.5-0.6-3-1.2-4.5-1.8c-2.7-1.3-5.1-3-7.2-5
						c0.4,0.4,0.8,0.9,1.2,1.3c-1.3-1.5-2.6-2.9-3.9-4.4c0.4,0.5,0.7,1,1.1,1.4c-1.1-1.6-2.1-3.3-3.2-4.9c0.3,0.5,0.6,1.1,1,1.6
						c-0.3-10.5-0.7-20.9-1-31.4c-0.5,1.6-1.1,3.3-1.6,4.9c1.7-4.2,3.4-8.4,4.8-12.8c1.6-5,2.8-10.1,4-15.2c2.3-9.8,4-19.6,6.3-29.4
						c2.4-10.5,3.7-21.6,3-32.3c-0.4-6-1.3-12-3.6-17.5c-2.2-5.5-5.7-10-9.8-14.2c-0.4,3.9-0.9,7.8-1.3,11.7
						c1.1-1.3,2.4-2.4,3.8-3.2c1.7-1.1,3.3-2.3,4.9-3.5c-0.4,0.3-0.8,0.5-1.2,0.8c3.5-1.4,7.2-2.5,10.9-3.3
						c-0.4,0.1-0.8,0.2-1.2,0.3c2-0.3,3.9-0.7,5.9-1c-0.4,0-0.8,0.1-1.2,0.1c3.2-0.4,6.4-0.5,9.7-0.3c3.2,0.4,6.3,1.1,9.3,2.2
						c11.9,5.9,17.7,14.6,17.4,26.3c0,5.3-0.8,10.5-2.4,15.6c-0.2,1,1.6,2.1,2.4,2c1.1-0.2,2.3-1.9,2.5-3c1.6-8.2,2.5-16.7,0.1-24.9
						c-1.4-5-4-9.4-7.7-13.1c-3.7-3.8-8.7-6.4-13.8-7.9c-2.8-0.8-5.7-1.5-8.6-1.7c-3.3-0.2-6.6-0.2-10,0c-6.8,0.5-13.4,3-20.3,2.5
						c-2.2-0.1-2.2,3.1-2.4,4.5c-0.3,2.3-1.1,5.3,0.2,7.4c1.8,3,4.1,5.6,5.6,8.9c1.9,4.4,2.7,9.1,3.2,13.8c0-0.4,0-0.7-0.1-1.1
						c0.1,1.8,0.2,3.7,0.3,5.5c0-0.4,0-0.7,0-1.1c0,5.5-0.1,11-0.7,16.4c-0.4,3.4-0.9,6.7-1.5,10.1c0,1.3-0.2,2.5-0.6,3.7
						c-0.9,3.4-1.5,6.8-2.2,10.3c-2.8,13.6-5.5,27.2-8.6,40.7c0.9-2.1,1.9-4.2,2.8-6.3c-1.8,2.2-2.7,4.9-3.3,7.7
						c-1.2,5.3-1.8,11.1-1.2,16.5c0.6,6.1,2.2,11.9,5.6,17.1c2.9,4.3,6.8,7.8,11.6,10c4.7,2.1,9.6,3.1,14.8,3.5
						c5,0.4,9.7-0.2,14.5-1.4c3.3-1,6.5-2.2,9.5-3.7c1.4-0.6,2.6-1.4,3.7-2.4c-0.7,0.4-1.5,0.8-2.2,1.2c2.2-0.8,4.4-1.7,6.4-2.8
						c0.7-0.3,1.5-3,1-3.7c-2.5-2.9-4.9-5.7-6.5-9.2c-1.4-3.1-2.4-6.4-3.1-9.7c-2.6-12.9-1-26.5,1.2-39.3c-0.1,0.3-0.1,0.5-0.2,0.8
						c0.1-0.4,0.2-0.8,0.3-1.2c-0.1,0.3-0.1,0.5-0.2,0.8c1.3-4.3,2.1-8.9,3.1-13.3c1.2-5.4,2.1-10.8,3.3-16.2
						c1.6-7.3,3.3-14.5,5-21.8c0.4-1.5-0.8-2.4-2.1-2.4C278.8,263.4,276.4,263.8,276,265.3z"/>
					<path class="st0" d="M277.6,271.4c-3.3,14.9-6.4,29.8-9.6,44.7c-0.6,2.6-1.2,5.2-1.7,7.9c-2,12.1-2.8,24.2-1,36.4
						c0.8,5.4,2.6,10.8,5.3,15.6c2.3,4.1,5.4,7.4,8.7,10.8c-0.4-2.4-0.8-4.9-1.2-7.3c-5.9,5.4-13.1,8.2-21.5,8.5c-1.7,0-3.5,0-5.2,0
						c-6.7-0.2-13.3-2.6-18.7-6.5c-3-2.1-5.4-4.6-7.2-7.8c-2.6-4.4-3.7-9.6-3.6-14.6c0-4,0.4-8,1.2-12c0.7-2.7,1.7-5.3,2.9-7.7
						c1.2-2.8,2.1-5.7,2.9-8.6c2.2-7.3,3.8-14.8,5.5-22.2c2.8-12.8,6.1-25.7,6.8-38.9c0.4-6.9,0-14-1.5-20.8
						c-1.8-8-5.9-14.9-11.4-20.7c-0.3,0.8-0.6,1.7-1,2.5c5.4-1.9,11-3.3,16.7-4c-0.4,0-0.8,0.1-1.2,0.1c3-0.4,6-0.5,9-0.4
						c2.5-0.1,5,0.2,7.4,0.6c-0.5-0.1-1.1-0.3-1.6-0.4c2,0.5,4,1,6.1,1.5c-0.6-0.2-1.1-0.4-1.7-0.5c2.2,0.7,4.4,1.4,6.6,2.2
						c-0.6-0.2-1.1-0.5-1.7-0.7c2,0.9,4.1,1.9,6.1,2.8c-0.6-0.3-1.1-0.6-1.7-0.9c1.8,1.1,3.6,2.3,5.4,3.4c-1.3-0.9-2.6-1.9-3.8-2.8
						c1.8,1.5,3.5,3,5.3,4.5c-1.3-1.3-2.6-2.7-3.9-4c2.2,2.4,4.3,4.7,6.5,7.1c-1.2-1.4-2.4-2.8-3.6-4.2c1.4,2.3,2.8,4.6,4.1,6.8
						c-0.2-0.6-0.4-1.1-0.6-1.7c0.6,1.9,1.3,3.8,1.9,5.6c-0.1-0.5-0.3-1.1-0.4-1.6c0.4,2,0.7,4,1.1,6c-0.1-0.5-0.2-1-0.2-1.5
						c0.1,2.1,0.3,4.1,0.4,6.2c0-0.5,0-1-0.1-1.4c-0.1,2.1-0.2,4.3-0.3,6.4c0-0.4,0.1-0.9,0.1-1.3c-0.3,2.2-0.6,4.4-0.9,6.6
						c0.1-0.4,0.1-0.8,0.2-1.2c-0.5,2.2-0.9,4.4-1.4,6.6c-0.3,1.2-0.5,3.9,0.9,4.6c0.6,0.2,1.2,0.2,1.8,0c0.6-0.3,1-0.8,1-1.5
						c1.9-6.2,3.6-12.5,3.7-19c0.1-4.1-0.4-8.5-2-12.3c-2.1-4.8-5.5-9.3-9.6-12.6c-1.6-1.3-3.5-2.5-5.3-3.6
						c-2.8-1.6-5.7-2.7-8.8-3.4c-3.1-0.7-6.2-1.1-9.4-1.4c-4.9-0.1-9.8,0.6-14.5,1.7c-4.4,1.1-8.7,2.5-12.8,4.2
						c-1.1,0.5-1.8,1.5-1,2.5c9.9,12.1,10.7,30.9,8.7,46c-0.3,2.2-0.6,4.3-0.9,6.5c0,2.7-0.5,5.2-1.3,7.7c-0.8,2.7-1.2,5.5-1.8,8.3
						c-2.5,12.5-5,25.1-7.7,37.6c-0.4,1.9-0.9,3.4-1.5,5.2c-0.3,1.7-0.7,3.3-1,5c-0.5,2.4-0.8,4.8-0.9,7.2
						c-0.3,3.7-0.3,7.2,0.1,10.8c0.5,4.4,1.5,9.2,4,13c4.8,7.2,12.7,11.4,21,13.3c2.4,0.4,4.9,0.6,7.4,0.7c2.7,0.2,5.3,0.2,8,0
						c1.8-0.2,3.6-0.5,5.4-0.7c5.2-0.9,10.4-1.9,15.6-2.9c1.4,0.1,2.3-0.5,2.2-2c-0.1-1.7-0.5-4.4-1.6-5.8c-2.4-2.8-5-5.3-6.8-8.5
						c-1.7-3-2.9-6.4-3.7-9.7c-2.2-8.8-1.9-18.3-1-27.3c0.4-3.7,0.7-7.3,1.5-11c3.7-17.3,7.3-34.6,11.2-51.9c0.3-1.2-1.2-1.9-2.2-2
						C278.3,269,277.8,270.4,277.6,271.4z"/>
					<path class="st0" d="M278,267.9c-3.3,14.8-6.3,29.6-9.6,44.4c-0.6,2.6-1.2,5.2-1.7,7.8c-2.3,11.8-3,24.4-1.2,36.3
						c0.8,5.3,2.4,10.7,5,15.4c2.2,4,5.2,7.2,8.3,10.5c-0.3-1.7-0.6-3.4-0.9-5.1c-6.9,5.2-15.3,7-23.9,7.3
						c-5.2,0.2-10.3-0.6-15.2-2.4c-2-0.6-3.9-1.5-5.8-2.6c-7.3-5.5-11.1-12.3-11.5-20.4c-0.4-6.9,1.2-13.5,3.1-20
						c-0.3,0.4-0.5,0.8-0.8,1.2c1-1.3,1.9-2.6,2.6-4c1.2-2.4,2-5,2.8-7.5c1.8-5.4,3.1-10.8,4.4-16.3c2.1-8.7,3.7-17.6,5.9-26.3
						c1.2-4.6,1.8-9.5,2.3-14.3c0.9-7.8,0.9-15.9-0.7-23.6c-0.7-3.6-1.8-7.2-3.4-10.6c-2.5-5.2-6.1-9.4-10.4-13.1
						c-0.9,2.4-1.7,4.8-2.6,7.2c1.5-1.2,3-2.4,4.5-3.7c-0.9,0.6-1.8,1.3-2.8,1.9c14.7-0.9,29.4-1.8,44-2.7c-1.5-0.7-3.1-1.3-4.6-2
						c3.4,2.3,6.9,4.7,10.3,7c-0.3-0.4-0.7-0.8-1-1.2c1.1,1.5,2.3,2.9,3.4,4.4c-0.3-0.4-0.6-0.8-0.8-1.2c0.9,1.6,1.8,3.2,2.7,4.8
						c-0.2-0.4-0.4-0.8-0.6-1.2c0.7,1.7,1.3,3.4,2,5.1c-0.1-0.4-0.3-0.8-0.4-1.2c0.4,1.8,0.8,3.7,1.2,5.5c-0.1-0.4-0.1-0.8-0.2-1.1
						c0.7,7.2,0.2,14.3-1.6,21.2c-0.2,1.1-0.4,2.8,0.9,3.3c1.1,0.4,2.5,0.2,2.8-1c2.6-10.5,5.2-22.3,0.6-32.7
						c-2.8-6.2-8.2-10.8-14.2-13.6c-5.5-2.6-11.9-4.2-18-4.3c-9.4-0.3-18.5,2.7-27.3,5.5c-0.3,0.3-0.7,0.7-1,1
						c-0.6,0.8-1.1,1.6-1.6,2.5c-0.4,0.7-1.3,2.2-0.7,3.1c3.5,4.6,6.1,9.7,7.7,15.4c0.6,2.5,1,5.1,1.3,7.7c0.5,5,0.4,10.1,0.1,15
						c-0.2,4.2-0.7,8.5-1.4,12.6c0.3,2.7-0.1,5.3-1.2,7.6c-0.4,1.1-0.6,1.9-0.9,3.2c-3,15.5-6.4,30.9-9.5,46.4
						c0.1-0.3,0.1-0.6,0.2-1c-1,3.8-1.9,7.5-2.2,11.5c-0.4,5-0.2,9.8,1,14.7c1.6,6.3,4.8,12,9.9,16c6.2,4.8,13.8,7.3,21.6,8.1
						c3.6,0.4,7.3,0.1,10.9-0.4c3.8-0.5,7.5-1.3,11.2-2.4c3-1.5,6.1-2.6,9.4-3.1c2.6-0.4,0.8-4.5-0.1-5.5c-2.4-2.7-4.8-5.3-6.6-8.5
						c-1.7-3-2.8-6.4-3.6-9.7c-2.2-8.9-1.8-18.5-0.9-27.6c0.4-3.7,0.8-7.4,1.5-11.1c3.6-17.1,7.3-34.2,11.1-51.3
						c0.2-1-1-1.9-1.9-2.2C279,266.4,278.2,267,278,267.9z"/>
					<path class="st0" d="M271.4,264.2c-3.3,14.8-6.3,29.7-9.6,44.5c-0.9,3.9-1.7,7.6-2.3,11.6c-1.8,12.9-2.6,26.6,1.2,39.2
						c2.2,7.2,6,13.6,11.3,18.9c0-0.6,0-1.1,0-1.7c-7.6,1.6-15.4,3.5-23.2,3.6c-2.5,0.1-4.9,0-7.4-0.5c-3.2-0.6-6.4-1.5-9.5-2.6
						c0.5,0.2,1.1,0.5,1.6,0.7c-2-0.9-4-1.8-6.1-2.8c0.5,0.3,1.1,0.6,1.6,0.9c-1.8-1.1-3.6-2.2-5.4-3.4c0.5,0.4,1.1,0.7,1.6,1.1
						c-2-1.9-3.9-3.8-5.9-5.7c1.1,1.5,2.3,2.9,3.4,4.4c-1.9-3.5-3.7-7.1-5.6-10.6c0.1,0.6,0.3,1.1,0.4,1.7c-0.4-2-0.8-4-1.2-6
						c0.1,0.5,0.1,1.1,0.2,1.6c-0.2-2.1-0.4-4.1-0.5-6.2c0,0.5,0,1,0.1,1.5c0.1-2.2,0.1-4.3,0.2-6.5c0,0.5-0.1,0.9-0.1,1.4
						c0.3-2.2,0.5-4.4,0.8-6.6c-0.1,0.4-0.1,0.8-0.2,1.3c0.4-2.2,0.9-4.5,1.3-6.7c-0.1,0.4-0.2,0.8-0.3,1.1c4.1-9,6.2-18.9,8.4-28.5
						c2-8.7,3.7-17.4,5.6-26c0.1-0.2,0.4-1.7,0.1-0.7c0.7-2.7,1.1-5.5,1.6-8.3c1.3-7.8,1.8-15.8,1.3-23.8c-0.4-5.9-1.5-12-3.8-17.5
						c-2.3-5.6-5.9-10.1-10-14.5c0.3,2.5,0.6,5.1,0.9,7.6c4.4-4,9.7-6.4,15.7-7.2c5.5-1.2,10.9-1.2,16.2-0.1
						c5.6,1.3,11.2,3.9,15.5,7.8c3.5,3.2,6,7.2,7.3,11.7c2.6,8.8,0.3,18.4-2.2,26.8c-0.2,0.7,0.9,2.4,1.5,2.7c0.7,0.3,1.7-0.3,1.8-1
						c1.8-7.6,3.5-15.4,3.3-23.2c-0.1-4.5-1.3-9.7-3.7-13.5c-2.3-3.5-5.2-6.3-8.7-8.5c-3.6-2.3-7.6-4.1-11.8-5.1
						c-2.6-0.6-4.9-0.8-7.4-1c-2.6-0.2-5.2-0.2-7.8-0.1c-1.8,0.1-3.6,0.3-5.5,0.4c-5.3,0.7-10.5,1.4-15.8,2.2
						c-1.4-0.2-2.3,0.5-2.3,1.9c0,1.8,0.3,4.6,1.4,6.1c2.3,2.9,4.9,5.4,6.6,8.7c1.6,3,2.7,6.5,3.5,9.8c1.7,7.8,1.6,16.1,0.6,24
						c-0.6,4.6-1.2,9.4-2.3,13.9c-1.2,5-2.2,10.2-3.2,15.3c-1.2,5.4-2.3,10.9-3.6,16.2c-1.1,4.6-2.1,9.6-3.8,14
						c-0.4,1.7-1.2,3.2-2.5,4.3c-0.1,0.4-0.2,0.8-0.3,1.1c-1.8,6.1-3.3,12.4-3.3,18.9c0,7.4,2.3,14.1,6.9,19.9
						c1.8,2.4,4.1,4.5,6.5,6.3c5.2,3.9,11.3,5.7,17.7,6.4c4.6,0.5,9,0.3,13.6-0.5c4.3-0.8,8.5-1.9,12.7-3.4c2.1-0.4,4.1-1,6-1.9
						c0.9-0.3,0.4-1.2,0-1.7c-11-12.3-12-31.2-10.4-46.8c0.3-2.2,0.5-4.4,0.8-6.6c0.4-2.6,0.8-5.1,1.2-7.7c0.2-0.8,0.4-1.6,0.6-2.4
						c3.6-16.2,6.8-32.4,10.5-48.6c0.3-1.4-0.1-2.5-1.6-2.7C274.7,263,271.7,262.8,271.4,264.2z"/>
					<path class="st0" d="M273.5,273.7c-3.3,14.9-6.4,29.8-9.6,44.7c-0.6,2.7-1.3,5.3-1.7,8c-2.1,12.1-3.1,24.7-1.1,36.9
						c0.9,5.5,2.5,11,5.2,15.8c2.3,4.2,5.3,7.5,8.8,10.7c0.4-4.2,0.9-8.4,1.3-12.6c-1.2,1.4-2.5,2.6-4,3.5c-1.7,1.3-3.5,2.4-5.4,3.6
						c0.4-0.2,0.8-0.5,1.1-0.7c-3.5,1.2-7.1,2.1-10.7,2.8c-4.1,1-8.3,1-12.5,0.1c-4.3,0.3-8.4-0.5-12.2-2.4
						c-2.7-1.2-5.2-2.8-7.4-4.8c-3-3-5.1-6.4-6.2-10.5c-1.4-5.3-0.9-11.4-0.1-16.8c0.7-4.1,1.7-8.2,3.3-12.1
						c0.9-2.2,1.8-4.3,2.4-6.6c2.2-7.8,3.8-15.8,5.5-23.7c0.7-3.4,1.5-6.8,2.2-10.2c0.5-2.3,0.8-4.7,1.4-7c0.6-2.3,0.7-2.2,1.2-5.4
						c1.1-7.3,2.2-14.5,2.2-22c0-6.2-0.3-12.4-1.9-18.5c-1-3.8-2.4-7.2-4.5-10.5c-1.8-2.9-4.2-5.4-6.3-8.1c-0.1,0.2-0.2,0.5-0.3,0.7
						c1.4,0.4,2.8,0.5,4.2,0.3c1.9,0.1,3.7-0.2,5.6-0.8c6.1-1.2,13.3-2.6,19.6-1.3c4.5,0.9,9.4,2.1,13.4,4.5
						c1.3,0.8,2.5,1.6,3.8,2.5c2.3,1.8,4.2,3.9,5.8,6.3c-0.3-0.5-0.5-0.9-0.8-1.4c0.9,1.7,1.8,3.4,2.8,5.1c-0.2-0.5-0.5-1.1-0.7-1.6
						c0.7,1.8,1.4,3.7,2.1,5.5c-0.2-0.6-0.4-1.1-0.6-1.7c-0.7,9.3-1.4,18.7-2.1,28c-0.3,1.2-0.6,4.1,1.7,3.5
						c0.9-0.4,1.5-1.2,1.8-2.2c0.7-1.6,1.3-3.2,1.8-4.9c1.7-7.6,2.9-15.2,1.7-23c-1.3-8-5.3-15.2-12.1-19.7c-4-2.7-8.3-4.1-13.1-5
						c-2.2-0.4-4.3-0.7-6.5-0.9c-2.3-0.1-4.6,0-6.9,0.4c-3.3,0.4-6.5,0.9-9.8,1.7c-2,0.5-4,0.9-6,1.3c-2.9-0.1-5.6,0.5-8.3,1.5
						c-0.4,0.1-0.2,0.5,0,0.7c1.1,1,2.2,1.9,3.4,2.9c-0.4-0.4-0.7-0.7-1.1-1.1c3.1,3.8,5.7,7.6,7.6,12c4.9,11.3,3.9,24.6,2.2,36.5
						c-0.7,5.1-1.7,10.2-2.8,15.3c-1.5,7.3-3,14.6-4.5,21.8c-0.8,3.8-1.7,7.6-2.6,11.4c-0.9,3.7-1.8,7.3-3.5,10.7
						c-0.6,1.2-1.3,2.2-2,3.3c-0.8,2.6-1.6,5.2-2.2,7.9c-0.7,2.6-1.2,5.3-1.4,8.1c-0.4,5-0.1,10,1.5,14.8c1.4,4.5,3.9,8.3,7.3,11.6
						c3.4,3.3,7.9,5.2,12.3,6.9c1.9,0.7,3.9,1.3,5.9,1.7c5.4,1.1,11.1,0.9,16.5,0.3c6-0.6,11.9-2.6,18-1.2c2.1,0.5,2.3-3.7,2.5-4.9
						c0.2-1.5,0.4-3.1,0.4-4.6c0.2-1.2,0-2.3-0.6-3.3c-2-3.1-4.5-5.6-6.2-8.9c-2.2-4.4-3.2-9.1-3.9-13.9c0,0.4,0.1,0.7,0.1,1.1
						c-0.2-1.9-0.4-3.7-0.6-5.6c0,0.4,0.1,0.7,0.1,1.1c-0.2-5.5-0.4-11,0.1-16.5c0.2-2.2,0.4-4.4,0.7-6.5c0.4-2.4,0.7-4.9,1.1-7.3
						c0.3-0.9,0.5-1.8,0.8-2.8c3.7-16.4,6.8-32.9,10.9-49.2c0.4-1.6-1.1-2.6-2.5-1.9c-1.1,0.9-2.1,1.9-2.9,3
						C274.8,271.2,274.1,272.4,273.5,273.7z"/>
					<path class="st0" d="M267.7,270.5c-3.3,14.9-6.4,29.8-9.6,44.7c-0.6,2.7-1.3,5.4-1.7,8.2c-1.8,13.4-3.5,27.3,0.6,40.5
						c1.2,3.7,2.7,7.4,4.9,10.6c2.5,3.8,5.8,6.8,9.3,9.5c0.9-2.7,1.8-5.3,2.7-8c-1,0.9-2.1,1.7-3.1,2.6c0.4-0.3,0.8-0.6,1.3-0.8
						c-3.8,1.9-7.6,3.7-11.4,5.6c1.4-0.5,2.9-1.1,4.3-1.6c-13.5,5.2-25.7,4.8-36.7-1.3c0.4,0.3,0.8,0.5,1.2,0.8
						c-1.6-1-3.1-2.1-4.7-3.1c0.4,0.3,0.7,0.6,1.1,0.8c-1.4-1.2-2.7-2.5-4.1-3.7c0.3,0.3,0.6,0.6,0.9,0.9c-1.1-1.4-2.2-2.8-3.3-4.1
						c0.2,0.3,0.5,0.6,0.7,0.9c-0.7-1.3-1.4-2.5-2.1-3.8c-2.8-7.4-3.5-14.7-2.1-22.1c0.2-1.8,0.6-3.6,1-5.3c0-1.2,0.3-2.3,1-3.2
						c2.2-3.1,3.5-7.2,4.5-10.9c3.1-11.2,5.4-22.7,7.8-34.1c2.5-11.7,4.8-23.4,4.4-35.4c-0.2-6.7-1.2-13.4-3.8-19.6
						c-2.2-5.4-5.8-9.6-9.7-13.8c0,0.8,0,1.6-0.1,2.4c3.5-1.8,7.1-2.8,11-2.7c3.3-0.4,6.7-0.5,10-0.5c7-0.1,14.4,0.6,20.8,3.8
						c9.9,5,13.9,13,13.9,23c0,7-1.9,13.5-4.1,20c-0.5,1.4,0.8,2.6,2.2,2.2c1.1-0.6,2.1-1.4,2.9-2.3c0.9-0.8,1.7-1.8,2.3-2.9
						c1.2-5.2,2.2-10.2,2-15.6c-0.2-3.7-0.7-7.3-1.9-10.9c-2-5.8-5.8-10.7-11-14.1c-6.6-4.3-14.3-6.4-22-7.2
						c-5.7-0.6-11.8,0.2-17.3,1.3c-4.8,0.9-4.7,0.9-8.7,3c0.5-0.1,1-0.2,1.5-0.4c-0.9,0.1-1.9,0.3-2.8,0.4c-1.4,0.2-3.4,1.6-1.8,3.1
						c3.7,3.3,6.7,6.9,8.8,11.4c2.3,4.9,3.4,10.3,3.8,15.6c0.9,10.2-0.4,20.7-2.6,30.6c-1.7,7.4-3.1,14.9-4.8,22.3
						c-0.9,3.9-1.8,7.8-2.8,11.7c-1.2,4.5-2.2,9-4,13.3c-0.6,1.5-1.2,2.9-2,4.3c-1.5,2.1-2.3,4.6-2.3,7.3c-0.7,3.5-1.3,7.4-1.4,11
						c-0.1,5.9,0.4,11.9,3,17.3c2.5,5.2,6.7,9.3,11.8,12c6.2,3.3,13.3,4.8,20.2,4.8c8.9,0,17.7-2.4,26.2-4.8c1.5-0.4,2.3-2,3-3.3
						c0.5-1,2.1-3.2,1.2-4.3c-2.5-3.1-4.6-6.5-6.5-10c0.1,0.3,0.3,0.6,0.4,0.9c-1.3-3.3-2.4-6.5-3.1-10c-0.9-4.4-1.1-9-1.2-13.5
						c-0.1-6.2,0.3-12.3,1-18.5c1.2-10.7,0.1-5,1.4-8.2c0.4-1.1,0.6-2.3,0.8-3.4c0.7-3,1.4-6,2.1-9c1.2-5.3,2.1-10.8,3.2-16.1
						c1.6-7.4,3.3-14.7,5.2-22c0.7-2.7-3.2-1.5-4.1-1.2c-1.9,0.7-3.8,1.6-5.6,2.6C269.1,268.7,268.2,269.4,267.7,270.5z"/>
				</g>
			</g>
		</g>
	</g>
</g>
<g>
	<g>
		<g>
			<g>
				<path class="st1" d="M454.4,385.6c2.4-3,4.8-6,7.2-9c4.6-6.2,8.9-12.6,12.8-19.2c7.8-13.2,14.1-27.3,18.9-41.9
					c9.7-29.7,12.7-61.3,8.8-92.3c-3-23.8-10.1-46.8-20.7-68.3c-3.5-7.1-7.7-14.6-12-21.2c-4.4-6.7-9.4-14-14.5-20.1
					c-8.2-9.7-16.7-19-26.2-27.5c-12.6-11.4-26.5-21.4-41.2-30c-25.9-15.1-54.4-25.5-83.8-31c-43.2-8.1-88.6-5.6-130.6,7.3
					C108.7,52,51.7,97.5,22.7,159c-12.1,25.7-19,53.8-20.2,82.1c-1.4,32.6,4.8,65.3,17.9,95.1c27.2,61.9,82.9,108.5,146.6,129.7
					c33.2,11.1,68.5,15.4,103.4,13.2c18.3-1.1,36.4-4.1,54-8.9c8.8-2.4,17.4-5.2,25.8-8.5c8.2-3.7,16.5-6.8,25-9.6
					c-0.3,0-0.6,0-0.9-0.1c2.5,1.8,5.3,3,8.1,4.2c5.3,2.3,10.6,4.5,16,6.6c10.6,4.2,21.3,8.3,32,12.4c8.3,3.2,16.6,6.3,24.8,9.5
					c1.9,0.7,3.7,1.3,5.8,1.1c1.7-0.2,3.3-0.7,4.8-1.4c8.1-3.6,11.7-12.9,9.4-21.3c-0.5-1.5-1-3-1.3-4.6c-0.6-3.1-1.3-6.1-2-9.1
					c-1.2-5.1-2.7-10.1-4.1-15.1c-5.1-18-10.2-35.9-15.2-53.9c-0.3-1.2-2-1.7-3-0.9c-1.1,0.8-2,4-1.7,5.2
					c3.8,13.9,7.7,27.7,11.6,41.6c2.5,8.7,5.3,17.3,7.2,26.1c1,4.8,2.6,9.9,2.6,14.8c0.4,4.7-2.4,8-8.3,9.9c-1,0.2-2.1,0.2-3.1,0
					c-1.4-0.2-2.7-0.7-4-1.3c-5.4-2.1-10.8-4.2-16.2-6.3c-18.8-7.2-37.6-14.2-56.5-21.2c0.3,0.1,0.6,0.2,0.9,0.3
					c-3.3-1.3-6.8-2.3-10.1-3.7c-2.5-1.1-6.2,1.9-7.6,2.5c-10.1,4.4-20.4,8.5-30.9,11.8c-35.7,11.2-73.8,14.4-110.9,9.9
					c-37.2-4.5-73.2-16.9-104.9-36.8c-31-19.5-57.6-45.9-76.4-77.4c-17-28.6-27.1-61-29-94.3c-2-35.2,5.3-70.8,20.8-102.4
					c15.1-30.8,37.8-57.6,64.9-78.6c14.6-11.3,30.5-21.1,47.3-28.8c9.4-4.3,19.1-8,28.9-11.2c3.9-1.4,7.9-2.5,12-3.5
					c6-1.7,12.1-3.1,18.3-4.3c-0.3,0.1-0.6,0.1-0.9,0.2c4.5-0.7,8.9-1.5,13.4-2.2c-0.3,0-0.6,0.1-0.9,0.1c4.5-0.5,9-1.1,13.6-1.6
					c-0.3,0-0.6,0.1-0.9,0.1c4.6-0.3,9.1-0.7,13.7-1c-0.3,0-0.6,0-0.9,0.1c4.6-0.1,9.2-0.2,13.8-0.3c-0.3,0-0.6,0-0.9,0
					c4.6,0.1,9.2,0.2,13.8,0.3c-0.3,0-0.6,0-0.9,0c8.5,0.6,16.9,1.3,25.4,2.4c10.4,1.4,20.7,3.7,30.8,6.4
					c17.9,4.8,35.6,11.4,51.9,20.2c14.5,7.8,28.4,16.7,41.1,27.2c8,6.5,15.5,13.6,22.5,21.1c2.9,2.9,5.6,5.9,8.1,9.1
					c4.2,4.7,8,9.7,11.7,14.9c-0.2-0.2-0.3-0.4-0.5-0.7c2.4,3.5,4.8,7,7.1,10.6c-0.2-0.2-0.3-0.5-0.5-0.7c2.2,3.6,4.3,7.2,6.5,10.9
					c-0.1-0.2-0.3-0.5-0.4-0.7c1.9,3.7,3.9,7.4,5.8,11.1c-0.1-0.2-0.2-0.5-0.4-0.7c1.7,3.8,3.5,7.6,5.2,11.4
					c-0.1-0.3-0.2-0.5-0.3-0.8c1.5,3.9,3,7.8,4.5,11.7c-0.1-0.3-0.2-0.5-0.3-0.8c1.3,4,2.6,7.9,3.8,11.9c-0.1-0.3-0.1-0.5-0.2-0.8
					c2,7.8,4.1,15.6,5.5,23.5c1.3,7.7,2.2,15.5,2.6,23.3c1,17-0.3,34-3.5,50.7c-2.9,14.7-7.3,28.9-13.2,42.6
					c-3,6.9-6.3,13.6-10,20.2c-1.8,3.4-3.7,6.6-5.8,9.7c-3,4.9-6.2,9.5-9.7,14c0.2-0.2,0.3-0.4,0.5-0.7c-2.5,3.1-5,6.2-7.5,9.4
					c-0.2,0.6-0.3,1.2,0,1.8c0.3,0.7,0.9,1,1.7,1C451.1,386.8,453.4,386.9,454.4,385.6z"/>
				<path class="st1" d="M456.3,382.7c4.9-6,9.5-12.2,13.8-18.6c4.3-6.5,8.2-13.1,11.8-20c7.1-13.7,12.7-28.2,16.7-43.1
					c6.2-22.8,8.7-47.2,6.8-70.8c-2.3-28.5-9.7-56.3-22.6-81.9c-15.2-30-37.2-56.3-63.5-77.2c-51-40.6-116.8-59.6-181.6-55.3
					c-30.2,2-60,8.9-87.8,20.8c-31.2,13.4-59.7,33-83.2,57.6c-25.4,26.7-44.5,59.3-54.4,94.9c-8.6,31.3-10,64.5-4.1,96.4
					c5.2,27.8,16,54.5,31.3,78.3c29.8,46,75.9,80.5,127.6,98.3c33.2,11.4,68.6,16.1,103.6,14.1c18.3-1,36.5-3.9,54.3-8.7
					c8.8-2.3,17.5-5.1,26-8.4c8.5-3.2,16.8-6.9,24.9-11c-1.6-0.2-3.1-0.5-4.7-0.7c0.2,0.3,0.6,0.5,0.9,0.7c1.4,0.9,2.8,1.6,4.3,2.3
					c3.9,1.9,8,3.4,12,5.1c12.5,5.2,25.3,9.9,37.9,14.7c9.5,3.6,19,7.2,28.5,10.9c2.2,0.8,4.3,1.6,6.6,1.6c3.7-0.1,8.2-2,10.8-4.6
					c5.2-5.1,6.8-12.6,5.2-19.6c-1.7-7.2-3.6-14.4-5.6-21.6c-5.9-20.7-11.8-41.4-17.6-62.1c0-0.8-0.4-1.4-1.1-1.7
					c-0.8-0.2-1.4,0.1-1.9,0.8c-0.8,1.5-1.3,3-1.8,4.6c-0.5,1.6-0.8,3.2-1,4.8c6,21.7,12,43.4,18.5,64.9c-0.1-0.3-0.2-0.7-0.3-1
					c1.3,5,2.7,10,3.9,15.1c0.1,0.5,0.3,1.1,0.5,1.6c0.1,0.8,0.2,1.5,0.4,2.3c0,2.3-0.8,4.2-2.5,5.9c-0.6,2.4-2,3.9-4.2,4.5
					c-1.2,0.8-2.6,1.2-4.1,1.1c-1.3,0-2.5-0.3-3.8-0.8c-2.5-0.9-5-1.9-7.5-2.9c-12.3-4.8-24.6-9.4-37-14.1
					c-7.4-2.8-14.9-5.6-22.3-8.6c-2.2-0.9-4.3-1.7-6.5-2.6c-1.5-0.6-2.9-1.2-4.4-1.7c-0.9-0.2-1.7-0.7-2.4-1.4
					c-0.6-1.4-3.7-2.1-5.1-1.4c-7.9,3.9-15.9,7.5-24.2,10.6c-4.2,1.4-8.3,2.9-12.5,4.3c-12.7,4.2-25.7,7-38.9,9.2
					c-25.9,4.3-52.5,4.1-78.5,0.7c-24.8-3.2-49.1-10.6-71.9-20.8c-11.3-5.1-22.1-11.2-32.5-17.9c-6.9-4.5-13.6-9.4-20-14.6
					c-9.1-8.7-18.3-17.4-27.4-26.1c-8.2-8.9-15.3-18.7-21.9-28.8c-6.4-9.9-11.8-20.5-16.5-31.4c-9.4-21.6-14.3-45-15.9-68.4
					c-1.6-23.6,1.5-47.4,8-70.1c7-24.6,19.2-47.8,34.6-68.2C83.8,83.3,126.3,54.3,173.4,39c48.5-15.6,101.3-16.8,150.5-3.5
					c48,13,91.8,39.8,123.9,77.9c15.4,18.2,27.7,38.6,36.4,60.9c4.3,10.9,7.5,22.1,9.9,33.6c1.3,5.7,2.2,11.5,2.8,17.4
					c0.9,7.9,1.4,15.7,1.4,23.7c0-0.3,0-0.7,0-1c-0.1,4.1-0.2,8.2-0.3,12.2c0-0.3,0-0.7,0.1-1c-0.3,4.1-0.6,8.1-1,12.2
					c0-0.3,0.1-0.7,0.1-1c-1.5,11.1-3.2,22.1-6.3,32.9c-2.6,9-5.7,17.8-9.3,26.4c-3.7,8.6-7.9,17.2-12.8,25.2
					c-6,9.8-12.8,18.9-19.8,28c-0.9,1.1,0.2,2.7,1.4,2.8c1.1-0.2,2.2-0.6,3.1-1.1C454.5,384.1,455.4,383.5,456.3,382.7z"/>
				<path class="st1" d="M462.4,389c5-5.9,9.6-12.1,13.8-18.6c4.2-6.5,8-13.2,11.5-20.1c3.5-7.3,6.2-13.7,9.2-21.2
					c4.3-11,7.4-22.6,9.6-34.2c2.9-15.2,4.1-30.7,3.7-46.1c-0.9-32.6-9.2-64.8-24-93.8c-7.5-14.7-16.6-28.6-27.1-41.3
					c-10.7-13-22.7-24.5-35.6-35.3c-6.1-5-14-10.9-20.8-15.1c-11.2-7-22.6-13.6-34.8-18.9c-15.5-6.8-31.6-12.2-48.1-16
					C260.3,14.7,196.2,20.7,141,47C109.9,61.8,81.9,82.9,59.4,109c-21.5,25-37.5,54.4-46,86.2c-15,55.7-6.5,116.2,22.4,166
					c30.4,52.3,81.1,91.4,138.1,110.7c33.6,11.4,69.5,16,104.9,13.7c18.4-1.2,36.7-4.2,54.5-9.2c8.8-2.4,17.5-5.3,26-8.7
					c8.5-3.3,16.7-7.1,24.8-11.3c-3.6-2.1-7.1-4.2-10.7-6.4c3.2,3.2,6.4,6.3,10.1,8.8c3.6,2.5,7.7,4.2,11.8,6
					c12,5.2,24.2,9.8,36.3,14.4c10,3.8,20.1,7.6,30.1,11.4c1.7,0.6,3.4,1.4,5.1,1.6c2.9,0.4,6.1-0.6,8.6-2c3.9-2.3,6.4-5.8,7.7-10.2
					c1.3-4.5,1.1-8.8-0.4-13.2c-0.1-1.1-0.5-2-1.2-2.7c-0.6-0.8-1.1-1.6-1.3-2.6c-0.8-2-1.4-4.1-1.8-6.2c-0.9-4.4-2.4-8.8-3.6-13.1
					c-5.9-20.2-11.6-40.4-17.3-60.7c-0.3-1-1.4-2-2.5-1.6c-1.1,0.4-2,1.3-1.7,2.5c3.9,13.8,7.9,27.7,11.8,41.5
					c2.5,8.9,5.2,17.7,7.2,26.7c1.2,5.1,1.8,10.2,2.1,15.5c0.3,1.8,0.1,3.5-0.5,5.1c-0.6,2-1.5,3.9-2.9,5.5c0.2-0.2,0.5-0.5,0.7-0.7
					c-1,1-2,2-3,3c0.3-0.2,0.5-0.4,0.8-0.6c-1.4,0.7-2.8,1.4-4.2,2.1c0.3-0.1,0.6-0.3,0.9-0.4c-2.1,0.6-4.2,1.2-6.4,0.7
					c-0.9-0.2-1.8-0.6-2.7-1c-4.4-1.7-8.7-3.4-13.1-5.1c-16.2-6.2-32.4-12.3-48.6-18.4c0.4,0.2,0.8,0.3,1.2,0.5
					c-6.8-2.7-13.6-5.4-20.2-8.3c2.9,2.8,5.8,5.6,8.7,8.4c0-0.6,0.1-1.3,0.1-1.9c0.1-1.6-4.5-4.3-5.1-4.6c-0.9-0.6-1.9-1.2-2.8-1.8
					c-1-0.8-2.2-1.2-3.4-1.1c-5.9,3-12,5.7-18.2,8.1c-4.1,1.8-8.2,3.3-12.5,4.7c-10.6,3.6-21.3,6.7-32.2,9
					c-11,2.3-22.1,3.8-33.3,4.7c-11,0.9-22.2,1.3-33.3,0.7c-19.1-1-38.1-3.7-56.6-8.5c-10.1-2.6-20.1-5.8-29.8-9.7
					c-3.8-1.6-7.6-3.2-11.5-4.9c-7.5-3.4-14.9-7.2-22.1-11.4c0.3,0.2,0.6,0.4,0.9,0.6c-3.8-2.3-7.7-4.7-11.5-7
					c0.3,0.2,0.6,0.4,0.9,0.6c-5.3-3.3-10.3-6.9-15.2-10.8c-3.4-2.4-6.6-5-9.7-7.8c-7.9-6.7-15.5-13.8-22.5-21.4
					c-6.8-7.5-13.1-15.4-18.9-23.7c-5.7-8.1-10.9-16.6-15.4-25.4c-7.9-15.8-14-32.3-17.9-49.6c-5.2-23-6.3-46.6-3.6-70
					c2.1-17.6,6.4-34.8,12.7-51.4c7-18.6,17.2-36.1,29-52.1c6.2-8.4,13.2-16.2,20.5-23.6C81.3,91,89.1,84,97.4,77.5
					c8.3-6.5,17-12.3,26-17.7c9-5.4,18.3-10.4,28-14.6c17.7-7.6,36-13.5,54.8-17.3c21.7-4.3,43.7-6,65.7-5c15.3,0.7,31.1,2.2,45.9,6
					c20.2,7.3,40.3,14.6,60.5,21.8c13.5,6.7,25.7,15.4,36.6,26.1c11.3,6.6,21.2,14.8,29.7,24.5c4.3,4.5,8.4,9.3,12.2,14.2
					c5,6.5,9.7,13.2,14,20.2c5.4,8.5,9.9,17.6,14,26.8c4,9.1,7.5,18.5,10.2,28.1c2.7,9.6,4.6,19.3,5.9,29.2c1.3,9.9,2.1,20,2,30
					c-0.1,7.6-0.6,15.2-1.4,22.7c-0.6,5.6-1.5,11.2-2.8,16.8c-1.6,9.2-4.4,18-8.3,26.6c-2.7,11-6.8,21.4-12.3,31.2
					c-1.9,3.3-3.7,6.6-5.6,10c-2,3.2-4.1,6.5-6.1,9.7c-4.2,6.2-8.7,12.2-13.6,17.9c-1.4,1.8,0.3,2.8,1.8,3.4c1.6,0.6,3.3,1,4.9,1.3
					C460.6,389.6,461.5,389.5,462.4,389z"/>
				<path class="st1" d="M463.3,385c3.6-4.6,7.2-9.1,10.5-13.9c3.3-4.8,6.5-9.6,9.4-14.6c5.8-10,10.6-20.5,14.8-31.3
					c4.8-12.5,8.2-25.7,10.4-38.9c2.2-13.3,3.2-26.8,2.9-40.3c-0.9-32.8-9.4-65.2-24.6-94.2c-11.5-22-26.9-42.1-44.7-59.3
					c-9.2-8.9-19.1-17.1-29.6-24.5c-10.2-7.2-20.9-13.4-31.9-19.2c-4-2.1-8.2-4-12.4-5.9c-7.5-3.3-15.2-6.4-23-8.9
					c-24.7-8-50.5-13.1-76.5-13.9c-26.3-0.8-52.7,1.6-78.2,8.1C172,32.8,154.1,39.4,137,47.9c-49,24.5-90.1,64.9-112.3,115.3
					C12.4,191.1,6.1,221.5,6.5,252c0.3,20.5,3.5,41,9.5,60.5c7.9,25.4,20.6,49.2,36.9,70.2c9.1,11.7,19.3,22.6,30.4,32.5
					c12.7,11.3,26.8,21.6,41.6,30c26.3,14.9,54.8,25.4,84.6,30.9c22.4,4.1,45.1,5.2,67.8,4c9.2-0.5,18.5-1.6,27.7-3.1
					c9.1-1.5,18.2-3.4,27-5.8c6.6-1.8,13.2-3.9,19.7-6.2c4.4-1.4,8.6-3.1,12.8-4.9c6.4-2.5,12.6-5.3,18.7-8.5c-3.6-1-7.1-2-10.7-3.1
					c8.3,5.8,17.8,9.9,27.2,13.7c12,4.9,24.1,9.4,36.1,14c8.3,3.2,16.6,6.3,24.9,9.5c2,0.8,3.8,1.1,6,1.2c3.4,0,6.8-1.2,9.6-3.1
					c3.3-2.3,5.7-5.8,6.9-9.6c0.9-2.6,1.1-5.2,0.7-7.9c-0.1-2-0.7-3.8-1.8-5.4c-1.7-3.1-2.5-6.4-3.4-9.8c-1.5-5.5-3.1-10.9-4.7-16.4
					c-5.5-18.7-10.7-37.4-16.1-56.2c-0.6-2-2.6-1.1-3.6-0.2c-1.1,1-2.1,2.1-3,3.2c-0.7,0.7-1,1.4-0.9,2.3
					c3.3,12.2,6.7,24.4,10.2,36.6c2.6,9.1,5.4,18.2,7.9,27.4c1.8,6.6,3.6,13.2,4.2,20c0.1-0.3,0.1-0.6,0.2-1
					c-0.3,2.1-0.8,4.1-1.5,6.1c0.1-0.3,0.3-0.6,0.4-0.9c-0.6,1.1-1.2,2.3-1.9,3.4c0.2-0.3,0.3-0.6,0.5-0.8c-0.7,0.7-1.3,1.5-2,2.2
					c-0.8,0.3-1.5,0.7-2.2,1.1c-1.7,0.9-3.3,1.2-5.2,1.3c0.3,0,0.7,0,1,0c-3.1-0.3-5.9-1.6-8.8-2.7c-7.8-3-15.5-6-23.3-8.9
					c-9.3-3.5-18.5-7-27.8-10.5c-7.8-3-15.5-6.4-23.4-9.2c0.5,0.2,1.1,0.5,1.6,0.7c-1.2-0.5-2.4-1.1-3.6-1.6c2.2,1.5,4.5,3,6.7,4.6
					c-0.1-0.3-0.2-0.6-0.2-0.9c-0.2,0.6-0.5,1.1-0.7,1.7c0.2-0.2,0.5-0.5,0.7-0.7c1.8-1.7-0.5-3-2-3.7c-1.8-0.8-3.7-1.4-5.6-2
					c-1.1-0.5-2.2-0.5-3.2-0.1c-7.9,3.9-16,7.5-24.3,10.6c-8.3,3.1-16.8,5.8-25.3,8c-8.6,2.3-17.4,4.1-26.2,5.5
					c-8.9,1.4-17.8,2.3-26.7,2.8c0.4,0,0.7,0,1.1,0c-4.9,0.1-9.7,0.3-14.6,0.4c0.4,0,0.7,0,1.1,0c-8.6,0.1-17.2-0.3-25.8-1.1
					c-8.5-0.8-16.9-1.9-25.2-3.5c-16.4-3.1-32.6-7.7-48.1-13.8c-26.9-10.7-52-26-73.6-45.3c-23.9-21.3-44-47.7-56.7-77.2
					c-4.6-10.8-8.5-21.9-11.4-33.3c-9.5-38.2-8.2-79,4.5-116.9c19.6-58.9,65.4-106.7,121-133.2c34.9-16.7,73.7-24.9,112.3-24.9
					c17.3,0,34.5,1.6,51.4,4.9c85.6,16.7,163.5,75.9,189.1,173.8c-0.1-0.3-0.2-0.6-0.2-0.9c0.8,4.2,1.7,8.3,2.5,12.5
					c-0.1-0.3-0.1-0.6-0.2-0.9c1.3,7.8,2.2,15.6,2.7,23.5c0.5,7.8,0.5,15.5,0,23.3c-0.8,15-3.3,29.8-7.4,44.3
					c-4.1,14.5-9.7,28.6-16.7,41.9c-3.6,6.7-7.5,13.3-11.7,19.6c-4.2,6.3-8.8,12.3-13.8,18c-1.8,2.2,2.5,2.6,3.4,2.7
					c2.1,0.1,4.3,0,6.4-0.2C461.3,386.2,462.4,385.8,463.3,385z"/>
				<path class="st1" d="M455.6,381.1c9.5-12.3,18.3-24.7,25.2-38.7c6.9-13.8,12.3-28.2,16.3-43.1c2.5-9.3,4.1-18.8,5.2-28.3
					c1.1-9.6,1.7-19.2,1.5-28.8c-0.5-16.6-2.5-33.1-6.6-49.2c-9.1-36.1-27.8-69.5-52.8-97c-25-27.4-56.1-49.1-90.2-63.5
					C317.6,17.1,278,10.2,238.5,11.7c-19.7,0.8-39.4,3.6-58.5,8.6c-20.7,5.5-40.6,13.7-59.4,24c-9.3,5.1-18.1,11-26.7,17.4
					c-5.4,4-9.7,7.3-15,11.9c-6.5,5.7-12.4,11.6-18.4,17.8c-4.6,4.8-8.8,9.9-12.9,15.2c-6.4,8.1-12.4,16.6-17.6,25.6
					C20,149.9,12,168.7,6.8,188.4c-9.2,35.6-9.3,73.5-0.3,109.2c4.5,17.8,11.3,34.9,20,51c10.9,20.1,24.8,38.9,41.2,54.9
					c12.6,12.3,26.2,23.3,41.2,32.7c10.7,6.7,22,12.7,33.6,17.8c27.2,11.9,56.1,19,85.6,21.9c7,0.7,13.1,0.9,20,1
					c11.5,0.2,23.1-0.1,34.6-1.4c18.4-2.1,36.5-5.9,54.2-11.5c10.8-3.4,21.2-7.7,31.4-12.5c1.9-0.9,3.8-1.8,5.7-2.7
					c0.8,0.9,1.6,1.7,2.5,2.5c0.4,0.3,0.7,0.7,1.1,1c1,1.2,2.3,1.9,3.9,2c3.7,1.2,7.1,2.8,10.7,4.3c13.3,5.5,26.9,10.4,40.4,15.4
					c5.2,2,10.4,3.9,15.6,5.9c2.8,1.1,5.6,2.4,8.6,2.8c2.4,0.4,3.3,0.2,5.7-0.4c1.5-0.4,2.9-1,4.3-1.8c1.4-0.7,3-1.5,4.2-2.4
					c1.9-2.1,3.4-4.4,4.4-7c0.4-1.4,0.9-2.8,1.3-4.2c0.9-3.3,0.6-5.7-0.3-8.9c-0.7-2.5-1.8-4.9-2.7-7.4c-2.6-7-4.7-14.2-6.8-21.4
					c-2.4-7.9-4.7-15.9-6.9-23.8c-3.1-10.9-6.2-21.7-9.3-32.6c-0.4-1.4-2.6-0.8-3.1,0c-0.3,1-0.4,2.1-0.4,3.1c0,1.1,0.1,2.1,0.5,3.1
					c4.2,14.7,8.3,29.3,12.6,43.9c1.5,5.2,3.1,10.5,4.7,15.7c1.2,3.6,2.1,7.4,3.5,11c1,2.5,2.2,5,3.4,7.4c0.2,0.7,0.6,1.3,1.1,1.7
					c0.9,1.8,1.6,3.7,2.1,5.7c-0.1-0.3-0.1-0.6-0.2-1c-2.3,5.3-4.6,10.5-7,15.8c0.8-0.7,1.5-1.4,2.3-2.1c-1.7,1.2-3.4,2.3-5.2,3.5
					c0.9-0.5,1.8-1,2.8-1.5c-1.9,0.8-3.7,1.7-5.6,2.5c0.8-0.3,1.5-0.6,2.3-0.9c-1.7,0.3-3.4,0.6-5.1,0.9c0.3,0,0.6,0,1,0
					c-4.5-0.9-8.7-2.9-12.9-4.5c-9.8-3.7-19.5-7.4-29.3-11.2c-10.1-3.9-20.2-7.7-30-12.3c-2.8-1.3-5.8-2.5-8.2-4.5
					c-1.7-1.4-2.8-3.2-4.1-4.9c-0.1-0.2-0.2-0.2-0.3-0.1c-5.9,3.2-12,6.1-18.2,8.7c-4.1,1.9-8.2,3.6-12.5,5.1
					c-10.6,4-21.4,7.2-32.4,9.9c-6.6,1.6-13.4,2.9-20.1,3.9c-6.8,1.2-13.6,2-20.4,2.5c-4.6,0.3-9.2,0.5-13.8,0.8
					c-8.9-0.2-17.8-0.3-26.7-0.5c-6.5-0.4-13-1.1-19.5-2.1c-6.4-0.8-12.8-1.9-19.2-3.3c-28.2-11.7-56.5-23.5-84.7-35.2
					c-3.5-2.4-7-4.8-10.5-7.2c-8.7-6.1-16.6-13-23.7-20.9c-8.1-6.8-15.3-14.4-21.6-22.7c-6.3-8.2-12.1-16.6-17.2-25.5
					c-10.1-17.4-17.7-36.1-22.6-55.7c-4.9-19.6-6.9-39.6-6.1-59.7c0.8-20,4.3-39.7,10.6-58.7c3.1-9.4,6.8-18.6,11.2-27.5
					c1.9-3.5,3.7-7,5.6-10.6c4-7,8.3-13.8,13-20.3c-0.2,0.3-0.4,0.5-0.6,0.8c2.7-3.5,5.3-7,8-10.5c-0.2,0.2-0.4,0.5-0.6,0.7
					c2.9-3.4,5.7-6.8,8.6-10.1c-0.2,0.2-0.4,0.5-0.6,0.7c3.1-3.3,6.1-6.5,9.2-9.8c-0.2,0.2-0.4,0.5-0.7,0.7c3.3-3.1,6.5-6.3,9.8-9.4
					c-0.2,0.2-0.5,0.4-0.7,0.7c6.2-5.6,12.6-10.9,19.3-15.9c6.7-5,13.6-9.6,20.8-13.8c10.7-6.4,22-12,33.5-16.7
					c27.4-11.2,56.9-17.7,86.5-19.2c29.7-1.6,60.2,1.5,88.8,10c12,3.6,23.8,7.8,35.2,13c7.6,3.4,14.9,7.2,22.1,11.4
					c7.2,4.2,14.1,8.6,20.8,13.5c-0.3-0.2-0.6-0.4-0.9-0.6c6.8,4.9,13.2,10,19.5,15.6c6.2,5.5,12.1,11.3,17.7,17.4
					c8.1,8.9,15.7,18.5,22.3,28.6c15.1,23,25.8,48.8,31.1,75.8c5.8,29.6,5.2,61-2.5,90.2c-2.9,10.9-6.5,21.6-11,32
					c-3,7-6.5,13.7-10.3,20.3c-5.7,9.7-12,18.9-19.1,27.6C452.2,379.2,455,382,455.6,381.1z"/>
				<path class="st1" d="M456.1,389c4.9-5.9,9.5-12,13.7-18.4c4.3-6.5,8.2-13.1,11.7-20c7.1-13.7,12.7-28.1,16.7-43
					c8.2-30.5,9.6-62.8,3.9-93.9c-3.6-19.8-10-39.1-18.9-57.2c-13-26.4-31.5-49.7-53.3-69.3c-25.6-23-56-40.7-88.6-51.6
					c-29-9.7-59.8-14.3-90.4-13.8c-34.7,0.5-69.4,7.6-101.3,21.2c-25.7,10.9-49.5,26-70.3,44.6c-23.5,20.9-42.9,46.2-56.3,74.7
					c-6.9,14.8-12.2,30.3-15.7,46.2c-1.7,8-3,16.1-3.9,24.3c-0.8,8.2-1.2,16.5-1.1,24.8c0.3,8.8,0.6,17.1,1.8,25.8
					c1.7,12.2,4.1,24.3,7.8,36.1c9.7,31.8,26.9,60.9,49.3,85.4c23.1,25.2,51.7,45.4,83,59.1c27.7,12.1,57.5,19.3,87.6,21.4
					c22.9,1.6,46,0.4,68.6-3.6c9.2-1.7,17.7-3.7,26.7-6.2c17.4-4.7,33.7-12.3,50.3-19.2c-1.4-0.9-2.8-1.8-4.2-2.7
					c1.7,2.4,3.2,4.3,5.7,5.9c4,2.7,8.5,4.7,12.9,6.6c12.5,5.5,25.2,10.3,37.9,15.2c8.8,3.4,17.6,6.7,26.4,10.1
					c1.6,0.6,3.1,1.2,4.8,1.3c3.8,0.2,8-1.9,10.6-4.7c4.5-4.9,7.9-12.2,6.5-19c-0.7-3.5-2-6.7-2.7-10.2c-1.1-5.3-2.1-10.5-3.6-15.7
					c-5.9-20.2-11.6-40.4-17.3-60.6c-0.2-0.8-1.3-1.5-2-1.9c-0.1-0.1-1.6-0.7-1.3,0.1c2.7,9.2,5.3,18.5,8,27.7
					c2.1,7.2,4.2,14.4,6.3,21.7c1.1,3.9,2.2,7.7,3.3,11.6c1.2,4.1,2.6,8.2,4,12.3c-0.1-0.5-0.2-1-0.4-1.5c0.2,2.5,0.5,5,0.8,7.5
					c0.4,2.3,0.7,4.5,0.9,6.8c-0.1,4.1-1.5,7.6-4.3,10.4c-2.3,2.2-5.1,3.5-8.3,4c0.3,0,0.6-0.1,1-0.1c-2.5,0.1-4.2,0-6.5-0.9
					c-1.5-0.6-3-1.2-4.6-1.8c-7.7-3-15.4-6-23.1-8.9c-17.6-6.6-35.2-13.2-52.7-20c0.3,0.1,0.6,0.3,0.9,0.4c-0.5-0.2-1-0.5-1.5-0.7
					c-0.4-0.4-0.9-0.4-1.4-0.2c-2.3,0.6-4.5,1.4-6.6,2.5c-12.4,4.9-25.2,8.8-38.3,11.5c-14.7,5.9-29.9,9.6-45.6,10.9
					c-4.5,0.3-9,0.7-13.5,1c-8.8,0.4-17.7,0.4-26.6,0c-10.7-0.4-21.4-1.7-31.9-3.5c-10.4-1.7-20.8-4-30.9-7
					c-18-5.5-35.3-12.6-51.8-21.7c-32.5-18-60.8-43.2-81.8-73.9c-10-14.7-18.3-30.6-24.4-47.3c-2.7-7.4-4.9-14.9-6.8-22.5
					c-2.9-11.5-4.2-23.2-5.3-35c0,0.3,0,0.7,0.1,1c-0.2-4.3-0.3-8.6-0.5-13c0,0.3,0,0.7,0,1c0.1-8,0.3-15.9,1.1-23.8
					c0.8-7.8,2.1-15.6,3.7-23.3c3.6-17.2,9.9-34,17.8-49.7c15.6-30.9,38.6-57.7,66-78.7c10.2-6.6,20.3-13.3,30.5-19.9
					c3.7-1.9,7.4-3.8,11-5.7c7.5-3.6,15.2-6.9,22.9-9.8c17.8-6.6,36.4-11.2,55.2-13.9c17.2-2.4,34.5-3.2,51.8-2.4
					c19.1,0.9,38.4,3.7,56.9,8.8c32.4,9,63.2,23.5,89.9,44.1c31.3,24.1,56.6,56.2,71.6,92.8c3.3,7.5,5.7,15.2,7.2,23.3
					c3.4,9.7,5.6,19.6,6.6,29.7c0.9,8.1,1.4,16.2,1.4,24.3c0,15.3-1.7,30.6-5.1,45.5c-3.8,16.7-9.7,33-17.3,48.3
					c-3.4,6.9-7.2,13.5-11.3,20c-5.1,8-10.7,15.4-16.6,22.8c-0.8,1-1.2,2.1-0.2,3C453.4,389.1,455.3,390.1,456.1,389z"/>
				<path class="st1" d="M454.2,386.4c4.5-6.2,8.9-12.4,13.3-18.7c4.3-6.5,8.2-13.2,11.8-20.1c7.1-13.8,12.8-28.3,16.8-43.3
					c8.3-30.8,9.6-63.2,3.6-94.5c-6.1-32-19.7-62.8-39.3-88.8C445,100.8,426.8,83,406.1,68.2c-53.4-38.4-121-54.4-186.1-47.4
					c-60.6,6.5-118.9,33.4-161.3,77.4c-23,23.9-41.1,52.6-51.6,84.1c-9,27.1-12.4,56.1-10,84.5c3.8,45.3,22.6,88.3,51.9,122.9
					c41.7,49.2,102.2,80.2,166,88.4c17.6,2.3,35.7,3.1,53.4,1.7c8.9-0.5,17.8-1.5,26.6-2.9c9.1-1.5,18-3.4,26.9-5.7
					c8.8-2.3,17.5-5.1,26.1-8.4c8.5-3.2,16.8-6.9,25-11c-0.1-0.7-0.2-1.3-0.4-2c-0.4,0.3-0.9,0.7-1.3,1c-0.4,0.3,0,1.1,0.2,1.3
					c1.8,1.9,4.5,3.2,6.8,4.3c7,3.3,14.2,6,21.4,8.9c15.3,6,30.7,11.7,46.1,17.6c2.5,1,5,2,7.6,2.9c3.8,1.3,8.3,0.5,11.8-1.4
					c1.5-0.8,2.9-1.6,4-2.9c2.1-2.5,4.3-5.4,5.6-8.4c0.6-1.4,1.1-2.8,1.7-4.2c-0.3-2.9-1.2-5.6-2.9-7.9c0.4,1.1,0.8,2.1,1.2,3.2
					c0.4-0.7,0.6-1.4,0.6-2.1c-0.2-1.2-0.5-2.4-0.9-3.6c-1-3.3-2.3-6.5-3.3-9.8c-2.8-9.5-5.7-19-8.5-28.5c-4.1-14-8-27.9-12.1-41.9
					c-0.3-0.9-2.3-0.6-2.8-0.4c-1,0.3-1.1,0.9-0.8,1.8c3.8,13.1,7.5,26.2,11.3,39.2c2.6,8.9,5.3,17.8,8,26.7
					c1.1,3.5,2.2,6.9,3.4,10.3c0.4,1.3,0.9,2.5,1.4,3.7c0.9,1.6,1.9,3.1,3.2,4.4c-0.4-1-0.8-1.9-1.2-2.9c0.4,2.3,0.7,4.6,1.1,6.9
					c0-0.3,0.1-0.6,0.1-1c-0.7,7.8-5.8,12.8-15.4,15c-1.4,0-2.7-0.3-3.9-0.8c-0.9-0.3-1.9-0.7-2.8-1.1c-7.6-2.9-15.3-5.8-22.9-8.7
					c-10.7-4-21.4-8-32.2-12.1c-4.9-1.8-9.7-3.7-14.5-5.7c-1.6-0.7-3.2-1.4-4.8-2.1c-1.2-0.4-2.2-1.1-3.1-1.9
					c0.1,0.3,0.2,0.6,0.4,0.9c0-0.3-0.1-0.7-0.1-1c-0.1-0.9-1-0.7-1.6-0.5c-4.1,1.9-8.2,3.8-12.2,5.7c-6.2,2.8-12.5,5.2-19,7.3
					c-8.6,2.9-17.3,5.4-26.1,7.5c-55.4,12.8-114.9,7.8-167.9-15.7c-17.2-7.6-33.6-17.1-48.7-28.4c-6.7-5-13.1-10.4-19.3-16
					c-21.1-19.1-37.8-42.9-51-68.1c0.1,0.3,0.3,0.6,0.4,0.9c-1.8-3.9-3.5-7.8-5.3-11.7c0.1,0.3,0.3,0.6,0.4,0.9
					c-1.5-4-3.1-8-4.6-11.9c0.1,0.3,0.2,0.6,0.3,0.9c-2.6-7.4-4.9-15-6.7-22.7c-1.8-7.7-3.2-15.5-4.1-23.3
					c-1.4-11.8-1.7-24-1.1-35.9c1.5-27.6,8.5-54.8,20.5-79.6c12.3-25.4,29.7-48.7,50.6-67.7C89,82.9,98.7,75.2,109,68.2
					c6.9-4.6,14-8.9,21.2-12.8c7.3-3.9,14.8-7.5,22.5-10.6c-0.3,0.1-0.6,0.3-1,0.4c7.7-3.2,15.6-6,23.5-8.5c4-1.1,8.1-2.3,12.1-3.4
					c12.3-3.2,24.9-5.3,37.5-6.7c25.5-2.9,51.5-1.6,76.8,2.7c24.6,4.2,48.5,12.6,70.9,23.6c7.4,3.7,14.5,7.8,21.5,12.3
					c9.8,7.3,19.5,14.6,29.3,21.9c11,9.3,20.8,19.9,29.7,31.2c14.9,18.8,26.7,39.7,34.8,62.3c8,22.5,12.1,46,12.2,69.9
					c0.2,22.9-3.5,45.4-10.8,67.1c-3.7,10.9-8.2,21.4-13.6,31.6c-2.6,5.1-5.5,10.1-8.7,14.9c-4.3,6.3-8.6,12.5-13,18.7
					c-0.4,0.6-0.2,2.1-0.2,2.8C453.8,385.3,453.8,386.9,454.2,386.4z"/>
			</g>
			<g>
				<path class="st1" d="M371.7,415.6c-3.2-0.8-5.9-1.1-9.2-0.1c-5.1,2.1-10.1,4.6-14.9,7.3c-7.9,3.7-16,7-24.3,9.7
					c0.3-0.1,0.6-0.2,0.9-0.3c-8.1,2.7-16.4,5-24.8,6.7c-8.3,1.8-16.7,3.1-25.2,3.9c-15.8,1.6-31.7,1.5-47.5-0.2
					c-27.8-3-55.4-10.9-80.2-24c-20.6-10.9-39.6-24.6-55.8-41.5c-17.9-18.6-32.2-40.6-41.4-64.8c-8.1-21.3-12-44.2-11.5-67
					c0.6-26,7-51.8,18.6-75.1c22.1-44.5,61.6-78.8,107.2-97.7c49.7-20.6,106.6-23.2,158.1-7.5c48.1,14.7,91.5,45.5,118.5,88.2
					c13.9,21.9,23.2,46.5,26.8,72.2c3.4,24.4,1.7,49.5-5,73.2c-4,14.1-9.7,27.6-17,40.3c-3.7,6.5-7.8,12.7-12.2,18.7
					c-4.6,6.1-9.4,12-14.7,17.6c-1.9,2.2-3.3,4.4-3.4,7.5c-0.2,2.7,0.4,5.5,1.9,7.7c-0.1-0.3-0.3-0.6-0.4-0.9
					c2,4.4,3.3,9.2,4.7,13.8c2.2,7.2,4.4,14.4,6.5,21.7c2.8,9.8,5.7,19.5,8.4,29.3c1.9-3.1,3.8-6.2,5.7-9.3c-1.3-0.8-2.3-2-3.3-3.2
					c-0.2-0.5-0.6-0.8-1.2-0.9c-3.7-1.2-7.5-2.2-11.4-3c0.4,0.1,0.8,0.3,1.2,0.4c-11.7-5.5-23.6-10.6-35.7-15.4
					c-6.5-2.6-13.1-4.9-19.5-7.7c-1.3-0.6-2.6,0.8-2.3,2.1c0.5,1,1.1,2,1.9,2.8c0.7,0.9,1.6,1.6,2.6,2.2c1.9,1,4,1.6,6,2.4
					c5.8,2.2,11.5,4.5,17.2,6.7c6.5,2.5,12.9,5,19.4,7.6c2.8,1.1,5.7,2.2,8.6,3.3c1.1,0.5,2.3,1,3.5,1.3c1.6,0.6,3.2,0.7,4.9,0.4
					c-1-0.2-2-0.4-2.9-0.5c1.3,0.3,2.2,1.2,2.7,2.6c1.8,1.3,2.6,3.1,2.4,5.3c0-0.3-0.1-0.6-0.1-0.9c0,1,0.1,1.9,0.1,2.9
					c2.2-2.5,4.4-5,6.6-7.6c-0.8-4.6-2.3-9-3.6-13.5c-2.4-8.5-4.8-17-7.2-25.5c-2-6.8-4-13.6-5.7-20.4c-0.2-1-0.6-2-0.8-3
					c-0.6-2.9,0.3-5.4,1.5-7.9c-0.2,0.3-0.4,0.6-0.6,0.9c5.5-6.7,11.1-13.2,16.1-20.3c6.6-9.4,12.2-19.5,17.2-29.8
					c5.6-11.9,9.7-24.6,12.5-37.4c2.8-13,4.3-26.2,4.3-39.5c0-20.2-3.3-40.5-9.9-59.6c-4.4-12.8-10.1-25.4-17.3-36.9
					c-5.3-8.5-10.9-16.7-17.3-24.3c-8.5-10-17.7-19.4-27.9-27.8c-21.5-17.6-46.2-31.5-72.6-40.1c-20.9-6.8-42.6-11-64.6-12.1
					c-24.2-1.2-48.5,1.3-72,7.3c-43.7,11.2-84.2,34.9-113.9,69.1c-14.2,16.3-25.9,34.9-34.1,54.9c-8.2,20.3-12.8,42-13.4,63.9
					c-0.6,22,2.7,44,9.9,64.9c7,20.4,17.7,39.5,31,56.5c31.1,39.6,76.3,66.8,125.1,78.3c26.5,6.2,53.9,7.6,80.9,4.9
					c8.4-0.8,17-2.3,25.3-4c8.2-1.8,16.5-4,24.5-6.7c2.3-0.8,4.6-1.6,6.9-2.4c4-1.3,7.9-2.8,11.7-4.6c6-2.4,11.9-5.2,17.6-8.4
					c-0.3,0.1-0.6,0.1-0.9,0.2c1.5-0.3,3-0.6,4.5-0.8c-0.3,0-0.6,0-0.9-0.1c1,0.1,2.1,0.2,3.1,0.2c-0.3,0-0.6-0.1-0.9-0.1
					c0.7,0.2,1.4,0.5,2.1,0.7c1.3,0.4,2.6-0.4,2.5-1.8c-0.4-1.1-0.9-2-1.6-2.9C373.4,417.1,372.6,416.3,371.7,415.6z"/>
				<path class="st1" d="M371.3,410c-1.1-0.4-2.3-0.6-3.5-0.5c-1.5-0.1-2.9,0.1-4.3,0.7c-1.6,0.4-3,1.2-4.2,2.2
					c-7.7,4.4-15.6,8.4-23.8,11.8c0.3-0.1,0.6-0.3,0.9-0.4c-6,2.5-12.1,4.7-18.3,6.4c-6.1,2-12.3,3.6-18.6,4.9
					c-8.3,1.7-16.7,3-25.2,3.8c-6.3,0.7-12.7,1-19.1,0.9c-5.9,0.2-11.7,0-17.6-0.4c-9.1-0.7-18.2-1.8-27.1-3.5
					c-17.4-3.3-34.2-8.5-50.3-15.7c-7.8-3.5-15.4-7.4-22.8-11.7c-8.7-5.2-16.8-11-24.9-17.2c0.3,0.3,0.6,0.5,0.9,0.8
					c-2.8-2.4-5.7-4.8-8.5-7.2c0.3,0.3,0.6,0.5,0.9,0.8c-2.7-2.5-5.4-5-8.2-7.5c0.3,0.3,0.6,0.6,0.9,0.8c-2.6-2.6-5.2-5.2-7.8-7.8
					c0.3,0.3,0.6,0.6,0.8,0.9c-2.5-2.7-4.9-5.4-7.4-8.2c0.3,0.3,0.5,0.6,0.8,0.9c-6.2-7.5-12-15.2-17.3-23.4
					c-5.2-8-9.7-16.8-13.5-25.5c-7.6-17.7-12.6-36.8-14-56c-1.4-19.5,0-39.5,5.1-58.4c2.1-7.7,4.6-15.3,7.7-22.7
					c1.7-4.4,3.7-8.8,5.9-13c2.9-5.7,6-11.2,9.5-16.5c-0.3,0.5-0.6,0.9-0.9,1.4c2.1-3.1,4.2-6.2,6.3-9.3c-0.3,0.4-0.6,0.9-0.9,1.3
					c2.2-3,4.5-6,6.7-9c-0.3,0.4-0.7,0.8-1,1.2c2.4-2.9,4.8-5.8,7.2-8.6c-0.3,0.4-0.7,0.8-1,1.2c2.5-2.8,5-5.5,7.6-8.3
					c-0.3,0.4-0.7,0.7-1,1.1c7-7,14-13.6,21.7-19.7c7.8-6.1,16.1-11.9,24.7-16.8c16.3-9.4,33.6-16.8,51.7-22
					c38.2-11,79-12.1,117.7-3.3c18.7,4.2,36.6,10.8,53.7,19.4c4.5,2.3,9,4.8,13.3,7.4c4.3,2.5,8.6,5.2,12.7,8.2
					c10.2,8.7,20.5,17.4,30.7,26.1c4.5,4.7,8.8,9.6,12.8,14.7c21.8,27.9,36.7,61.6,39.7,97.1c1.6,19.5,0.4,39-4.2,58.1
					c-4.7,19.7-12.8,38.4-23.9,55.4c-3,4.8-6.4,9.4-9.9,13.8c-3.5,4.6-7.2,9-11.2,13.2c-1,1.1-1.9,2.1-2.5,3.4
					c-1.3,3-1.4,7.1,0.1,10.2c1,2,1.8,3.7,2.4,5.9c0.9,2.9,1.7,5.9,2.6,8.8c1.5,5.3,3.2,10.6,4.7,15.8c2.2,7.6,4.3,15.3,6.5,22.9
					c1,3.5,2,6.9,2.9,10.5c1.5-0.8,3-1.7,4.5-2.5c-0.7-1.5-1.6-2.7-2.8-3.8c-0.9-1-1.9-1.9-3-2.7c-2.8-2.3-6.3-3.6-9.5-5.4
					c-7.6-4.2-15.3-8-23.3-11.6c-7-3.1-14.2-6-21.3-8.9C378.5,412.8,374.8,411.5,371.3,410c-0.7-0.2-1.2,0.1-1.6,0.8
					c-0.3,1.1-0.2,2.2,0.4,3.2c0.9,2.6,2.2,6.3,4.7,7.8c2.2,1.3,4.8,2,7.1,2.9c5.9,2.3,11.9,4.6,17.8,6.9c6.4,2.4,12.7,4.9,19,7.4
					c3,1.2,6,2.7,9,3.7c2.7,0.9,5.7,1.4,8.4,2.2c-1.4-1-2.8-2-4.1-3.1c1.9,1.9,3.7,3.8,5.5,5.8c-0.2-0.5-0.4-1-0.6-1.5
					c0.3,1,0.4,2,0.3,3c0.1,1,1.8,1.9,2.7,1.6c0.9-0.3,2.4-2.5,2.2-3.5c-0.8-3.4-1.8-6.7-2.8-10.1c-2-6.9-3.9-13.7-5.9-20.6
					c-2.4-8.3-4.9-16.5-7.1-24.9c-0.6-2.2-1.3-4.3-1.7-6.5c-0.1-2.5-0.1-5-0.2-7.5c0.5-1.4,1.3-2.7,2.3-3.7
					c-0.2,0.2-0.4,0.4-0.6,0.7c5.2-5.9,10.1-12,14.7-18.4c4.4-6.3,8.5-12.8,12.2-19.5c7.2-13.2,12.8-27.3,16.5-41.9
					c7.2-27.7,7.7-57.2,1.6-85.2c-9.9-45.5-37.5-86.5-74.6-114.3c-19.6-14.7-41.1-26.4-64.3-34.3c-28-9.6-57.7-13.8-87.2-12.7
					c-29,1.1-57.8,7.4-84.5,18.8c-22.4,9.6-43.9,22.7-61.8,39.3c-5,4.6-9.8,9.2-14.4,14.2c-4.5,5-8.7,10.1-12.8,15.4
					C55.6,157,44.1,182,38.2,207.7c-6.1,26.4-6.2,54.2-0.3,80.6c5.8,25.9,17.3,50.4,33,71.7c26.8,36.2,65.3,62.8,107.9,77
					c28.5,9.4,58.7,13.4,88.6,11.8c17-0.9,33.9-3.6,50.4-8c8.1-2.2,16.2-4.8,24-7.9c8.5-3.3,16.7-7,24.8-11.3
					c-0.3,0.1-0.6,0.2-0.9,0.3c0.7-0.2,1.5-0.4,2.2-0.5c-0.3,0.1-0.6,0.1-1,0.2c1-0.2,2.1-0.3,3.1-0.5c-0.3,0-0.6,0.1-1,0.1
					c1.5-0.1,2.9,0.2,4.3,0.9c2.5,0.8,1.9-2.7,1.7-3.8c-0.5-1.9-1.1-3.8-1.9-5.6C372.9,411.4,372.3,410.6,371.3,410z"/>
				<path class="st1" d="M375.6,415.9c-2.9-0.2-6-0.6-8.8,0.4c-5.2,1.9-10,5.2-15,7.5c-9.9,4.7-20.4,8.4-30.9,11.5
					c-6.1,2-12.3,3.5-18.6,4.5c-8.2,2.1-16.6,3.5-25,4.2c-8.4,0.7-16.8,1.2-25.2,1.1c-9.1-0.1-18.2-0.9-27.2-2.1
					c-5.3-0.6-10.6-1.5-15.8-2.9c-5.2-0.8-10.4-2-15.5-3.6c-30.8-8.6-59.8-23.7-84-44.6c-2.4-2.2-4.8-4.4-7.3-6.6
					c-7.3-6.6-13.8-13.9-19.5-21.9c-3.1-3.7-5.9-7.5-8.5-11.5c-1.9-2.6-3.6-5.3-5.2-8c-8.3-13.6-14.7-28.2-19.2-43.5
					c-4.1-14-6.4-28.4-6.9-43c-0.2-6.6,0-13.3,0.5-19.9c0.6-9.9,2.7-19.5,6.2-28.9c1.2-8.2,3.5-16.1,7-23.5
					c12.1-28.5,31.5-53.4,55.3-73c23.7-19.5,51.5-33.4,80.9-42.1c8.5-2.5,17.2-4.3,25.9-5.8c8.9-1.5,17.9-2.6,26.9-3
					c7.4-0.3,14.7-0.4,22.1-0.2c11,0.3,21.8,1.8,32.7,3.4c-0.4-0.1-0.9-0.2-1.3-0.3c3.9,0.8,7.9,1.6,11.8,2.3
					c-0.4-0.1-0.9-0.2-1.3-0.3c3.9,0.9,7.7,1.9,11.6,2.8c-0.4-0.1-0.9-0.2-1.3-0.3c13.3,3.9,26.3,8.3,38.9,14.2
					c12.1,5.7,23.7,12.5,34.5,20.4c10.6,7.6,20.4,16.2,29.4,25.7c4.4,4.7,8.6,9.5,12.5,14.6c3.9,5,7.5,10.2,10.9,15.6
					c-0.3-0.5-0.6-1.1-0.9-1.6c1.9,3.3,3.8,6.5,5.8,9.8c-0.3-0.5-0.6-1-0.9-1.6c3.7,7.1,7.3,14.1,10.2,21.5c1.3,2.9,2.4,5.9,3.3,9
					c2.7,7.3,4.4,14.8,5,22.6c2.6,9.2,4,18.5,4.1,28c0,3.4,0,6.7,0,10.1c-0.2,3.7-0.4,7.5-0.6,11.2c-16.9,36.7-33.8,73.3-50.8,110
					c-1.3,1.6-1.4,1.7-2.1,3.3c-0.6,1.4-0.9,2.8-0.9,4.3c0,2.9,0.7,5.4,1.9,8c4.2,9.2,6.9,19.1,9.8,28.8c3.2,10.9,6.4,21.8,9.5,32.7
					c-0.1-0.4-0.2-0.8-0.3-1.2c0.3,1,0.5,1.9,0.8,2.9c1.1-1.6,2.1-3.2,3.2-4.8c-0.8-0.9-1.6-1.7-2.3-2.6c-0.7-0.9-1.6-1.7-2.7-2.3
					c-1.9-1.4-3.6-3.1-5.1-4.9c-0.9-1.2-2.1-2-3.7-2.4c-3.1-1.6-6.2-3.3-9.4-4.8c-4.1-1.9-8.3-3.8-12.5-5.6
					c-10.5-4.5-21.2-8.5-31.8-12.8c-0.8-0.3-1.9-0.2-2.8-0.1c0.2,0-1.7,0.3-0.9,0.6c10.6,4.3,21.3,8.3,31.8,12.9
					c3.5,1.5,7,3.1,10.5,4.8c3.8,1.8,8,3.7,11.4,6.2c1.3,1,2.6,2.1,4,3.1c2.7,1.1,5,2.8,6.9,4.9c1.8,2.4,2.8,4.9,3.5,7.7
					c0,0.8,0.4,1.4,1,1.8c0.6,0.2,1.2,0.2,1.8-0.1c1.4-0.8,1-4,0.7-5.3c-1.3-5-2.8-9.9-4.2-14.8c-3.2-11-6.3-22-9.8-33
					c-1.3-4-2.6-7.9-4.3-11.7c-0.5-1.1-0.9-2.2-1.5-3.2c-1-1.8-0.5,0.1-0.9-3.8c-0.1-1-0.2-1.9-0.3-2.9c0.7-1.1,1.4-2.3,2.1-3.4
					c1.8-2.8,5.3-5.9,7.9-8.9c7.4-8.4,14-18,19.5-27.7c7.5-13,13.4-26.7,17.6-41.1c5.3-18.1,7.4-37.1,7.1-55.9
					c-0.4-20.6-4.9-41.1-12-60.3c-7.7-20.6-19.6-39.9-33.7-56.6c-17.6-20.8-39.1-37.8-63.1-50.7c-20.6-11-43.1-19.1-66.1-23.4
					c-29.1-5.4-59.3-6-88.4-0.5c-12.3,2.3-24.4,5.5-36.2,9.6c-14.7,5.2-28.8,11.9-42.2,19.9c-46.4,27.7-82.1,74.1-92.9,127.4
					c-3.9,19.4-4.7,39.2-2.1,58.9c3.5,27.1,13.1,53.6,28,76.6c12.3,19.1,27.7,36,45.1,50.5c11.7,9.7,24.8,18.1,38.3,25
					c14,7.2,28.7,13,44,17.2c28.1,7.7,57.5,9.9,86.4,6.4c6.3-0.8,12.6-1.7,18.9-3c8.3-1.8,16.8-4,24.7-6.9c8.1-3,16-6.3,23.7-10.2
					c8-4.1,14.2-9.2,23.5-10.3c-0.8,0-1.7,0-2.5,0c0.7,0,1.4,0.1,2.1,0.1c0.9,0.1,2.3,0.2,3.1-0.1
					C375.9,416.1,376.2,415.9,375.6,415.9z"/>
				<path class="st1" d="M375.5,414.9c-2.5-0.6-4.5-1-7-0.3c-1,0.2-1.9,0.5-2.8,1c-8.4,4-16.8,8-25.3,11.9
					c-27.5,10.8-57.3,16.3-86.9,16c-52.2-0.5-104.1-18.8-143.8-52.9c-27.2-23.4-48.4-54.3-58.8-88.7c-7.7-25.3-9.5-52.2-5.4-78.3
					c3.6-22.5,11.6-44.2,23.2-63.8c6.6-11.2,14.4-21.6,23.1-31.3c8.9-9.8,18.7-18.4,29-26.6c-0.3,0.2-0.7,0.5-1,0.7
					c3-2.2,6-4.4,9.1-6.6c-0.3,0.2-0.7,0.5-1,0.7c3.1-2.1,6.3-4.1,9.4-6.2c-0.4,0.2-0.7,0.4-1.1,0.7c3.2-1.9,6.5-3.9,9.7-5.8
					c-0.4,0.2-0.7,0.4-1.1,0.6c9-4.9,17.9-9.4,27.4-13.2c9.5-3.8,19.5-7.2,29.5-9.6c19.2-4.7,38.6-7.1,58.4-7.1
					c19.7,0,39.6,2.3,58.7,7.5c10,2.7,19.9,5.9,29.5,9.9c9.4,4,18.3,8.6,27.2,13.6c-0.5-0.3-1-0.6-1.4-0.9c3.3,2.1,6.6,4.1,10,6.2
					c-0.5-0.3-0.9-0.6-1.4-0.9c3.2,2.2,6.4,4.4,9.6,6.5c-0.4-0.3-0.9-0.6-1.3-0.9c9.3,6.9,18.1,14.1,26.4,22.3
					c8,8,15.4,16.6,22,25.9c8.5,11.5,14.4,24.3,17.7,38.5c7.6,12.5,12.2,25.9,14,40.1c1.4,9.9,1.9,19.8,1.8,29.8
					c-0.3,25.7-6.8,51.4-18.1,74.5c-4.9,10-10.8,19.6-17.4,28.6c-5.5,6.5-11,13.1-16.4,19.7c-0.5,0.8-0.9,1.6-1.1,2.5
					c-0.6,1.7-0.9,4-0.7,5.8c0.2,2.1,0.9,3.8,1.7,5.7c3,7.5,5.4,15.3,7.7,23.1c3.9,13.1,7.9,26.2,11.4,39.4c1.1-1.1,2.2-2.3,3.3-3.4
					c-1.7-2-2.7-2.1-5.7-3.6c1,0.6,2,1.3,3,1.9c-0.4-2-1.3-3.5-2.8-4.7c-1.2-1.3-2.6-2.3-4.3-2.9c-2.3-1.3-4.5-2.5-6.8-3.8
					c-7.3-3.9-15-7-22.6-10.2c-6.1-2.5-12.3-5-18.4-7.4c-2.9-1.2-6.1-2.1-8.9-3.6c-0.8-0.5-2.5-0.2-3,0.7c-0.4,0.7,0,3.3,0.8,3.6
					c2.4,0.8,4.7,1.8,7,2.6c8,3.1,16,6.2,24,9.4c6.9,2.8,13.8,5.7,20.5,9c2.5,1.2,5.3,2.1,7.6,3.7c0.6,0.5,1.2,1.1,1.8,1.6
					c1.5,1,3.2,1.7,5.1,2c-1.1-0.7-2.2-1.3-3.3-2c1,2.4,2.1,4.6,2.8,7.1c0.3,1.3,1.6,1.7,2.8,1.2c1.3-0.6,1.1-2.6,0.8-3.7
					c-1.3-5.1-2.9-10.2-4.3-15.3c-3-10.5-6-20.9-9.3-31.3c-1.8-5.6-3.6-11.3-6-16.7c-0.7-1.5-1.1-2.8-1-4.4c0.2-0.6,0.4-1.2,0.5-1.8
					c0.2-1.5,0.9-2.7,2-3.7c2.5-3,5.4-5.8,7.9-8.9c4.7-5.9,9.3-11.9,13.5-18.2c4.2-6.3,7.9-13,11.3-19.8c3.4-6.6,6.3-13.8,8.7-20.8
					c2.4-7,4.6-14.4,6-21.7c1.5-7.4,2.7-14.9,3.3-22.4c0.9-12.3,0.8-24.6-0.6-36.8c-1.3-11.5-3.6-23.1-7.3-34.1
					c-3.3-9.9-7.3-19.4-11.9-28.8c-2.9-5.9-6.4-11.6-10-17.1c-3.5-5.5-7.5-11-11.7-16.1c-9.5-11.8-20.3-22.4-32-31.9
					c-35-28.2-78.1-45.3-122.7-49.7c-49-4.9-99.3,5.3-142,29.9c-19.2,11.1-36.9,24.9-51.9,41.3c-17.9,19.5-31.6,42.4-40.5,67.3
					c-8.4,23.6-11.4,49.3-9.3,74.2c2.2,26.4,10.2,51.9,23.1,74.9c9.7,17.2,21.8,32.6,36,46.3c20.8,20.1,45.5,35.4,72.3,46.2
					c14.8,6,30.5,10.2,46.2,12.9c16.9,2.9,34.3,4.3,51.4,3.3c17-0.9,33.8-3.6,50.3-7.9c8.4-2.2,16.8-5.2,24.9-8.4
					c3.9-1.7,7.9-3.4,11.8-5c6.4-4.7,13.4-6.9,21.1-6.6c1.1,0.3,2.4,0.3,2.8-1C376.6,417.2,376.7,415.2,375.5,414.9z"/>
				<path class="st1" d="M365.8,406.2c-2.3-0.5-4.3-0.8-6.6-0.2c-1,0.3-2.1,0.7-3.1,1c-4.7,3.1-9.6,5.9-14.7,8.3
					c0.3-0.1,0.6-0.3,0.9-0.4c-7.9,3.9-15.9,7.2-24.2,10c-8.1,2.8-16.4,5-24.8,6.8c-14.6,3-29.4,4.5-44.4,4.6
					c-13.2,0.1-26.3-0.9-39.3-3.1c-7-1.2-14-2.7-20.9-4.5c-6.8-1.8-13.4-3.9-20-6.3c0.4,0.2,0.8,0.3,1.2,0.5
					c-3.6-1.4-7.2-2.8-10.9-4.2c0.4,0.2,0.8,0.3,1.2,0.5c-12.4-5.5-24.4-11.5-35.8-18.9c-9.6-6.3-18.7-13.4-27.2-21.2
					c-8.3-7.6-16-15.8-22.9-24.8c-3.9-5-7.5-10.2-10.9-15.6c-3.4-5.4-6.4-10.9-9.2-16.6c0.3,0.5,0.5,1.1,0.8,1.6
					c-1.6-3.4-3.1-6.8-4.7-10.3c0.2,0.5,0.5,1.1,0.7,1.6c-3.6-8.9-6.8-17.8-9.2-27.1C37,269.3,35.9,250,37.4,231
					c3.1-40.6,22.2-79.8,49.9-109.4C114.9,92,151,71.2,190.1,60.7c22.2-6,45.5-8.8,68.6-8c21.2,0.8,42.5,3.9,62.8,10.4
					c22.5,7.1,44.2,17.3,63.4,31.1c15.8,11.5,30.3,24.8,42.3,40.2c28.2,35.9,42.6,82,38.8,127.5c-0.9,10.8-2.9,21.7-5.8,32.1
					c-2.8,10.8-7.3,20.9-13.4,30.3c-4.1,10.6-9.6,20.3-16.7,29.1c-4.7,6.1-9.7,11.9-15,17.4c-0.5,0.5-1,1.1-1.6,1.6
					c-1.2,1.5-1.4,4-1.5,5.8c0,2.1,0.7,4,1.4,5.9c0.4,1,1.2,1.5,1.7,2.5c0.9,2.2,1.6,4.5,2.1,6.8c0.3,1.1,0.7,2.1,1,3.2
					c1.2,3.7,2.3,7.5,3.4,11.3c2.6,8.7,5.1,17.3,7.6,26c1.4,4.9,3,9.8,4.1,14.9c0.2,0.9,1.4,2.4,2.4,2.3c1.1-0.1,1.7-1.2,1.3-2.2
					c-0.3-2.2-1.1-4.1-2.2-6c-0.4-0.6-0.8-1.1-1.2-1.7c-1.2-1.6-2.5-3.1-4-4.4c-2.3-1.9-5.1-3.6-7.6-5.3c-4.5-2.9-9.3-5.2-14-7.5
					c-13.6-6.6-27.7-12.1-41.7-17.8c0.4,0.2,0.8,0.4,1.2,0.5c-0.1-0.1-0.2-0.1-0.4-0.2c-0.7-0.6-1.4-0.7-2.2-0.3
					c-0.6,0.6-0.7,1.3-0.4,2.1c0.9,1.7,1.9,3.3,3.1,4.9c1.1,1.6,2.3,3,3.7,4.4c1.8,1.1,3.8,1.7,5.8,2.5c5.4,2.1,10.9,4.2,16.3,6.3
					c12.2,4.7,24.8,9,36.1,15.5c-0.8-0.8-1.7-1.6-2.5-2.4c2.6,3.2,4.9,6.4,7.2,9.8c0.3,0.4,1.3,0.3,1.6,0.1c0.6-0.4,0.5-1.3,0.5-1.9
					c-0.3-2.4-1-4.7-1.6-7c-1.2-4-2.3-8.1-3.5-12.1c-3-10.6-6.1-21.1-8.9-31.8c-0.9-3.3-1.5-6.6-2.1-10c-0.1-0.3-0.1-0.7-0.2-1
					c-0.6-2.3-0.5-4.5,0.3-6.8c0.2-1.3,0.5-2.6,0.7-3.9c0.5-0.6,0.9-1.1,1.4-1.7c2.5-3,5-5.9,7.5-8.9c2.3-3.1,4.6-6.1,6.9-9.2
					c4.3-6.1,8.4-12.6,11.9-19.1c5-9.5,9.5-19.4,12.8-29.6c2.8-8.7,4.9-17.5,6.4-26.6c2.1-12.4,2.7-24.9,2.3-37.5
					c-0.9-25.8-8-51.1-19.1-74.2c-20.3-41.9-55.5-75.5-97.1-96c-49-24.2-106.5-29.8-159.6-16.8c-49.8,12.2-95.9,41.2-126,83
					c-17.5,24.3-29.3,52.5-33.6,82.1c-5.4,37.7,1.5,76.6,18.9,110.4c13,25.2,31.6,47.4,53.7,65.1c20.5,16.5,44.1,29.5,69.1,37.8
					c13.7,4.5,27.7,8,42,10.1c15.3,2.2,30.8,2.8,46.2,2.1c19.1-0.8,38.2-4.4,56.4-9.9c6.1-1.8,12.1-3.9,18.1-6.2
					c10.5-4,15-6.7,25.1-11.9c-0.3,0.2-0.6,0.3-0.9,0.5c1.3-0.3,2.5-0.5,3.8-0.7c1.6-0.1,3.1,0.2,4.5,0.8c0.8,0.1,1.3-0.2,1.6-1
					c0.1-1.3-0.2-2.4-1-3.5c-1-2-2.2-3.9-3.5-5.7C367.9,407.4,367,406.6,365.8,406.2z"/>
				<path class="st1" d="M371.5,416.8c-1.8-0.6-3.6-0.7-5.5-0.5c-1,0.2-2.1,0.4-3.1,0.6c-3.2,1.1-6.1,2.6-9,4.4
					c-5.8,3.4-11.8,6.2-18,8.7c-11.8,4.8-24.3,8.9-36.8,11.4c-16.4,3.4-33.1,5.3-49.8,4.9c-20.1-0.5-39.9-3.2-59.2-8.7
					c-18.4-5.2-35.8-12.7-52.3-22.3c-17.1-9.9-32.9-22.6-46.5-37c-6.6-7-12.8-14.6-18.3-22.5c-7.2-10.4-13.8-21.8-18.7-33.4
					c-6.8-16.2-11.4-33-13.3-50.5c-1.1-9.8-1.4-19.5-0.9-29.3c0.2-4.9,0.6-9.8,1.3-14.6c0.8-6.5,2.1-12.8,4-19
					c1.3-6.3,3.1-12.5,5.5-18.5c1.2-2.9,2.4-5.9,3.6-8.8c3.7-8.8,8.4-17.1,13.4-25.2c5-8.1,10.9-15.9,17.2-23.1
					c6.3-7.3,13.3-14.3,20.7-20.6c7.5-6.4,15.4-12.5,23.8-17.7c9.1-4.9,18.2-9.9,27.3-14.8c6.3-2.8,12.6-5.4,19.1-7.6
					c18.5-6.3,37.5-10.3,57-11.9c41.3-3.4,83.4,4.1,120.7,22.2c18.2,8.8,35.5,20.1,50.5,33.7c6.1,5.5,11.9,11.4,17.4,17.6
					c3.3,3.6,6.4,7.4,9.4,11.3c3.9,5.2,7.6,10.5,11,16c-0.2-0.4-0.4-0.7-0.6-1.1c1.8,3.1,3.7,6.3,5.5,9.4c-0.2-0.4-0.4-0.7-0.6-1.1
					c1.7,3.2,3.4,6.4,5,9.7c-0.2-0.4-0.4-0.7-0.6-1.1c5.3,11.7,10.1,23.5,13.1,36c2.2,9.4,3.9,19,4.6,28.6
					c0.8,10.1,0.7,20.5-0.3,30.6c-0.7,7.2-1.8,14.4-3.4,21.5c-1.6,7-3.6,13.9-6,20.7c0.2-0.6,0.5-1.2,0.7-1.7
					c-1.5,3.9-3.1,7.8-4.6,11.8c0.2-0.6,0.5-1.1,0.7-1.7c-1.8,3.8-3.5,7.6-5.3,11.5c0.2-0.5,0.5-1.1,0.7-1.6
					c-3.5,6.5-6.9,12.9-11,19.1c-4.1,6.2-8.6,12.3-13.4,18c-3.1,3.7-6.7,6.9-9.5,10.8c-0.9,1.3-1.4,2.7-1.7,4.2
					c-0.4,2.4-0.4,4.7,0.2,7.1c0.7,3.2,2.2,6.3,3.2,9.5c6.3,19.6,11.8,39.5,17.4,59.3c-0.1-0.4-0.2-0.8-0.3-1.2
					c0,0.1,0.1,0.2,0.1,0.4c0.2,0.9,0.4,1.9,1.6,1.7c1.4-0.2,1.9-1.8,2.3-2.9c0.7-1.9,1.3-4,1.7-6c0.1-0.6,0.8-3.8-0.8-4
					c-1.2-0.4-2.3-1-3.3-1.9c-1.6-1.3-3.3-2.5-4.9-3.8c-2.3-1.1-4.5-2.3-6.8-3.4c-2.5-1.3-5-2.6-7.5-4c-8-4.1-16.4-7.4-24.6-10.8
					c-5.8-2.4-11.7-4.7-17.6-7c-0.9-0.4-1.9-0.7-2.8-1.1c-0.5-0.5-1-0.6-1.5-0.5c-0.7,0.2-1.2,1-1.5,1.6c-1,1.6-0.1,1.8,1.4,2.4
					c5.3,2.1,10.6,4.2,15.9,6.3c8.4,3.4,16.9,6.9,25.1,10.8c3.5,1.6,6.8,3.4,10.2,5.3c1.8,1.1,3.7,2,5.7,2.6c2.1,0.9,4.1,1.9,6.1,3
					c-0.4-0.4-0.8-0.7-1.1-1.1c2.7,4,2.6,8.2,2.6,12.7c1.9-3.1,3.9-6.3,5.8-9.4c-0.5-2.9-1.3-5.7-2.2-8.5
					c-2.3-7.9-4.5-15.8-6.8-23.6c-2.2-7.5-4.5-14.9-6.9-22.4c-1.2-3.8-3-7.6-3.7-11.5c0,0.3,0,0.7,0,1c-0.1-1.1,0-2.2,0.3-3.2
					c0.1-1.1,0.5-2.2,1.2-3.2c-0.3,0.4-0.6,0.8-0.8,1.2c5.5-6.6,11.3-13,16.4-20c6.7-9.2,12.7-19.1,17.6-29.3
					c8.3-17.4,14.3-36.1,16.7-55.3c2.6-20.9,2-42.2-2.4-62.9c-3.5-16.3-9.4-32.1-17.1-46.9c-17.1-32.9-43.8-59.9-75-79.6
					c-19.1-12-40.5-20.8-62.3-26.6c-23.1-6-47.1-8.6-70.9-7.6c-40.4,1.8-80.4,13.9-114.6,35.6c-33.1,21.1-60.5,50.9-77,86.6
					C38.2,209,32.7,247.8,39.5,285.1c7.1,39,27.2,74.9,55.5,102.5c35.3,34.4,82.5,55.7,131.4,61.2c26.8,3,54.2,1.3,80.4-5.2
					c14.4-3.5,28.4-8.5,41.7-15.1c3.5-1.7,9-5.3,12.6-6.8c0.9-0.6,2-1,3.1-1.1c1.7-1.1,3.5-1.3,5.3-0.5
					C370.5,420.2,373.1,417.1,371.5,416.8z"/>
				<path class="st1" d="M367.2,414.1c-1.8-0.6-3.6-0.8-5.5-0.5c-1.4,0.2-2.7,0.6-4,1c-1.1,0.5-2.1,0.9-3.1,1.4
					c-7.9,4.4-16,8.2-24.4,11.6c0.3-0.1,0.6-0.3,0.9-0.4c-6,2.5-12.2,4.6-18.5,6.4c-6.1,2-12.4,3.6-18.7,4.9
					c-10.4,2.1-20.9,3.6-31.5,4.3c-10,0.7-20,0.9-30,0.2c-10.8-0.8-21.4-2.4-32.1-4.4c0.5,0.1,1,0.2,1.6,0.3
					c-4-0.9-7.9-1.8-11.9-2.7c0.5,0.1,1,0.2,1.5,0.4c-10.1-2.8-20-5.8-29.7-9.8c-9.4-3.9-18.7-8.3-27.4-13.6
					c-12.9-9.7-25.8-19.3-38.7-29c-3.6-3.4-7.1-6.9-10.3-10.6c-5.5-6.1-10.6-12.4-15.4-19.1c-5.6-7.8-10.7-16.4-15-25.1
					c-4.3-8.6-8.1-17.8-10.9-27.1c-4.7-15.8-7.4-31.9-7.9-48.4c-0.3-9.9,0.4-20.1,1.9-29.9c1.4-9.5,3.7-19.2,6.8-28.4
					c5.2-15.2,12.1-29.5,20.8-43.1c5.1-8,11.1-15.5,17.3-22.7c4.2-4.9,8.8-9.5,13.6-13.7c4.6-4.6,9.5-8.9,14.7-12.8
					c14.5-11.1,30.1-20.4,46.9-27.6c39.2-17,82.6-23,125-17.3c19.1,2.5,38,7.3,55.8,14.7c9.4,3.9,18.7,8.3,27.5,13.4
					c2.9,1.7,5.7,3.5,8.6,5.2c8.6,5.3,16.4,11.6,23.5,18.9c8.1,6,15.4,12.8,21.7,20.5c2,2.5,4.1,5.1,6.1,7.6
					c5.9,7.5,11.4,15.9,15.9,24.3c8.5,15.7,14.8,32.3,18.4,49.8c3.8,18.2,4.7,37,2.7,55.6c-1.2,10.9-3.3,22.1-6.6,32.5
					c-1.2,3.5-2.3,7-3.5,10.4c-2.6,6.9-5.6,13.6-8.9,20.2c0.2-0.3,0.4-0.7,0.6-1c-2,3.6-4,7.2-6,10.8c0.2-0.3,0.4-0.7,0.6-1
					c-2.2,3.5-4.4,7-6.6,10.5c0.2-0.3,0.5-0.7,0.7-1c-2.4,3.4-4.9,6.8-7.3,10.2c0.2-0.3,0.5-0.7,0.7-1c-2.6,3.3-5.3,6.6-7.9,9.9
					c0.3-0.3,0.5-0.6,0.8-1c-2.8,3.2-5.6,6.3-8.5,9.4c-0.5,0.6-1.1,1.2-1.6,1.8c-1,1.6-1.4,3.7-1.4,5.5c0.1,1.9,0.5,5.1,1.7,6.5
					c1.2,1.4,2.1,2.6,2.9,4.3c-0.1-0.3-0.2-0.6-0.4-0.9c2,5.1,3.6,10.4,5.3,15.7c2.1,6.7,4.1,13.5,6.1,20.2c2.5,8.4,5,16.8,7.3,25.3
					c0.2,0.6,0.8,1.1,1.4,1.2c1.4,0.1,2.4-1.5,3.2-2.3c0.9-1,4.8-4.9,2.7-6.3c-1.8-1.3-3.2-3.1-5-4.4c-1.6-1.2-3.8-2.2-5.5-3
					c-6.6-3.2-13-6.6-19.7-9.6c-13.1-5.9-26.6-11-40-16.2c0.4,0.2,0.8,0.3,1.2,0.5c-0.4-0.2-0.8-0.3-1.2-0.5c-0.6-0.5-1.3-0.6-2-0.3
					c-0.6,0.3-0.9,0.8-1.1,1.5c-0.2,1.7,2.6,3.3,3.8,3.9c2.8,1.3,5.7,2.3,8.5,3.3c-0.4-0.1-0.8-0.3-1.2-0.4c10.3,4,20.5,8,30.7,12.2
					c5.7,2.4,11.4,5.1,16.8,8.1c1.8,1.1,3.6,2.2,5.2,3.5c2,2.4,2.7,5.1,2.1,7.9c2.6-1.9,5.2-3.8,7.8-5.7c-0.6-3.4-1.7-6.7-2.6-10.1
					c-2-6.9-3.9-13.8-5.9-20.6c-2-7.1-4.2-14.1-6.2-21.3c-1.2-4.2-2.5-8.3-3.5-12.6c0.1,0.3,0.1,0.6,0.2,1c-0.1-1-0.3-2-0.4-3
					c0,0.3,0.1,0.7,0.1,1c0.2-2.2,0.5-4.3,1.7-6.2c1.2-1.9,3.7-4.4,4.9-5.8c2.7-3.1,4.8-5.8,7.3-9.1c12.6-16.8,22.7-35.4,29.2-55.4
					c14-43.1,10.9-90.9-8.1-131.9c-8.9-19.3-21.2-36.9-35.8-52.3c-10.1-10.6-21.3-20.5-33.5-28.6c-15.7-10.5-32.3-19.3-49.9-25.8
					c-21.8-8.1-44.7-12.9-67.9-14.3c-42.4-2.7-85.7,5.5-123.8,24.7c-18,9-34.9,20.4-49.7,33.9c-14.7,13.4-27.3,28.8-37.6,45.8
					c-23.6,38.9-31,86.8-21.1,131.1c4.3,19.4,11.8,38,22,55.1c5.1,8.5,10.9,16.6,17.2,24.3c7.6,9.2,15.9,18,25.1,25.6
					c12.1,10.1,24.8,19,38.7,26.6c20.4,11,42.2,18.6,64.8,23.4c23.4,4.9,47.9,5.9,71.6,3.5c16.9-1.8,33.6-5.3,49.7-10.8
					c4-1.4,8.4-3,12.4-4.6c2.1-0.9,4.2-1.8,6.3-2.8c6.1-2.5,12-5.5,17.7-9.1c-0.3,0.1-0.6,0.3-0.9,0.4c0.9-0.3,1.7-0.6,2.6-0.8
					c-0.3,0.1-0.6,0.2-0.9,0.3c1-0.3,2.1-0.5,3.1-0.8c-0.3,0.1-0.6,0.1-0.9,0.2c1.6-0.2,3.1,0,4.5,0.6c1.3,0.3,2.3-1.4,2-2.4
					c-0.5-0.8-1.2-1.6-2-2.1C369,415,368.2,414.5,367.2,414.1z"/>
			</g>
		</g>
	</g>
</g>
</svg>
