<svg id="ai" xmlns="http://www.w3.org/2000/svg" width="1028.531" height="752.522" viewBox="0 0 1028.531 752.522">
  <ellipse id="Ellipse_1" data-name="Ellipse 1" cx="256" cy="43" rx="256" ry="43" transform="translate(256.256 663.435)" fill="#dee3f3" opacity="0.5"/>
  <g id="Gruppe_1" data-name="Gruppe 1" opacity="0.741">
    <path id="Pfad_1" data-name="Pfad 1" d="M536.5,332.707a11.15,11.15,0,0,0,.1,1.437,11.106,11.106,0,0,1-.1-1.437Z" transform="translate(-85.734 -73.739)" fill="#ff662b"/>
    <path id="Pfad_2" data-name="Pfad 2" d="M665.418,301.82c.019.128.044.255.059.385C665.462,302.075,665.438,301.948,665.418,301.82Z" transform="translate(-85.734 -73.739)" fill="#ff662b"/>
    <path id="Pfad_3" data-name="Pfad 3" d="M665.15,300.546c.037.133.072.268.1.4C665.222,300.813,665.187,300.68,665.15,300.546Z" transform="translate(-85.734 -73.739)" fill="#ff662b"/>
    <path id="Pfad_4" data-name="Pfad 4" d="M665.284,335.124c-.049.221-.106.438-.168.654C665.178,335.562,665.235,335.345,665.284,335.124Z" transform="translate(-85.734 -73.739)" fill="#ff662b"/>
    <path id="Pfad_5" data-name="Pfad 5" d="M665.464,334.069c-.029.235-.063.467-.106.7C665.4,334.536,665.435,334.3,665.464,334.069Z" transform="translate(-85.734 -73.739)" fill="#ff662b"/>
    <path id="Pfad_6" data-name="Pfad 6" d="M542.464,342.523a11.128,11.128,0,0,1-2.368-1.666,11.094,11.094,0,0,0,2.368,1.666Z" transform="translate(-85.734 -73.739)" fill="#ff662b"/>
    <path id="Pfad_7" data-name="Pfad 7" d="M540.009,340.779a11.149,11.149,0,0,1-.945-1A11.1,11.1,0,0,0,540.009,340.779Z" transform="translate(-85.734 -73.739)" fill="#ff662b"/>
    <path id="Pfad_8" data-name="Pfad 8" d="M730.248,552.174a10.97,10.97,0,0,0-.471-1.286,11,11,0,0,1,.471,1.286Z" transform="translate(-85.734 -73.739)" fill="#ff662b"/>
    <path id="Pfad_9" data-name="Pfad 9" d="M724.741,545.507a11.116,11.116,0,0,1,1.262.769,11.054,11.054,0,0,0-1.262-.77Z" transform="translate(-85.734 -73.739)" fill="#ff662b"/>
    <path id="Pfad_10" data-name="Pfad 10" d="M727.219,547.272a11.127,11.127,0,0,1,1.767,2.139,11.116,11.116,0,0,0-1.767-2.139Z" transform="translate(-85.734 -73.739)" fill="#ff662b"/>
    <path id="Pfad_11" data-name="Pfad 11" d="M726.041,546.3a11.2,11.2,0,0,1,1.05.852A11.115,11.115,0,0,0,726.041,546.3Z" transform="translate(-85.734 -73.739)" fill="#ff662b"/>
    <path id="Pfad_12" data-name="Pfad 12" d="M729.682,550.69a11.018,11.018,0,0,0-.555-1.045,10.981,10.981,0,0,1,.555,1.045Z" transform="translate(-85.734 -73.739)" fill="#ff662b"/>
    <path id="Pfad_13" data-name="Pfad 13" d="M730.553,553.54a11.017,11.017,0,0,0-.235-1.095A11,11,0,0,1,730.553,553.54Z" transform="translate(-85.734 -73.739)" fill="#ff662b"/>
    <path id="Pfad_14" data-name="Pfad 14" d="M1064.2,492.883h-63.653a11.056,11.056,0,0,0,4.762-9.093V454.567a11.074,11.074,0,0,0-11.074-11.074H920.969a11.076,11.076,0,0,0,7.708-10.55V403.721a11.056,11.056,0,0,0-4.762-9.093h70.319a11.074,11.074,0,0,0,11.074-11.074V354.331a11.074,11.074,0,0,0-11.074-11.074H915.957a11.076,11.076,0,0,0,7.708-10.55V303.484a11.056,11.056,0,0,0-4.762-9.093h75.331a11.074,11.074,0,0,0,11.074-11.074V254.095a11.074,11.074,0,0,0-11.074-11.074H954.8a11.076,11.076,0,0,0,7.708-10.55V203.248a11.074,11.074,0,0,0-11.075-11.074H844.527a11.074,11.074,0,0,0-11.074,11.075,11.074,11.074,0,0,0-11.075-11.075H715.473a11.066,11.066,0,0,0-10.035,6.412,11.1,11.1,0,0,1,.214,2.156v29.222a11.012,11.012,0,0,1-1.036,4.654,11.053,11.053,0,0,0,3.853,6.42h27.456a11.026,11.026,0,0,1,7.013,2.506h11.97a11.077,11.077,0,0,0-7.708,10.55,11.1,11.1,0,0,0-.207-2.1c0,.039.006.077.006.117v29.222a11.057,11.057,0,0,1-.361,2.762,4.034,4.034,0,0,1,.475.611,11.137,11.137,0,0,0,.087-1.391,11.034,11.034,0,0,0,.185,1.914,3.266,3.266,0,0,1,.248,1.109,11.091,11.091,0,0,0,4.329,6.071h-9.525c.085-.059.161-.131.245-.192-.885.022-1.775-.075-2.661-.085a2.461,2.461,0,0,1-.92-.191,11.062,11.062,0,0,1-3.176.468l-65.605,1.981a11.057,11.057,0,0,0-4.762,9.093v29.222a11.076,11.076,0,0,0,7.706,10.549l62.661.525a11.069,11.069,0,0,1,3.25.487,12.108,12.108,0,0,1,2.07.364c.052-.011.1-.016.157-.027a11.006,11.006,0,0,0-1.91-.824h15.416a11.077,11.077,0,0,0-7.708,10.55,11.126,11.126,0,0,0-.169-1.915,2.461,2.461,0,0,1-.243.3,11.118,11.118,0,0,1,.211,2.142v29.222c0,1.356.2,1.03.2-.525a11.056,11.056,0,0,0,4.762,9.093l39.092,1.253a11.025,11.025,0,0,1,3.923.728h9.408a11.119,11.119,0,0,0-3.827,4.682,11,11,0,0,1,1.571,5.664V434.2a11.031,11.031,0,0,1-.929,4.434,11.1,11.1,0,0,0,6.132,4.863H797.059a11.012,11.012,0,0,1-6,1.778h-38.78a11.052,11.052,0,0,0-5.074,9.3c0-3.9-1.454,34.557-1.454,34.557,0,3.454,60.344,5.012,60.344,5.012a11.026,11.026,0,0,1,4.454.939,7.748,7.748,0,0,1,1.916-.165c-.02-.014-.038-.031-.058-.045h9.524a11.056,11.056,0,0,0-4.762,9.093,11.091,11.091,0,0,0-.122-1.579c-.053.12-.107.239-.166.353a11.078,11.078,0,0,1,.289,2.479v27.969a11.074,11.074,0,0,0,11.075,11.074H811.195a11.016,11.016,0,0,1-5.105,1.253h-69.41a11.067,11.067,0,0,0-5.969,9.821V584.55a11.074,11.074,0,0,0,11.074,11.074H848.69a11.074,11.074,0,0,0,11.075-11.075,11.074,11.074,0,0,0,11.075,11.075H977.744a11.074,11.074,0,0,0,11.074-11.075V555.328a11.074,11.074,0,0,0-11.075-11.074H1064.2a11.074,11.074,0,0,0,11.074-11.074V503.957a11.074,11.074,0,0,0-11.075-11.074ZM799.373,294.391a11.056,11.056,0,0,0-4.762,9.093,11.056,11.056,0,0,0-4.762-9.093ZM786.9,343.257a11.076,11.076,0,0,0,7.708-10.55,11.076,11.076,0,0,0,7.706,10.549ZM825.744,243.02a11.076,11.076,0,0,0,7.708-10.55,11.076,11.076,0,0,0,7.706,10.549Zm34.02,312.308a11.074,11.074,0,0,0-11.075-11.074h22.149a11.074,11.074,0,0,0-11.074,11.074Zm11.727-62.445a11.056,11.056,0,0,0,4.762-9.093,11.057,11.057,0,0,0,4.762,9.093Zm4.762-38.315a11.076,11.076,0,0,0-7.706-10.549h15.414A11.077,11.077,0,0,0,876.253,454.567Zm-4.762-61.921a11.056,11.056,0,0,0,4.762-9.093,11.057,11.057,0,0,0,4.762,9.093Zm4.762-38.316a11.076,11.076,0,0,0-7.706-10.549h15.414a11.077,11.077,0,0,0-7.708,10.55Zm-4.762-61.921a11.056,11.056,0,0,0,4.762-9.093,11.056,11.056,0,0,0,4.763,9.093Zm4.762-38.316a11.076,11.076,0,0,0-7.706-10.549h15.414a11.077,11.077,0,0,0-7.708,10.55ZM950.98,494.864a11.056,11.056,0,0,0-4.762,9.093,11.056,11.056,0,0,0-4.762-9.093Zm-15.837,49.39a11.074,11.074,0,0,0,11.074-11.075,11.075,11.075,0,0,0,11.075,11.074Z" transform="translate(-85.734 -73.739)" fill="#ff662b"/>
    <path id="Pfad_15" data-name="Pfad 15" d="M747.2,483.79" transform="translate(-85.734 -73.739)" fill="#ff662b"/>
    <path id="Pfad_16" data-name="Pfad 16" d="M730.71,555.328a11.142,11.142,0,0,0-.1-1.41,11.085,11.085,0,0,1,.1,1.41Z" transform="translate(-85.734 -73.739)" fill="#ff662b"/>
    <path id="Pfad_17" data-name="Pfad 17" d="M665.557,332.707c0,.351-.021.7-.053,1.039C665.536,333.4,665.557,333.058,665.557,332.707Z" transform="translate(-85.734 -73.739)" fill="#ff662b"/>
    <path id="Pfad_18" data-name="Pfad 18" d="M536.63,334.358a10.959,10.959,0,0,0,.283,1.317,10.958,10.958,0,0,1-.283-1.317Z" transform="translate(-85.734 -73.739)" fill="#ff662b"/>
    <path id="Pfad_19" data-name="Pfad 19" d="M412.7,399.654a2.521,2.521,0,0,1-.473-.561,2.7,2.7,0,0,1-.314-.924,22.361,22.361,0,0,0,.034,2.277,11,11,0,0,1,.514,3.275,11.005,11.005,0,0,1,.486-3.186,4.582,4.582,0,0,1-.234-.775C412.7,399.724,412.7,399.69,412.7,399.654Z" transform="translate(-85.734 -73.739)" fill="#ff662b"/>
    <path id="Pfad_20" data-name="Pfad 20" d="M564.27,192.174H457.364a11.074,11.074,0,0,0-11.074,11.074,11.074,11.074,0,0,0-11.074-11.074H328.31a11.074,11.074,0,0,0-11.074,11.074v29.222a11.076,11.076,0,0,0,7.706,10.549H242.057a11.074,11.074,0,0,0-11.074,11.074v29.222a11.056,11.056,0,0,0,4.762,9.093H160.414a11.074,11.074,0,0,0-11.074,11.074v29.222a11.074,11.074,0,0,0,11.074,11.074h78.277a11.077,11.077,0,0,0-7.708,10.55v29.222a11.056,11.056,0,0,0,4.762,9.093H165.426a11.074,11.074,0,0,0-11.074,11.074v29.222a11.074,11.074,0,0,0,11.074,11.074h73.265a11.077,11.077,0,0,0-7.708,10.55V483.79a11.074,11.074,0,0,0,11.074,11.074h63.652a11.056,11.056,0,0,0-4.762,9.093v29.222a11.074,11.074,0,0,0,11.074,11.074H225.568a11.074,11.074,0,0,0-11.074,11.074V584.55a11.074,11.074,0,0,0,11.074,11.074H332.473a11.074,11.074,0,0,0,11.074-11.074,11.074,11.074,0,0,0,11.074,11.074H461.527A11.074,11.074,0,0,0,472.6,584.55V555.328a11.066,11.066,0,0,0-5.968-9.821H443.582a11.016,11.016,0,0,1-5.105-1.253h-19.55A11.074,11.074,0,0,0,430,533.179c0,4.819,2.506-27.969,2.506-27.969a11.074,11.074,0,0,1,11.074-11.074l40.747-1.253a11.149,11.149,0,0,0,2.935-3.029,11,11,0,0,1-.879-4.286V456.345a11.017,11.017,0,0,1,1.832-6.094,11.107,11.107,0,0,0-4.2-4.98H426.04a11.012,11.012,0,0,1-6-1.778H404.752a11.076,11.076,0,0,0,7.708-10.55l-.393-29.009c0-1.307-.07-2.464-.122-3.488a11.093,11.093,0,0,0-4.248-5.818h9.524c-.072.05-.135.11-.206.162,5.4-.31,67.075-3.927,72.089-7.963a8.7,8.7,0,0,1-.074-2.318,11.11,11.11,0,0,1-.141-1.683V353.6c0-.363.02-.721.054-1.074a11.088,11.088,0,0,0-7.562-8.747h13.477a11.017,11.017,0,0,1,5.105-1.253h30.568a11.065,11.065,0,0,0,5.97-9.821V303.484a11.056,11.056,0,0,0-4.762-9.093l-31.776-1.981c-5.385,0-8.947-1.972-6.111,0h-9.525a11.054,11.054,0,0,0,4.758-9.028,11.119,11.119,0,0,1-.2-2.047V252.113c0-.024,0-.047,0-.071a11.086,11.086,0,0,0-7.511-8.5h11.568a11.026,11.026,0,0,1,7.014-2.506h71.309a11.04,11.04,0,0,0,4.07-8.568V203.248a11.074,11.074,0,0,0-11.074-11.074ZM283.156,294.391a11.056,11.056,0,0,0-4.762,9.093,11.057,11.057,0,0,0-4.762-9.093Zm-4.762,38.315a11.076,11.076,0,0,0,7.706,10.549H270.686A11.076,11.076,0,0,0,278.394,332.707Zm9.774,61.921a11.056,11.056,0,0,0-4.762,9.093,11.056,11.056,0,0,0-4.762-9.093ZM275.7,443.493a11.076,11.076,0,0,0,7.708-10.55,11.076,11.076,0,0,0,7.706,10.549Zm136.513-149.1a11.056,11.056,0,0,0-4.762,9.093,11.056,11.056,0,0,0-4.762-9.093ZM343.548,555.328a11.074,11.074,0,0,0-11.074-11.074h22.149a11.074,11.074,0,0,0-11.074,11.075Zm11.727-62.445a11.056,11.056,0,0,0,4.762-9.093,11.056,11.056,0,0,0,4.762,9.093Zm4.762-38.315a11.076,11.076,0,0,0-7.706-10.549h15.414a11.077,11.077,0,0,0-7.708,10.55Zm-4.762-61.921a11.056,11.056,0,0,0,4.762-9.093,11.056,11.056,0,0,0,4.762,9.093Zm4.762-38.316a11.076,11.076,0,0,0-7.706-10.549h15.414a11.077,11.077,0,0,0-7.708,10.55Zm-4.762-61.921a11.056,11.056,0,0,0,4.762-9.093,11.056,11.056,0,0,0,4.762,9.093Zm4.762-38.316a11.076,11.076,0,0,0-7.706-10.549h15.414a11.077,11.077,0,0,0-7.708,10.55Zm39.7,89.162a11.076,11.076,0,0,0,7.708-10.55,11.076,11.076,0,0,0,7.706,10.549ZM438.581,243.02a11.076,11.076,0,0,0,7.708-10.55A11.076,11.076,0,0,0,454,243.02Z" transform="translate(-85.734 -73.739)" fill="#ff662b"/>
    <path id="Pfad_21" data-name="Pfad 21" d="M540.143,295.293c.053-.048.1-.1.157-.143C540.247,295.2,540.2,295.245,540.143,295.293Z" transform="translate(-85.734 -73.739)" fill="#ff662b"/>
    <path id="Pfad_22" data-name="Pfad 22" d="M539.407,296.027c-.054.06-.109.118-.163.179C539.3,296.145,539.353,296.086,539.407,296.027Z" transform="translate(-85.734 -73.739)" fill="#ff662b"/>
    <path id="Pfad_23" data-name="Pfad 23" d="M538.478,297.18c.025-.036.054-.07.079-.106C538.531,297.11,538.5,297.144,538.478,297.18Z" transform="translate(-85.734 -73.739)" fill="#ff662b"/>
    <path id="Pfad_24" data-name="Pfad 24" d="M536.979,335.9a10.985,10.985,0,0,0,.463,1.266,10.984,10.984,0,0,1-.463-1.266Z" transform="translate(-85.734 -73.739)" fill="#ff662b"/>
    <path id="Pfad_25" data-name="Pfad 25" d="M538.16,338.53a11.074,11.074,0,0,0,.819,1.14A11.074,11.074,0,0,1,538.16,338.53Z" transform="translate(-85.734 -73.739)" fill="#ff662b"/>
    <path id="Pfad_26" data-name="Pfad 26" d="M537.5,337.283a11.011,11.011,0,0,0,.656,1.236,11,11,0,0,1-.656-1.236Z" transform="translate(-85.734 -73.739)" fill="#ff662b"/>
    <path id="Pfad_27" data-name="Pfad 27" d="M536.806,300.949c.032-.135.067-.27.1-.4C536.872,300.68,536.837,300.813,536.806,300.949Z" transform="translate(-85.734 -73.739)" fill="#ff662b"/>
    <path id="Pfad_28" data-name="Pfad 28" d="M537.18,299.7c.04-.11.077-.222.121-.33C537.257,299.479,537.22,299.591,537.18,299.7Z" transform="translate(-85.734 -73.739)" fill="#ff662b"/>
    <path id="Pfad_29" data-name="Pfad 29" d="M536.582,302.2c.015-.13.039-.256.059-.385C536.621,301.948,536.6,302.075,536.582,302.2Z" transform="translate(-85.734 -73.739)" fill="#ff662b"/>
    <path id="Pfad_30" data-name="Pfad 30" d="M537.79,298.309c.007-.013.012-.026.019-.039C537.8,298.282,537.8,298.3,537.79,298.309Z" transform="translate(-85.734 -73.739)" fill="#ff662b"/>
    <rect id="Rechteck_1" data-name="Rechteck 1" width="129.054" height="51.371" rx="8.839" transform="translate(361.809 169.806) rotate(180)" opacity="0.1"/>
    <rect id="Rechteck_2" data-name="Rechteck 2" width="129.054" height="51.371" rx="8.839" transform="translate(747.718 169.806) rotate(180)" opacity="0.1"/>
    <rect id="Rechteck_3" data-name="Rechteck 3" width="129.054" height="51.371" rx="8.839" transform="translate(919.373 219.924) rotate(180)" opacity="0.1"/>
    <rect id="Rechteck_4" data-name="Rechteck 4" width="129.054" height="51.371" rx="8.839" transform="translate(708.877 270.042) rotate(180)" opacity="0.1"/>
    <rect id="Rechteck_5" data-name="Rechteck 5" width="129.054" height="51.371" rx="8.839" transform="translate(919.373 321.413) rotate(180)" opacity="0.1"/>
    <rect id="Rechteck_6" data-name="Rechteck 6" width="129.054" height="51.371" rx="8.839" transform="translate(919.373 421.649) rotate(180)" opacity="0.1"/>
    <path id="Pfad_31" data-name="Pfad 31" d="M938.155,494.136H825.227a8.062,8.062,0,0,0-7.736,5.8,5.155,5.155,0,0,1-.091,1.359,5.711,5.711,0,0,1-.229.772c0,.043-.007.085-.007.129v35.245a8.063,8.063,0,0,0,8.063,8.063H938.155a8.063,8.063,0,0,0,8.063-8.063V502.2a8.063,8.063,0,0,0-8.063-8.063Z" transform="translate(-85.734 -73.739)" opacity="0.1"/>
    <rect id="Rechteck_7" data-name="Rechteck 7" width="129.054" height="51.371" rx="8.839" transform="translate(774.03 521.886) rotate(180)" opacity="0.1"/>
    <rect id="Rechteck_8" data-name="Rechteck 8" width="129.054" height="51.371" rx="8.839" transform="translate(403.156 219.924) rotate(180)" opacity="0.1"/>
    <rect id="Rechteck_9" data-name="Rechteck 9" width="129.054" height="51.371" rx="8.839" transform="translate(322.967 270.042) rotate(180)" opacity="0.1"/>
    <rect id="Rechteck_10" data-name="Rechteck 10" width="129.054" height="51.371" rx="8.839" transform="translate(274.102 321.413) rotate(180)" opacity="0.1"/>
    <rect id="Rechteck_11" data-name="Rechteck 11" width="129.054" height="51.371" rx="8.839" transform="translate(326.726 371.531) rotate(180)" opacity="0.1"/>
    <rect id="Rechteck_12" data-name="Rechteck 12" width="129.054" height="51.371" rx="8.839" transform="translate(274.102 421.649) rotate(180)" opacity="0.1"/>
    <rect id="Rechteck_13" data-name="Rechteck 13" width="129.054" height="51.371" rx="8.839" transform="translate(215.718 471.823) rotate(180)" fill="#ff662b"/>
    <rect id="Rechteck_14" data-name="Rechteck 14" width="129.054" height="51.371" rx="8.839" transform="translate(969.235 371.476) rotate(180)" fill="#ff662b"/>
    <rect id="Rechteck_15" data-name="Rechteck 15" width="129.054" height="51.371" rx="8.839" transform="translate(963.762 270.216) rotate(180)" fill="#ff662b"/>
    <rect id="Rechteck_16" data-name="Rechteck 16" width="129.054" height="51.371" rx="8.839" transform="translate(1028.531 521.084) rotate(180)" fill="#ff662b"/>
    <rect id="Rechteck_17" data-name="Rechteck 17" width="129.054" height="51.371" rx="8.839" transform="translate(129.054 521.997) rotate(180)" fill="#ff662b"/>
    <rect id="Rechteck_18" data-name="Rechteck 18" width="129.054" height="51.371" rx="8.839" transform="translate(146.387 420.737) rotate(180)" fill="#ff662b"/>
    <rect id="Rechteck_19" data-name="Rechteck 19" width="129.054" height="51.371" rx="8.839" transform="translate(146.387 321.302) rotate(180)" fill="#ff662b"/>
    <rect id="Rechteck_20" data-name="Rechteck 20" width="129.054" height="51.371" rx="8.839" transform="translate(150.948 220.042) rotate(180)" fill="#ff662b"/>
    <rect id="Rechteck_21" data-name="Rechteck 21" width="129.054" height="51.371" rx="8.839" transform="translate(150.948 220.042) rotate(180)" opacity="0.1"/>
    <rect id="Rechteck_22" data-name="Rechteck 22" width="129.054" height="51.371" rx="8.839" transform="translate(233.051 169.869) rotate(180)" fill="#ff662b"/>
    <rect id="Rechteck_23" data-name="Rechteck 23" width="129.054" height="51.371" rx="8.839" transform="translate(345.52 471.768) rotate(180)" opacity="0.1"/>
    <rect id="Rechteck_24" data-name="Rechteck 24" width="129.054" height="51.371" rx="8.839" transform="translate(257.813 521.886) rotate(180)" opacity="0.1"/>
  </g>
  <circle id="Ellipse_2" data-name="Ellipse 2" cx="28.92" cy="28.92" r="28.92" transform="translate(781.415 0)" fill="#ff662b" opacity="0.741"/>
  <path id="Pfad_32" data-name="Pfad 32" d="M337.673,155.093h-6.881a4.817,4.817,0,1,0,0-9.633H275.059a4.817,4.817,0,1,0,0,9.633h6.881a4.817,4.817,0,0,0,0,9.633h-9.633a4.817,4.817,0,1,0,0,9.633H328.04a4.817,4.817,0,1,0,0-9.633h9.633a4.817,4.817,0,0,0,0-9.633Z" transform="translate(-85.734 -73.739)" fill="#dee3f3" opacity="0.741"/>
  <path id="Pfad_33" data-name="Pfad 33" d="M892.4,99.184h-5.237a3.666,3.666,0,0,0,0-7.331H844.75a3.666,3.666,0,0,0,0,7.331h5.237a3.666,3.666,0,0,0,0,7.331h-7.331a3.666,3.666,0,0,0,0,7.331h42.417a3.666,3.666,0,0,0,0-7.331H892.4a3.666,3.666,0,0,0,0-7.331Z" transform="translate(-85.734 -73.739)" fill="#dee3f3" opacity="0.741"/>
  <path id="Pfad_34" data-name="Pfad 34" d="M469.673,87.093h-6.881a4.817,4.817,0,1,0,0-9.633H407.059a4.817,4.817,0,1,0,0,9.633h6.881a4.817,4.817,0,0,0,0,9.633h-9.633a4.817,4.817,0,1,0,0,9.633H460.04a4.817,4.817,0,1,0,0-9.633h9.633a4.817,4.817,0,0,0,0-9.633Z" transform="translate(-85.734 -73.739)" fill="#dee3f3" opacity="0.741"/>
  <rect id="Rechteck_25" data-name="Rechteck 25" width="232.009" height="107.599" rx="12.97" transform="translate(377.905 264.742)" fill="#ff662b"/>
  <rect id="Rechteck_26" data-name="Rechteck 26" width="195.022" height="2.017" transform="translate(396.399 355.826)" opacity="0.1"/>
  <rect id="Rechteck_27" data-name="Rechteck 27" width="195.022" height="73.974" transform="translate(396.399 281.554)" opacity="0.3"/>
  <circle id="Ellipse_3" data-name="Ellipse 3" cx="26.9" cy="26.9" r="26.9" transform="translate(414.892 293.185)" fill="#fff" opacity="0.796"/>
  <circle id="Ellipse_4" data-name="Ellipse 4" cx="26.9" cy="26.9" r="26.9" transform="translate(519.128 293.185)" fill="#fff" opacity="0.796"/>
  <rect id="Rechteck_28" data-name="Rechteck 28" width="40.347" height="23.543" transform="translate(473.734 372.337)" fill="#ff662b"/>
  <rect id="Rechteck_29" data-name="Rechteck 29" width="168.123" height="134.498" transform="translate(409.848 389.152)" fill="#ff662b"/>
  <rect id="Rechteck_30" data-name="Rechteck 30" width="174.848" height="16.812" transform="translate(406.486 550.55)" fill="#ff662b"/>
  <path id="Pfad_35" data-name="Pfad 35" d="M435.067,607.712v77.336h30.262V584.175H435.067Z" fill="#ff662b"/>
  <path id="Pfad_36" data-name="Pfad 36" d="M525.853,584.175V685.048h30.262V584.175Z" fill="#ff662b"/>
  <path id="Pfad_37" data-name="Pfad 37" d="M472.683,493.155v31.1a45.49,45.49,0,0,0-22.354,10.776,52.883,52.883,0,0,0-13.308,19.514c-3.89,9.425-5.781,19.892-6.553,29.788a170.318,170.318,0,0,0,1.86,39.961H398.7c-1.428-18.587-.973-34.535.88-48.228,2.076-15.438,5.921-28,10.791-38.225,9.741-20.432,23.6-31.517,35.77-37.538C460.6,493.155,472.683,493.155,472.683,493.155Z" transform="translate(-85.734 -73.739)" fill="#ff662b"/>
  <rect id="Rechteck_31" data-name="Rechteck 31" width="30.262" height="23.537" transform="translate(435.067 584.175)" opacity="0.3"/>
  <rect id="Rechteck_32" data-name="Rechteck 32" width="30.262" height="30.262" transform="translate(435.067 627.887)" opacity="0.3"/>
  <rect id="Rechteck_33" data-name="Rechteck 33" width="30.262" height="10.087" transform="translate(435.067 674.961)" opacity="0.3"/>
  <rect id="Rechteck_34" data-name="Rechteck 34" width="30.262" height="23.537" transform="translate(525.853 584.175)" opacity="0.3"/>
  <rect id="Rechteck_35" data-name="Rechteck 35" width="30.262" height="30.262" transform="translate(525.853 627.887)" opacity="0.3"/>
  <rect id="Rechteck_36" data-name="Rechteck 36" width="30.262" height="10.087" transform="translate(525.853 674.961)" opacity="0.3"/>
  <path id="Pfad_38" data-name="Pfad 38" d="M472.683,493.155v31.1a45.49,45.49,0,0,0-22.354,10.776L446.145,500.3C460.6,493.155,472.683,493.155,472.683,493.155Z" transform="translate(-85.734 -73.739)" opacity="0.3"/>
  <path id="Pfad_39" data-name="Pfad 39" d="M437.021,554.544c-3.89,9.425-5.782,19.892-6.553,29.788l-30.884-8.267c2.076-15.438,5.921-28,10.791-38.225Z" transform="translate(-85.734 -73.739)" opacity="0.3"/>
  <path id="Pfad_40" data-name="Pfad 40" d="M686.605,493.155v31.1a45.489,45.489,0,0,1,22.354,10.776,52.883,52.883,0,0,1,13.308,19.514c3.89,9.425,5.782,19.892,6.553,29.788a170.319,170.319,0,0,1-1.86,39.961h33.624c1.428-18.587.973-34.535-.88-48.228-2.076-15.438-5.921-28-10.791-38.225-9.741-20.432-23.6-31.517-35.77-37.538C698.685,493.155,686.605,493.155,686.605,493.155Z" transform="translate(-85.734 -73.739)" fill="#ff662b"/>
  <path id="Pfad_41" data-name="Pfad 41" d="M686.605,493.155v31.1a45.489,45.489,0,0,1,22.354,10.776l4.184-34.728C698.685,493.155,686.605,493.155,686.605,493.155Z" transform="translate(-85.734 -73.739)" opacity="0.3"/>
  <path id="Pfad_42" data-name="Pfad 42" d="M722.267,554.544c3.89,9.425,5.782,19.892,6.553,29.788l30.884-8.267c-2.076-15.438-5.921-28-10.791-38.225Z" transform="translate(-85.734 -73.739)" opacity="0.3"/>
  <rect id="Rechteck_37" data-name="Rechteck 37" width="40.347" height="2.787" transform="translate(473.734 372.337)" opacity="0.1"/>
  <path id="Pfad_43" data-name="Pfad 43" d="M666.693,486.856v56.31a11.733,11.733,0,0,1-3.126-7.982V494.83a11.713,11.713,0,0,1,3.126-7.974Z" transform="translate(-85.734 -73.739)" opacity="0.1"/>
  <path id="Pfad_44" data-name="Pfad 44" d="M496.18,490.569v42.154a11.721,11.721,0,0,1-3.134,7.132V483.436a11.721,11.721,0,0,1,3.134,7.132Z" transform="translate(-85.734 -73.739)" opacity="0.1"/>
  <rect id="Rechteck_38" data-name="Rechteck 38" width="151.308" height="1.992" transform="translate(418.257 523.653)" opacity="0.1"/>
  <rect id="Rechteck_39" data-name="Rechteck 39" width="73.971" height="1.544" transform="translate(414.892 567.366)" opacity="0.1"/>
  <rect id="Rechteck_40" data-name="Rechteck 40" width="73.971" height="1.544" transform="translate(495.594 567.366)" opacity="0.1"/>
  <rect id="Rechteck_41" data-name="Rechteck 41" width="11.579" height="99.575" transform="translate(423.143 165.166)" fill="#ff662b"/>
  <rect id="Rechteck_42" data-name="Rechteck 42" width="11.579" height="99.575" transform="translate(555.911 165.166)" fill="#ff662b"/>
  <circle id="Ellipse_5" data-name="Ellipse 5" cx="13.122" cy="13.122" r="13.122" transform="translate(415.424 152.816)" opacity="0.1"/>
  <circle id="Ellipse_6" data-name="Ellipse 6" cx="13.122" cy="13.122" r="13.122" transform="translate(415.424 152.044)" fill="#ff662b"/>
  <circle id="Ellipse_7" data-name="Ellipse 7" cx="13.122" cy="13.122" r="13.122" transform="translate(548.963 152.816)" opacity="0.1"/>
  <circle id="Ellipse_8" data-name="Ellipse 8" cx="13.122" cy="13.122" r="13.122" transform="translate(548.963 152.044)" fill="#ff662b"/>
  <path id="Pfad_45" data-name="Pfad 45" d="M237.257,543.952s38.4,75.378,7.111,116.622,2.844,153.6,2.844,153.6" transform="translate(-85.734 -73.739)" fill="none" stroke="#fc6681" stroke-miterlimit="10" stroke-width="2"/>
  <path id="Pfad_46" data-name="Pfad 46" d="M248.634,520.485c0,14.531-10.667,26.311-10.667,26.311S227.3,535.016,227.3,520.485s10.667-26.311,10.667-26.311S248.634,505.954,248.634,520.485Z" transform="translate(-85.734 -73.739)" fill="#fc6681"/>
  <path id="Pfad_47" data-name="Pfad 47" d="M257.168,543.952s-38.4,75.378-7.111,116.622-2.844,153.6-2.844,153.6" transform="translate(-85.734 -73.739)" fill="none" stroke="#ffd037" stroke-miterlimit="10" stroke-width="2"/>
  <path id="Pfad_48" data-name="Pfad 48" d="M245.79,520.485c0,14.531,10.667,26.311,10.667,26.311s10.667-11.78,10.667-26.311-10.667-26.311-10.667-26.311S245.79,505.954,245.79,520.485Z" transform="translate(-85.734 -73.739)" fill="#ffd037"/>
  <path id="Pfad_49" data-name="Pfad 49" d="M272.812,543.952s38.4,75.378,7.111,116.622,2.844,153.6,2.844,153.6" transform="translate(-85.734 -73.739)" fill="none" stroke="#fc6681" stroke-miterlimit="10" stroke-width="2"/>
  <path id="Pfad_50" data-name="Pfad 50" d="M284.19,520.485c0,14.531-10.667,26.311-10.667,26.311s-10.667-11.78-10.667-26.311,10.667-26.311,10.667-26.311S284.19,505.954,284.19,520.485Z" transform="translate(-85.734 -73.739)" fill="#fc6681"/>
  <path id="Pfad_51" data-name="Pfad 51" d="M278.21,580.88c-10.075,10.472-25.928,11.566-25.928,11.566s.48-15.884,10.555-26.356,25.928-11.566,25.928-11.566S288.285,570.408,278.21,580.88Z" transform="translate(-85.734 -73.739)" fill="#fc6681"/>
  <path id="Pfad_52" data-name="Pfad 52" d="M279.21,632.88c-10.075,10.472-25.928,11.566-25.928,11.566s.48-15.884,10.555-26.356,25.928-11.566,25.928-11.566S289.285,622.408,279.21,632.88Z" transform="translate(-85.734 -73.739)" fill="#fc6681"/>
  <path id="Pfad_53" data-name="Pfad 53" d="M224.578,661.492c9.527,10.973,9.195,26.861,9.195,26.861s-15.777-1.9-25.3-12.875-9.195-26.861-9.195-26.861S215.051,650.519,224.578,661.492Z" transform="translate(-85.734 -73.739)" fill="#fc6681"/>
  <path id="Pfad_54" data-name="Pfad 54" d="M233.416,550.594c12.113,8.027,16.039,23.426,16.039,23.426s-15.712,2.384-27.824-5.644-16.039-23.426-16.039-23.426S221.3,542.566,233.416,550.594Z" transform="translate(-85.734 -73.739)" fill="#fc6681"/>
  <path id="Pfad_55" data-name="Pfad 55" d="M292.723,543.952s-38.4,75.378-7.111,116.622-2.844,153.6-2.844,153.6" transform="translate(-85.734 -73.739)" fill="none" stroke="#ffd037" stroke-miterlimit="10" stroke-width="2"/>
  <path id="Pfad_56" data-name="Pfad 56" d="M281.345,520.485c0,14.531,10.667,26.311,10.667,26.311s10.667-11.78,10.667-26.311-10.667-26.311-10.667-26.311S281.345,505.954,281.345,520.485Z" transform="translate(-85.734 -73.739)" fill="#ffd037"/>
  <path id="Pfad_57" data-name="Pfad 57" d="M284.414,582c-10.2,10.35-10.87,26.228-10.87,26.228s15.866-.9,26.065-11.254,10.87-26.228,10.87-26.228S294.614,571.648,284.414,582Z" transform="translate(-85.734 -73.739)" fill="#ffd037"/>
  <path id="Pfad_58" data-name="Pfad 58" d="M304.414,654c-10.2,10.35-10.87,26.228-10.87,26.228s15.866-.9,26.065-11.254,10.87-26.228,10.87-26.228S314.614,643.648,304.414,654Z" transform="translate(-85.734 -73.739)" fill="#ffd037"/>
  <path id="Pfad_59" data-name="Pfad 59" d="M274.99,638.174s23.115-36.435,55.558-37.218" transform="translate(-85.734 -73.739)" fill="none" stroke="#ffd037" stroke-miterlimit="10" stroke-width="2"/>
  <path id="Pfad_60" data-name="Pfad 60" d="M256.99,616.174s-23.115-36.435-55.558-37.218" transform="translate(-85.734 -73.739)" fill="none" stroke="#fc6681" stroke-miterlimit="10" stroke-width="2"/>
  <path id="Pfad_61" data-name="Pfad 61" d="M253.99,668.174s23.115-36.435,55.558-37.218" transform="translate(-85.734 -73.739)" fill="none" stroke="#ffd037" stroke-miterlimit="10" stroke-width="2"/>
  <circle id="Ellipse_9" data-name="Ellipse 9" cx="6" cy="6" r="6" transform="translate(237.756 520.935)" fill="#ffd037"/>
  <circle id="Ellipse_10" data-name="Ellipse 10" cx="6" cy="6" r="6" transform="translate(110.256 499.435)" fill="#fc6681"/>
  <path id="Pfad_62" data-name="Pfad 62" d="M270.99,680.174s-23.115-36.435-55.558-37.218" transform="translate(-85.734 -73.739)" fill="none" stroke="#fc6681" stroke-miterlimit="10" stroke-width="2"/>
  <circle id="Ellipse_11" data-name="Ellipse 11" cx="6" cy="6" r="6" transform="translate(124.256 563.435)" fill="#fc6681"/>
  <circle id="Ellipse_12" data-name="Ellipse 12" cx="6" cy="6" r="6" transform="translate(218.256 551.435)" fill="#ffd037"/>
  <path id="Pfad_63" data-name="Pfad 63" d="M398.76,770.407s-55.7-11.141-70.557-25.995-81.7-40.849-89.125-22.281-100.266,81.7-37.135,92.839,148.542,14.854,167.109,7.427S398.76,770.407,398.76,770.407Z" transform="translate(-85.734 -73.739)" fill="#a8a8a8"/>
  <path id="Pfad_64" data-name="Pfad 64" d="M201.942,808.071c63.13,11.141,148.542,14.854,167.109,7.427,14.14-5.656,23.966-32.832,27.851-45.479,1.176.25,1.857.387,1.857.387s-11.141,44.562-29.708,51.99-103.979,3.714-167.109-7.427c-18.223-3.216-23.435-10.768-21.471-20.326C182.029,800.88,188.379,805.678,201.942,808.071Z" transform="translate(-85.734 -73.739)" opacity="0.2"/>
  <path id="Pfad_65" data-name="Pfad 65" d="M1000.384,557.26s13.347,17.454-6.16,43.8-35.592,48.6-29.089,65.023c0,0,29.432-48.938,53.387-49.623S1026.735,586.691,1000.384,557.26Z" transform="translate(-85.734 -73.739)" fill="#fc6681"/>
  <path id="Pfad_66" data-name="Pfad 66" d="M1000.384,557.26a21.622,21.622,0,0,1,2.727,5.474c23.373,27.462,35.825,53.089,13.357,53.731-20.928.6-46.034,38.021-52.046,47.472a20.262,20.262,0,0,0,.712,2.151s29.432-48.938,53.387-49.623S1026.735,586.691,1000.384,557.26Z" transform="translate(-85.734 -73.739)" opacity="0.1"/>
  <path id="Pfad_67" data-name="Pfad 67" d="M1025.2,579.5c0,6.143-.689,11.122-1.54,11.122s-1.54-4.98-1.54-11.122.861-3.251,1.711-3.251S1025.2,573.362,1025.2,579.5Z" transform="translate(-85.734 -73.739)" fill="#ffd037"/>
  <path id="Pfad_68" data-name="Pfad 68" d="M1033.709,586.838c-5.394,2.94-10.1,4.718-10.5,3.971s3.635-3.735,9.029-6.675,3.266-.8,3.674-.053S1039.1,583.9,1033.709,586.838Z" transform="translate(-85.734 -73.739)" fill="#ffd037"/>
  <path id="Pfad_69" data-name="Pfad 69" d="M929.885,557.26s-13.347,17.454,6.16,43.8,35.592,48.6,29.089,65.023c0,0-29.432-48.938-53.387-49.623S903.534,586.691,929.885,557.26Z" transform="translate(-85.734 -73.739)" fill="#fc6681"/>
  <path id="Pfad_70" data-name="Pfad 70" d="M929.885,557.26a21.616,21.616,0,0,0-2.727,5.474c-23.373,27.462-35.825,53.09-13.357,53.732,20.928.6,46.034,38.021,52.046,47.472a20.258,20.258,0,0,1-.712,2.151s-29.431-48.938-53.387-49.623S903.534,586.691,929.885,557.26Z" transform="translate(-85.734 -73.739)" opacity="0.1"/>
  <path id="Pfad_71" data-name="Pfad 71" d="M905.074,579.5c0,6.143.69,11.122,1.54,11.122s1.54-4.98,1.54-11.122-.861-3.251-1.711-3.251S905.074,573.362,905.074,579.5Z" transform="translate(-85.734 -73.739)" fill="#ffd037"/>
  <path id="Pfad_72" data-name="Pfad 72" d="M896.559,586.838c5.394,2.94,10.1,4.718,10.5,3.971s-3.635-3.735-9.029-6.675-3.267-.8-3.674-.053S891.166,583.9,896.559,586.838Z" transform="translate(-85.734 -73.739)" fill="#ffd037"/>
  <path id="Pfad_73" data-name="Pfad 73" d="M909.324,663.8s37.316-1.149,48.562-9.158,57.4-17.57,60.191-4.727,56.079,63.877,13.95,64.217-97.891-6.562-109.115-13.4S909.324,663.8,909.324,663.8Z" transform="translate(-85.734 -73.739)" fill="#a8a8a8"/>
  <path id="Pfad_74" data-name="Pfad 74" d="M1032.779,709.666c-42.13.34-97.891-6.562-109.115-13.4-8.548-5.207-11.954-23.891-13.094-32.511-.789.034-1.246.049-1.246.049s2.364,30.1,13.588,36.933,66.985,13.74,109.115,13.4c12.161-.1,16.362-4.425,16.131-10.833C1046.469,707.175,1041.831,709.593,1032.779,709.666Z" transform="translate(-85.734 -73.739)" opacity="0.2"/>
</svg>
