<svg id="undraw_team_chat_y27k" xmlns="http://www.w3.org/2000/svg" width="1057.977" height="682.624" viewBox="0 0 1057.977 682.624">
  <path id="Pfad_1" data-name="Pfad 1" d="M438.873,480.681c.894,2.083,1.84,4.189,2.811,6.258l-2.081.977c-.982-2.093-1.938-4.221-2.843-6.328Z" transform="translate(-71.012 -108.688)" fill="#e6e6e6"/>
  <path id="Pfad_2" data-name="Pfad 2" d="M810.1,314.028c1.313,2.8,2.574,5.649,3.749,8.475l-2.123.882c-1.759-4.231-3.7-8.494-5.756-12.619l2.06-1.024Q809.085,311.867,810.1,314.028ZM801.361,297.4l-1.985,1.162c-2.33-3.981-4.823-7.924-7.408-11.72l1.9-1.294C796.483,289.392,799,293.379,801.361,297.4Zm17.433,38.219c1.494,4.418,2.852,8.936,4.036,13.43l-2.223.585c-1.17-4.441-2.513-8.908-3.992-13.277Zm-33.213-61.383-1.808,1.422c-2.846-3.618-5.856-7.182-8.945-10.593l1.7-1.544C779.657,266.977,782.7,270.582,785.581,274.241Zm40.352,88.489c.873,4.571,1.6,9.234,2.152,13.859l-2.282.275c-.55-4.574-1.267-9.183-2.129-13.7ZM766.764,253.462l-1.593,1.658c-3.317-3.189-6.786-6.3-10.309-9.252l1.477-1.762C759.9,247.089,763.408,250.236,766.764,253.462Zm62.515,137.122c.235,4.662.31,9.385.222,14.04l-2.3-.043c.086-4.6.013-9.272-.22-13.881Zm-83.986-155.1-1.352,1.86c-3.725-2.7-7.589-5.314-11.485-7.755l1.221-1.95C737.617,230.11,741.524,232.75,745.292,235.486Zm83.465,183.155c-.407,4.647-.98,9.333-1.7,13.931l-2.271-.358c.715-4.545,1.282-9.179,1.685-13.774ZM721.549,220.61l-1.085,2.027c-4.059-2.173-8.244-4.232-12.44-6.121l.943-2.1C713.212,216.33,717.445,218.412,721.549,220.61ZM824.4,446.35c-1.035,4.538-2.241,9.1-3.584,13.563l-2.2-.663c1.328-4.412,2.52-8.924,3.544-13.412ZM695.991,209.1l-.8,2.156c-4.318-1.6-8.746-3.072-13.162-4.375l.651-2.206C687.148,205.992,691.625,207.481,695.991,209.1ZM816.318,473.2c-1.644,4.359-3.459,8.715-5.393,12.946l-2.091-.956c1.913-4.184,3.706-8.491,5.332-12.8ZM669.1,201.167l-.5,2.244c-4.49-1-9.079-1.854-13.637-2.545l.345-2.273C659.914,199.291,664.555,200.157,669.1,201.167ZM804.664,498.691c-2.22,4.093-4.61,8.16-7.1,12.087l-1.942-1.232c2.464-3.883,4.827-7.9,7.023-11.952ZM641.363,196.97l-.187,2.291c-4.594-.376-9.258-.6-13.865-.656l.03-2.3C632,196.365,636.716,196.588,641.363,196.97ZM789.653,522.349c-2.756,3.749-5.677,7.449-8.683,11l-1.754-1.486c2.971-3.509,5.86-7.167,8.585-10.874ZM613.3,196.607l.13,2.3c-4.6.259-9.257.682-13.831,1.258l-.287-2.281C603.942,197.3,608.648,196.868,613.3,196.607Zm158.254,347.11c-3.247,3.339-6.653,6.606-10.12,9.711l-1.534-1.714c3.428-3.069,6.794-6.3,10.006-9.6ZM585.467,200.112l.444,2.257c-4.519.889-9.062,1.948-13.5,3.145l-.6-2.22C576.3,202.083,580.9,201.013,585.467,200.112Zm165.2,362.3c-3.674,2.858-7.5,5.625-11.359,8.224l-1.284-1.908c3.82-2.57,7.6-5.306,11.23-8.131ZM558.4,207.406l.749,2.174c-4.346,1.5-8.7,3.167-12.947,4.962l-.895-2.118c4.292-1.815,8.7-3.5,13.093-5.018ZM727.415,578.064c-4.025,2.325-8.189,4.545-12.374,6.6l-1.012-2.065c4.139-2.03,8.256-4.226,12.236-6.525Zm-193.8-357.694c-4.116,2.076-8.208,4.316-12.162,6.66l-1.172-1.977c4-2.371,8.137-4.636,12.3-6.736ZM509.777,234.5c-3.8,2.618-7.543,5.4-11.138,8.26l-1.432-1.8c3.636-2.9,7.426-5.706,11.265-8.354ZM488.1,251.771c-3.391,3.107-6.717,6.371-9.884,9.7l-1.666-1.584c3.2-3.369,6.568-6.67,10-9.812Zm-19.079,20.065c-2.936,3.548-5.783,7.241-8.463,10.974l-1.868-1.341c2.71-3.776,5.59-7.51,8.559-11.1Zm-16.155,22.505c-2.425,3.92-4.742,7.969-6.887,12.032l-2.033-1.073c2.169-4.11,4.512-8.2,6.964-12.169Zm-12.938,24.509c-1.867,4.207-3.613,8.534-5.189,12.861l-2.16-.787c1.594-4.376,3.36-8.751,5.247-13.007ZM430.437,344.9c-1.279,4.43-2.421,8.956-3.393,13.451l-2.247-.486c.983-4.547,2.138-9.124,3.431-13.6ZM424.575,372c-.663,4.565-1.177,9.205-1.527,13.792l-2.293-.174c.354-4.639.873-9.332,1.545-13.949Zm-2.1,27.659c-.034,4.611.094,9.278.379,13.875l-2.295.142c-.288-4.648-.417-9.37-.384-14.034Zm1.714,27.693c.6,4.564,1.37,9.166,2.285,13.678l-2.253.457c-.925-4.564-1.7-9.218-2.311-13.834Zm5.507,27.165c1.223,4.434,2.616,8.886,4.142,13.234l-2.171.761c-1.543-4.4-2.952-8.9-4.188-13.383Z" transform="translate(-71.012 -108.688)" fill="#e6e6e6"/>
  <path id="Pfad_3" data-name="Pfad 3" d="M701.066,588.412l.868,2.129c-2.15.876-4.325,1.721-6.466,2.51l-.8-2.157C696.789,590.113,698.94,589.278,701.066,588.412Z" transform="translate(-71.012 -108.688)" fill="#e6e6e6"/>
  <path id="Pfad_4" data-name="Pfad 4" d="M306.3,184.566c-11.607-19.612-34.57-20.526-34.57-20.526S249.353,161.179,235,191.048c-13.379,27.841-31.845,54.722-2.973,61.239l5.215-16.232,3.23,17.44a112.965,112.965,0,0,0,12.353.211c30.92-1,60.366.292,59.418-10.8C310.981,228.154,317.467,203.437,306.3,184.566Z" transform="translate(-71.012 -108.688)" fill="#2f2e41"/>
  <path id="Pfad_5" data-name="Pfad 5" d="M142.477,505.665v31l-16-2v-26Z" fill="#ffb8b8"/>
  <path id="Pfad_6" data-name="Pfad 6" d="M253.477,525.665l6,24,14-5-10-23Z" fill="#ffb8b8"/>
  <path id="Pfad_7" data-name="Pfad 7" d="M145.477,173.665l2,55,13,4,4-53Z" fill="#ffb8b8"/>
  <path id="Pfad_8" data-name="Pfad 8" d="M220.488,333.353l-2,4-18,17s-13,11-8,18l13-6v-4l30-21Z" transform="translate(-71.012 -108.688)" fill="#ffb8b8"/>
  <path id="Pfad_9" data-name="Pfad 9" d="M222.477,240.665v23l-77-12,9-17Z" fill="#ffb8b8"/>
  <path id="Pfad_10" data-name="Pfad 10" d="M328.488,277.353s7,19,8,21,13,48,13,48l30,48s22,26,8,27-24-22-24-22l-30-39-28-74Z" transform="translate(-71.012 -108.688)" fill="#ffb8b8"/>
  <circle id="Ellipse_1" data-name="Ellipse 1" cx="29" cy="29" r="29" transform="translate(170.977 68.165)" fill="#ffb8b8"/>
  <path id="Pfad_11" data-name="Pfad 11" d="M262.488,225.353s0,21-11,24,9,25,9,25l40-20s-17-6-12-29Z" transform="translate(-71.012 -108.688)" fill="#ffb8b8"/>
  <path id="Pfad_12" data-name="Pfad 12" d="M255.988,246.853h0l-21.208,7a33.568,33.568,0,0,0-20.886,28.281,23.96,23.96,0,0,0,1.594,11.219c6,14,13,17,13,17s1,6,0,7-3,2-2,5,2,2,1,5-5,10-5,10,4,2,1,4-4,6-4,6,68,3,75,10l12-49s28-11,27-22-7-21-14-24S295.5,251.345,295.5,251.345s-2.239,7.437-22.714,5.646a22.355,22.355,0,0,1-16.8-10.138Z" transform="translate(-71.012 -108.688)" fill="#20242a"/>
  <path id="Pfad_13" data-name="Pfad 13" d="M295.488,365.353s-66-4-76-18l-28,27,3,17-1,222s-1,11,2,11,19,2,20,0-3-6,4-8,7,5,7-2-1-37-3-42,23-120,23-120,66,178,71,182,6,10,9,9,17-5,18-6-1-9,0-12,4,1,0-5-5-10-5-13-37-196-37-196,8-18-4-28Z" transform="translate(-71.012 -108.688)" fill="#2f2e41"/>
  <path id="Pfad_14" data-name="Pfad 14" d="M215.488,637.353s-10-10-14-10h-10s-9,19-12,20-23,25-5,25,25-6,25-6l16-8Z" transform="translate(-71.012 -108.688)" fill="#2f2e41"/>
  <path id="Pfad_15" data-name="Pfad 15" d="M328.83,651.722l-2.342,20.632s20,8,20,9,32,16,34,3-16-24-16-24-19.189-22.719-22.595-21.86-3.405,6.86-3.405,6.86Z" transform="translate(-71.012 -108.688)" fill="#2f2e41"/>
  <path id="Pfad_16" data-name="Pfad 16" d="M463.977,432.836h-280V308.084l140,62.93,140-62.93Z" fill="#20242a"/>
  <path id="Pfad_17" data-name="Pfad 17" d="M183.977,308.084h280L324.254,380.163Z" fill="#ff662b"/>
  <circle id="Ellipse_2" data-name="Ellipse 2" cx="11.644" cy="11.644" r="11.644" transform="translate(312.61 368.519)" fill="#e6e6e6"/>
  <circle id="Ellipse_3" data-name="Ellipse 3" cx="16.604" cy="16.604" r="16.604" transform="translate(186.924 38.848)" fill="#2f2e41"/>
  <path id="Pfad_18" data-name="Pfad 18" d="M256.188,159.77a16.6,16.6,0,0,1,14.854-16.51,16.6,16.6,0,1,0,0,33.021A16.6,16.6,0,0,1,256.188,159.77Z" transform="translate(-71.012 -108.688)" fill="#2f2e41"/>
  <path id="Pfad_19" data-name="Pfad 19" d="M230.156,73.988,207.469,62.1,176.14,66.965l-6.482,28.629,16.136-.621L190.3,84.456V94.8l7.446-.286,4.321-16.745,2.7,17.825,26.467-.54Z" fill="#2f2e41"/>
  <rect id="Rechteck_1" data-name="Rechteck 1" width="483" height="235" transform="translate(574.977 399.165)" fill="#20242a"/>
  <rect id="Rechteck_2" data-name="Rechteck 2" width="483" height="30" transform="translate(574.977 399.165)" fill="#ff662b"/>
  <circle id="Ellipse_4" data-name="Ellipse 4" cx="44" cy="44" r="44" transform="translate(600.977 472.165)" fill="#e6e6e6"/>
  <rect id="Rechteck_3" data-name="Rechteck 3" width="240" height="7" transform="translate(760.977 491.665)" fill="#e6e6e6"/>
  <rect id="Rechteck_4" data-name="Rechteck 4" width="240" height="7" transform="translate(760.977 512.665)" fill="#e6e6e6"/>
  <rect id="Rechteck_5" data-name="Rechteck 5" width="145" height="7" transform="translate(760.977 533.665)" fill="#e6e6e6"/>
  <path id="Pfad_20" data-name="Pfad 20" d="M960.02,299.284s-6.532,21.463-2.8,27.995-6.532,20.53-23.329,14-17.73-14-17.73-14,6.532-10.265,8.4-31.728Z" transform="translate(-71.012 -108.688)" fill="#a0616a"/>
  <path id="Pfad_21" data-name="Pfad 21" d="M1045.4,509.712s33.594,16.8,18.663,39.193c-8.679,13.018-25.239,38.332-37.587,57.249a190.927,190.927,0,0,0-23.516,51.271l-2.352,8.125-9.332,11.2-19.6-22.4s28.928-53.19,28.928-63.455,23.329-42.925,23.329-42.925l-23.329-14.931S1026.741,503.18,1045.4,509.712Z" transform="translate(-71.012 -108.688)" fill="#a0616a"/>
  <path id="Pfad_22" data-name="Pfad 22" d="M936.224,567.568s-.933,26.129-1.866,36.393c-.77,8.468,6.717,32.18,4.121,58.559a247.963,247.963,0,0,0,.565,51.278l3.712,33.87-27.995,2.8-9.332-76.519s-5.6-54.123-2.8-71.854l-.933-37.326S922.227,557.3,936.224,567.568Z" transform="translate(-71.012 -108.688)" fill="#a0616a"/>
  <path id="Pfad_23" data-name="Pfad 23" d="M986.148,458.854s65.321,41.992,66.255,55.057c0,0-37.327-3.733-38.26,28.928,0,0-22.4-8.4-27.995-10.265s-35.46-21.463-35.46-21.463-12.131,9.332-12.131,24.262.933,41.059,0,42.925-22.4-25.2-40.126-1.866L886.3,512.045s-3.733-39.193,3.733-41.992l52.257-19.6Z" transform="translate(-71.012 -108.688)" fill="#2f2e41"/>
  <circle id="Ellipse_5" data-name="Ellipse 5" cx="27.995" cy="27.995" r="27.995" transform="translate(847.482 146.27)" fill="#a0616a"/>
  <path id="Pfad_24" data-name="Pfad 24" d="M953.488,331.944s-31.577,8.34-35.851-7.495c0,0-38.8,7.495-45.334,32.69s15.864,85.851,15.864,87.717S869.5,457.921,877.9,463.52s15.864-.933,12.131,6.532-10.265,9.332-4.666,11.2,39.193-27.062,65.321-19.6,39.193,1.866,39.193,1.866L1001.6,362.261a23.39,23.39,0,0,0-8.316-20.759c-5.848-4.813-13.607-10.014-21.13-11.424-14.931-2.8-15.551-4.332-15.551-4.332Z" transform="translate(-71.012 -108.688)" fill="#d0cde1"/>
  <path id="Pfad_25" data-name="Pfad 25" d="M983.349,495.248s-8.4,47.591-19.6,41.059,2.8-41.059,2.8-41.059Z" transform="translate(-71.012 -108.688)" fill="#a0616a"/>
  <path id="Pfad_26" data-name="Pfad 26" d="M944.366,501.406s14.552,46.084,1.6,45.468-16.5-37.7-16.5-37.7Z" transform="translate(-71.012 -108.688)" fill="#a0616a"/>
  <path id="Pfad_27" data-name="Pfad 27" d="M995.947,663.684s6.532-7.465,10.265,2.8,14,23.329,14,23.329,22.4,25.2,6.532,26.129-38.26-22.4-38.26-22.4l-26.129-24.262s8.66-21.09,12.728-21.277S978.216,673.015,995.947,663.684Z" transform="translate(-71.012 -108.688)" fill="#2f2e41"/>
  <path id="Pfad_28" data-name="Pfad 28" d="M935.291,741.136s6.576,1.92,6.088-6.039c0,0,23.774,12.571,17.241,21.9l-.2.28A88.1,88.1,0,0,1,922,787.2c-7.176,3.177-13.561,5.292-14.7,3.395-2.8-4.666-2.8-14-.933-17.73s11.2-10.265,8.4-15.864.933-20.53,5.6-20.53S935.291,741.136,935.291,741.136Z" transform="translate(-71.012 -108.688)" fill="#2f2e41"/>
  <path id="Pfad_29" data-name="Pfad 29" d="M970.92,259.232s-9.006-19.512-26.267-15.009-27.017,11.257-27.767,18.011.375,16.886.375,16.886,1.876-13.884,13.884-10.882,30.769.75,30.769.75l3,27.017s3.377-4.878,7.129-1.876S982.927,265.236,970.92,259.232Z" transform="translate(-71.012 -108.688)" fill="#2f2e41"/>
  <path id="Pfad_30" data-name="Pfad 30" d="M888.166,356.207s22.4,60.656,20.53,68.121,0,8.4,2.8,10.265,10.265,21.463,10.265,21.463,4.666,11.2,8.4,14,3.733,10.265,3.733,10.265,9.332,9.332,7.465,11.2-1.866,4.666,1.866,7.465,7.465,6.532,5.6,7.465-14.931,11.2-18.663,10.265,1.866-4.666-2.8-6.532-7.465-4.666-5.6-5.6,7.465-.933,1.866-2.8-25.2-14-31.728-28.928S854.069,367.588,872.984,354.9C872.984,354.9,880.7,345.009,888.166,356.207Z" transform="translate(-71.012 -108.688)" fill="#d0cde1"/>
  <path id="Pfad_31" data-name="Pfad 31" d="M991.747,345.942l.379.158a23.5,23.5,0,0,1,13.96,16.9c2.038,9.753,4.043,23.86,2.458,37.069-2.8,23.329-4.666,33.594-8.4,41.059s-4.666,4.666-3.733,10.265,5.6.933.933,8.4-7.465,5.6-5.6,9.332,4.666,3.733.933,8.4-3.733,6.532-4.666,8.4-3.733,15.864-3.733,15.864-14.931-4.666-23.329-2.8c0,0,7.465-13.064,5.6-15.864s-4.666-3.733-1.866-6.532,7.465-1.866,2.8-4.666,3.733-31.728,3.733-31.728Z" transform="translate(-71.012 -108.688)" fill="#d0cde1"/>
  <path id="Pfad_32" data-name="Pfad 32" d="M739.988,647.128c0,18.127-10.777,24.457-24.069,24.457-.31,0-.617,0-.923-.012-.616-.013-1.226-.04-1.828-.084-12-.848-21.319-7.5-21.319-24.362,0-17.445,22.289-39.458,23.97-41.092l0,0c.064-.064.1-.1.1-.1S739.988,629,739.988,647.128Z" transform="translate(-71.012 -108.688)" fill="#20242a"/>
  <path id="Pfad_33" data-name="Pfad 33" d="M715.041,668.812l8.8-12.3-8.826,13.651L715,671.574c-.616-.013-1.226-.04-1.828-.084l.948-18.135-.007-.141.017-.027.089-1.713-8.848-13.686,8.875,12.4.022.363.718-13.7-7.575-14.141,7.667,11.733.746-28.407,0-.1v.1l-.124,22.4,7.54-8.881-7.571,10.81-.2,12.269,7.041-11.774-7.071,13.58-.11,6.82,10.221-16.389-10.26,18.77Z" transform="translate(-71.012 -108.688)" fill="#f2f2f2"/>
  <path id="Pfad_34" data-name="Pfad 34" d="M119.075,599.469c-.184-.3-4.53-7.558-6.037-22.626-1.382-13.825-.493-37.127,11.592-69.632,22.894-61.578-5.276-111.263-5.564-111.758l1.39-.806c.073.125,7.342,12.793,11.636,32.964a143.813,143.813,0,0,1-5.956,80.16c-22.855,61.473-5.864,90.574-5.69,90.861Z" transform="translate(-71.012 -108.688)" fill="#20242a"/>
  <circle id="Ellipse_6" data-name="Ellipse 6" cx="10.441" cy="10.441" r="10.441" transform="translate(28.67 262.268)" fill="#ff662b"/>
  <circle id="Ellipse_7" data-name="Ellipse 7" cx="10.441" cy="10.441" r="10.441" transform="translate(61.599 300.819)" fill="#20242a"/>
  <circle id="Ellipse_8" data-name="Ellipse 8" cx="10.441" cy="10.441" r="10.441" transform="translate(39.111 326.52)" fill="#ff662b"/>
  <circle id="Ellipse_9" data-name="Ellipse 9" cx="10.441" cy="10.441" r="10.441" transform="translate(66.418 348.205)" fill="#ff662b"/>
  <circle id="Ellipse_10" data-name="Ellipse 10" cx="10.441" cy="10.441" r="10.441" transform="translate(31.079 381.937)" fill="#20242a"/>
  <path id="Pfad_35" data-name="Pfad 35" d="M125.382,599.853s-10.441-25.7,20.882-44.976Z" transform="translate(-71.012 -108.688)" fill="#20242a"/>
  <path id="Pfad_36" data-name="Pfad 36" d="M112.541,599.387s-4.752-27.331-41.53-27.1Z" transform="translate(-71.012 -108.688)" fill="#20242a"/>
  <rect id="Rechteck_6" data-name="Rechteck 6" width="274" height="152.598" transform="translate(450.977)" fill="#20242a"/>
  <rect id="Rechteck_7" data-name="Rechteck 7" width="172.661" height="5.061" transform="translate(501.316 58.399)" fill="#fff"/>
  <rect id="Rechteck_8" data-name="Rechteck 8" width="172.661" height="5.061" transform="translate(501.316 78.643)" fill="#fff"/>
  <rect id="Rechteck_9" data-name="Rechteck 9" width="172.661" height="5.061" transform="translate(501.316 98.887)" fill="#fff"/>
  <rect id="Rechteck_10" data-name="Rechteck 10" width="274" height="17" transform="translate(450.977 0.165)" fill="#ff662b"/>
  <circle id="Ellipse_11" data-name="Ellipse 11" cx="6.192" cy="6.192" r="6.192" transform="translate(455.977 2.973)" fill="#e6e6e6"/>
  <circle id="Ellipse_12" data-name="Ellipse 12" cx="6.192" cy="6.192" r="6.192" transform="translate(472.784 2.973)" fill="#e6e6e6"/>
  <circle id="Ellipse_13" data-name="Ellipse 13" cx="6.192" cy="6.192" r="6.192" transform="translate(489.592 2.973)" fill="#e6e6e6"/>
  <circle id="Ellipse_14" data-name="Ellipse 14" cx="7" cy="7" r="7" transform="translate(582.977 407.165)" fill="#fff"/>
  <circle id="Ellipse_15" data-name="Ellipse 15" cx="7" cy="7" r="7" transform="translate(602.977 407.165)" fill="#fff"/>
  <circle id="Ellipse_16" data-name="Ellipse 16" cx="7" cy="7" r="7" transform="translate(622.977 407.165)" fill="#fff"/>
</svg>
